<?xml version="1.0" encoding="UTF-8" standalone="no"?>
<svg
   xmlns:dc="http://purl.org/dc/elements/1.1/"
   xmlns:cc="http://creativecommons.org/ns#"
   xmlns:rdf="http://www.w3.org/1999/02/22-rdf-syntax-ns#"
   xmlns:svg="http://www.w3.org/2000/svg"
   xmlns="http://www.w3.org/2000/svg"
   viewBox="0 0 666.66669 666.66669"
   height="666.66669"
   width="666.66669"
   xml:space="preserve"
   id="svg2"
   version="1.1"><metadata
     id="metadata8"><rdf:RDF><cc:Work
         rdf:about=""><dc:format>image/svg+xml</dc:format><dc:type
           rdf:resource="http://purl.org/dc/dcmitype/StillImage" /><dc:title></dc:title></cc:Work></rdf:RDF></metadata><defs
     id="defs6"><clipPath
       id="clipPath18"
       clipPathUnits="userSpaceOnUse"><path
         id="path16"
         d="M 0,500 H 500 V 0 H 0 Z" /></clipPath><clipPath
       id="clipPath30"
       clipPathUnits="userSpaceOnUse"><path
         id="path28"
         d="M 0,500 H 500 V 0 H 0 Z" /></clipPath><clipPath
       id="clipPath50"
       clipPathUnits="userSpaceOnUse"><path
         id="path48"
         d="M 0,500 H 500 V 0 H 0 Z" /></clipPath><clipPath
       id="clipPath78"
       clipPathUnits="userSpaceOnUse"><path
         id="path76"
         d="M 0,500 H 500 V 0 H 0 Z" /></clipPath><clipPath
       id="clipPath94"
       clipPathUnits="userSpaceOnUse"><path
         id="path92"
         d="M 95.8667,297.828 H 101.93 V 111.84 h -6.0633 z" /></clipPath><clipPath
       id="clipPath114"
       clipPathUnits="userSpaceOnUse"><path
         id="path112"
         d="m 95.8667,297.828 h 4.2403 v -42.819 h -4.2403 z" /></clipPath><clipPath
       id="clipPath142"
       clipPathUnits="userSpaceOnUse"><path
         id="path140"
         d="M 100.107,454.194 H 349.791 V 112.096 H 100.107 Z" /></clipPath><clipPath
       id="clipPath158"
       clipPathUnits="userSpaceOnUse"><path
         id="path156"
         d="M 100.107,454.194 H 349.791 V 112.096 H 100.107 Z" /></clipPath><clipPath
       id="clipPath194"
       clipPathUnits="userSpaceOnUse"><path
         id="path192"
         d="m 105.87,310.234 h 4.869 v -6.11 h -4.869 z" /></clipPath><clipPath
       id="clipPath210"
       clipPathUnits="userSpaceOnUse"><path
         id="path208"
         d="m 113.127,314.688 h 4.869 v -6.109 h -4.869 z" /></clipPath><clipPath
       id="clipPath226"
       clipPathUnits="userSpaceOnUse"><path
         id="path224"
         d="m 121.077,321.041 h 4.165 v -8.756 h -4.165 z" /></clipPath><clipPath
       id="clipPath242"
       clipPathUnits="userSpaceOnUse"><path
         id="path240"
         d="m 160.578,354.026 h 3.915 v -7.92 h -3.915 z" /></clipPath><clipPath
       id="clipPath266"
       clipPathUnits="userSpaceOnUse"><path
         id="path264"
         d="m 338.966,448.848 h 7.911 v -12.561 h -7.911 z" /></clipPath><clipPath
       id="clipPath270"
       clipPathUnits="userSpaceOnUse"><path
         id="path268"
         d="m 338.966,448.848 h 7.911 v -5.229 h -7.911 z" /></clipPath><clipPath
       id="clipPath274"
       clipPathUnits="userSpaceOnUse"><path
         id="path272"
         d="m 338.966,445.182 h 7.911 v -5.229 h -7.911 z" /></clipPath><clipPath
       id="clipPath278"
       clipPathUnits="userSpaceOnUse"><path
         id="path276"
         d="m 338.966,441.516 h 7.911 v -5.229 h -7.911 z" /></clipPath><clipPath
       id="clipPath334"
       clipPathUnits="userSpaceOnUse"><path
         id="path332"
         d="m 110.739,285.358 h 69.255 V 133.033 h -69.255 z" /></clipPath><clipPath
       id="clipPath350"
       clipPathUnits="userSpaceOnUse"><path
         id="path348"
         d="m 192.179,340.591 h 89.366 v -56.276 h -89.366 z" /></clipPath><clipPath
       id="clipPath366"
       clipPathUnits="userSpaceOnUse"><path
         id="path364"
         d="M 192.178,357.394 H 334.35 V 272.495 H 192.178 Z" /></clipPath><clipPath
       id="clipPath382"
       clipPathUnits="userSpaceOnUse"><path
         id="path380"
         d="M 192.178,347.977 H 334.35 V 263.079 H 192.178 Z" /></clipPath><clipPath
       id="clipPath398"
       clipPathUnits="userSpaceOnUse"><path
         id="path396"
         d="M 192.178,338.56 H 334.35 V 253.662 H 192.178 Z" /></clipPath><clipPath
       id="clipPath414"
       clipPathUnits="userSpaceOnUse"><path
         id="path412"
         d="M 192.178,329.144 H 334.35 V 244.245 H 192.178 Z" /></clipPath><clipPath
       id="clipPath430"
       clipPathUnits="userSpaceOnUse"><path
         id="path428"
         d="M 192.178,296.111 H 292.68 V 234.829 H 192.178 Z" /></clipPath><clipPath
       id="clipPath446"
       clipPathUnits="userSpaceOnUse"><path
         id="path444"
         d="M 192.178,300.894 H 334.35 V 215.995 H 192.178 Z" /></clipPath><clipPath
       id="clipPath462"
       clipPathUnits="userSpaceOnUse"><path
         id="path460"
         d="M 192.178,291.477 H 334.35 V 206.579 H 192.178 Z" /></clipPath><clipPath
       id="clipPath478"
       clipPathUnits="userSpaceOnUse"><path
         id="path476"
         d="M 192.178,282.06 H 334.35 V 197.162 H 192.178 Z" /></clipPath><clipPath
       id="clipPath494"
       clipPathUnits="userSpaceOnUse"><path
         id="path492"
         d="m 192.178,222.621 h 54.973 v -34.876 h -54.973 z" /></clipPath><clipPath
       id="clipPath510"
       clipPathUnits="userSpaceOnUse"><path
         id="path508"
         d="M 0,500 H 500 V 0 H 0 Z" /></clipPath><clipPath
       id="clipPath526"
       clipPathUnits="userSpaceOnUse"><path
         id="path524"
         d="m 370.565,291.382 h 16.463 v -33.314 h -16.463 z" /></clipPath><clipPath
       id="clipPath568"
       clipPathUnits="userSpaceOnUse"><path
         id="path566"
         d="m 389.186,283.656 h 4.526 v -9.984 h -4.526 z" /></clipPath><clipPath
       id="clipPath648"
       clipPathUnits="userSpaceOnUse"><path
         id="path646"
         d="m 421.176,304.764 h 8.812 v -14.085 h -8.812 z" /></clipPath><clipPath
       id="clipPath672"
       clipPathUnits="userSpaceOnUse"><path
         id="path670"
         d="m 408.367,304.242 h 20.695 v -35.559 h -20.695 z" /></clipPath><clipPath
       id="clipPath692"
       clipPathUnits="userSpaceOnUse"><path
         id="path690"
         d="M 0,500 H 500 V 0 H 0 Z" /></clipPath><clipPath
       id="clipPath724"
       clipPathUnits="userSpaceOnUse"><path
         id="path722"
         d="m 259.022,228.522 h 42.073 V 112.234 h -42.073 z" /></clipPath><clipPath
       id="clipPath740"
       clipPathUnits="userSpaceOnUse"><path
         id="path738"
         d="m 280.629,213.72 h 13.662 v -43.381 h -13.662 z" /></clipPath><clipPath
       id="clipPath760"
       clipPathUnits="userSpaceOnUse"><path
         id="path758"
         d="m 265.503,281.692 h 8.009 v -17.203 h -8.009 z" /></clipPath><clipPath
       id="clipPath780"
       clipPathUnits="userSpaceOnUse"><path
         id="path778"
         d="M 262.959,314.042 H 297.57 V 279.005 H 262.959 Z" /></clipPath><clipPath
       id="clipPath800"
       clipPathUnits="userSpaceOnUse"><path
         id="path798"
         d="m 262.343,311.542 h 5.668 v -5.817 h -5.668 z" /></clipPath><clipPath
       id="clipPath848"
       clipPathUnits="userSpaceOnUse"><path
         id="path846"
         d="m 274.024,292.585 h 1.753 v -3.597 h -1.753 z" /></clipPath><clipPath
       id="clipPath888"
       clipPathUnits="userSpaceOnUse"><path
         id="path886"
         d="M 293.478,256.072 H 328.82 V 217.417 H 293.478 Z" /></clipPath><clipPath
       id="clipPath904"
       clipPathUnits="userSpaceOnUse"><path
         id="path902"
         d="m 316.297,233.867 h 5.384 v -3.103 h -5.384 z" /></clipPath><clipPath
       id="clipPath920"
       clipPathUnits="userSpaceOnUse"><path
         id="path918"
         d="m 308.666,252.603 h 12.041 v -4.573 h -12.041 z" /></clipPath><clipPath
       id="clipPath952"
       clipPathUnits="userSpaceOnUse"><path
         id="path950"
         d="M 0,500 H 500 V 0 H 0 Z" /></clipPath><clipPath
       id="clipPath968"
       clipPathUnits="userSpaceOnUse"><path
         id="path966"
         d="m 166.545,239.21 h 25.979 v -29.424 h -25.979 z" /></clipPath><clipPath
       id="clipPath1010"
       clipPathUnits="userSpaceOnUse"><path
         id="path1008"
         d="m 161.429,231.083 h 4.526 v -9.984 h -4.526 z" /></clipPath><clipPath
       id="clipPath1034"
       clipPathUnits="userSpaceOnUse"><path
         id="path1032"
         d="m 126.541,237.068 h 18.771 v -33.624 h -18.771 z" /></clipPath></defs><g
     transform="matrix(1.3333333,0,0,-1.3333333,0,666.66667)"
     id="g10"><g
       id="g12"><g
         clip-path="url(#clipPath18)"
         id="g14"><g
           transform="translate(404.1182,242.1841)"
           id="g20"><path
             id="path22"
             style="fill:#f5f5f5;fill-opacity:1;fill-rule:nonzero;stroke:none"
             d="m 0,0 c 87.885,-50.741 87.885,-133.008 -0.001,-183.749 -87.887,-50.741 -230.377,-50.741 -318.263,-0.001 -87.885,50.741 -87.885,133.008 0.001,183.75 C -230.377,50.741 -87.886,50.741 0,0" /></g></g></g><g
       id="g24"><g
         clip-path="url(#clipPath30)"
         id="g26"><g
           transform="translate(312.7656,119.6528)"
           id="g32"><path
             id="path34"
             style="fill:#e1e1e1;fill-opacity:1;fill-rule:nonzero;stroke:none"
             d="m 0,0 c 16.159,-9.33 16.159,-24.456 0,-33.786 -16.16,-9.329 -42.359,-9.329 -58.519,0 -16.159,9.33 -16.158,24.456 0,33.786 16.161,9.329 42.36,9.329 58.519,0" /></g><g
           transform="translate(420.418,133.7988)"
           id="g36"><path
             id="path38"
             style="fill:#e1e1e1;fill-opacity:1;fill-rule:nonzero;stroke:none"
             d="m 0,0 c 16.159,-9.33 16.159,-24.456 0,-33.785 -16.16,-9.33 -42.359,-9.33 -58.519,0 -16.159,9.329 -16.159,24.455 0,33.785 16.161,9.33 42.36,9.33 58.519,0" /></g><g
           transform="translate(194.0796,83.8315)"
           id="g40"><path
             id="path42"
             style="fill:#e1e1e1;fill-opacity:1;fill-rule:nonzero;stroke:none"
             d="m 0,0 c 16.159,-9.33 16.159,-24.456 0,-33.785 -16.16,-9.33 -42.359,-9.33 -58.518,-0.001 -16.159,9.33 -16.159,24.456 0,33.786 16.16,9.33 42.359,9.33 58.518,0" /></g></g></g><g
       id="g44"><g
         clip-path="url(#clipPath50)"
         id="g46"><g
           transform="translate(96.9819,145.5005)"
           id="g52"><path
             id="path54"
             style="fill:#2b454e;fill-opacity:1;fill-rule:nonzero;stroke:none"
             d="m 0,0 c 0,0 -1.085,25.262 -11.671,39.316 -10.585,14.055 -23.572,16.082 -30.015,12.126 -4.694,-2.883 -4.062,-11.44 4.066,-17.033 8.129,-5.593 23.797,-19.812 26.245,-29.103 z" /></g><g
           transform="translate(90.0322,149.1816)"
           id="g56"><path
             id="path58"
             style="fill:#ffffff;fill-opacity:1;fill-rule:nonzero;stroke:none"
             d="m 0,0 c -0.356,0.022 -0.631,0.327 -0.614,0.685 1.088,22.919 -19.024,37.211 -24.47,39.783 -0.328,0.156 -0.467,0.546 -0.313,0.872 0.155,0.329 0.545,0.464 0.872,0.314 C -18.913,39.002 1.817,24.268 0.695,0.623 0.678,0.261 0.371,-0.019 0.01,-0.001 0.01,-0.001 0.002,0 0,0" /></g><g
           transform="translate(91.9517,153.4761)"
           id="g60"><path
             id="path62"
             style="fill:#375a64;fill-opacity:1;fill-rule:nonzero;stroke:none"
             d="m 0,0 c -1.471,0.211 -2.895,0.473 -3.863,1.54 -1.233,1.358 -1.128,3.423 -1.696,5.168 -0.929,2.858 -3.751,4.796 -6.693,5.411 -2.943,0.614 -6.001,0.11 -8.921,-0.607 -5.898,-1.448 -11.568,2.183 -17.48,1.754 -2.111,-0.154 -4.255,-0.655 -5.986,-1.873 -1.731,-1.219 -2.985,-3.25 -2.865,-5.364 0.1,-1.762 1.123,-3.37 2.435,-4.55 1.313,-1.18 2.905,-1.995 4.478,-2.797 1.729,-0.881 3.458,-1.763 5.186,-2.644 0.858,-0.437 1.73,-0.885 2.411,-1.564 1.283,-1.278 2.172,-3.751 1.813,-5.525 -0.401,-1.979 -2.024,-3.524 -2.506,-5.485 -0.633,-2.574 0.939,-5.322 3.196,-6.713 2.257,-1.39 5.036,-1.652 7.683,-1.5 2.646,0.153 5.266,0.683 7.916,0.73 1.786,0.032 3.646,-0.18 5.164,-1.123 1.851,-1.149 2.928,-3.215 3.627,-5.279 0.45,-1.327 0.797,-2.725 1.623,-3.856 0.856,-1.173 2.16,-1.952 3.523,-2.451 2.613,-0.956 5.65,-0.984 8.258,0.016 2.186,0.838 3.256,3.309 4.072,5.446 0.819,2.146 1.209,4.708 1.151,6.985 -0.151,5.95 -1.491,12.37 -4.068,17.74 C 7.227,-3.977 5.44,-1.418 2.738,-0.53 1.875,-0.247 0.928,-0.133 0,0" /></g><g
           transform="translate(97.6807,126.0107)"
           id="g64"><path
             id="path66"
             style="fill:#ffffff;fill-opacity:1;fill-rule:nonzero;stroke:none"
             d="m 0,0 c -0.242,0 -0.467,0.151 -0.551,0.391 -6.165,17.687 -35.363,33.082 -46.038,34.846 -0.319,0.053 -0.534,0.352 -0.482,0.671 0.053,0.319 0.361,0.535 0.671,0.481 C -35.521,34.592 -5.752,18.863 0.551,0.777 0.658,0.472 0.498,0.139 0.193,0.033 0.129,0.01 0.064,0 0,0" /></g><g
           transform="translate(71.4443,135.6953)"
           id="g68"><path
             id="path70"
             style="fill:#ffffff;fill-opacity:1;fill-rule:nonzero;stroke:none"
             d="m 0,0 c -0.175,0 -0.348,0.079 -0.463,0.228 -0.196,0.255 -0.148,0.623 0.107,0.819 0.266,0.204 6.609,4.994 16.217,5.21 h 0.013 c 0.316,0 0.577,-0.254 0.584,-0.571 C 16.464,5.364 16.209,5.096 15.886,5.089 6.658,4.883 0.417,0.169 0.355,0.121 0.25,0.04 0.124,0 0,0" /></g></g></g><g
       id="g74"
       clip-path="url(#clipPath78)"><g
         id="g80"
         transform="translate(97.9878,112.3208)"><path
           d="m 0,0 c -1.168,0.675 -2.116,2.388 -2.116,3.826 l -10e-4,208.398 c 0,1.438 1.01,3.187 2.256,3.906 l 245.17,141.54 c 1.246,0.719 3.203,0.755 4.372,0.08 1.168,-0.674 2.116,-2.387 2.116,-3.826 l 0.001,-208.397 c 0,-1.439 -1.009,-3.188 -2.256,-3.907 L 4.371,0.081 C 3.125,-0.639 1.168,-0.675 0,0"
           style="fill:#375a64;fill-opacity:1;fill-rule:nonzero;stroke:none"
           id="path82" /></g><g
         id="g84"
         transform="translate(101.9302,112.2061)"><path
           d="M 0,0 C -0.031,-0.01 -0.062,-0.031 -0.094,-0.031 -0.167,-0.073 -0.239,-0.094 -0.312,-0.115 -0.364,-0.135 -0.417,-0.156 -0.479,-0.167 -0.573,-0.198 -0.677,-0.229 -0.792,-0.24 -0.854,-0.26 -0.927,-0.281 -1,-0.281 -1.104,-0.302 -1.229,-0.323 -1.344,-0.333 -2.271,-0.437 -3.24,-0.292 -3.938,0.115 -5.115,0.792 -6.053,2.5 -6.053,3.938 l -0.01,181.684 4.24,-2.449 V 1.5 c 0,-1.021 0.511,-1.615 1.25,-1.615 0.104,0 0.198,0.011 0.302,0.042 0.021,0 0.032,0 0.052,0.011 C -0.146,-0.052 -0.073,-0.031 0,0"
           style="fill:#00dfbf;fill-opacity:1;fill-rule:nonzero;stroke:none"
           id="path86" /></g><g
         id="g88"><g
           id="g90" /><g
           id="g102"><g
             clip-path="url(#clipPath94)"
             id="g100"
             style="opacity:0.80999798"><g
               transform="translate(101.9302,112.2061)"
               id="g98"><path
                 d="M 0,0 C -0.031,-0.01 -0.062,-0.031 -0.094,-0.031 -0.167,-0.073 -0.239,-0.094 -0.312,-0.115 -0.364,-0.135 -0.417,-0.156 -0.479,-0.167 -0.573,-0.198 -0.677,-0.229 -0.792,-0.24 -0.854,-0.26 -0.927,-0.281 -1,-0.281 -1.104,-0.302 -1.229,-0.323 -1.344,-0.333 -2.271,-0.437 -3.24,-0.292 -3.938,0.115 -5.115,0.792 -6.053,2.5 -6.053,3.938 l -0.01,181.684 4.24,-2.449 V 1.5 c 0,-1.021 0.511,-1.615 1.25,-1.615 0.104,0 0.198,0.011 0.302,0.042 0.021,0 0.032,0 0.052,0.011 C -0.146,-0.052 -0.073,-0.031 0,0"
                 style="fill:#e1e1e1;fill-opacity:1;fill-rule:nonzero;stroke:none"
                 id="path96" /></g></g></g></g><g
         id="g104"
         transform="translate(100.1069,295.3794)"><path
           d="m 0,0 -4.24,2.448 v -40.35 L 0,-40.37 Z"
           style="fill:#00dfbf;fill-opacity:1;fill-rule:nonzero;stroke:none"
           id="path106" /></g><g
         id="g108"><g
           id="g110" /><g
           id="g122"><g
             clip-path="url(#clipPath114)"
             id="g120"
             style="opacity:0.14999402"><g
               transform="translate(100.1069,295.3794)"
               id="g118"><path
                 d="m 0,0 -4.24,2.448 v -40.35 L 0,-40.37 Z"
                 style="fill:#000000;fill-opacity:1;fill-rule:nonzero;stroke:none"
                 id="path116" /></g></g></g></g><g
         id="g124"
         transform="translate(100.7632,324.3218)"><path
           d="m 0,0 c -0.406,-0.698 -0.656,-1.5 -0.656,-2.219 v -26.723 l -4.24,2.448 V 0.219 c 0,0.093 0,0.177 0.01,0.271 0.021,0.187 0.052,0.375 0.094,0.562 0.114,0.469 0.313,0.959 0.563,1.396 z"
           style="fill:#1a2e35;fill-opacity:1;fill-rule:nonzero;stroke:none"
           id="path126" /></g><g
         id="g128"
         transform="translate(349.7803,466.2485)"><path
           d="m 0,0 v -12.054 l -179.713,-103.754 c -1.24,-0.718 -2.25,-0.135 -2.25,1.303 v 4.563 c 0,1.438 -1.011,2.021 -2.261,1.302 l -54.729,-31.599 c -1.25,-0.719 -2.26,-2.469 -2.26,-3.907 v -4.563 c 0,-1.438 -1.011,-3.188 -2.251,-3.907 l -6.209,-3.584 v 12.054 c 0,1.438 1.01,3.188 2.25,3.907 L -2.25,1.302 C -1.011,2.021 0,1.437 0,0"
           style="fill:#2b454e;fill-opacity:1;fill-rule:nonzero;stroke:none"
           id="path130" /></g><g
         id="g132"
         transform="translate(349.791,257.8521)"><path
           d="m 0,0 c 0,-1.438 -1.011,-3.188 -2.261,-3.907 l -245.173,-141.541 c -1.239,-0.719 -2.25,-0.135 -2.25,1.302 V 52.196 l 6.209,3.584 c 1.24,0.719 3.262,11.658 4.512,12.378 l 53.813,31.071 c 1.25,0.718 4.187,-7.359 5.426,-6.64 L -0.011,196.342 v -14.669 z"
           style="fill:#00dfbf;fill-opacity:1;fill-rule:nonzero;stroke:none"
           id="path134" /></g><g
         id="g136"><g
           id="g138" /><g
           id="g150"><g
             clip-path="url(#clipPath142)"
             id="g148"
             style="opacity:0.89999402"><g
               transform="translate(349.791,257.8521)"
               id="g146"><path
                 d="m 0,0 c 0,-1.438 -1.011,-3.188 -2.261,-3.907 l -245.173,-141.541 c -1.239,-0.719 -2.25,-0.135 -2.25,1.302 V 52.196 l 6.209,3.584 c 1.24,0.719 3.262,11.658 4.512,12.378 l 53.813,31.071 c 1.25,0.718 4.187,-7.359 5.426,-6.64 L -0.011,196.342 v -14.669 z"
                 style="fill:#ffffff;fill-opacity:1;fill-rule:nonzero;stroke:none"
                 id="path144" /></g></g></g></g><g
         id="g152"><g
           id="g154" /><g
           id="g166"><g
             clip-path="url(#clipPath158)"
             id="g164"
             style="opacity:0.39999402"><g
               transform="translate(349.7803,454.1943)"
               id="g162"><path
                 d="m 0,0 -179.713,-103.753 c -0.053,-0.031 -0.109,-0.046 -0.168,-0.046 -1.261,0 -3.82,6.731 -5.09,6.731 -0.059,0 -0.115,-0.015 -0.169,-0.046 l -53.813,-31.071 c -1.25,-0.719 -3.271,-11.658 -4.511,-12.377 l -6.209,-3.584 v -196.342 c 0,-1.02 0.508,-1.61 1.247,-1.61 0.302,0 0.643,0.099 1.003,0.308 L -2.25,-200.249 c 1.25,0.719 2.261,2.469 2.261,3.907 L 0,-14.669 Z m -1,-1.732 v -12.937 l 0.011,-181.673 c 0,-1.081 -0.823,-2.502 -1.761,-3.041 l -245.174,-141.542 c -0.269,-0.156 -0.441,-0.173 -0.502,-0.173 -0.235,0 -0.247,0.508 -0.247,0.61 v 195.765 l 5.711,3.296 c 0.886,0.514 1.446,2.262 2.707,6.762 0.567,2.023 1.418,5.061 1.876,5.657 l 53.367,30.813 c 0.462,-0.518 1.236,-1.88 1.725,-2.741 1.442,-2.538 2.249,-3.863 3.406,-3.863 0.235,0 0.466,0.063 0.668,0.18 L -1,-1.732"
                 style="fill:#00dfbf;fill-opacity:1;fill-rule:nonzero;stroke:none"
                 id="path160" /></g></g></g></g><g
         id="g168"
         transform="translate(100.1069,295.3794)"><path
           d="m 0,0 v -40.37 l 249.673,144.129 v 40.387 z"
           style="fill:#00dfbf;fill-opacity:1;fill-rule:nonzero;stroke:none"
           id="path170" /></g><g
         id="g172"
         transform="translate(349.7803,454.1943)"><path
           d="m 0,0 v -14.669 l -249.673,-144.146 v 14.669 l 4.637,2.686 c 1.24,0.719 1.657,1.812 2.25,3.907 l 1.573,5.461 c 0.496,1.897 1.01,3.188 2.26,3.907 l 53.813,31.071 c 1.25,0.719 2.226,0.798 3.177,-0.774 l 1.929,-3.501 c 0.708,-1.223 1.062,-1.942 2.302,-1.223 z"
           style="fill:#f0f0f0;fill-opacity:1;fill-rule:nonzero;stroke:none"
           id="path174" /></g><g
         id="g176"
         transform="translate(339.2051,458.6885)"><path
           d="M 0,0 C 1.567,0.905 2.838,0.171 2.838,-1.639 2.838,-3.449 1.567,-5.65 0,-6.555 -1.568,-7.46 -2.839,-6.726 -2.839,-4.916 -2.839,-3.106 -1.568,-0.905 0,0"
           style="fill:#00dfbf;fill-opacity:1;fill-rule:nonzero;stroke:none"
           id="path178" /></g><g
         id="g180"
         transform="translate(328.9854,452.7969)"><path
           d="M 0,0 C 1.568,0.905 2.839,0.171 2.839,-1.639 2.839,-3.449 1.568,-5.65 0,-6.555 -1.567,-7.46 -2.838,-6.727 -2.838,-4.917 -2.838,-3.106 -1.567,-0.905 0,0"
           style="fill:#00dfbf;fill-opacity:1;fill-rule:nonzero;stroke:none"
           id="path182" /></g><g
         id="g184"
         transform="translate(318.7666,446.9053)"><path
           d="M 0,0 C 1.567,0.905 2.839,0.171 2.839,-1.639 2.839,-3.449 1.567,-5.65 0,-6.555 -1.567,-7.46 -2.838,-6.727 -2.838,-4.917 -2.838,-3.106 -1.567,-0.905 0,0"
           style="fill:#00dfbf;fill-opacity:1;fill-rule:nonzero;stroke:none"
           id="path186" /></g><g
         id="g188"><g
           id="g190" /><g
           id="g202"><g
             clip-path="url(#clipPath194)"
             id="g200"
             style="opacity:0.5"><g
               transform="translate(110.4541,308.9907)"
               id="g198"><path
                 d="m 0,0 -3.541,-2.044 1.35,2.596 c 0.119,0.228 0.131,0.512 0.027,0.635 -0.104,0.124 -0.284,0.036 -0.402,-0.19 L -4.487,-2.699 C -4.49,-2.703 -4.49,-2.708 -4.493,-2.713 -4.514,-2.756 -4.529,-2.802 -4.544,-2.85 -4.549,-2.865 -4.556,-2.879 -4.56,-2.895 c -0.015,-0.063 -0.024,-0.127 -0.024,-0.19 0,-0.063 0.009,-0.117 0.024,-0.163 0.004,-0.01 0.011,-0.016 0.016,-0.026 0.015,-0.031 0.03,-0.059 0.051,-0.078 0.003,-0.002 0.003,-0.005 0.006,-0.007 l 1.921,-1.477 c 0.054,-0.042 0.121,-0.039 0.188,0 0.079,0.045 0.157,0.142 0.214,0.274 0.104,0.242 0.092,0.512 -0.027,0.603 L -3.541,-2.921 0,-0.877 c 0.158,0.091 0.285,0.361 0.285,0.603 C 0.285,-0.032 0.158,0.091 0,0"
                 style="fill:#375a64;fill-opacity:1;fill-rule:nonzero;stroke:none"
                 id="path196" /></g></g></g></g><g
         id="g204"><g
           id="g206" /><g
           id="g218"><g
             clip-path="url(#clipPath210)"
             id="g216"
             style="opacity:0.5"><g
               transform="translate(113.4121,310.6987)"
               id="g214"><path
                 d="M 0,0 3.541,2.044 2.191,3.082 C 2.072,3.173 2.06,3.443 2.164,3.686 2.268,3.929 2.448,4.049 2.566,3.959 L 4.487,2.482 C 4.489,2.48 4.49,2.476 4.492,2.474 4.514,2.456 4.529,2.428 4.544,2.397 4.548,2.387 4.556,2.381 4.56,2.37 4.575,2.325 4.584,2.271 4.584,2.208 4.584,2.145 4.575,2.081 4.56,2.017 4.556,2.002 4.548,1.988 4.544,1.972 4.529,1.925 4.514,1.878 4.492,1.836 4.49,1.832 4.489,1.826 4.487,1.822 L 2.566,-1.874 C 2.512,-1.978 2.445,-2.052 2.378,-2.09 2.299,-2.136 2.22,-2.131 2.164,-2.064 2.06,-1.941 2.072,-1.657 2.191,-1.43 L 3.541,1.167 0,-0.877 c -0.158,-0.091 -0.285,0.031 -0.285,0.274 0,0.242 0.127,0.512 0.285,0.603"
                 style="fill:#375a64;fill-opacity:1;fill-rule:nonzero;stroke:none"
                 id="path212" /></g></g></g></g><g
         id="g220"><g
           id="g222" /><g
           id="g234"><g
             clip-path="url(#clipPath226)"
             id="g232"
             style="opacity:0.5"><g
               transform="translate(125.0283,320.896)"
               id="g230"><path
                 d="m 0,0 c -0.022,0.213 -0.208,0.186 -0.302,-0.045 l -0.486,-1.186 c -0.826,0.089 -1.829,-0.718 -2.505,-2.151 -0.877,-1.857 -0.877,-4.054 0,-4.898 0.438,-0.422 1.014,-0.427 1.59,-0.094 0.576,0.332 1.152,1.002 1.59,1.931 0.112,0.235 0.112,0.513 0,0.62 -0.111,0.107 -0.291,0.003 -0.403,-0.233 -0.654,-1.384 -1.72,-2.002 -2.375,-1.371 -0.654,0.63 -0.654,2.271 0,3.657 0.466,0.986 1.137,1.57 1.722,1.606 l -0.366,-0.894 c -0.094,-0.232 -0.008,-0.448 0.141,-0.351 l 1.444,0.943 c 0.101,0.066 0.177,0.25 0.161,0.396 z"
                 style="fill:#375a64;fill-opacity:1;fill-rule:nonzero;stroke:none"
                 id="path228" /></g></g></g></g><g
         id="g236"><g
           id="g238" /><g
           id="g250"><g
             clip-path="url(#clipPath242)"
             id="g248"
             style="opacity:0.5"><g
               transform="translate(163.0879,350.3848)"
               id="g246"><path
                 d="m 0,0 1.291,2.732 c 0.152,0.324 0.152,0.705 0,0.851 C 1.138,3.73 0.891,3.587 0.738,3.264 l -1.291,-2.732 -1.29,1.242 c -0.153,0.146 -0.4,0.004 -0.553,-0.319 -0.152,-0.323 -0.152,-0.704 0,-0.851 l 1.291,-1.242 -1.291,-2.733 c -0.152,-0.323 -0.152,-0.704 0,-0.85 0.077,-0.074 0.176,-0.075 0.276,-0.017 0.1,0.058 0.2,0.174 0.277,0.336 l 1.29,2.733 1.291,-1.243 c 0.076,-0.073 0.177,-0.074 0.276,-0.017 0.1,0.058 0.2,0.175 0.277,0.336 0.152,0.323 0.152,0.704 0,0.85 z"
                 style="fill:#375a64;fill-opacity:1;fill-rule:nonzero;stroke:none"
                 id="path244" /></g></g></g></g><g
         id="g252"
         transform="translate(129.7275,317.5366)"><path
           d="m 0,0 v 4.564 c 0,1.439 1.01,3.188 2.255,3.907 l 202.85,117.055 c 1.247,0.719 2.256,0.136 2.256,-1.302 v -4.564 c -10e-4,-1.439 -1.01,-3.188 -2.256,-3.908 L 2.255,-1.303 C 1.01,-2.022 0,-1.439 0,0"
           style="fill:#ffffff;fill-opacity:1;fill-rule:nonzero;stroke:none"
           id="path254" /></g><g
         id="g256"
         transform="translate(331.0244,436.6655)"><path
           d="m 0,0 0.914,-0.66 c 0.15,-0.11 0.222,-0.305 0.194,-0.537 L 0.921,-2.756 1.91,-1.499 c 0.141,0.181 0.323,0.271 0.508,0.25 l 1.186,-0.147 c -0.019,0.02 0.053,0.156 0.042,0.24 L 3.419,0.472 C 3.396,0.638 3.436,0.829 3.524,0.998 L 4.482,2.794 3.386,2.374 C 3.152,2.285 2.92,2.378 2.816,2.602 L 2.323,3.65 C 2.321,3.645 2.319,3.639 2.317,3.633 L 1.726,1.69 C 1.669,1.507 1.562,1.345 1.429,1.243 L 0.104,0.222 C 0.042,0.173 0.003,0.061 0,0 m 0.739,-3.633 c -0.06,0 -0.117,0.012 -0.166,0.032 -0.161,0.067 -0.32,0.256 -0.281,0.585 l 0.226,1.89 c 0.001,0.009 0.002,0.014 0.003,0.016 l -0.915,0.66 c -0.126,0.092 -0.197,0.243 -0.2,0.428 -0.005,0.269 0.13,0.556 0.335,0.714 L 1.066,1.713 C 1.095,1.735 1.135,1.792 1.157,1.864 L 1.749,3.806 C 1.846,4.125 2.081,4.352 2.334,4.37 2.515,4.386 2.681,4.285 2.763,4.112 V 4.111 l 0.534,-1.135 1.2,0.461 C 4.681,3.506 4.869,3.462 4.991,3.324 5.158,3.136 5.165,2.812 5.008,2.518 L 4.05,0.719 C 4.015,0.653 4.003,0.587 4.008,0.553 L 4.234,-1.074 C 4.273,-1.361 4.134,-1.649 3.978,-1.808 3.845,-1.942 3.687,-2.006 3.531,-1.985 L 2.346,-1.839 1.193,-3.38 C 1.048,-3.566 0.882,-3.633 0.739,-3.633"
           style="fill:#e1e1e1;fill-opacity:1;fill-rule:nonzero;stroke:none"
           id="path258" /></g><g
         id="g260"><g
           id="g262" /><g
           id="g318"><g
             clip-path="url(#clipPath266)"
             id="g316"
             style="opacity:0.5"><g
               id="g290"><g
                 id="g280" /><g
                 id="g288"><g
                   clip-path="url(#clipPath270)"
                   id="g286"><g
                     transform="translate(339.749,443.6196)"
                     id="g284"><path
                       d="m 0,0 c -0.271,0 -0.533,0.14 -0.678,0.39 -0.216,0.374 -0.088,0.852 0.285,1.068 L 5.956,5.123 C 6.331,5.339 6.808,5.21 7.023,4.837 7.238,4.463 7.11,3.985 6.737,3.77 L 0.39,0.104 C 0.267,0.033 0.132,0 0,0"
                       style="fill:#375a64;fill-opacity:1;fill-rule:nonzero;stroke:none"
                       id="path282" /></g></g></g></g><g
               id="g302"><g
                 id="g292" /><g
                 id="g300"><g
                   clip-path="url(#clipPath274)"
                   id="g298"><g
                     transform="translate(339.749,439.9531)"
                     id="g296"><path
                       d="m 0,0 c -0.271,0 -0.533,0.14 -0.678,0.391 -0.216,0.374 -0.088,0.851 0.285,1.067 L 5.956,5.123 C 6.331,5.341 6.808,5.21 7.023,4.837 7.238,4.463 7.11,3.986 6.737,3.77 L 0.39,0.104 C 0.267,0.034 0.132,0 0,0"
                       style="fill:#375a64;fill-opacity:1;fill-rule:nonzero;stroke:none"
                       id="path294" /></g></g></g></g><g
               id="g314"><g
                 id="g304" /><g
                 id="g312"><g
                   clip-path="url(#clipPath278)"
                   id="g310"><g
                     transform="translate(339.749,436.2866)"
                     id="g308"><path
                       d="m 0,0 c -0.271,0 -0.533,0.14 -0.678,0.391 -0.216,0.374 -0.088,0.851 0.285,1.067 L 5.956,5.123 C 6.331,5.341 6.808,5.211 7.023,4.837 7.238,4.463 7.11,3.986 6.737,3.77 L 0.39,0.105 C 0.267,0.034 0.132,0 0,0"
                       style="fill:#375a64;fill-opacity:1;fill-rule:nonzero;stroke:none"
                       id="path306" /></g></g></g></g></g></g></g><g
         id="g320"
         transform="translate(100.1069,310.0483)"><path
           d="m 0,0 v -14.669 l -4.24,2.448 V 2.438 Z"
           style="fill:#e1e1e1;fill-opacity:1;fill-rule:nonzero;stroke:none"
           id="path322" /></g><text
         transform="matrix(0.6081645,0.35112471,0,-0.9363287,270.8406,364.333)"
         style="font-variant:normal;font-weight:500;font-stretch:normal;font-size:25.94890022px;font-family:'Rubik Medium';-inkscape-font-specification:Rubik-Medium;writing-mode:lr-tb;fill:#375a64;fill-opacity:1;fill-rule:nonzero;stroke:none"
         id="text326"><tspan
           x="0 18.268026 34.330395 49.769989 65.624771 77.016335 82.932686 98.78746"
           y="0"
           id="tspan324">About us</tspan></text>
<g
         id="g328"><g
           id="g330" /><g
           id="g342"><g
             clip-path="url(#clipPath334)"
             id="g340"
             style="opacity:0.10000598"><g
               transform="translate(110.939,245.4893)"
               id="g338"><path
                 d="M 0,0 69.055,39.869 V -72.702 L -0.2,-112.456 Z"
                 style="fill:#00dfbf;fill-opacity:1;fill-rule:nonzero;stroke:none"
                 id="path336" /></g></g></g></g><g
         id="g344"><g
           id="g346" /><g
           id="g358"><g
             clip-path="url(#clipPath350)"
             id="g356"
             style="opacity:0.14999402"><g
               transform="translate(195.2109,292.0698)"
               id="g354"><path
                 d="m 0,0 83.303,48.095 c 1.674,0.967 3.031,0.233 3.031,-1.639 0,-1.872 -1.354,-4.179 -3.022,-5.154 L -0.01,-7.334 c -1.669,-0.975 -3.022,-0.198 -3.022,1.735 v 0.349 c 0,1.933 1.358,4.284 3.032,5.25"
                 style="fill:#00dfbf;fill-opacity:1;fill-rule:nonzero;stroke:none"
                 id="path352" /></g></g></g></g><g
         id="g360"><g
           id="g362" /><g
           id="g374"><g
             clip-path="url(#clipPath366)"
             id="g372"
             style="opacity:0.10000598"><g
               transform="translate(194.3433,277.4985)"
               id="g370"><path
                 d="m 0,0 137.841,79.582 c 1.197,0.69 2.165,0.2 2.165,-1.095 0,-1.296 -0.969,-2.905 -2.165,-3.595 L 0,-4.69 C -1.196,-5.381 -2.165,-4.891 -2.165,-3.595 -2.165,-2.3 -1.195,-0.69 0,0"
                 style="fill:#00dfbf;fill-opacity:1;fill-rule:nonzero;stroke:none"
                 id="path368" /></g></g></g></g><g
         id="g376"><g
           id="g378" /><g
           id="g390"><g
             clip-path="url(#clipPath382)"
             id="g388"
             style="opacity:0.10000598"><g
               transform="translate(194.3433,268.082)"
               id="g386"><path
                 d="m 0,0 137.841,79.582 c 1.197,0.69 2.165,0.2 2.165,-1.095 0,-1.296 -0.969,-2.905 -2.165,-3.596 L 0,-4.69 C -1.196,-5.381 -2.165,-4.891 -2.165,-3.595 -2.165,-2.3 -1.195,-0.69 0,0"
                 style="fill:#00dfbf;fill-opacity:1;fill-rule:nonzero;stroke:none"
                 id="path384" /></g></g></g></g><g
         id="g392"><g
           id="g394" /><g
           id="g406"><g
             clip-path="url(#clipPath398)"
             id="g404"
             style="opacity:0.10000598"><g
               transform="translate(194.3433,258.665)"
               id="g402"><path
                 d="m 0,0 137.841,79.583 c 1.197,0.69 2.165,0.199 2.165,-1.096 0,-1.295 -0.969,-2.905 -2.165,-3.595 L 0,-4.69 c -1.196,-0.691 -2.165,-0.2 -2.165,1.095 0,1.295 0.97,2.905 2.165,3.595"
                 style="fill:#00dfbf;fill-opacity:1;fill-rule:nonzero;stroke:none"
                 id="path400" /></g></g></g></g><g
         id="g408"><g
           id="g410" /><g
           id="g422"><g
             clip-path="url(#clipPath414)"
             id="g420"
             style="opacity:0.10000598"><g
               transform="translate(194.3433,249.2485)"
               id="g418"><path
                 d="m 0,0 137.841,79.582 c 1.197,0.69 2.165,0.2 2.165,-1.095 0,-1.296 -0.969,-2.905 -2.165,-3.595 L 0,-4.69 C -1.196,-5.381 -2.165,-4.891 -2.165,-3.595 -2.165,-2.3 -1.195,-0.69 0,0"
                 style="fill:#00dfbf;fill-opacity:1;fill-rule:nonzero;stroke:none"
                 id="path416" /></g></g></g></g><g
         id="g424"><g
           id="g426" /><g
           id="g438"><g
             clip-path="url(#clipPath430)"
             id="g436"
             style="opacity:0.10000598"><g
               transform="translate(194.3433,239.832)"
               id="g434"><path
                 d="m 0,0 96.172,55.966 c 1.196,0.691 2.165,0.2 2.165,-1.095 0,-1.295 -0.969,-2.905 -2.166,-3.596 L 0,-4.69 C -1.196,-5.381 -2.165,-4.891 -2.165,-3.595 -2.165,-2.3 -1.195,-0.69 0,0"
                 style="fill:#00dfbf;fill-opacity:1;fill-rule:nonzero;stroke:none"
                 id="path432" /></g></g></g></g><g
         id="g440"><g
           id="g442" /><g
           id="g454"><g
             clip-path="url(#clipPath446)"
             id="g452"
             style="opacity:0.10000598"><g
               transform="translate(194.3433,220.9985)"
               id="g450"><path
                 d="m 0,0 137.841,79.582 c 1.197,0.69 2.165,0.2 2.165,-1.095 0,-1.296 -0.969,-2.905 -2.165,-3.595 L 0,-4.69 C -1.196,-5.381 -2.165,-4.891 -2.165,-3.595 -2.165,-2.3 -1.195,-0.69 0,0"
                 style="fill:#00dfbf;fill-opacity:1;fill-rule:nonzero;stroke:none"
                 id="path448" /></g></g></g></g><g
         id="g456"><g
           id="g458" /><g
           id="g470"><g
             clip-path="url(#clipPath462)"
             id="g468"
             style="opacity:0.10000598"><g
               transform="translate(194.3433,211.582)"
               id="g466"><path
                 d="m 0,0 137.841,79.582 c 1.197,0.69 2.165,0.2 2.165,-1.095 0,-1.296 -0.969,-2.905 -2.165,-3.596 L 0,-4.69 C -1.196,-5.381 -2.165,-4.891 -2.165,-3.595 -2.165,-2.3 -1.195,-0.69 0,0"
                 style="fill:#00dfbf;fill-opacity:1;fill-rule:nonzero;stroke:none"
                 id="path464" /></g></g></g></g><g
         id="g472"><g
           id="g474" /><g
           id="g486"><g
             clip-path="url(#clipPath478)"
             id="g484"
             style="opacity:0.10000598"><g
               transform="translate(194.3433,202.165)"
               id="g482"><path
                 d="m 0,0 137.841,79.583 c 1.197,0.69 2.165,0.199 2.165,-1.096 0,-1.295 -0.969,-2.905 -2.165,-3.595 L 0,-4.69 c -1.196,-0.691 -2.165,-0.2 -2.165,1.095 0,1.295 0.97,2.905 2.165,3.595"
                 style="fill:#00dfbf;fill-opacity:1;fill-rule:nonzero;stroke:none"
                 id="path480" /></g></g></g></g><g
         id="g488"><g
           id="g490" /><g
           id="g502"><g
             clip-path="url(#clipPath494)"
             id="g500"
             style="opacity:0.10000598"><g
               transform="translate(194.3433,192.7485)"
               id="g498"><path
                 d="m 0,0 50.643,29.56 c 1.196,0.69 2.165,0.2 2.165,-1.096 0,-1.295 -0.97,-2.905 -2.165,-3.595 L 0,-4.69 C -1.196,-5.381 -2.165,-4.891 -2.165,-3.595 -2.165,-2.3 -1.195,-0.69 0,0"
                 style="fill:#00dfbf;fill-opacity:1;fill-rule:nonzero;stroke:none"
                 id="path496" /></g></g></g></g></g><g
       id="g504"><g
         clip-path="url(#clipPath510)"
         id="g506"><g
           transform="translate(378.5391,246.7993)"
           id="g512"><path
             id="path514"
             style="fill:#ffaaa8;fill-opacity:1;fill-rule:nonzero;stroke:none"
             d="M 0,0 C 7.327,23.784 14.459,39.446 7.194,44.296 0.428,43.042 -2.604,39.696 -4.041,30.775 -5.55,21.418 -8.686,8.385 -10.516,0.858 c -1.461,-6.009 -4.312,-13.564 -6.755,-18.163 -0.432,-0.814 -1.155,-1.428 -1.997,-1.758 -2.257,-0.884 -3.342,-2.038 -5.184,-3.354 -1.443,-1.029 -2.505,-1.145 -2.439,-1.577 0.084,-0.556 0.736,-1.559 2.264,-1.394 0.769,0.083 1.825,0.479 3.151,1.013 0,0 -1.334,-3.579 -3.947,-5.765 -3.542,-2.962 -3.013,-5.925 2.691,-6.271 2.042,-0.123 6.775,1.739 11.161,9.21 1.262,2.152 2.729,5.675 3.907,8.612 C -4.597,-10.941 -1.466,-4.759 0,0" /></g><g
           transform="translate(387.0273,291.377)"
           id="g516"><path
             id="path518"
             style="fill:#00dfbf;fill-opacity:1;fill-rule:nonzero;stroke:none"
             d="m 0,0 c 0,0 -5.639,0.294 -9.055,-3.474 -3.415,-3.767 -7.407,-26.291 -7.407,-26.291 0,0 3.743,-5.143 13.608,-3.037 z" /></g><g
           id="g520"><g
             id="g522" /><g
             id="g534"><g
               style="opacity:0.30000299"
               id="g532"
               clip-path="url(#clipPath526)"><g
                 id="g530"
                 transform="translate(387.0273,291.377)"><path
                   id="path528"
                   style="fill:#000000;fill-opacity:1;fill-rule:nonzero;stroke:none"
                   d="m 0,0 c 0,0 -5.639,0.294 -9.055,-3.474 -3.415,-3.767 -7.407,-26.291 -7.407,-26.291 0,0 3.743,-5.143 13.608,-3.037 z" /></g></g></g></g><path
           id="path536"
           style="fill:#ffaaa8;fill-opacity:1;fill-rule:nonzero;stroke:none"
           d="m 413.411,118.116 h -7.572 v 13.5 h 7.572 z" /><g
           transform="translate(387.1582,132.3364)"
           id="g538"><path
             id="path540"
             style="fill:#ffaaa8;fill-opacity:1;fill-rule:nonzero;stroke:none"
             d="M 0,0 -7.567,-0.271 -7.946,14.016 0,14.287 Z" /></g><g
           transform="translate(414.4766,248.5005)"
           id="g542"><path
             id="path544"
             style="fill:#2b454e;fill-opacity:1;fill-rule:nonzero;stroke:none"
             d="m 0,0 c 0,-7.53 -1.108,-68.135 -1.108,-68.135 0.175,-2.167 2.127,-6.162 1.704,-14.485 -0.574,-11.305 -1.338,-41.015 -1.338,-41.015 0,0 -3.676,-2.237 -8.431,-0.173 0,0 -7.161,41.149 -8.518,52.353 -1.184,9.779 -3.193,42.7 -3.193,42.7 l -4.104,-38.28 c 0,0 1.395,-5.831 0.938,-12.532 -0.354,-5.183 -2.789,-32.172 -2.789,-32.172 0,0 -3.564,-2.518 -8.742,-0.697 0,0 -4.307,40.647 -4.395,45.402 -0.099,5.421 2.518,67.115 2.518,67.115 z" /></g><g
           transform="translate(405.8389,122.0083)"
           id="g546"><path
             id="path548"
             style="fill:#1a2e35;fill-opacity:1;fill-rule:nonzero;stroke:none"
             d="m 0,0 v 1.128 c -0.725,-0.329 -2.407,-7.018 -5.412,-9.872 -2.388,-2.269 -5.647,-4.889 -6.475,-7.419 -0.862,-2.63 4.537,-4.083 6.769,-3.671 2.593,0.478 7.086,2.379 8.214,4.142 1.128,1.762 1.656,4.363 2.573,5.654 0.916,1.292 3.029,2.734 3.525,4.229 0.272,0.822 -0.051,2.621 -0.433,4.141 -0.352,1.394 -0.732,2.927 -1.189,2.796 -0.002,-0.17 0,-0.86 0,-0.86 C 7.022,-0.366 5.501,-0.996 3.786,-1.064 2.679,-1.109 -0.009,-0.88 0,0" /></g><g
           transform="translate(379.5107,134.4971)"
           id="g550"><path
             id="path552"
             style="fill:#1a2e35;fill-opacity:1;fill-rule:nonzero;stroke:none"
             d="m 0,0 c -0.393,-0.014 -0.713,-0.592 -1.58,-1.569 -1.048,-1.182 -2.763,-2.456 -4.454,-3.338 -2.835,-1.478 -8.348,-3.753 -10.842,-4.923 -1.559,-0.731 -1.485,-2.692 0.125,-3.808 1.611,-1.115 5.501,-1.92 10.171,-0.832 2.544,0.593 5.855,3.04 7.952,2.908 2.097,-0.132 6.019,-0.1 7.566,1.011 1.547,1.111 0.928,3.483 0.491,5.521 C 8.952,-2.805 8.355,0.665 7.647,0.513 V -0.254 C 6.737,-1.689 2.04,-2.274 0.04,-1.217 Z" /></g><g
           transform="translate(393.5928,219.7451)"
           id="g554"><path
             id="path556"
             style="fill:#1a2e35;fill-opacity:1;fill-rule:nonzero;stroke:none"
             d="m 0,0 c 0,0 -6.052,1.775 -10.544,6.296 0,0 2.034,-3.967 8.085,-7.659 l -1.295,-34.184 z" /></g><g
           transform="translate(410.5371,289.5767)"
           id="g558"><path
             id="path560"
             style="fill:#00dfbf;fill-opacity:1;fill-rule:nonzero;stroke:none"
             d="m 0,0 c 0,0 5.926,-0.542 5.505,-11.83 l -1.31,-17.981 0.036,-26.983 c -5.568,-6.309 -30.251,-5.847 -38.702,0.505 0,0 0.958,31.933 1.529,44.221 0.405,8.735 2.416,13.133 11.001,14.095 l 10.558,-0.464 z" /></g><g
           id="g562"><g
             id="g564" /><g
             id="g576"><g
               style="opacity:0.30000299"
               id="g574"
               clip-path="url(#clipPath568)"><g
                 id="g572"
                 transform="translate(393.7119,283.6562)"><path
                   id="path570"
                   style="fill:#000000;fill-opacity:1;fill-rule:nonzero;stroke:none"
                   d="m 0,0 -1.359,-9.479 -3.167,0.059 3.573,-0.564 z" /></g></g></g></g><g
           transform="translate(401.6084,315.0151)"
           id="g578"><path
             id="path580"
             style="fill:#1a2e35;fill-opacity:1;fill-rule:nonzero;stroke:none"
             d="m 0,0 c 0,-6.484 -5.047,-11.741 -11.272,-11.741 -6.226,0 -10.992,5.262 -11.273,11.741 -0.496,11.465 5.047,11.74 11.273,11.74 C -5.047,11.74 0,6.484 0,0" /></g><g
           transform="translate(408.0332,309.1919)"
           id="g582"><path
             id="path584"
             style="fill:#1a2e35;fill-opacity:1;fill-rule:nonzero;stroke:none"
             d="m 0,0 c 0,0 -1.729,-8.46 -2.422,-9.85 -0.693,-1.39 -2.126,-1.785 -2.126,-1.785 l 0.121,5.951 z" /></g><g
           transform="translate(405.8633,321.312)"
           id="g586"><path
             id="path588"
             style="fill:#1a2e35;fill-opacity:1;fill-rule:nonzero;stroke:none"
             d="M 0,0 C 0,0 1.24,0.31 2.557,-1.747 3.686,-3.511 3.942,-7.474 2.17,-12.12 l -3.257,-0.389 z" /></g><g
           transform="translate(403.7998,308.7998)"
           id="g590"><path
             id="path592"
             style="fill:#ffaaa8;fill-opacity:1;fill-rule:nonzero;stroke:none"
             d="M 0,0 C 0.653,-0.406 1.585,0.9 2.391,1.778 3.195,2.655 5.824,3.854 7.136,0.977 8.473,-1.957 5.979,-5.832 3.908,-6.509 0.342,-7.675 -0.193,-5.292 -0.193,-5.292 l -0.273,-13.4 c -4.735,-7.325 -15.462,-7.06 -11.605,0.354 l 0.01,4.078 c 0,0 -3.232,-0.511 -4.808,-0.257 -2.623,0.423 -4.274,2.579 -5.069,5.536 -1.279,4.75 -1.764,8.585 -0.679,17.927 1.188,10.239 12.623,10.346 18.797,6.298 C 2.354,11.196 0,0 0,0" /></g><g
           transform="translate(403.3945,293.1113)"
           id="g594"><path
             id="path596"
             style="fill:#1a2e35;fill-opacity:1;fill-rule:nonzero;stroke:none"
             d="m 0,0 c 0,0 -1.666,-3.602 -4.638,-5.811 -2.731,-2.03 -5.61,-2.384 -5.61,-2.384 0,0 2.777,-1.84 3.959,-4.446 1.181,-2.605 9.513,4.567 9.437,9.655 0,0 -1.307,5.111 -3.098,5.439 z" /></g><g
           transform="translate(393.1465,284.916)"
           id="g598"><path
             id="path600"
             style="fill:#1a2e35;fill-opacity:1;fill-rule:nonzero;stroke:none"
             d="m 0,0 c 0,0 -2.569,1.276 -1.418,5.546 l 0.011,4.078 -1.126,-0.15 C -3.409,8.684 -4.789,6.827 -5.24,4.784 -5.498,3.616 -6.132,-2.301 -5.003,-3.477 -3.976,-4.546 -2.303,-0.318 0,0" /></g><g
           transform="translate(399.417,319.9639)"
           id="g602"><path
             id="path604"
             style="fill:#1a2e35;fill-opacity:1;fill-rule:nonzero;stroke:none"
             d="m 0,0 c 0.297,0.036 0.61,0.065 0.883,-0.058 0.969,-0.44 1.177,-3.453 1.347,-4.324 0.574,-2.933 1.049,-7.904 2.153,-7.927 0.329,-0.006 1.577,2.152 2.39,2.923 1.126,1.067 -0.327,10.734 -0.327,10.734 0,0 1.082,2.402 -1.087,4.889 -2.026,2.324 -5.213,2.837 -8.125,2.998 -3.429,0.189 -6.913,-0.071 -10.292,0.68 -1.074,0.238 -2.13,0.578 -3.224,0.691 -0.102,0.011 -0.215,0.016 -0.294,-0.049 -0.111,-0.09 -0.095,-0.26 -0.066,-0.4 0.21,-1.012 0.572,-1.993 1.07,-2.899 -2.012,0.16 -4.005,0.552 -5.927,1.165 -0.11,0.035 -0.229,0.071 -0.338,0.037 -0.226,-0.072 -0.266,-0.372 -0.253,-0.609 0.137,-2.428 1.287,-6.081 3.257,-7.508 1.539,-1.115 3.954,-1.797 5.852,-1.845 C -7.679,-1.639 -4.387,-0.52 0,0" /></g><g
           transform="translate(405.8574,320.8018)"
           id="g606"><path
             id="path608"
             style="fill:#1a2e35;fill-opacity:1;fill-rule:nonzero;stroke:none"
             d="M 0,0 3.948,2.208 C 3.388,3.386 2.05,3.847 0.959,3.237 -0.131,2.627 -0.561,1.178 0,0" /></g><g
           transform="translate(391.7383,294.54)"
           id="g610"><path
             id="path612"
             style="fill:#ff9090;fill-opacity:1;fill-rule:nonzero;stroke:none"
             d="m 0,0 c 0,0 5.856,1.229 7.903,2.362 1.37,0.759 2.498,2.074 2.83,2.916 0,0 -0.383,-1.809 -1.608,-3.439 C 7.628,-0.155 0.001,-1.623 0.001,-1.623 Z" /></g><g
           transform="translate(393.1465,310.3247)"
           id="g614"><path
             id="path616"
             style="fill:#1a2e35;fill-opacity:1;fill-rule:nonzero;stroke:none"
             d="m 0,0 c 0,-0.702 0.525,-1.269 1.173,-1.267 0.648,0.002 1.174,0.572 1.174,1.274 0,0.701 -0.526,1.268 -1.174,1.266 C 0.525,1.271 0,0.701 0,0" /></g><g
           transform="translate(395.0303,315.3843)"
           id="g618"><path
             id="path620"
             style="fill:#1a2e35;fill-opacity:1;fill-rule:nonzero;stroke:none"
             d="M 0,0 2.511,-1.443 C 2.881,-0.692 2.619,0.24 1.926,0.639 1.232,1.038 0.37,0.751 0,0" /></g><g
           transform="translate(392.2695,301.8818)"
           id="g622"><path
             id="path624"
             style="fill:#ff9090;fill-opacity:1;fill-rule:nonzero;stroke:none"
             d="m 0,0 -2.679,-1.047 c 0.265,-0.8 1.079,-1.213 1.82,-0.925 C -0.12,-1.682 0.265,-0.799 0,0" /></g><g
           transform="translate(382.3818,314.3091)"
           id="g626"><path
             id="path628"
             style="fill:#1a2e35;fill-opacity:1;fill-rule:nonzero;stroke:none"
             d="M 0,0 2.289,1.836 C 1.822,2.519 0.931,2.661 0.299,2.154 -0.333,1.647 -0.467,0.683 0,0" /></g><g
           transform="translate(383.3867,310.6724)"
           id="g630"><path
             id="path632"
             style="fill:#1a2e35;fill-opacity:1;fill-rule:nonzero;stroke:none"
             d="m 0,0 c 0,-0.701 0.525,-1.268 1.174,-1.266 0.648,0.002 1.173,0.572 1.173,1.273 0,0.701 -0.525,1.268 -1.173,1.266 C 0.525,1.271 0,0.702 0,0" /></g><g
           transform="translate(389.666,311.6538)"
           id="g634"><path
             id="path636"
             style="fill:#ff9090;fill-opacity:1;fill-rule:nonzero;stroke:none"
             d="m 0,0 -0.136,-7.412 -4.206,0.965 z" /></g><g
           transform="translate(422.0586,304.2036)"
           id="g638"><path
             id="path640"
             style="fill:#00dfbf;fill-opacity:1;fill-rule:nonzero;stroke:none"
             d="M 0,0 C 1.688,2.241 5.109,-2.734 6.692,-6.163 8.274,-9.592 8.297,-11.534 7.004,-12.896 5.71,-14.257 3.256,-13.431 0.801,-10.183 -1.654,-6.934 -0.965,-1.655 0,0" /></g><g
           id="g642"><g
             id="g644" /><g
             id="g656"><g
               style="opacity:0.5"
               id="g654"
               clip-path="url(#clipPath648)"><g
                 id="g652"
                 transform="translate(422.0586,304.2036)"><path
                   id="path650"
                   style="fill:#000000;fill-opacity:1;fill-rule:nonzero;stroke:none"
                   d="M 0,0 C 1.688,2.241 5.109,-2.734 6.692,-6.163 8.274,-9.592 8.297,-11.534 7.004,-12.896 5.71,-14.257 3.256,-13.431 0.801,-10.183 -1.654,-6.934 -0.965,-1.655 0,0" /></g></g></g></g><g
           transform="translate(433.9531,303.5366)"
           id="g658"><path
             id="path660"
             style="fill:#ffaaa8;fill-opacity:1;fill-rule:nonzero;stroke:none"
             d="m 0,0 c -5.963,-14.038 -14.349,-21.888 -18.099,-30.896 -4.918,0.334 -8.745,12.195 -5.085,17.269 0,0 14.383,15.569 15.686,21.688 1.155,5.432 2.709,14.392 2.572,18.979 -0.023,0.766 -0.363,1.473 -0.885,2.035 -1.508,1.624 -1.51,2.928 -2.479,4.722 -0.756,1.398 -1.583,1.921 -1.348,2.236 0.304,0.404 1.26,0.931 2.451,0.18 0.597,-0.378 0.987,-0.82 1.855,-1.78 0,0 0.388,2.474 -0.849,5.26 -1.673,3.776 -1.266,5.703 3.831,4.358 C 0.845,43.208 2.851,40.548 3.328,32.871 3.467,30.659 3.646,26.079 3.384,23.283 2.831,17.374 2.476,11.215 1.749,6.323 1.427,4.151 0.859,2.021 0,0" /></g><g
           transform="translate(409.3154,289.7446)"
           id="g662"><path
             id="path664"
             style="fill:#00dfbf;fill-opacity:1;fill-rule:nonzero;stroke:none"
             d="m 0,0 12.69,14.498 c 0,0 -1.506,-3.537 1.793,-8.679 3.301,-5.142 5.264,-4.256 5.264,-4.256 0,0 -7.487,-10.93 -9.496,-14.589 -2.009,-3.659 -4.091,-6.744 -4.091,-6.744 0,0 -0.501,-1.292 -2.366,-1.292 -1.866,0 -6.799,8.26 -3.794,21.062" /></g><g
           id="g666"><g
             id="g668" /><g
             id="g680"><g
               style="opacity:0.30000299"
               id="g678"
               clip-path="url(#clipPath672)"><g
                 id="g676"
                 transform="translate(409.3154,289.7446)"><path
                   id="path674"
                   style="fill:#000000;fill-opacity:1;fill-rule:nonzero;stroke:none"
                   d="m 0,0 12.69,14.498 c 0,0 -1.506,-3.537 1.793,-8.679 3.301,-5.142 5.264,-4.256 5.264,-4.256 0,0 -7.487,-10.93 -9.496,-14.589 -2.009,-3.659 -4.091,-6.744 -4.091,-6.744 0,0 -0.501,-1.292 -2.366,-1.292 -1.866,0 -6.799,8.26 -3.794,21.062" /></g></g></g></g></g></g><g
       transform="translate(306.415,257.1538)"
       id="g682"><path
         id="path684"
         style="fill:#ff9090;fill-opacity:1;fill-rule:nonzero;stroke:none"
         d="m 0,0 5.974,-7.954 -6.416,-7.354 -8.269,9.67 z" /></g><g
       id="g686"><g
         clip-path="url(#clipPath692)"
         id="g688"><g
           transform="translate(286.8711,275.2329)"
           id="g694"><path
             id="path696"
             style="fill:#375a64;fill-opacity:1;fill-rule:nonzero;stroke:none"
             d="m 0,0 c 5.21,-0.244 7.693,-1.049 10.42,-4.262 2.662,-3.136 16.369,-22.941 16.369,-22.941 0,0 -2.411,-6.759 -7.687,-6.184 l -9.594,9.89 z" /></g><g
           transform="translate(261.3086,110.1074)"
           id="g698"><path
             id="path700"
             style="fill:#1a2e35;fill-opacity:1;fill-rule:nonzero;stroke:none"
             d="m 0,0 c -0.17,-1.255 -0.53,-2.721 -0.598,-6.273 -0.072,-3.808 -0.771,-5.16 -0.864,-8.285 -0.105,-3.57 0.511,-4.907 1.96,-6.914 1.449,-2.007 5.252,-3.828 6.859,-0.435 1.627,3.433 1.401,5.615 0.887,9.117 -0.531,3.622 -0.598,5.622 -0.906,8.384 -0.272,2.434 -0.597,4.283 -0.597,4.283 z" /></g><g
           transform="translate(272.1182,140.0493)"
           id="g702"><path
             id="path704"
             style="fill:#ffbea7;fill-opacity:1;fill-rule:nonzero;stroke:none"
             d="m 0,0 -12.544,0.228 c 0.187,-8.374 1.518,-22.313 1.734,-30.17 0.041,-1.479 -0.037,-11.492 0.521,-14.535 0.839,-4.571 6.266,-3.954 6.553,-1.218 0.288,2.736 -0.35,14.425 -0.332,15.631 -0.048,5.038 2.313,18.189 3.552,27.234 C -0.455,-2.386 -0.058,-0.433 0,0" /></g><g
           transform="translate(290.5537,116.623)"
           id="g706"><path
             id="path708"
             style="fill:#1a2e35;fill-opacity:1;fill-rule:nonzero;stroke:none"
             d="m 0,0 c 0,0 -0.648,-0.037 -0.751,-0.565 -0.121,-0.629 -0.148,-1.622 -0.41,-2.654 -0.363,-1.435 -0.665,-3.798 -0.447,-4.967 0.217,-1.169 2.886,-2.911 4.712,-3.217 1.825,-0.306 4.401,-2.11 5.832,-3.456 1.752,-1.65 5.534,-3.207 8.109,-3.189 3.047,0.022 5.171,1.015 6.175,2.646 1.049,1.704 -0.914,1.83 -4.398,4.089 -0.791,0.513 -1.69,1.094 -2.703,1.755 -5.517,3.604 -7.537,5.535 -9.098,9.14 z" /></g><g
           transform="translate(297.6182,118.584)"
           id="g710"><path
             id="path712"
             style="fill:#ffbea7;fill-opacity:1;fill-rule:nonzero;stroke:none"
             d="m 0,0 c -0.093,2.592 1.236,21.693 1.236,21.693 l -10.79,-1.215 c 2.551,-15.226 2.758,-20.414 2.467,-22.629 -0.019,-0.058 -0.07,-0.269 -0.067,-0.638 0.01,-2.958 3.348,-4.553 5.953,-6.525 1.028,-0.779 3.672,-3.18 6.77,-4.235 2.005,-0.682 5.711,-0.941 6.187,0.277 C 8.587,-10.853 4.274,-7.691 1.754,-4.927 0.551,-3.608 0.093,-2.593 0,0" /></g><g
           transform="translate(262.4844,226.6411)"
           id="g714"><path
             id="path716"
             style="fill:#00dfbf;fill-opacity:1;fill-rule:nonzero;stroke:none"
             d="m 0,0 c -5.887,-12.856 0.212,-58.143 0.212,-58.143 -0.177,-2.086 -2.563,-6.191 -3.451,-15.373 -1.05,-10.849 1.938,-39.893 1.938,-39.893 0,0 2.866,-2.143 7.024,-0.15 0,0 7.594,42.675 8.955,53.462 1.187,9.414 3.467,30.114 3.467,30.114 l 6.477,-30.063 c 0,0 -1.662,-5.274 -2.052,-9.291 -0.614,-6.346 5.564,-38.189 5.564,-38.189 0,0 2.891,-1.526 6.999,0.136 0,0 2.738,41.14 3.31,48.784 0.963,12.836 -2.446,52.889 -4.8,60.487 z" /></g><g
           id="g718"><g
             id="g720" /><g
             id="g732"><g
               style="opacity:0.5"
               id="g730"
               clip-path="url(#clipPath724)"><g
                 id="g728"
                 transform="translate(262.4844,226.6411)"><path
                   id="path726"
                   style="fill:#000000;fill-opacity:1;fill-rule:nonzero;stroke:none"
                   d="m 0,0 c -5.887,-12.856 0.212,-58.143 0.212,-58.143 -0.177,-2.086 -2.563,-6.191 -3.451,-15.373 -1.05,-10.849 1.938,-39.893 1.938,-39.893 0,0 2.866,-2.143 7.024,-0.15 0,0 7.594,42.675 8.955,53.462 1.187,9.414 3.467,30.114 3.467,30.114 l 6.477,-30.063 c 0,0 -1.662,-5.274 -2.052,-9.291 -0.614,-6.346 5.564,-38.189 5.564,-38.189 0,0 2.891,-1.526 6.999,0.136 0,0 2.738,41.14 3.31,48.784 0.963,12.836 -2.446,52.889 -4.8,60.487 z" /></g></g></g></g><g
           id="g734"><g
             id="g736" /><g
             id="g748"><g
               style="opacity:0.19999701"
               id="g746"
               clip-path="url(#clipPath740)"><g
                 id="g744"
                 transform="translate(280.6289,196.6577)"><path
                   id="path742"
                   style="fill:#000000;fill-opacity:1;fill-rule:nonzero;stroke:none"
                   d="m 0,0 1.911,11.94 c 0,0 8.085,1.675 11.751,5.122 0,0 -3.847,-4.785 -9.56,-6.352 L 1.956,1.517 5.708,-26.319 Z" /></g></g></g></g><g
           transform="translate(265.5029,266.5747)"
           id="g750"><path
             id="path752"
             style="fill:#00dfbf;fill-opacity:1;fill-rule:nonzero;stroke:none"
             d="M 0,0 8.009,-2.085 V 14.84 C 3.586,15.992 0,13.441 0,9.143 Z" /></g><g
           id="g754"><g
             id="g756" /><g
             id="g768"><g
               style="opacity:0.60000598"
               id="g766"
               clip-path="url(#clipPath760)"><g
                 id="g764"
                 transform="translate(265.5029,266.5747)"><path
                   id="path762"
                   style="fill:#000000;fill-opacity:1;fill-rule:nonzero;stroke:none"
                   d="M 0,0 8.009,-2.085 V 14.84 C 3.586,15.992 0,13.441 0,9.143 Z" /></g></g></g></g><g
           transform="translate(281.3428,279.0088)"
           id="g770"><path
             id="path772"
             style="fill:#00dfbf;fill-opacity:1;fill-rule:nonzero;stroke:none"
             d="m 0,0 -2.874,0.066 c -8.757,0.201 -15.699,7.757 -15.506,16.877 -0.05,9.94 7.694,18.038 17.237,18.09 9.544,0.052 17.321,-7.964 17.371,-17.904 L 16.203,16.103 C 15.985,7.001 8.738,-0.201 0,0" /></g><g
           id="g774"><g
             id="g776" /><g
             id="g788"><g
               style="opacity:0.60000598"
               id="g786"
               clip-path="url(#clipPath780)"><g
                 id="g784"
                 transform="translate(281.3428,279.0088)"><path
                   id="path782"
                   style="fill:#000000;fill-opacity:1;fill-rule:nonzero;stroke:none"
                   d="m 0,0 -2.874,0.066 c -8.757,0.201 -15.699,7.757 -15.506,16.877 -0.05,9.94 7.694,18.038 17.237,18.09 9.544,0.052 17.321,-7.964 17.371,-17.904 L 16.203,16.103 C 15.985,7.001 8.738,-0.201 0,0" /></g></g></g></g><g
           transform="translate(267.9336,309.8794)"
           id="g790"><path
             id="path792"
             style="fill:#00dfbf;fill-opacity:1;fill-rule:nonzero;stroke:none"
             d="m 0,0 c -0.323,1.245 -1.563,1.941 -2.771,1.557 l 0.767,-2.956 c -0.163,0.195 -0.351,0.371 -0.577,0.503 -1.077,0.635 -2.425,0.205 -3.01,-0.96 l 3.901,-2.298 c 0.204,0.406 0.282,0.848 0.259,1.279 C -0.331,-2.424 0.307,-1.183 0,0" /></g><g
           id="g794"><g
             id="g796" /><g
             id="g808"><g
               style="opacity:0.60000598"
               id="g806"
               clip-path="url(#clipPath800)"><g
                 id="g804"
                 transform="translate(267.9336,309.8794)"><path
                   id="path802"
                   style="fill:#000000;fill-opacity:1;fill-rule:nonzero;stroke:none"
                   d="m 0,0 c -0.323,1.245 -1.563,1.941 -2.771,1.557 l 0.767,-2.956 c -0.163,0.195 -0.351,0.371 -0.577,0.503 -1.077,0.635 -2.425,0.205 -3.01,-0.96 l 3.901,-2.298 c 0.204,0.406 0.282,0.848 0.259,1.279 C -0.331,-2.424 0.307,-1.183 0,0" /></g></g></g></g><g
           transform="translate(272.6631,274.5425)"
           id="g810"><path
             id="path812"
             style="fill:#2b454e;fill-opacity:1;fill-rule:nonzero;stroke:none"
             d="m 0,0 c 0,0 -5.791,-0.82 -8.009,-1.539 3.1,-7.604 -1.763,-19.348 -1.763,-19.348 l 4.587,-14.126 c -3.164,-6.492 -5.781,-9.713 -6.853,-14.988 2.917,-5.702 23.528,-11.144 36.945,-0.751 0,0 -0.433,14.433 -2.143,22.842 4.395,8.572 3.678,11.087 2.781,14.076 -2.087,6.951 -6.306,9.626 -11.337,14.524 l -3.033,0.319 z" /></g><g
           transform="translate(268.0107,233.8672)"
           id="g814"><path
             id="path816"
             style="fill:#1a2e35;fill-opacity:1;fill-rule:nonzero;stroke:none"
             d="M 0,0 C 2.486,2.555 7.766,3.282 7.766,3.282 L 2.924,6.045 -2.508,19.143 c 3.769,7.244 3.264,14.414 3.264,14.414 l -3.113,0.747 C -1.98,27.377 -5.12,19.788 -5.12,19.788 L -0.532,5.662 C -3.696,-0.83 -6.313,-4.051 -7.386,-9.326 -5.39,-13.229 4.899,-17.008 15.496,-15.671 1.297,-14.723 -2.397,-2.463 0,0" /></g><g
           transform="translate(282.3525,218.0703)"
           id="g818"><path
             id="path820"
             style="fill:#e7e7e7;fill-opacity:1;fill-rule:nonzero;stroke:none"
             d="M 0,0 C 0.193,0.018 0.387,0.042 0.58,0.063 0.42,0.059 0.232,0.041 0,0" /></g><g
           transform="translate(291.127,305.1675)"
           id="g822"><path
             id="path824"
             style="fill:#ffbea7;fill-opacity:1;fill-rule:nonzero;stroke:none"
             d="m 0,0 c 1.722,-1.581 3.873,-5.012 3.7,-15.037 -0.145,-8.496 -2.779,-10.609 -4.103,-11.221 -1.325,-0.612 -3.887,-0.258 -6.378,0.161 l -0.031,-3.519 c 0,0 3.286,-3.643 3.081,-5.982 -0.205,-2.34 -4.673,-3.31 -7.904,-1.044 -3.23,2.267 -5.98,6.051 -5.98,6.051 l -0.034,10.689 c 0,0 -1.457,-1.49 -3.953,0.758 -2.06,1.856 -2.766,5.001 -1.177,6.7 1.59,1.698 4.546,1.254 5.69,-1.149 0,0 5.681,0.475 10.92,3.215 C -1.524,-7.95 0.335,-3.562 0,0" /></g><g
           transform="translate(284.3437,292.0776)"
           id="g826"><path
             id="path828"
             style="fill:#1a2e35;fill-opacity:1;fill-rule:nonzero;stroke:none"
             d="m 0,0 c 0.033,-0.612 -0.399,-1.133 -0.965,-1.165 -0.565,-0.031 -1.051,0.44 -1.083,1.053 -0.032,0.612 0.4,1.133 0.965,1.164 C -0.517,1.083 -0.032,0.612 0,0" /></g><g
           transform="translate(284.7266,284.958)"
           id="g830"><path
             id="path832"
             style="fill:#ff9875;fill-opacity:1;fill-rule:nonzero;stroke:none"
             d="M 0,0 2.669,-0.871 C 2.452,-1.666 1.678,-2.116 0.941,-1.875 0.204,-1.635 -0.217,-0.795 0,0" /></g><g
           transform="translate(293.9561,295.9121)"
           id="g834"><path
             id="path836"
             style="fill:#1a2e35;fill-opacity:1;fill-rule:nonzero;stroke:none"
             d="M 0,0 -2.422,0.827 C -2.24,1.528 -1.55,1.911 -0.881,1.683 -0.213,1.454 0.182,0.701 0,0" /></g><g
           transform="translate(274.0518,292.5845)"
           id="g838"><path
             id="path840"
             style="fill:#00dfbf;fill-opacity:1;fill-rule:nonzero;stroke:none"
             d="M 0,0 -0.027,-3.594 C 0.933,-3.64 1.717,-2.872 1.725,-1.879 1.732,-0.887 0.96,-0.045 0,0" /></g><g
           id="g842"><g
             id="g844" /><g
             id="g856"><g
               style="opacity:0.60000598"
               id="g854"
               clip-path="url(#clipPath848)"><g
                 id="g852"
                 transform="translate(274.0518,292.5845)"><path
                   id="path850"
                   style="fill:#000000;fill-opacity:1;fill-rule:nonzero;stroke:none"
                   d="M 0,0 -0.027,-3.594 C 0.933,-3.64 1.717,-2.872 1.725,-1.879 1.732,-0.887 0.96,-0.045 0,0" /></g></g></g></g><g
           transform="translate(293.1182,292.4292)"
           id="g858"><path
             id="path860"
             style="fill:#1a2e35;fill-opacity:1;fill-rule:nonzero;stroke:none"
             d="m 0,0 c 0.033,-0.612 -0.399,-1.133 -0.965,-1.164 -0.566,-0.031 -1.051,0.439 -1.083,1.052 -0.033,0.612 0.4,1.133 0.965,1.164 C -0.518,1.083 -0.032,0.612 0,0" /></g><g
           transform="translate(287.4219,293.8853)"
           id="g862"><path
             id="path864"
             style="fill:#ff9875;fill-opacity:1;fill-rule:nonzero;stroke:none"
             d="m 0,0 -0.026,-6.962 3.244,1.066 z" /></g><g
           transform="translate(284.3457,279.0703)"
           id="g866"><path
             id="path868"
             style="fill:#ff9875;fill-opacity:1;fill-rule:nonzero;stroke:none"
             d="m 0,0 c -2.624,0.344 -8.029,1.929 -8.881,4.147 0,0 0.287,-1.395 1.905,-2.826 1.621,-1.429 6.961,-3.035 6.961,-3.035 z" /></g><g
           transform="translate(252.3496,238.9707)"
           id="g870"><path
             id="path872"
             style="fill:#ffbea7;fill-opacity:1;fill-rule:nonzero;stroke:none"
             d="m 0,0 c 0,0 6.417,-9.116 7.521,-10.309 1.105,-1.192 1.855,-0.795 3.047,-0.265 1.193,0.531 3.458,1.209 4.461,1.458 1.962,0.486 2.385,-1.325 0.442,-2.617 -1.406,-0.934 -3.014,-1.342 -2.341,-2.109 0.673,-0.766 2.75,-2.109 4.682,-2.87 4.736,-1.868 4.37,-2.806 3.498,-4.34 -0.76,-1.336 -2.973,-4.216 -11.445,-0.814 -3.495,1.403 -8.418,5.392 -10.739,7.965 -3.35,3.711 -8.575,10.361 -8.575,10.361 z" /></g><g
           transform="translate(265.8896,273.3306)"
           id="g874"><path
             id="path876"
             style="fill:#375a64;fill-opacity:1;fill-rule:nonzero;stroke:none"
             d="m 0,0 c -2.324,-0.155 -6.691,-0.715 -12.171,-9.813 -4.806,-7.98 -12.255,-18.811 -13.64,-22.683 -0.558,-1.561 1.625,-4.816 4.43,-8.145 3.836,0.168 7.325,2.818 9.136,4.937 -0.84,1.944 -1.77,3.214 -1.77,3.214 l 11.244,12.82 c 0,0 4.269,3.911 5.164,9.031 C 3.351,-5.155 3.052,-0.811 0,0" /></g><g
           transform="translate(328.8193,256.0723)"
           id="g878"><path
             id="path880"
             style="fill:#00dfbf;fill-opacity:1;fill-rule:nonzero;stroke:none"
             d="m 0,0 -27.713,-7.299 -7.629,-31.357 26.349,7.653 z" /></g><g
           id="g882"><g
             id="g884" /><g
             id="g896"><g
               style="opacity:0.25"
               id="g894"
               clip-path="url(#clipPath888)"><g
                 id="g892"
                 transform="translate(328.8193,256.0723)"><path
                   id="path890"
                   style="fill:#000000;fill-opacity:1;fill-rule:nonzero;stroke:none"
                   d="m 0,0 -27.713,-7.299 -7.629,-31.357 26.349,7.653 z" /></g></g></g></g><g
           id="g898"><g
             id="g900" /><g
             id="g912"><g
               style="opacity:0.10000598"
               id="g910"
               clip-path="url(#clipPath904)"><g
                 id="g908"
                 transform="translate(316.2979,233.8672)"><path
                   id="path906"
                   style="fill:#000000;fill-opacity:1;fill-rule:nonzero;stroke:none"
                   d="m 0,0 c 0.257,-0.703 1.955,-3.25 5.182,-3.097 l 0.201,0.693 z" /></g></g></g></g><g
           id="g914"><g
             id="g916" /><g
             id="g928"><g
               style="opacity:0.10000598"
               id="g926"
               clip-path="url(#clipPath920)"><g
                 id="g924"
                 transform="translate(320.4717,251.0918)"><path
                   id="path922"
                   style="fill:#000000;fill-opacity:1;fill-rule:nonzero;stroke:none"
                   d="m 0,0 c 0,0 0.102,0.473 0.229,1.057 0.125,0.584 -1.5,0.609 -3.633,0.056 L -7.487,0.054 c -2.133,-0.553 -3.964,-1.475 -4.09,-2.058 l -0.229,-1.058 z" /></g></g></g></g><g
           transform="translate(322.5996,255.0649)"
           id="g930"><path
             id="path932"
             style="fill:#2b454e;fill-opacity:1;fill-rule:nonzero;stroke:none"
             d="m 0,0 c 0.081,0.365 -0.578,0.46 -1.472,0.213 l -1.617,-0.446 c 0,0 0.483,2.286 -3.105,1.487 -3.588,-0.799 -4.372,-3.395 -4.372,-3.395 0,0 -0.774,-0.219 -1.727,-0.49 -0.953,-0.271 -1.817,-0.785 -1.93,-1.148 l -0.204,-0.658 14.276,3.759 c 0,0 0.071,0.313 0.151,0.678" /></g><g
           transform="translate(320.6338,253.9375)"
           id="g934"><path
             id="path936"
             style="fill:#2b454e;fill-opacity:1;fill-rule:nonzero;stroke:none"
             d="m 0,0 c -1.309,-0.316 -1.852,-0.489 -2.047,-1.389 -0.224,-1.028 -0.314,-1.782 -0.314,-1.782 l -6.319,-1.67 c 0,0 0.306,1.301 0.403,1.808 0.098,0.508 -0.118,0.813 -1.122,0.547 l -0.086,0.403 9.9,2.52 z" /></g><g
           transform="translate(320.8516,250.9922)"
           id="g938"><path
             id="path940"
             style="fill:#2b454e;fill-opacity:1;fill-rule:nonzero;stroke:none"
             d="m 0,0 c 0,0 0.102,0.473 0.229,1.057 0.125,0.584 -1.5,0.609 -3.633,0.056 L -7.487,0.054 c -2.133,-0.553 -3.964,-1.475 -4.09,-2.058 l -0.229,-1.058 z" /></g><g
           transform="translate(325.8994,246.0054)"
           id="g942"><path
             id="path944"
             style="fill:#ffbea7;fill-opacity:1;fill-rule:nonzero;stroke:none"
             d="m 0,0 c 0,0 -1.036,-3.545 -1.273,-4.39 -0.238,-0.845 -3.342,-2.364 -5.379,-2.923 -2.038,-0.56 -4.266,-1.224 -3.302,-4.072 0.889,-2.626 4.241,-3.226 5.948,-3.152 1.706,0.075 4.043,1.706 4.963,4.335 1.175,3.354 0.542,6.937 1.008,8.896 C 2.432,0.653 1.021,1.168 0,0" /></g></g></g><g
       id="g946"><g
         clip-path="url(#clipPath952)"
         id="g948"><g
           transform="translate(220.9312,245.1724)"
           id="g954"><path
             id="path956"
             style="fill:#a54e4d;fill-opacity:1;fill-rule:nonzero;stroke:none"
             d="m 0,0 c -3.801,3.83 -5.159,2.341 -5.64,-1.859 -0.354,-3.099 -1.268,-5.133 -1.268,-5.133 -0.269,1.298 -0.383,1.89 -0.715,2.534 -0.66,1.279 -1.777,1.31 -2.254,1.11 -0.372,-0.155 0.087,-1.045 0.029,-2.671 -0.075,-2.084 -0.748,-3.235 -0.261,-5.447 0.183,-0.829 0.03,-1.693 -0.373,-2.44 -2.051,-3.794 -8.594,-10.821 -13.205,-15.874 -4.075,3.682 -13.193,11.92 -17.557,15.852 -5.988,5.395 -7.941,7.828 -13.732,7.432 0,0 2.243,-0.683 4.927,-2.953 2.683,-2.269 2.045,-15.261 2.045,-15.261 0,0 19.921,-14.287 21.97,-15.645 0.301,-0.2 0.608,-0.38 0.913,-0.543 2,-1.065 4.477,-0.559 5.969,1.146 4.254,4.862 10.449,14.428 14.034,19.401 1.681,2.332 3.306,5.518 4.331,7.541 C 2.771,-5.787 2.381,-2.4 0,0" /></g><g
           transform="translate(166.5449,239.0312)"
           id="g958"><path
             id="path960"
             style="fill:#00dfbf;fill-opacity:1;fill-rule:nonzero;stroke:none"
             d="m 0,0 c 0,0 4.036,1.055 8.013,-1.963 3.419,-2.595 17.963,-15.969 17.963,-15.969 0,0 0.395,-7.085 -6.996,-11.314 L 1.101,-16.637 Z" /></g><g
           id="g962"><g
             id="g964" /><g
             id="g976"><g
               style="opacity:0.30000299"
               id="g974"
               clip-path="url(#clipPath968)"><g
                 id="g972"
                 transform="translate(166.5449,239.0312)"><path
                   id="path970"
                   style="fill:#000000;fill-opacity:1;fill-rule:nonzero;stroke:none"
                   d="m 0,0 c 0,0 4.036,1.055 8.013,-1.963 3.419,-2.595 17.963,-15.969 17.963,-15.969 0,0 0.395,-7.085 -6.996,-11.314 L 1.101,-16.637 Z" /></g></g></g></g><path
           id="path978"
           style="fill:#a54e4d;fill-opacity:1;fill-rule:nonzero;stroke:none"
           d="m 141.73,65.543 h 7.571 v 13.5 h -7.571 z" /><g
           transform="translate(167.9824,79.7637)"
           id="g980"><path
             id="path982"
             style="fill:#a54e4d;fill-opacity:1;fill-rule:nonzero;stroke:none"
             d="M 0,0 7.567,-0.271 7.946,14.016 0,14.287 Z" /></g><g
           transform="translate(140.6646,195.9277)"
           id="g984"><path
             id="path986"
             style="fill:#2b454e;fill-opacity:1;fill-rule:nonzero;stroke:none"
             d="m 0,0 c 0,-7.53 1.109,-68.135 1.109,-68.135 -0.177,-2.167 -2.128,-6.162 -1.705,-14.485 0.574,-11.305 1.338,-41.015 1.338,-41.015 0,0 3.675,-2.237 8.43,-0.173 0,0 7.162,41.149 8.519,52.353 1.184,9.778 3.193,42.699 3.193,42.699 l 4.104,-38.279 c 0,0 -1.396,-5.832 -0.938,-12.532 0.354,-5.183 2.789,-32.172 2.789,-32.172 0,0 3.564,-2.518 8.742,-0.697 0,0 4.307,40.647 4.395,45.401 0.1,5.422 -2.518,67.116 -2.518,67.116 z" /></g><g
           transform="translate(149.3018,69.4355)"
           id="g988"><path
             id="path990"
             style="fill:#1a2e35;fill-opacity:1;fill-rule:nonzero;stroke:none"
             d="m 0,0 v 1.128 c 0.725,-0.329 2.408,-7.018 5.412,-9.872 2.389,-2.269 5.647,-4.889 6.475,-7.419 0.862,-2.63 -4.537,-4.083 -6.768,-3.671 -2.593,0.478 -7.086,2.379 -8.214,4.142 -1.129,1.762 -1.656,4.362 -2.573,5.654 -0.917,1.292 -3.03,2.734 -3.525,4.229 -0.273,0.822 0.05,2.621 0.433,4.14 0.351,1.395 0.732,2.928 1.189,2.797 10e-4,-0.17 0,-0.86 0,-0.86 0.55,-0.634 2.07,-1.264 3.785,-1.332 C -2.678,-1.109 0.009,-0.88 0,0" /></g><g
           transform="translate(175.6299,81.9243)"
           id="g992"><path
             id="path994"
             style="fill:#1a2e35;fill-opacity:1;fill-rule:nonzero;stroke:none"
             d="m 0,0 c 0.394,-0.014 0.713,-0.592 1.581,-1.57 1.048,-1.181 2.762,-2.455 4.454,-3.338 2.835,-1.478 8.347,-3.752 10.841,-4.922 1.559,-0.732 1.486,-2.692 -0.125,-3.808 -1.611,-1.115 -5.501,-1.92 -10.17,-0.832 -2.545,0.593 -5.856,3.04 -7.953,2.908 -2.096,-0.132 -6.019,-0.1 -7.566,1.011 -1.547,1.11 -0.928,3.483 -0.491,5.521 0.477,2.225 1.075,5.695 1.782,5.543 v -0.767 c 0.91,-1.436 5.607,-2.02 7.607,-0.963 z" /></g><g
           transform="translate(161.5483,167.1719)"
           id="g996"><path
             id="path998"
             style="fill:#1a2e35;fill-opacity:1;fill-rule:nonzero;stroke:none"
             d="m 0,0 c 0,0 6.052,1.776 10.544,6.297 0,0 -2.035,-3.968 -8.085,-7.66 l 1.294,-34.184 z" /></g><g
           transform="translate(144.6035,237.0039)"
           id="g1000"><path
             id="path1002"
             style="fill:#00dfbf;fill-opacity:1;fill-rule:nonzero;stroke:none"
             d="m 0,0 c 0,0 -5.925,-0.542 -5.504,-11.83 l 1.309,-17.981 -0.123,-26.983 c 5.568,-6.309 30.252,-5.847 38.702,0.505 0,0 -0.87,31.933 -1.441,44.221 C 32.537,-3.333 30.527,1.065 21.941,2.027 L 11.383,1.563 Z" /></g><g
           id="g1004"><g
             id="g1006" /><g
             id="g1018"><g
               style="opacity:0.30000299"
               id="g1016"
               clip-path="url(#clipPath1010)"><g
                 id="g1014"
                 transform="translate(161.4287,231.0835)"><path
                   id="path1012"
                   style="fill:#000000;fill-opacity:1;fill-rule:nonzero;stroke:none"
                   d="M 0,0 1.359,-9.479 4.526,-9.42 0.954,-9.984 Z" /></g></g></g></g><g
           transform="translate(125.811,198.2432)"
           id="g1020"><path
             id="path1022"
             style="fill:#a54e4d;fill-opacity:1;fill-rule:nonzero;stroke:none"
             d="m 0,0 c 3.072,24.697 10.137,36.974 18.751,38.417 l -0.61,-15.802 c 0,0 -5.786,-13.192 -8.199,-26.145 -1.132,-6.08 -2.444,-16.65 -2.104,-21.846 0.06,-0.92 0.468,-1.777 1.1,-2.423 1.698,-1.732 2.213,-3.23 3.354,-5.185 0.893,-1.53 1.814,-2.072 1.577,-2.439 -0.306,-0.473 -1.31,-1.12 -2.637,-0.343 -0.667,0.391 -1.468,1.186 -2.459,2.217 0,0 -0.251,-3.811 1.236,-6.876 2.015,-4.155 1.68,-6.346 -3.901,-5.122 -3.497,0.767 -6.019,4.455 -6.955,13.068 -0.27,2.481 -0.304,6.493 -0.173,9.654 C -0.681,-14.592 -0.615,-4.942 0,0" /></g><g
           transform="translate(145.0537,237.0679)"
           id="g1024"><path
             id="path1026"
             style="fill:#00dfbf;fill-opacity:1;fill-rule:nonzero;stroke:none"
             d="m 0,0 c -4.474,0.017 -8.554,-0.769 -11.799,-7.019 -3.112,-5.995 -5.505,-18.692 -6.714,-22.837 0,0 6.532,-3.86 12.537,-3.767 l 4.234,14.685 c 0,0 2.856,6.855 1.742,18.938" /></g><g
           id="g1028"><g
             id="g1030" /><g
             id="g1042"><g
               style="opacity:0.30000299"
               id="g1040"
               clip-path="url(#clipPath1034)"><g
                 id="g1038"
                 transform="translate(145.0537,237.0679)"><path
                   id="path1036"
                   style="fill:#000000;fill-opacity:1;fill-rule:nonzero;stroke:none"
                   d="m 0,0 c -4.474,0.017 -8.554,-0.769 -11.799,-7.019 -3.112,-5.995 -5.505,-18.692 -6.714,-22.837 0,0 6.532,-3.86 12.537,-3.767 l 4.234,14.685 c 0,0 2.856,6.855 1.742,18.938" /></g></g></g></g><g
           transform="translate(154.2783,262.4927)"
           id="g1044"><path
             id="path1046"
             style="fill:#1a2e35;fill-opacity:1;fill-rule:nonzero;stroke:none"
             d="m 0,0 c 0,-6.484 5.047,-11.741 11.272,-11.741 6.226,0 11.272,5.257 11.272,11.741 0,6.484 -5.046,11.741 -11.272,11.741 C 5.047,11.741 0,6.484 0,0" /></g><g
           transform="translate(147.1074,256.6191)"
           id="g1048"><path
             id="path1050"
             style="fill:#1a2e35;fill-opacity:1;fill-rule:nonzero;stroke:none"
             d="m 0,0 c 0,0 1.729,-8.46 2.422,-9.85 0.694,-1.391 2.126,-1.785 2.126,-1.785 l -0.121,5.951 z" /></g><g
           transform="translate(149.2773,268.7388)"
           id="g1052"><path
             id="path1054"
             style="fill:#1a2e35;fill-opacity:1;fill-rule:nonzero;stroke:none"
             d="M 0,0 C 0,0 -1.24,0.311 -2.557,-1.747 -3.686,-3.511 -3.942,-7.473 -2.17,-12.12 l 3.257,-0.389 z" /></g><g
           transform="translate(151.3408,256.2266)"
           id="g1056"><path
             id="path1058"
             style="fill:#a54e4d;fill-opacity:1;fill-rule:nonzero;stroke:none"
             d="m 0,0 c -0.653,-0.406 -1.584,0.901 -2.39,1.778 -0.805,0.878 -3.434,2.077 -4.746,-0.801 -1.336,-2.933 1.158,-6.809 3.228,-7.485 3.567,-1.167 4.102,1.216 4.102,1.216 l 0.272,-13.4 c 4.736,-7.325 15.462,-7.06 11.605,0.354 l -0.01,4.079 c 0,0 3.232,-0.511 4.809,-0.258 2.623,0.423 4.273,2.579 5.069,5.536 1.278,4.75 1.763,8.585 0.679,17.927 C 21.429,19.186 9.995,19.292 3.82,15.244 -2.354,11.196 0,0 0,0" /></g><g
           transform="translate(151.7461,240.5386)"
           id="g1060"><path
             id="path1062"
             style="fill:#1a2e35;fill-opacity:1;fill-rule:nonzero;stroke:none"
             d="m 0,0 c 0,0 1.666,-3.602 4.638,-5.811 2.732,-2.03 5.611,-2.385 5.611,-2.385 0,0 -2.778,-1.84 -3.959,-4.445 -1.181,-2.605 -9.513,4.567 -9.438,9.655 0,0 1.308,5.111 3.098,5.439 z" /></g><g
           transform="translate(161.9951,232.3428)"
           id="g1064"><path
             id="path1066"
             style="fill:#1a2e35;fill-opacity:1;fill-rule:nonzero;stroke:none"
             d="M 0,0 C 0,0 2.569,1.277 1.417,5.546 L 1.407,9.625 2.533,9.474 C 3.409,8.685 4.789,6.827 5.24,4.784 5.498,3.617 6.131,-2.301 5.002,-3.476 3.975,-4.546 2.302,-0.318 0,0" /></g><g
           transform="translate(151.3413,255.0825)"
           id="g1068"><path
             id="path1070"
             style="fill:#1a2e35;fill-opacity:1;fill-rule:nonzero;stroke:none"
             d="m 0,0 c -0.329,-0.007 -1.578,2.152 -2.39,2.922 -1.127,1.068 0.326,10.734 0.326,10.734 0,0 -1.082,2.403 1.087,4.89 1.543,1.768 4.122,1.965 8.525,2.685 1.715,0.281 3.547,0.468 5.219,0.941 1.791,0.508 3.552,1.695 5.219,2.541 0.552,0.28 1.169,0.567 1.766,0.406 0.574,-0.154 0.974,-0.702 1.123,-1.277 0.148,-0.575 0.091,-1.181 0.033,-1.772 1.02,1.126 3.013,0.961 4.055,-0.145 1.041,-1.106 1.185,-2.858 0.633,-4.273 C 25.043,16.237 23.901,15.124 22.642,14.273 17.108,10.538 10.577,11.575 4.383,12.309 4.086,12.344 3.772,12.374 3.5,12.25 2.531,11.81 2.323,8.797 2.153,7.927 1.579,4.994 1.104,0.022 0,0" /></g><g
           transform="translate(149.2837,268.229)"
           id="g1072"><path
             id="path1074"
             style="fill:#1a2e35;fill-opacity:1;fill-rule:nonzero;stroke:none"
             d="m 0,0 -3.948,2.208 c 0.56,1.178 1.898,1.639 2.989,1.029 C 0.131,2.627 0.561,1.178 0,0" /></g><g
           transform="translate(163.4023,241.9673)"
           id="g1076"><path
             id="path1078"
             style="fill:#8a3433;fill-opacity:1;fill-rule:nonzero;stroke:none"
             d="m 0,0 c 0,0 -5.856,1.229 -7.903,2.362 -1.37,0.759 -2.498,2.074 -2.83,2.916 0,0 0.384,-1.809 1.608,-3.44 C -7.628,-0.155 0,-1.623 0,-1.623 Z" /></g><g
           transform="translate(161.2837,258.0996)"
           id="g1080"><path
             id="path1082"
             style="fill:#1a2e35;fill-opacity:1;fill-rule:nonzero;stroke:none"
             d="m 0,0 c 0,-0.701 -0.525,-1.268 -1.173,-1.266 -0.648,0.001 -1.174,0.572 -1.174,1.273 0,0.701 0.526,1.268 1.174,1.266 C -0.525,1.271 0,0.701 0,0" /></g><g
           transform="translate(159.269,263.1792)"
           id="g1084"><path
             id="path1086"
             style="fill:#1a2e35;fill-opacity:1;fill-rule:nonzero;stroke:none"
             d="M 0,0 -2.51,-1.443 C -2.88,-0.692 -2.618,0.24 -1.925,0.638 -1.232,1.037 -0.37,0.751 0,0" /></g><g
           transform="translate(162.8721,249.3091)"
           id="g1088"><path
             id="path1090"
             style="fill:#8a3433;fill-opacity:1;fill-rule:nonzero;stroke:none"
             d="M 0,0 2.679,-1.047 C 2.414,-1.847 1.599,-2.261 0.859,-1.972 0.119,-1.683 -0.265,-0.8 0,0" /></g><g
           transform="translate(173.0059,261.7788)"
           id="g1092"><path
             id="path1094"
             style="fill:#1a2e35;fill-opacity:1;fill-rule:nonzero;stroke:none"
             d="m 0,0 -2.638,1.285 c 0.305,0.769 1.142,1.105 1.87,0.75 C -0.039,1.68 0.305,0.769 0,0" /></g><g
           transform="translate(171.2666,258.0996)"
           id="g1096"><path
             id="path1098"
             style="fill:#1a2e35;fill-opacity:1;fill-rule:nonzero;stroke:none"
             d="m 0,0 c 0,-0.701 -0.525,-1.269 -1.174,-1.266 -0.648,0.001 -1.173,0.571 -1.173,1.273 0,0.701 0.525,1.268 1.173,1.266 C -0.525,1.271 0,0.701 0,0" /></g><g
           transform="translate(164.6182,259.0073)"
           id="g1100"><path
             id="path1102"
             style="fill:#8a3433;fill-opacity:1;fill-rule:nonzero;stroke:none"
             d="m 0,0 0.136,-7.411 4.207,0.965 z" /></g><g
           transform="translate(156.0073,258.2324)"
           id="g1104"><path
             id="path1106"
             style="fill:#1a2e35;fill-opacity:1;fill-rule:nonzero;stroke:none"
             d="m 0,0 c 0,1.944 1.552,3.525 3.46,3.525 h 0.535 c 1.907,0 3.46,-1.581 3.46,-3.525 0,-1.944 -1.553,-3.525 -3.46,-3.525 H 3.46 C 1.552,-3.525 0,-1.944 0,0 M 3.46,2.931 C 1.874,2.931 0.583,1.616 0.583,0 c 0,-1.616 1.291,-2.931 2.877,-2.931 h 0.535 c 1.586,0 2.876,1.315 2.876,2.931 0,1.616 -1.29,2.931 -2.876,2.931 z" /></g><g
           transform="translate(166.5576,258.2324)"
           id="g1108"><path
             id="path1110"
             style="fill:#1a2e35;fill-opacity:1;fill-rule:nonzero;stroke:none"
             d="M 0,0 C 0,1.944 1.552,3.525 3.46,3.525 H 3.995 C 5.902,3.525 7.454,1.944 7.454,0 7.454,-1.944 5.902,-3.525 3.995,-3.525 H 3.46 C 1.552,-3.525 0,-1.944 0,0 M 3.46,2.931 C 1.874,2.931 0.583,1.616 0.583,0 c 0,-1.616 1.291,-2.931 2.877,-2.931 h 0.535 c 1.585,0 2.876,1.315 2.876,2.931 0,1.616 -1.291,2.931 -2.876,2.931 z" /></g><g
           transform="translate(163.4189,258.9282)"
           id="g1112"><path
             id="path1114"
             style="fill:#1a2e35;fill-opacity:1;fill-rule:nonzero;stroke:none"
             d="M 0,0 C 0.32,0.535 1.038,0.908 1.828,0.949 2.509,0.984 3.109,0.755 3.423,0.335 l 0.465,0.36 C 3.452,1.28 2.691,1.589 1.798,1.542 0.806,1.491 -0.074,1.019 -0.498,0.31 Z" /></g><path
           id="path1116"
           style="fill:#1a2e35;fill-opacity:1;fill-rule:nonzero;stroke:none"
           d="m 150.364,258.362 h 5.964 v 0.594 h -5.964 z" /></g></g></g></svg>