<?xml version="1.0" encoding="UTF-8" standalone="no"?>
<!-- Created with Inkscape (http://www.inkscape.org/) -->

<svg
   xmlns:dc="http://purl.org/dc/elements/1.1/"
   xmlns:cc="http://creativecommons.org/ns#"
   xmlns:rdf="http://www.w3.org/1999/02/22-rdf-syntax-ns#"
   xmlns:svg="http://www.w3.org/2000/svg"
   xmlns="http://www.w3.org/2000/svg"
   xmlns:sodipodi="http://sodipodi.sourceforge.net/DTD/sodipodi-0.dtd"
   xmlns:inkscape="http://www.inkscape.org/namespaces/inkscape"
   width="1280"
   height="760"
   viewBox="0 0 338.66668 201.08333"
   version="1.1"
   id="svg719"
   sodipodi:docname="background2.svg"
   enable-background="new"
   inkscape:version="0.92.5 (2060ec1f9f, 2020-04-08)">
  <defs
     id="defs713">
    <filter
       inkscape:collect="always"
       style="color-interpolation-filters:sRGB"
       id="filter1403">
      <feBlend
         inkscape:collect="always"
         mode="lighten"
         in2="BackgroundImage"
         id="feBlend1405" />
    </filter>
  </defs>
  <sodipodi:namedview
     id="base"
     pagecolor="#ffffff"
     bordercolor="#666666"
     borderopacity="1.0"
     inkscape:pageopacity="0.0"
     inkscape:pageshadow="2"
     inkscape:zoom="0.49884174"
     inkscape:cx="381.66005"
     inkscape:cy="302.80836"
     inkscape:document-units="mm"
     inkscape:current-layer="layer1"
     showgrid="false"
     units="px"
     inkscape:window-width="1318"
     inkscape:window-height="704"
     inkscape:window-x="48"
     inkscape:window-y="27"
     inkscape:window-maximized="1" />
  <metadata
     id="metadata716">
    <rdf:RDF>
      <cc:Work
         rdf:about="">
        <dc:format>image/svg+xml</dc:format>
        <dc:type
           rdf:resource="http://purl.org/dc/dcmitype/StillImage" />
        <dc:title></dc:title>
      </cc:Work>
    </rdf:RDF>
  </metadata>
  <g
     inkscape:label="Layer 1"
     inkscape:groupmode="layer"
     id="layer1"
     transform="translate(0,-95.91668)"
     style="display:inline">
    <path
       inkscape:connector-curvature="0"
       id="path268"
       style="fill:#8b181d;fill-opacity:1;fill-rule:nonzero;stroke:none;stroke-width:0.04713099"
       d="m 0.08692546,157.42156 v -20.348 l 0.01893243,-0.009 18.98324711,10.17605 -19.00216487,10.18058" />
    <path
       inkscape:connector-curvature="0"
       id="path270"
       style="fill:#ef2e29;fill-opacity:1;fill-rule:nonzero;stroke:none;stroke-width:0.04713099"
       d="m 0.08692546,157.45244 v -0.0309 l 19.00216554,-10.18058 0.01433,0.009 v 20.39205 L 0.08692546,157.45244" />
    <path
       inkscape:connector-curvature="0"
       id="path272"
       style="fill:#16b1b2;fill-opacity:1;fill-rule:nonzero;stroke:none;stroke-width:0.04713099"
       d="m 0.0880751,198.20975 v -20.39159 l 19.0142239,10.19375 v 0.009 L 0.0880751,198.20975" />
    <path
       inkscape:connector-curvature="0"
       id="path274"
       style="fill:#0f2832;fill-opacity:1;fill-rule:nonzero;stroke:none;stroke-width:0.04713099"
       d="m 0.0880751,177.81816 v -0.0154 l 18.9903509,-10.17423 0.02387,0.0136 v 20.3698 L 0.0880751,177.81816" />
    <path
       inkscape:connector-curvature="0"
       id="path276"
       style="fill:#0f2832;fill-opacity:1;fill-rule:nonzero;stroke:none;stroke-width:0.04713099"
       d="m 6.3950687,199.88298 v -0.005 l 6.3922143,-3.42456 0.0078,0.005 v 6.85638 l -6.4000413,-3.43137" />
    <path
       inkscape:connector-curvature="0"
       id="path278"
       style="fill:#0f2832;fill-opacity:1;fill-rule:nonzero;stroke:none;stroke-width:0.04713099"
       d="M 0.0880751,177.80272 V 157.45244 L 19.078426,167.62849 Z" />
    <path
       inkscape:connector-curvature="0"
       id="path280"
       style="fill:#5fbcd3;fill-opacity:1;fill-rule:nonzero;stroke:none;stroke-width:0.04713099"
       d="m 0.0880751,137.07356 v -20.39205 l 19.0142239,10.19421 v 0.009 L 0.0880751,137.07356" />
    <path
       inkscape:connector-curvature="0"
       id="path282"
       style="fill:#8b181d;fill-opacity:1;fill-rule:nonzero;stroke:none;stroke-width:0.04713099"
       d="m 0.0880751,116.68151 v -0.015 l 18.9903509,-10.17423 0.02387,0.0132 v 20.37026 L 0.0880751,116.68151" />
    <path
       inkscape:connector-curvature="0"
       id="path284"
       style="fill:#0066ff;fill-opacity:1;fill-rule:nonzero;stroke:none;stroke-width:0.04713099"
       d="M 0.0880751,116.66652 V 96.316244 L 19.078426,106.49229 Z" />
    <path
       inkscape:connector-curvature="0"
       id="path286"
       style="fill:#ef2e29;fill-opacity:1;fill-rule:nonzero;stroke:none;stroke-width:0.04713099"
       d="M 0.10584321,137.06493 19.103424,126.88434 v 20.34983 l -0.01433,0.007 -18.98324779,-10.17605" />
    <path
       inkscape:connector-curvature="0"
       id="path288"
       style="fill:#ef2e29;fill-opacity:1;fill-rule:nonzero;stroke:none;stroke-width:0.04713099"
       d="m 0.08692546,157.42156 v -20.348 l 0.01893243,-0.009 18.98324711,10.17605 -19.00216487,10.18058" />
    <path
       inkscape:connector-curvature="0"
       id="path290"
       style="fill:#ef2e29;fill-opacity:1;fill-rule:nonzero;stroke:none;stroke-width:0.04713099"
       d="m 19.103424,167.64211 v -20.39205 l 19.014224,10.1933 v 0.009 l -19.014224,10.18967" />
    <path
       inkscape:connector-curvature="0"
       id="path292"
       style="fill:#f2531b;fill-opacity:1;fill-rule:nonzero;stroke:none;stroke-width:0.04713099"
       d="m 19.103424,147.25006 v -0.0159 l 18.990351,-10.17378 0.02387,0.0132 v 20.3698 l -19.014224,-10.1933" />
    <path
       inkscape:connector-curvature="0"
       id="path294"
       style="fill:#f7972a;fill-opacity:1;fill-rule:nonzero;stroke:none;stroke-width:0.04713099"
       d="m 0.08692546,157.45244 v -0.0309 l 19.00216554,-10.18058 0.01433,0.009 v 20.39205 L 0.08692546,157.45244" />
    <path
       inkscape:connector-curvature="0"
       id="path296"
       style="fill:#5fbcd3;fill-opacity:1;fill-rule:nonzero;stroke:none;stroke-width:0.04713099"
       d="m 38.117648,157.42156 v -20.348 l 0.01893,-0.009 18.983208,10.17605 -19.002141,10.18058" />
    <path
       inkscape:connector-curvature="0"
       id="path298"
       style="fill:#fbcb86;fill-opacity:1;fill-rule:nonzero;stroke:none;stroke-width:0.04713099"
       d="m 62.739834,151.37615 v -8.26217 l 0.0078,-0.003 7.707993,4.13154 -7.71582,4.13381" />
    <path
       inkscape:connector-curvature="0"
       id="path300"
       style="fill:#fbcb86;fill-opacity:1;fill-rule:nonzero;stroke:none;stroke-width:0.04713099"
       d="m 38.119018,198.20975 v -20.39159 l 19.01398,10.19375 v 0.009 l -19.01398,10.18921" />
    <path
       inkscape:connector-curvature="0"
       id="path302"
       style="fill:#2c5aa0;fill-opacity:1;fill-rule:nonzero;stroke:none;stroke-width:0.04713099"
       d="m 19.121232,167.63303 18.997786,-10.18059 v 20.35028 l -0.01433,0.006 -18.983452,-10.17605" />
    <path
       inkscape:connector-curvature="0"
       id="path304"
       style="fill:#f46b34;fill-opacity:1;fill-rule:nonzero;stroke:none;stroke-width:0.04713099"
       d="m 19.102299,187.98966 v -20.34755 l 0.01893,-0.009 18.983452,10.17605 -19.002385,10.18058" />
    <path
       inkscape:connector-curvature="0"
       id="path306"
       style="fill:#2a2aff;fill-opacity:1;fill-rule:nonzero;stroke:none;stroke-width:0.04713099"
       d="m 19.102299,188.02054 v -0.0309 l 19.002385,-10.18058 0.01433,0.009 v 20.39159 L 19.102299,188.02054" />
    <path
       inkscape:connector-curvature="0"
       id="path308"
       style="fill:#f36246;fill-opacity:1;fill-rule:nonzero;stroke:none;stroke-width:0.04713099"
       d="m 38.119018,137.07356 v -20.39205 l 19.01398,10.19421 v 0.009 l -19.01398,10.18922" />
    <path
       inkscape:connector-curvature="0"
       id="path310"
       style="fill:#ef3239;fill-opacity:1;fill-rule:nonzero;stroke:none;stroke-width:0.04713099"
       d="M 19.121232,106.49683 38.119018,96.316244 v 20.350276 l -0.01433,0.006 -18.983452,-10.17605" />
    <path
       inkscape:connector-curvature="0"
       id="path312"
       style="fill:#0055d4;fill-opacity:1;fill-rule:nonzero;stroke:none;stroke-width:0.04713099"
       d="m 19.102299,126.85347 v -20.34801 l 0.01893,-0.009 18.983452,10.17605 -19.002385,10.18059" />
    <path
       inkscape:connector-curvature="0"
       id="path314"
       style="fill:#ef3239;fill-opacity:1;fill-rule:nonzero;stroke:none;stroke-width:0.04713099"
       d="m 19.102299,126.88434 v -0.0309 l 19.002385,-10.18059 0.01433,0.009 V 137.0739 L 19.102299,126.88434" />
    <path
       inkscape:connector-curvature="0"
       id="path316"
       style="fill:#3771c8;fill-opacity:1;fill-rule:nonzero;stroke:none;stroke-width:0.04713099"
       d="m 19.103424,167.64211 v -20.39205 l 19.014224,10.1933 v 0.009 l -19.014224,10.18967" />
    <path
       inkscape:connector-curvature="0"
       id="path318"
       style="fill:#5fbcd3;fill-opacity:1;fill-rule:nonzero;stroke:none;stroke-width:0.04713099"
       d="m 19.103424,147.25006 v -0.0159 l 18.990351,-10.17378 0.02387,0.0132 v 20.3698 l -19.014224,-10.1933" />
    <path
       inkscape:connector-curvature="0"
       id="path320"
       style="fill:#f2531b;fill-opacity:1;fill-rule:nonzero;stroke:none;stroke-width:0.04713099"
       d="m 19.103424,147.23417 v -20.34983 l 18.990351,10.17605 z" />
    <path
       inkscape:connector-curvature="0"
       id="path322"
       style="fill:#55ffdd;fill-opacity:1;fill-rule:nonzero;stroke:none;stroke-width:0.04713099"
       d="M 0.10584321,137.06493 19.103424,126.88434 v 20.34983 l -0.01433,0.007 -18.98324779,-10.17605" />
    <path
       inkscape:connector-curvature="0"
       id="path324"
       style="fill:#0000ff;fill-opacity:1;fill-rule:nonzero;stroke:none;stroke-width:0.04713099"
       d="m 0.08692546,157.45244 v -0.0309 l 19.00216554,-10.18058 0.01433,0.009 v 20.39205 L 0.08692546,157.45244" />
    <g
       transform="matrix(0.35277777,0,0,-0.35277777,67.536079,324.93981)"
       id="g1048">
      <path
         d="m 654.44743,-107.61007 v -44.9101 l -38.868,22.45 v 0.0191 l 38.868,22.441"
         style="fill:#8b181d;fill-opacity:1;fill-rule:nonzero;stroke:none;stroke-width:0.1"
         id="path200"
         inkscape:connector-curvature="0" />
      <path
         d="m 654.44743,-152.52017 v -0.034 l -38.819,-22.407 -0.049,0.0301 v 44.8609 l 38.868,-22.45"
         style="fill:#8b181d;fill-opacity:1;fill-rule:nonzero;stroke:none;stroke-width:0.1"
         id="path202"
         inkscape:connector-curvature="0" />
      <path
         d="m 615.57943,-130.11827 v -44.8128 l -0.039,-0.02 -38.803,22.4121 38.842,22.4207"
         style="fill:#8b181d;fill-opacity:1;fill-rule:nonzero;stroke:none;stroke-width:0.1"
         id="path204"
         inkscape:connector-curvature="0" />
      <path
         d="m 615.57943,-130.05107 v -0.0672 l -38.842,-22.4207 -0.03,0.0188 v 44.9101 l 38.872,-22.441"
         style="fill:#ef2e29;fill-opacity:1;fill-rule:nonzero;stroke:none;stroke-width:0.1"
         id="path206"
         inkscape:connector-curvature="0" />
      <path
         d="m 615.57743,-40.28907 v -44.91 l -38.867,22.45 v 0.02 l 38.867,22.44"
         style="fill:#16b1b2;fill-opacity:1;fill-rule:nonzero;stroke:none;stroke-width:0.1"
         id="path208"
         inkscape:connector-curvature="0" />
      <path
         d="m 615.57743,-85.19907 v -0.034 l -38.819,-22.4059 -0.048,0.0289 v 44.861 l 38.867,-22.45"
         style="fill:#0f2832;fill-opacity:1;fill-rule:nonzero;stroke:none;stroke-width:0.1"
         id="path210"
         inkscape:connector-curvature="0" />
      <path
         d="m 615.57743,-85.23307 v -44.818 l -38.819,22.4121 z"
         style="fill:#0f2832;fill-opacity:1;fill-rule:nonzero;stroke:none;stroke-width:0.1"
         id="path212"
         inkscape:connector-curvature="0" />
      <path
         d="m 654.41043,-107.62997 -38.833,-22.4211 v 44.818 l 0.029,0.014 38.804,-22.4109"
         style="fill:#0b8a97;fill-opacity:1;fill-rule:nonzero;stroke:none;stroke-width:0.1"
         id="path214"
         inkscape:connector-curvature="0" />
      <path
         d="m 654.44943,-62.79807 v -44.812 l -0.039,-0.0199 -38.804,22.4109 38.843,22.421"
         style="fill:#0b8a97;fill-opacity:1;fill-rule:nonzero;stroke:none;stroke-width:0.1"
         id="path216"
         inkscape:connector-curvature="0" />
      <path
         d="m 640.66743,29.45093 v -13.012 l -0.011,-0.005 -11.268,6.507 11.279,6.51"
         style="fill:#0b8a97;fill-opacity:1;fill-rule:nonzero;stroke:none;stroke-width:0.1"
         id="path218"
         inkscape:connector-curvature="0" />
      <path
         d="m 654.44943,-17.80107 v -0.067 l -38.843,-22.421 -0.029,0.02 v 44.909 l 38.872,-22.441"
         style="fill:#16b1b2;fill-opacity:1;fill-rule:nonzero;stroke:none;stroke-width:0.1"
         id="path220"
         inkscape:connector-curvature="0" />
      <path
         d="m 615.57743,-174.93107 v -44.9098 l -38.867,22.44999 v 0.0188 l 38.867,22.44106"
         style="fill:#8b181d;fill-opacity:1;fill-rule:nonzero;stroke:none;stroke-width:0.1"
         id="path222"
         inkscape:connector-curvature="0" />
      <path
         d="m 654.44943,-197.37213 v -0.0668 l -38.843,-22.42114 -0.029,0.0192 v 44.9098 l 38.872,-22.44106"
         style="fill:#0f2832;fill-opacity:1;fill-rule:nonzero;stroke:none;stroke-width:0.1"
         id="path224"
         inkscape:connector-curvature="0" />
      <path
         d="m 654.44743,-107.61007 v -44.9101 l -38.868,22.45 v 0.0191 l 38.868,22.441"
         style="fill:#ef2e29;fill-opacity:1;fill-rule:nonzero;stroke:none;stroke-width:0.1"
         id="path226"
         inkscape:connector-curvature="0" />
      <path
         d="m 654.44743,-152.52017 v -0.034 l -38.819,-22.407 -0.049,0.0301 v 44.8609 l 38.868,-22.45"
         style="fill:#ef2e29;fill-opacity:1;fill-rule:nonzero;stroke:none;stroke-width:0.1"
         id="path228"
         inkscape:connector-curvature="0" />
      <path
         d="m 654.44743,-152.55417 v -44.81796 l -38.819,22.41096 z"
         style="fill:#01a8ab;fill-opacity:1;fill-rule:nonzero;stroke:none;stroke-width:0.1"
         id="path230"
         inkscape:connector-curvature="0" />
      <path
         d="m 615.54043,-174.95107 -38.833,-22.42106 v 44.81796 l 0.03,0.0152 38.803,-22.4121"
         style="fill:#ef2e29;fill-opacity:1;fill-rule:nonzero;stroke:none;stroke-width:0.1"
         id="path232"
         inkscape:connector-curvature="0" />
      <path
         d="m 615.57943,-130.11827 v -44.8128 l -0.039,-0.02 -38.803,22.4121 38.842,22.4207"
         style="fill:#ef2e29;fill-opacity:1;fill-rule:nonzero;stroke:none;stroke-width:0.1"
         id="path234"
         inkscape:connector-curvature="0" />
      <path
         d="m 576.70743,-107.61007 v -44.9101 l -38.867,22.45 v 0.0191 l 38.867,22.441"
         style="fill:#ef2e29;fill-opacity:1;fill-rule:nonzero;stroke:none;stroke-width:0.1"
         id="path236"
         inkscape:connector-curvature="0" />
      <path
         d="m 576.70743,-152.52017 v -0.034 l -38.818,-22.407 -0.049,0.0301 v 44.8609 l 38.867,-22.45"
         style="fill:#f2531b;fill-opacity:1;fill-rule:nonzero;stroke:none;stroke-width:0.1"
         id="path238"
         inkscape:connector-curvature="0" />
      <path
         d="m 615.57943,-130.05107 v -0.0672 l -38.842,-22.4207 -0.03,0.0188 v 44.9101 l 38.872,-22.441"
         style="fill:#f7972a;fill-opacity:1;fill-rule:nonzero;stroke:none;stroke-width:0.1"
         id="path240"
         inkscape:connector-curvature="0" />
      <path
         d="m 537.83843,-40.28907 v -44.91 l -38.867,22.45 v 0.02 l 38.867,22.44"
         style="fill:#fbcb86;fill-opacity:1;fill-rule:nonzero;stroke:none;stroke-width:0.1"
         id="path242"
         inkscape:connector-curvature="0" />
      <path
         d="m 576.67143,-107.62997 -38.833,-22.4211 v 44.818 l 0.029,0.014 38.804,-22.4109"
         style="fill:#f46b34;fill-opacity:1;fill-rule:nonzero;stroke:none;stroke-width:0.1"
         id="path244"
         inkscape:connector-curvature="0" />
      <path
         d="m 511.35043,-107.63307 -18.136,-10.4699 v 20.9301 l 0.014,0.007 18.122,-10.4672"
         style="fill:#f46b34;fill-opacity:1;fill-rule:nonzero;stroke:none;stroke-width:0.1"
         id="path246"
         inkscape:connector-curvature="0" />
      <path
         d="m 511.02443,-43.75207 -12.389,-7.152 v 14.298 l 0.01,0.004 12.379,-7.15"
         style="fill:#fbcb86;fill-opacity:1;fill-rule:nonzero;stroke:none;stroke-width:0.1"
         id="path248"
         inkscape:connector-curvature="0" />
      <path
         d="m 576.71043,-62.79807 v -44.812 l -0.039,-0.0199 -38.804,22.4109 38.843,22.421"
         style="fill:#f46b34;fill-opacity:1;fill-rule:nonzero;stroke:none;stroke-width:0.1"
         id="path250"
         inkscape:connector-curvature="0" />
      <path
         d="m 576.71043,-62.72907 v -0.069 l -38.843,-22.421 -0.029,0.02 v 44.91 l 38.872,-22.44"
         style="fill:#f7972a;fill-opacity:1;fill-rule:nonzero;stroke:none;stroke-width:0.1"
         id="path252"
         inkscape:connector-curvature="0" />
      <path
         d="m 537.83843,-174.93107 v -44.9098 l -38.867,22.44999 v 0.0188 l 38.867,22.44106"
         style="fill:#f36246;fill-opacity:1;fill-rule:nonzero;stroke:none;stroke-width:0.1"
         id="path254"
         inkscape:connector-curvature="0" />
      <path
         d="m 576.71043,-197.37213 v -0.0668 l -38.843,-22.42114 -0.029,0.0192 v 44.9098 l 38.872,-22.44106"
         style="fill:#ef3239;fill-opacity:1;fill-rule:nonzero;stroke:none;stroke-width:0.1"
         id="path256"
         inkscape:connector-curvature="0" />
      <path
         d="m 576.70743,-107.61007 v -44.9101 l -38.867,22.45 v 0.0191 l 38.867,22.441"
         style="fill:#f7972a;fill-opacity:1;fill-rule:nonzero;stroke:none;stroke-width:0.1"
         id="path258"
         inkscape:connector-curvature="0" />
      <path
         d="m 576.70743,-152.52017 v -0.034 l -38.818,-22.407 -0.049,0.0301 v 44.8609 l 38.867,-22.45"
         style="fill:#f7972a;fill-opacity:1;fill-rule:nonzero;stroke:none;stroke-width:0.1"
         id="path260"
         inkscape:connector-curvature="0" />
      <path
         d="m 576.70743,-152.55417 v -44.81796 l -38.818,22.41096 z"
         style="fill:#f2531b;fill-opacity:1;fill-rule:nonzero;stroke:none;stroke-width:0.1"
         id="path262"
         inkscape:connector-curvature="0" />
      <path
         d="m 615.54043,-174.95107 -38.833,-22.42106 v 44.81796 l 0.03,0.0152 38.803,-22.4121"
         style="fill:#8b181d;fill-opacity:1;fill-rule:nonzero;stroke:none;stroke-width:0.1"
         id="path264"
         inkscape:connector-curvature="0" />
      <path
         d="m 615.57943,-130.05107 v -0.0672 l -38.842,-22.4207 -0.03,0.0188 v 44.9101 l 38.872,-22.441"
         style="fill:#f7972a;fill-opacity:1;fill-rule:nonzero;stroke:none;stroke-width:0.1"
         id="path266"
         inkscape:connector-curvature="0" />
    </g>
    <g
       inkscape:groupmode="layer"
       id="layer3"
       inkscape:label="Layer 2"
       style="display:inline;opacity:1;filter:url(#filter1403)" />
  </g>
</svg>
