<?xml version="1.0" encoding="UTF-8" standalone="no"?>
<svg
   xmlns:dc="http://purl.org/dc/elements/1.1/"
   xmlns:cc="http://creativecommons.org/ns#"
   xmlns:rdf="http://www.w3.org/1999/02/22-rdf-syntax-ns#"
   xmlns:svg="http://www.w3.org/2000/svg"
   xmlns="http://www.w3.org/2000/svg"
   id="svg719"
   version="1.1"
   viewBox="0 0 338.66668 201.08333"
   height="760"
   width="1280">
  <defs
     id="defs713" />
  <metadata
     id="metadata716">
    <rdf:RDF>
      <cc:Work
         rdf:about="">
        <dc:format>image/svg+xml</dc:format>
        <dc:type
           rdf:resource="http://purl.org/dc/dcmitype/StillImage" />
        <dc:title></dc:title>
      </cc:Work>
    </rdf:RDF>
  </metadata>
  <g
     transform="translate(0,-95.91668)"
     id="layer1">
    <g
       id="g837"
       transform="matrix(0.48921003,0,0,-0.45406483,-74.975446,298.88902)">
      <path
         id="path268"
         style="fill:#8b181d;fill-opacity:1;fill-rule:nonzero;stroke:none;stroke-width:0.1"
         d="m 153.43588,212.26893 v 44.813 l 0.0387,0.019 38.80388,-22.411 -38.84255,-22.421" />
      <path
         id="path270"
         style="fill:#ef2e29;fill-opacity:1;fill-rule:nonzero;stroke:none;stroke-width:0.1"
         d="m 153.43588,212.20093 v 0.068 l 38.84255,22.421 0.0293,-0.02 v -44.91 l -38.87185,22.441" />
      <path
         id="path272"
         style="fill:#16b1b2;fill-opacity:1;fill-rule:nonzero;stroke:none;stroke-width:0.1"
         d="m 153.43823,122.43993 v 44.909 l 38.8672,-22.45 v -0.019 l -38.8672,-22.44" />
      <path
         id="path274"
         style="fill:#0f2832;fill-opacity:1;fill-rule:nonzero;stroke:none;stroke-width:0.1"
         d="m 153.43823,167.34893 v 0.034 l 38.8184,22.407 0.0488,-0.03 v -44.861 l -38.8672,22.45" />
      <path
         id="path276"
         style="fill:#0f2832;fill-opacity:1;fill-rule:nonzero;stroke:none;stroke-width:0.1"
         d="m 166.33043,118.75493 v 0.011 l 13.0664,7.542 0.016,-0.01 v -15.1 l -13.0824,7.557" />
      <path
         id="path278"
         style="fill:#0f2832;fill-opacity:1;fill-rule:nonzero;stroke:none;stroke-width:0.1"
         d="m 153.43823,167.38293 v 44.818 l 38.8184,-22.411 z" />
      <path
         id="path280"
         style="fill:#8b181d;fill-opacity:1;fill-rule:nonzero;stroke:none;stroke-width:0.1"
         d="m 153.43823,257.08193 v 44.91 l 38.8672,-22.451 v -0.019 l -38.8672,-22.44" />
      <path
         id="path282"
         style="fill:#8b181d;fill-opacity:1;fill-rule:nonzero;stroke:none;stroke-width:0.1"
         d="m 153.43823,301.99193 v 0.033 l 38.8184,22.407 0.0488,-0.029 v -44.862 l -38.8672,22.451" />
      <path
         id="path284"
         style="fill:#01a8ab;fill-opacity:1;fill-rule:nonzero;stroke:none;stroke-width:0.1"
         d="m 153.43823,302.02493 v 44.818 l 38.8184,-22.411 z" />
      <path
         id="path286"
         style="fill:#ef2e29;fill-opacity:1;fill-rule:nonzero;stroke:none;stroke-width:0.1"
         d="m 153.47455,257.10093 38.83318,22.421 v -44.817 l -0.0293,-0.015 -38.80388,22.411" />
      <path
         id="path288"
         style="fill:#ef2e29;fill-opacity:1;fill-rule:nonzero;stroke:none;stroke-width:0.1"
         d="m 153.43588,212.26893 v 44.813 l 0.0387,0.019 38.80388,-22.411 -38.84255,-22.421" />
      <path
         id="path290"
         style="fill:#ef2e29;fill-opacity:1;fill-rule:nonzero;stroke:none;stroke-width:0.1"
         d="m 192.30773,189.75993 v 44.91 l 38.8672,-22.449 v -0.02 l -38.8672,-22.441" />
      <path
         id="path292"
         style="fill:#f2531b;fill-opacity:1;fill-rule:nonzero;stroke:none;stroke-width:0.1"
         d="m 192.30773,234.66993 v 0.035 l 38.8184,22.406 0.0488,-0.029 v -44.861 l -38.8672,22.449" />
      <path
         id="path294"
         style="fill:#f7972a;fill-opacity:1;fill-rule:nonzero;stroke:none;stroke-width:0.1"
         d="m 153.43588,212.20093 v 0.068 l 38.84255,22.421 0.0293,-0.02 v -44.91 l -38.87185,22.441" />
      <path
         id="path296"
         style="fill:#f7972a;fill-opacity:1;fill-rule:nonzero;stroke:none;stroke-width:0.1"
         d="m 231.17493,212.26893 v 44.813 l 0.0387,0.019 38.8038,-22.411 -38.8425,-22.421" />
      <path
         id="path298"
         style="fill:#fbcb86;fill-opacity:1;fill-rule:nonzero;stroke:none;stroke-width:0.1"
         d="m 281.50543,225.58293 v 18.196 l 0.016,0.007 15.756,-9.099 -15.772,-9.104" />
      <path
         id="path300"
         style="fill:#fbcb86;fill-opacity:1;fill-rule:nonzero;stroke:none;stroke-width:0.1"
         d="m 231.17773,122.43993 v 44.909 l 38.8667,-22.45 v -0.019 l -38.8667,-22.44" />
      <path
         id="path302"
         style="fill:#f46b34;fill-opacity:1;fill-rule:nonzero;stroke:none;stroke-width:0.1"
         d="m 192.34413,189.77993 38.8336,22.421 v -44.818 l -0.0293,-0.014 -38.8043,22.411" />
      <path
         id="path304"
         style="fill:#f46b34;fill-opacity:1;fill-rule:nonzero;stroke:none;stroke-width:0.1"
         d="m 192.30543,144.94793 v 44.812 l 0.0387,0.02 38.8043,-22.411 -38.843,-22.421" />
      <path
         id="path306"
         style="fill:#f7972a;fill-opacity:1;fill-rule:nonzero;stroke:none;stroke-width:0.1"
         d="m 192.30543,144.87993 v 0.068 l 38.843,22.421 0.0293,-0.02 v -44.909 l -38.8723,22.44" />
      <path
         id="path308"
         style="fill:#f36246;fill-opacity:1;fill-rule:nonzero;stroke:none;stroke-width:0.1"
         d="m 231.17773,257.08193 v 44.91 l 38.8667,-22.451 v -0.019 l -38.8667,-22.44" />
      <path
         id="path310"
         style="fill:#ef3239;fill-opacity:1;fill-rule:nonzero;stroke:none;stroke-width:0.1"
         d="m 192.34413,324.42193 38.8336,22.421 v -44.818 l -0.0293,-0.014 -38.8043,22.411" />
      <path
         id="path312"
         style="fill:#ef3239;fill-opacity:1;fill-rule:nonzero;stroke:none;stroke-width:0.1"
         d="m 192.30543,279.58993 v 44.813 l 0.0387,0.019 38.8043,-22.411 -38.843,-22.421" />
      <path
         id="path314"
         style="fill:#ef3239;fill-opacity:1;fill-rule:nonzero;stroke:none;stroke-width:0.1"
         d="m 192.30543,279.52193 v 0.068 l 38.843,22.421 0.0293,-0.019 v -44.91 l -38.8723,22.44" />
      <path
         id="path316"
         style="fill:#f7972a;fill-opacity:1;fill-rule:nonzero;stroke:none;stroke-width:0.1"
         d="m 192.30773,189.75993 v 44.91 l 38.8672,-22.449 v -0.02 l -38.8672,-22.441" />
      <path
         id="path318"
         style="fill:#f7972a;fill-opacity:1;fill-rule:nonzero;stroke:none;stroke-width:0.1"
         d="m 192.30773,234.66993 v 0.035 l 38.8184,22.406 0.0488,-0.029 v -44.861 l -38.8672,22.449" />
      <path
         id="path320"
         style="fill:#f2531b;fill-opacity:1;fill-rule:nonzero;stroke:none;stroke-width:0.1"
         d="m 192.30773,234.70493 v 44.817 l 38.8184,-22.411 z" />
      <path
         id="path322"
         style="fill:#8b181d;fill-opacity:1;fill-rule:nonzero;stroke:none;stroke-width:0.1"
         d="m 153.47455,257.10093 38.83318,22.421 v -44.817 l -0.0293,-0.015 -38.80388,22.411" />
      <path
         id="path324"
         style="fill:#f7972a;fill-opacity:1;fill-rule:nonzero;stroke:none;stroke-width:0.1"
         d="m 153.43588,212.20093 v 0.068 l 38.84255,22.421 0.0293,-0.02 v -44.91 l -38.87185,22.441" />
    </g>
  </g>
</svg>
