<?xml version="1.0" encoding="UTF-8" standalone="no"?>
<svg
   xmlns:dc="http://purl.org/dc/elements/1.1/"
   xmlns:cc="http://creativecommons.org/ns#"
   xmlns:rdf="http://www.w3.org/1999/02/22-rdf-syntax-ns#"
   xmlns:svg="http://www.w3.org/2000/svg"
   xmlns="http://www.w3.org/2000/svg"
   enable-background="new"
   id="svg719"
   version="1.1"
   viewBox="0 0 338.66668 201.08333"
   height="760"
   width="1280">
  <defs
     id="defs713">
    <filter
       id="filter1403"
       style="color-interpolation-filters:sRGB">
      <feBlend
         id="feBlend1405"
         in2="BackgroundImage"
         mode="lighten" />
    </filter>
  </defs>
  <metadata
     id="metadata716">
    <rdf:RDF>
      <cc:Work
         rdf:about="">
        <dc:format>image/svg+xml</dc:format>
        <dc:type
           rdf:resource="http://purl.org/dc/dcmitype/StillImage" />
        <dc:title></dc:title>
      </cc:Work>
    </rdf:RDF>
  </metadata>
  <g
     style="display:inline"
     transform="translate(0,-95.91668)"
     id="layer1">
    <g
       transform="translate(-82.211278,41.370836)"
       id="g1465">
      <path
         id="path268"
         style="fill:#8b181d;fill-opacity:1;fill-rule:nonzero;stroke:none;stroke-width:0.04713099"
         d="m 0.08692546,157.42156 v -20.348 l 0.01893243,-0.009 18.98324711,10.17605 -19.00216487,10.18058" />
      <path
         id="path270"
         style="fill:#ef2e29;fill-opacity:1;fill-rule:nonzero;stroke:none;stroke-width:0.04713099"
         d="m 0.08692546,157.45244 v -0.0309 l 19.00216554,-10.18058 0.01433,0.009 v 20.39205 L 0.08692546,157.45244" />
      <path
         id="path272"
         style="fill:#16b1b2;fill-opacity:1;fill-rule:nonzero;stroke:none;stroke-width:0.04713099"
         d="m 0.0880751,198.20975 v -20.39159 l 19.0142239,10.19375 v 0.009 L 0.0880751,198.20975" />
      <path
         id="path274"
         style="fill:#0f2832;fill-opacity:1;fill-rule:nonzero;stroke:none;stroke-width:0.04713099"
         d="m 0.0880751,177.81816 v -0.0154 l 18.9903509,-10.17423 0.02387,0.0136 v 20.3698 L 0.0880751,177.81816" />
      <path
         id="path276"
         style="fill:#0f2832;fill-opacity:1;fill-rule:nonzero;stroke:none;stroke-width:0.04713099"
         d="m 6.3950687,199.88298 v -0.005 l 6.3922143,-3.42456 0.0078,0.005 v 6.85638 l -6.4000413,-3.43137" />
      <path
         id="path278"
         style="fill:#0f2832;fill-opacity:1;fill-rule:nonzero;stroke:none;stroke-width:0.04713099"
         d="M 0.0880751,177.80272 V 157.45244 L 19.078426,167.62849 Z" />
      <path
         id="path280"
         style="fill:#5fbcd3;fill-opacity:1;fill-rule:nonzero;stroke:none;stroke-width:0.04713099"
         d="m 0.0880751,137.07356 v -20.39205 l 19.0142239,10.19421 v 0.009 L 0.0880751,137.07356" />
      <path
         id="path282"
         style="fill:#8b181d;fill-opacity:1;fill-rule:nonzero;stroke:none;stroke-width:0.04713099"
         d="m 0.0880751,116.68151 v -0.015 l 18.9903509,-10.17423 0.02387,0.0132 v 20.37026 L 0.0880751,116.68151" />
      <path
         id="path284"
         style="fill:#0066ff;fill-opacity:1;fill-rule:nonzero;stroke:none;stroke-width:0.04713099"
         d="M 0.0880751,116.66652 V 96.316244 L 19.078426,106.49229 Z" />
      <path
         id="path286"
         style="fill:#ef2e29;fill-opacity:1;fill-rule:nonzero;stroke:none;stroke-width:0.04713099"
         d="M 0.10584321,137.06493 19.103424,126.88434 v 20.34983 l -0.01433,0.007 -18.98324779,-10.17605" />
      <path
         id="path288"
         style="fill:#ef2e29;fill-opacity:1;fill-rule:nonzero;stroke:none;stroke-width:0.04713099"
         d="m 0.08692546,157.42156 v -20.348 l 0.01893243,-0.009 18.98324711,10.17605 -19.00216487,10.18058" />
      <path
         id="path290"
         style="fill:#ef2e29;fill-opacity:1;fill-rule:nonzero;stroke:none;stroke-width:0.04713099"
         d="m 19.103424,167.64211 v -20.39205 l 19.014224,10.1933 v 0.009 l -19.014224,10.18967" />
      <path
         id="path292"
         style="fill:#f2531b;fill-opacity:1;fill-rule:nonzero;stroke:none;stroke-width:0.04713099"
         d="m 19.103424,147.25006 v -0.0159 l 18.990351,-10.17378 0.02387,0.0132 v 20.3698 l -19.014224,-10.1933" />
      <path
         id="path294"
         style="fill:#f7972a;fill-opacity:1;fill-rule:nonzero;stroke:none;stroke-width:0.04713099"
         d="m 0.08692546,157.45244 v -0.0309 l 19.00216554,-10.18058 0.01433,0.009 v 20.39205 L 0.08692546,157.45244" />
      <path
         id="path296"
         style="fill:#5fbcd3;fill-opacity:1;fill-rule:nonzero;stroke:none;stroke-width:0.04713099"
         d="m 38.117648,157.42156 v -20.348 l 0.01893,-0.009 18.983208,10.17605 -19.002141,10.18058" />
      <path
         id="path298"
         style="fill:#fbcb86;fill-opacity:1;fill-rule:nonzero;stroke:none;stroke-width:0.04713099"
         d="m 62.739834,151.37615 v -8.26217 l 0.0078,-0.003 7.707993,4.13154 -7.71582,4.13381" />
      <path
         id="path300"
         style="fill:#fbcb86;fill-opacity:1;fill-rule:nonzero;stroke:none;stroke-width:0.04713099"
         d="m 38.119018,198.20975 v -20.39159 l 19.01398,10.19375 v 0.009 l -19.01398,10.18921" />
      <path
         id="path302"
         style="fill:#2c5aa0;fill-opacity:1;fill-rule:nonzero;stroke:none;stroke-width:0.04713099"
         d="m 19.121232,167.63303 18.997786,-10.18059 v 20.35028 l -0.01433,0.006 -18.983452,-10.17605" />
      <path
         id="path304"
         style="fill:#f46b34;fill-opacity:1;fill-rule:nonzero;stroke:none;stroke-width:0.04713099"
         d="m 19.102299,187.98966 v -20.34755 l 0.01893,-0.009 18.983452,10.17605 -19.002385,10.18058" />
      <path
         id="path306"
         style="fill:#2a2aff;fill-opacity:1;fill-rule:nonzero;stroke:none;stroke-width:0.04713099"
         d="m 19.102299,188.02054 v -0.0309 l 19.002385,-10.18058 0.01433,0.009 v 20.39159 L 19.102299,188.02054" />
      <path
         id="path308"
         style="fill:#f36246;fill-opacity:1;fill-rule:nonzero;stroke:none;stroke-width:0.04713099"
         d="m 38.119018,137.07356 v -20.39205 l 19.01398,10.19421 v 0.009 l -19.01398,10.18922" />
      <path
         id="path310"
         style="fill:#ef3239;fill-opacity:1;fill-rule:nonzero;stroke:none;stroke-width:0.04713099"
         d="M 19.121232,106.49683 38.119018,96.316244 v 20.350276 l -0.01433,0.006 -18.983452,-10.17605" />
      <path
         id="path312"
         style="fill:#0055d4;fill-opacity:1;fill-rule:nonzero;stroke:none;stroke-width:0.04713099"
         d="m 19.102299,126.85347 v -20.34801 l 0.01893,-0.009 18.983452,10.17605 -19.002385,10.18059" />
      <path
         id="path314"
         style="fill:#ef3239;fill-opacity:1;fill-rule:nonzero;stroke:none;stroke-width:0.04713099"
         d="m 19.102299,126.88434 v -0.0309 l 19.002385,-10.18059 0.01433,0.009 V 137.0739 L 19.102299,126.88434" />
      <path
         id="path316"
         style="fill:#3771c8;fill-opacity:1;fill-rule:nonzero;stroke:none;stroke-width:0.04713099"
         d="m 19.103424,167.64211 v -20.39205 l 19.014224,10.1933 v 0.009 l -19.014224,10.18967" />
      <path
         id="path318"
         style="fill:#5fbcd3;fill-opacity:1;fill-rule:nonzero;stroke:none;stroke-width:0.04713099"
         d="m 19.103424,147.25006 v -0.0159 l 18.990351,-10.17378 0.02387,0.0132 v 20.3698 l -19.014224,-10.1933" />
      <path
         id="path320"
         style="fill:#f2531b;fill-opacity:1;fill-rule:nonzero;stroke:none;stroke-width:0.04713099"
         d="m 19.103424,147.23417 v -20.34983 l 18.990351,10.17605 z" />
      <path
         id="path322"
         style="fill:#55ffdd;fill-opacity:1;fill-rule:nonzero;stroke:none;stroke-width:0.04713099"
         d="M 0.10584321,137.06493 19.103424,126.88434 v 20.34983 l -0.01433,0.007 -18.98324779,-10.17605" />
      <path
         id="path324"
         style="fill:#0000ff;fill-opacity:1;fill-rule:nonzero;stroke:none;stroke-width:0.04713099"
         d="m 0.08692546,157.45244 v -0.0309 l 19.00216554,-10.18058 0.01433,0.009 v 20.39205 L 0.08692546,157.45244" />
    </g>
    <path
       d="m 338.19023,199.54048 v 15.84329 l -13.71176,-7.91987 v -0.007 l 13.71176,-7.91669"
       style="fill:#8b181d;fill-opacity:1;fill-rule:nonzero;stroke:none;stroke-width:0.03527778"
       id="path200" />
    <path
       d="m 338.19023,215.38377 v 0.012 l -13.69448,7.90469 -0.0173,-0.0106 V 207.4639 l 13.71176,7.91987"
       style="fill:#8b181d;fill-opacity:1;fill-rule:nonzero;stroke:none;stroke-width:0.03527778"
       id="path202" />
    <path
       d="m 324.47847,207.48087 v 15.80896 l -0.0138,0.007 -13.68884,-7.90649 13.7026,-7.90953"
       style="fill:#8b181d;fill-opacity:1;fill-rule:nonzero;stroke:none;stroke-width:0.03527778"
       id="path204" />
    <path
       d="m 324.47847,207.45717 v 0.0237 l -13.7026,7.90953 -0.0106,-0.007 v -15.84329 l 13.71318,7.91669"
       style="fill:#ef2e29;fill-opacity:1;fill-rule:nonzero;stroke:none;stroke-width:0.03527778"
       id="path206" />
    <path
       d="m 324.47776,175.79113 v 15.84325 l -13.71141,-7.91986 v -0.007 l 13.71141,-7.91633"
       style="fill:#16b1b2;fill-opacity:1;fill-rule:nonzero;stroke:none;stroke-width:0.03527778"
       id="path208" />
    <path
       d="m 324.47776,191.63438 v 0.012 l -13.69448,7.90431 -0.0169,-0.0102 v -15.82596 l 13.71141,7.91986"
       style="fill:#0f2832;fill-opacity:1;fill-rule:nonzero;stroke:none;stroke-width:0.03527778"
       id="path210" />
    <path
       d="m 324.47776,191.64637 v 15.8108 l -13.69448,-7.90649 z"
       style="fill:#0f2832;fill-opacity:1;fill-rule:nonzero;stroke:none;stroke-width:0.03527778"
       id="path212" />
    <path
       d="m 338.17718,199.5475 -13.69942,7.90967 v -15.8108 l 0.0102,-0.005 13.68919,7.90607"
       style="fill:#0b8a97;fill-opacity:1;fill-rule:nonzero;stroke:none;stroke-width:0.03527778"
       id="path214" />
    <path
       d="m 338.19094,183.7318 v 15.80868 l -0.0138,0.007 -13.68919,-7.90607 13.70295,-7.90963"
       style="fill:#0b8a97;fill-opacity:1;fill-rule:nonzero;stroke:none;stroke-width:0.03527778"
       id="path216" />
    <path
       d="m 333.32896,151.18841 v 4.59034 l -0.004,0.002 -3.9751,-2.29552 3.97898,-2.29658"
       style="fill:#0b8a97;fill-opacity:1;fill-rule:nonzero;stroke:none;stroke-width:0.03527778"
       id="path218" />
    <path
       d="m 338.19094,167.85786 v 0.0236 l -13.70295,7.90963 -0.0102,-0.007 V 159.9412 l 13.71318,7.91668"
       style="fill:#16b1b2;fill-opacity:1;fill-rule:nonzero;stroke:none;stroke-width:0.03527778"
       id="path220" />
    <path
       d="m 324.47776,223.28983 v 15.84318 l -13.71141,-7.91986 v -0.007 l 13.71141,-7.9167"
       style="fill:#8b181d;fill-opacity:1;fill-rule:nonzero;stroke:none;stroke-width:0.03527778"
       id="path222" />
    <path
       d="m 338.19094,231.20654 v 0.0236 l -13.70295,7.90968 -0.0102,-0.007 v -15.84318 l 13.71318,7.91671"
       style="fill:#0f2832;fill-opacity:1;fill-rule:nonzero;stroke:none;stroke-width:0.03527778"
       id="path224" />
    <path
       d="m 338.19023,199.54048 v 15.84329 l -13.71176,-7.91987 v -0.007 l 13.71176,-7.91669"
       style="fill:#ef2e29;fill-opacity:1;fill-rule:nonzero;stroke:none;stroke-width:0.03527778"
       id="path226" />
    <path
       d="m 338.19023,215.38377 v 0.012 l -13.69448,7.90469 -0.0173,-0.0106 V 207.4639 l 13.71176,7.91987"
       style="fill:#ef2e29;fill-opacity:1;fill-rule:nonzero;stroke:none;stroke-width:0.03527778"
       id="path228" />
    <path
       d="m 338.19023,215.39576 v 15.81078 l -13.69448,-7.90609 z"
       style="fill:#01a8ab;fill-opacity:1;fill-rule:nonzero;stroke:none;stroke-width:0.03527778"
       id="path230" />
    <path
       d="m 324.46471,223.29689 -13.69942,7.90965 v -15.81078 l 0.0106,-0.005 13.68884,7.90649"
       style="fill:#ef2e29;fill-opacity:1;fill-rule:nonzero;stroke:none;stroke-width:0.03527778"
       id="path232" />
    <path
       d="m 324.47847,207.48087 v 15.80896 l -0.0138,0.007 -13.68884,-7.90649 13.7026,-7.90953"
       style="fill:#3771c8;fill-opacity:1;fill-rule:nonzero;stroke:none;stroke-width:0.03527778"
       id="path234" />
    <path
       d="m 310.76529,199.54048 v 15.84329 l -13.71141,-7.91987 v -0.007 l 13.71141,-7.91669"
       style="fill:#ef2e29;fill-opacity:1;fill-rule:nonzero;stroke:none;stroke-width:0.03527778"
       id="path236" />
    <path
       d="m 310.76529,215.38377 v 0.012 l -13.69413,7.90469 -0.0173,-0.0106 V 207.4639 l 13.71141,7.91987"
       style="fill:#f2531b;fill-opacity:1;fill-rule:nonzero;stroke:none;stroke-width:0.03527778"
       id="path238" />
    <path
       d="m 324.47847,207.45717 v 0.0237 l -13.7026,7.90953 -0.0106,-0.007 v -15.84329 l 13.71318,7.91669"
       style="fill:#f7972a;fill-opacity:1;fill-rule:nonzero;stroke:none;stroke-width:0.03527778"
       id="path240" />
    <path
       d="m 297.05317,175.79113 v 15.84325 l -13.71141,-7.91986 v -0.007 l 13.71141,-7.91633"
       style="fill:#aaccff;fill-opacity:1;fill-rule:nonzero;stroke:none;stroke-width:0.03527778"
       id="path242" />
    <path
       d="m 310.75259,199.5475 -13.69942,7.90967 v -15.8108 l 0.0102,-0.005 13.68919,7.90607"
       style="fill:#f46b34;fill-opacity:1;fill-rule:nonzero;stroke:none;stroke-width:0.03527778"
       id="path244" />
    <path
       d="m 287.70879,199.54859 -6.39797,3.69355 v -7.38367 l 0.005,-0.002 6.39303,3.69259"
       style="fill:#f46b34;fill-opacity:1;fill-rule:nonzero;stroke:none;stroke-width:0.03527778"
       id="path246" />
    <path
       d="m 287.59379,177.0128 -4.37056,2.52306 v -5.04401 l 0.004,-0.001 4.36704,2.52236"
       style="fill:#80b3ff;fill-opacity:1;fill-rule:nonzero;stroke:none;stroke-width:0.03527778"
       id="path248" />
    <path
       d="m 310.76635,183.7318 v 15.80868 l -0.0138,0.007 -13.68919,-7.90607 13.70295,-7.90963"
       style="fill:#2a2aff;fill-opacity:1;fill-rule:nonzero;stroke:none;stroke-width:0.03527778"
       id="path250" />
    <path
       d="m 310.76635,183.70746 v 0.0243 l -13.70295,7.90963 -0.0102,-0.007 v -15.84325 l 13.71318,7.91633"
       style="fill:#80b3ff;fill-opacity:1;fill-rule:nonzero;stroke:none;stroke-width:0.03527778"
       id="path252" />
    <path
       d="m 297.05317,223.28983 v 15.84318 l -13.71141,-7.91986 v -0.007 l 13.71141,-7.9167"
       style="fill:#f36246;fill-opacity:1;fill-rule:nonzero;stroke:none;stroke-width:0.03527778"
       id="path254" />
    <path
       d="m 310.76635,231.20654 v 0.0236 l -13.70295,7.90968 -0.0102,-0.007 v -15.84318 l 13.71318,7.91671"
       style="fill:#0066ff;fill-opacity:1;fill-rule:nonzero;stroke:none;stroke-width:0.03527778"
       id="path256" />
    <path
       d="m 310.76529,199.54048 v 15.84329 l -13.71141,-7.91987 v -0.007 l 13.71141,-7.91669"
       style="fill:#0000ff;fill-opacity:1;fill-rule:nonzero;stroke:none;stroke-width:0.03527778"
       id="path258" />
    <path
       d="m 310.76529,215.38377 v 0.012 l -13.69413,7.90469 -0.0173,-0.0106 V 207.4639 l 13.71141,7.91987"
       style="fill:#0055d4;fill-opacity:1;fill-rule:nonzero;stroke:none;stroke-width:0.03527778"
       id="path260" />
    <path
       d="m 310.76529,215.39576 v 15.81078 l -13.69413,-7.90609 z"
       style="fill:#f2531b;fill-opacity:1;fill-rule:nonzero;stroke:none;stroke-width:0.03527778"
       id="path262" />
    <path
       d="m 324.46471,223.29689 -13.69942,7.90965 v -15.81078 l 0.0106,-0.005 13.68884,7.90649"
       style="fill:#0066ff;fill-opacity:1;fill-rule:nonzero;stroke:none;stroke-width:0.03527778"
       id="path264" />
    <path
       d="m 324.47847,207.45717 v 0.0237 l -13.7026,7.90953 -0.0106,-0.007 v -15.84329 l 13.71318,7.91669"
       style="fill:#5fbcd3;fill-opacity:1;fill-rule:nonzero;stroke:none;stroke-width:0.03527778"
       id="path266" />
    <g
       style="display:inline;opacity:1;filter:url(#filter1403)"
       id="layer3" />
  </g>
</svg>
