<?xml version="1.0" encoding="UTF-8" standalone="no"?>
<svg
   xmlns:dc="http://purl.org/dc/elements/1.1/"
   xmlns:cc="http://creativecommons.org/ns#"
   xmlns:rdf="http://www.w3.org/1999/02/22-rdf-syntax-ns#"
   xmlns:svg="http://www.w3.org/2000/svg"
   xmlns="http://www.w3.org/2000/svg"
   id="svg719"
   version="1.1"
   viewBox="0 0 338.66668 201.08333"
   height="760"
   width="1280">
  <defs
     id="defs713" />
  <metadata
     id="metadata716">
    <rdf:RDF>
      <cc:Work
         rdf:about="">
        <dc:format>image/svg+xml</dc:format>
        <dc:type
           rdf:resource="http://purl.org/dc/dcmitype/StillImage" />
        <dc:title></dc:title>
      </cc:Work>
    </rdf:RDF>
  </metadata>
  <g
     transform="translate(0,-95.91668)"
     id="layer1">
    <g
       id="g1048"
       transform="matrix(0.43830684,0,0,-0.41660111,51.871677,152.8498)">
      <path
         id="path200"
         style="fill:#8b181d;fill-opacity:1;fill-rule:nonzero;stroke:none;stroke-width:0.1"
         d="m 654.44743,-107.61007 v -44.9101 l -38.868,22.45 v 0.0191 l 38.868,22.441" />
      <path
         id="path202"
         style="fill:#8b181d;fill-opacity:1;fill-rule:nonzero;stroke:none;stroke-width:0.1"
         d="m 654.44743,-152.52017 v -0.034 l -38.819,-22.407 -0.049,0.0301 v 44.8609 l 38.868,-22.45" />
      <path
         id="path204"
         style="fill:#8b181d;fill-opacity:1;fill-rule:nonzero;stroke:none;stroke-width:0.1"
         d="m 615.57943,-130.11827 v -44.8128 l -0.039,-0.02 -38.803,22.4121 38.842,22.4207" />
      <path
         id="path206"
         style="fill:#ef2e29;fill-opacity:1;fill-rule:nonzero;stroke:none;stroke-width:0.1"
         d="m 615.57943,-130.05107 v -0.0672 l -38.842,-22.4207 -0.03,0.0188 v 44.9101 l 38.872,-22.441" />
      <path
         id="path208"
         style="fill:#16b1b2;fill-opacity:1;fill-rule:nonzero;stroke:none;stroke-width:0.1"
         d="m 615.57743,-40.28907 v -44.91 l -38.867,22.45 v 0.02 l 38.867,22.44" />
      <path
         id="path210"
         style="fill:#0f2832;fill-opacity:1;fill-rule:nonzero;stroke:none;stroke-width:0.1"
         d="m 615.57743,-85.19907 v -0.034 l -38.819,-22.4059 -0.048,0.0289 v 44.861 l 38.867,-22.45" />
      <path
         id="path212"
         style="fill:#0f2832;fill-opacity:1;fill-rule:nonzero;stroke:none;stroke-width:0.1"
         d="m 615.57743,-85.23307 v -44.818 l -38.819,22.4121 z" />
      <path
         id="path214"
         style="fill:#0b8a97;fill-opacity:1;fill-rule:nonzero;stroke:none;stroke-width:0.1"
         d="m 654.41043,-107.62997 -38.833,-22.4211 v 44.818 l 0.029,0.014 38.804,-22.4109" />
      <path
         id="path216"
         style="fill:#0b8a97;fill-opacity:1;fill-rule:nonzero;stroke:none;stroke-width:0.1"
         d="m 654.44943,-62.79807 v -44.812 l -0.039,-0.0199 -38.804,22.4109 38.843,22.421" />
      <path
         id="path218"
         style="fill:#0b8a97;fill-opacity:1;fill-rule:nonzero;stroke:none;stroke-width:0.1"
         d="m 640.66743,29.45093 v -13.012 l -0.011,-0.005 -11.268,6.507 11.279,6.51" />
      <path
         id="path220"
         style="fill:#16b1b2;fill-opacity:1;fill-rule:nonzero;stroke:none;stroke-width:0.1"
         d="m 654.44943,-17.80107 v -0.067 l -38.843,-22.421 -0.029,0.02 v 44.909 l 38.872,-22.441" />
      <path
         id="path222"
         style="fill:#8b181d;fill-opacity:1;fill-rule:nonzero;stroke:none;stroke-width:0.1"
         d="m 615.57743,-174.93107 v -44.9098 l -38.867,22.44999 v 0.0188 l 38.867,22.44106" />
      <path
         id="path224"
         style="fill:#0f2832;fill-opacity:1;fill-rule:nonzero;stroke:none;stroke-width:0.1"
         d="m 654.44943,-197.37213 v -0.0668 l -38.843,-22.42114 -0.029,0.0192 v 44.9098 l 38.872,-22.44106" />
      <path
         id="path226"
         style="fill:#ef2e29;fill-opacity:1;fill-rule:nonzero;stroke:none;stroke-width:0.1"
         d="m 654.44743,-107.61007 v -44.9101 l -38.868,22.45 v 0.0191 l 38.868,22.441" />
      <path
         id="path228"
         style="fill:#ef2e29;fill-opacity:1;fill-rule:nonzero;stroke:none;stroke-width:0.1"
         d="m 654.44743,-152.52017 v -0.034 l -38.819,-22.407 -0.049,0.0301 v 44.8609 l 38.868,-22.45" />
      <path
         id="path230"
         style="fill:#01a8ab;fill-opacity:1;fill-rule:nonzero;stroke:none;stroke-width:0.1"
         d="m 654.44743,-152.55417 v -44.81796 l -38.819,22.41096 z" />
      <path
         id="path232"
         style="fill:#ef2e29;fill-opacity:1;fill-rule:nonzero;stroke:none;stroke-width:0.1"
         d="m 615.54043,-174.95107 -38.833,-22.42106 v 44.81796 l 0.03,0.0152 38.803,-22.4121" />
      <path
         id="path234"
         style="fill:#ef2e29;fill-opacity:1;fill-rule:nonzero;stroke:none;stroke-width:0.1"
         d="m 615.57943,-130.11827 v -44.8128 l -0.039,-0.02 -38.803,22.4121 38.842,22.4207" />
      <path
         id="path236"
         style="fill:#ef2e29;fill-opacity:1;fill-rule:nonzero;stroke:none;stroke-width:0.1"
         d="m 576.70743,-107.61007 v -44.9101 l -38.867,22.45 v 0.0191 l 38.867,22.441" />
      <path
         id="path238"
         style="fill:#f2531b;fill-opacity:1;fill-rule:nonzero;stroke:none;stroke-width:0.1"
         d="m 576.70743,-152.52017 v -0.034 l -38.818,-22.407 -0.049,0.0301 v 44.8609 l 38.867,-22.45" />
      <path
         id="path240"
         style="fill:#f7972a;fill-opacity:1;fill-rule:nonzero;stroke:none;stroke-width:0.1"
         d="m 615.57943,-130.05107 v -0.0672 l -38.842,-22.4207 -0.03,0.0188 v 44.9101 l 38.872,-22.441" />
      <path
         id="path242"
         style="fill:#fbcb86;fill-opacity:1;fill-rule:nonzero;stroke:none;stroke-width:0.1"
         d="m 537.83843,-40.28907 v -44.91 l -38.867,22.45 v 0.02 l 38.867,22.44" />
      <path
         id="path244"
         style="fill:#f46b34;fill-opacity:1;fill-rule:nonzero;stroke:none;stroke-width:0.1"
         d="m 576.67143,-107.62997 -38.833,-22.4211 v 44.818 l 0.029,0.014 38.804,-22.4109" />
      <path
         id="path246"
         style="fill:#f46b34;fill-opacity:1;fill-rule:nonzero;stroke:none;stroke-width:0.1"
         d="m 511.35043,-107.63307 -18.136,-10.4699 v 20.9301 l 0.014,0.007 18.122,-10.4672" />
      <path
         id="path248"
         style="fill:#fbcb86;fill-opacity:1;fill-rule:nonzero;stroke:none;stroke-width:0.1"
         d="m 511.02443,-43.75207 -12.389,-7.152 v 14.298 l 0.01,0.004 12.379,-7.15" />
      <path
         id="path250"
         style="fill:#f46b34;fill-opacity:1;fill-rule:nonzero;stroke:none;stroke-width:0.1"
         d="m 576.71043,-62.79807 v -44.812 l -0.039,-0.0199 -38.804,22.4109 38.843,22.421" />
      <path
         id="path252"
         style="fill:#f7972a;fill-opacity:1;fill-rule:nonzero;stroke:none;stroke-width:0.1"
         d="m 576.71043,-62.72907 v -0.069 l -38.843,-22.421 -0.029,0.02 v 44.91 l 38.872,-22.44" />
      <path
         id="path254"
         style="fill:#f36246;fill-opacity:1;fill-rule:nonzero;stroke:none;stroke-width:0.1"
         d="m 537.83843,-174.93107 v -44.9098 l -38.867,22.44999 v 0.0188 l 38.867,22.44106" />
      <path
         id="path256"
         style="fill:#ef3239;fill-opacity:1;fill-rule:nonzero;stroke:none;stroke-width:0.1"
         d="m 576.71043,-197.37213 v -0.0668 l -38.843,-22.42114 -0.029,0.0192 v 44.9098 l 38.872,-22.44106" />
      <path
         id="path258"
         style="fill:#f7972a;fill-opacity:1;fill-rule:nonzero;stroke:none;stroke-width:0.1"
         d="m 576.70743,-107.61007 v -44.9101 l -38.867,22.45 v 0.0191 l 38.867,22.441" />
      <path
         id="path260"
         style="fill:#f7972a;fill-opacity:1;fill-rule:nonzero;stroke:none;stroke-width:0.1"
         d="m 576.70743,-152.52017 v -0.034 l -38.818,-22.407 -0.049,0.0301 v 44.8609 l 38.867,-22.45" />
      <path
         id="path262"
         style="fill:#f2531b;fill-opacity:1;fill-rule:nonzero;stroke:none;stroke-width:0.1"
         d="m 576.70743,-152.55417 v -44.81796 l -38.818,22.41096 z" />
      <path
         id="path264"
         style="fill:#8b181d;fill-opacity:1;fill-rule:nonzero;stroke:none;stroke-width:0.1"
         d="m 615.54043,-174.95107 -38.833,-22.42106 v 44.81796 l 0.03,0.0152 38.803,-22.4121" />
      <path
         id="path266"
         style="fill:#f7972a;fill-opacity:1;fill-rule:nonzero;stroke:none;stroke-width:0.1"
         d="m 615.57943,-130.05107 v -0.0672 l -38.842,-22.4207 -0.03,0.0188 v 44.9101 l 38.872,-22.441" />
    </g>
  </g>
</svg>
