<?xml version="1.0" encoding="UTF-8" standalone="no"?>
<svg
   xmlns:dc="http://purl.org/dc/elements/1.1/"
   xmlns:cc="http://creativecommons.org/ns#"
   xmlns:rdf="http://www.w3.org/1999/02/22-rdf-syntax-ns#"
   xmlns:svg="http://www.w3.org/2000/svg"
   xmlns="http://www.w3.org/2000/svg"
   id="svg4153"
   version="1.1"
   viewBox="0 0 297 210"
   height="210mm"
   width="297mm">
  <defs
     id="defs4147">
    <clipPath
       id="clipPath4021"
       clipPathUnits="userSpaceOnUse">
      <path
         id="path4019"
         d="m 3842.23,2925.42 -28.62,14.41 c 6.37,4.01 12.04,8.93 16.81,14.56 l 11.81,-28.97" />
    </clipPath>
    <clipPath
       id="clipPath132"
       clipPathUnits="userSpaceOnUse">
      <path
         id="path130"
         d="m 9084.86,16496 c 0,0 -147.62,-879.9 -159.11,-1076.5 -11.48,-196.5 95.65,-741.8 95.65,-741.8 l -189.29,-7.1 c 0,0 -163.62,554.3 -125.75,714.6 37.88,160.4 -17.34,862.2 -17.34,862.2 l 65.31,264 z" />
    </clipPath>
    <linearGradient
       id="linearGradient140"
       spreadMethod="pad"
       gradientTransform="matrix(-212.261,-2330.17,2330.17,-212.261,8951.86,16523.6)"
       gradientUnits="userSpaceOnUse"
       y2="0"
       x2="1"
       y1="0"
       x1="0">
      <stop
         id="stop136"
         offset="0"
         style="stop-opacity:1;stop-color:#116363" />
      <stop
         id="stop138"
         offset="1"
         style="stop-opacity:1;stop-color:#2c9d9e" />
    </linearGradient>
    <clipPath
       id="clipPath988"
       clipPathUnits="userSpaceOnUse">
      <path
         id="path986"
         d="m 2631.45,3332.6 c 46.92,0 84.97,-32.3 84.97,-72.2 v -315.8 c 0,-39.9 38.03,-72.2 84.96,-72.2 h 516.66 c 45.11,0 82.01,29.9 84.8,67.6 0.23,439.1 0.15,287.6 0.17,320.4 0,39.9 38.04,72.2 84.97,72.2 h 448.24 c 46.93,0 84.97,-32.3 84.97,-72.2 v -505.3 c 0,-39.9 -38.04,-72.2 -84.97,-72.2 H 2631.45 c -46.93,0 -84.98,32.3 -84.98,72.2 v 505.3 c 0,39.9 38.05,72.2 84.98,72.2 z" />
    </clipPath>
    <linearGradient
       id="linearGradient994"
       spreadMethod="pad"
       gradientTransform="matrix(1572.02,-282.883,282.883,1572.02,2514.97,3146.1)"
       gradientUnits="userSpaceOnUse"
       y2="0"
       x2="1"
       y1="0"
       x1="0">
      <stop
         id="stop990"
         offset="0"
         style="stop-opacity:1;stop-color:#f57939" />
      <stop
         id="stop992"
         offset="1"
         style="stop-opacity:1;stop-color:#fffb4d" />
    </linearGradient>
    <clipPath
       id="clipPath2016"
       clipPathUnits="userSpaceOnUse">
      <path
         id="path2014"
         d="m 15121.6,2282.7 v 0 l 25.5,50 -25.5,-50" />
    </clipPath>
    <clipPath
       id="clipPath2342"
       clipPathUnits="userSpaceOnUse">
      <path
         id="path2340"
         d="m 17075.8,2702.9 c 46.9,0 84.9,-32.3 84.9,-72.2 v -315.8 c 0,-39.9 38.1,-72.2 85,-72.2 h 516.7 c 45.1,0 82,29.8 84.8,67.6 0.2,439.1 0.1,287.6 0.1,320.4 0,39.9 38.1,72.2 85,72.2 h 448.2 c 47,0 85,-32.3 85,-72.2 v -505.3 c 0,-39.9 -38,-72.2 -85,-72.2 h -1304.7 c -47,0 -85,32.3 -85,72.2 v 505.3 c 0,39.9 38,72.2 85,72.2 z" />
    </clipPath>
    <linearGradient
       id="linearGradient2350"
       spreadMethod="pad"
       gradientTransform="matrix(1572.04,-282.886,282.886,1572.04,16959.3,2516.4)"
       gradientUnits="userSpaceOnUse"
       y2="0"
       x2="1"
       y1="0"
       x1="0">
      <stop
         id="stop2346"
         offset="0"
         style="stop-opacity:1;stop-color:#f57939" />
      <stop
         id="stop2348"
         offset="1"
         style="stop-opacity:1;stop-color:#fffb4d" />
    </linearGradient>
    <clipPath
       id="clipPath2516"
       clipPathUnits="userSpaceOnUse">
      <path
         id="path2514"
         d="m 17076.8,2890.4 275.5,-456.7 v -37.3 l -296,494 z" />
    </clipPath>
    <linearGradient
       id="linearGradient2524"
       spreadMethod="pad"
       gradientTransform="matrix(-296.055,0,0,-296.055,17352.3,2643.4)"
       gradientUnits="userSpaceOnUse"
       y2="0"
       x2="1"
       y1="0"
       x1="0">
      <stop
         id="stop2520"
         offset="0"
         style="stop-opacity:1;stop-color:#a9a5de" />
      <stop
         id="stop2522"
         offset="1"
         style="stop-opacity:1;stop-color:#bdb9f2" />
    </linearGradient>
  </defs>
  <metadata
     id="metadata4150">
    <rdf:RDF>
      <cc:Work
         rdf:about="">
        <dc:format>image/svg+xml</dc:format>
        <dc:type
           rdf:resource="http://purl.org/dc/dcmitype/StillImage" />
        <dc:title></dc:title>
      </cc:Work>
    </rdf:RDF>
  </metadata>
  <g
     style="opacity:0.99"
     transform="translate(0,-87)"
     id="layer1">
    <g
       transform="matrix(0.03527778,0,0,-0.03527778,-426.935,333.57856)"
       id="g10365">
      <g
         id="g2002"
         transform="scale(1.12726)">
        <path
           d="m 16270.8,1839.42 c -16,0 -29.2,13.04 -29.2,29.19 V 5158.54 L 15208.1,3999.97 c -10.6,-12.06 -29.1,-13.13 -41.1,-2.39 -12,10.73 -13.1,29.18 -2.3,41.16 L 16300,5311.65 V 1868.61 c 0,-16.15 -13,-29.19 -29.2,-29.19"
           style="fill:#7fcdff;fill-opacity:1;fill-rule:nonzero;stroke:none"
           id="path2004" />
      </g>
      <path
         d="m 14787.9,1952 -144.3,74.6 c -91.7,146.4 -162.9,318.2 -169.1,503.8 0,0 135.9,8.6 289.9,-14.9 l 97.2,-115.5 7.7,94.4 c 75.4,-19.3 148.9,-48.1 207.1,-91.2 l 10.5,-188.6 60.2,118.1 c 11.4,-15.9 21.1,-33.2 28.9,-51.7 120,-286 208.8,-656 208.8,-656 l -298.4,-77 c 0,0 -184.8,133.9 -351.4,348.3 l 52.9,55.7"
         style="fill:#ad2500;fill-opacity:1;fill-rule:nonzero;stroke:none"
         id="path2006" />
      <path
         d="m 15046.5,1669.4 c 81.6,-17.1 133.4,-4.1 151.6,2.2 -123.9,96.8 -243.8,229.1 -341.7,350.9 -4.4,-1.3 -8.8,-2.6 -13.2,-3.7 -81.3,-21 -153.8,-3.1 -208.8,22.6 -3.1,5.1 -6.2,10.3 -9.2,15.4 56.5,-29.3 135.4,-52.1 224.7,-26.1 -28.6,35.8 -56.3,71.8 -83.4,108.4 -70.6,-8.8 -148.6,15.1 -204.5,38.4 -2.1,4.4 -4.1,8.9 -6,13.4 54.2,-23.4 133.3,-49.7 203.8,-42.8 -137.9,186.9 -234.2,341.8 -235.2,343.5 l -26.6,33.5 30.5,-20.2 c 1.7,-3 80.5,-128.4 191,-283.8 16,83.2 -49.8,259.5 -68.4,306.8 3.5,-0.2 7.1,-0.5 10.8,-0.8 21.8,-55.6 87.8,-235.4 65.1,-316.6 70.1,-98 155.1,-208.7 247.4,-311.5 15.3,44.2 -89.4,277.9 -44.5,392.3 27.4,69.8 15.5,139.8 1.4,184.7 3.8,-1.2 7.6,-2.6 11.3,-3.9 13.5,-46.6 23.4,-115.4 -3.6,-184.3 -45.3,-115.3 68,-355 42.3,-396.6 18.1,-20 36.4,-39.6 55,-58.8 13.3,237.9 10.4,245.4 -21.6,330.1 -18.5,48.7 -35.9,94.7 -10.9,136.8 21.6,36.5 16.4,96.5 7.1,143.8 3.7,-1.9 7.5,-3.8 11.2,-5.8 8.6,-47.6 12.2,-105.6 -10,-142.9 -39.7,-67.1 40.4,-147.8 40.7,-248.3 0.2,-91.1 -6.2,-204.5 -7.3,-223.1 37.9,-38.8 76.7,-75.6 115.9,-108.9 9.3,13 46.4,74.3 6,172.8 -32.9,79.9 17.6,205.4 53.9,278.6 1.6,-4.3 3.2,-8.6 4.8,-13 -35,-72.8 -79.6,-189.3 -49.7,-262 43.2,-105 2.5,-169.3 -7.5,-182.7 47.2,-39.7 94.8,-74.4 142.2,-101.8 l -13.2,-3.5 c -8.4,5 -16.8,10.3 -25.1,15.7 -33.9,-21 -92.5,-29.7 -160,-2.4 -40.9,16.6 -78.6,10.4 -108.1,-1.8 -2.6,2.3 -5.3,4.6 -8.1,7 32,14.3 74,22.4 119.9,3.8 76.7,-31 129.7,-9.8 147.1,-0.6 -18.9,12.5 -37.7,26 -56.5,40.4 -45.5,-19.2 -112.8,-15.1 -162.6,-4.7 -32.1,6.7 -62.6,4.5 -89.3,-1.8 -2.8,2.6 -5.6,5.2 -8.5,7.9 29.4,7.7 63.6,10.9 99.8,3.4"
         style="fill:#a7cbd3;fill-opacity:1;fill-rule:nonzero;stroke:none"
         id="path2008" />
      <g
         id="g2010">
        <g
           id="g2012"
           clip-path="url(#clipPath2016)">
          <path
             d="m 15121.6,2282.7 h 25.5 v 50 h -25.5 z"
             style="fill:#b1c8cd;fill-opacity:1;fill-rule:nonzero;stroke:none"
             id="path2018" />
        </g>
      </g>
      <path
         d="m 15384.8,1625 c 0,0 -115.7,149 -202.4,416.7 9.5,32 21.9,63.3 34.2,90.4 73.2,-251.6 168.2,-507.1 168.2,-507.1 m -207.7,433.4 c -21.2,67.7 -40.5,142.6 -55.5,224.3 l 25.5,50 c 11.4,-15.9 21.1,-33.2 28.9,-51.7 0.1,-0.2 0.2,-0.4 0.2,-0.6 10.8,-43.2 23.1,-88.2 36.1,-133.6 -12.1,-25.9 -25,-56.5 -35.2,-88.4"
         style="fill:#7b3925;fill-opacity:1;fill-rule:nonzero;stroke:none"
         id="path2020" />
      <path
         d="m 15182.4,2041.7 c -1.8,5.5 -3.6,11.1 -5.3,16.7 10.2,31.9 23.1,62.5 35.2,88.4 1.4,-4.8 2.9,-9.8 4.3,-14.7 -12.3,-27.1 -24.7,-58.4 -34.2,-90.4"
         style="fill:#77a6b0;fill-opacity:1;fill-rule:nonzero;stroke:none"
         id="path2022" />
      <g
         id="g2024"
         transform="scale(1.00133)">
        <path
           d="m 16282.9,2108.91 c -2.3,-0.6 -10.4,0.19 -23.4,1.09 -58.2,3.9 -216.5,7.69 -422.1,-116.04 -251.9,-151.6 -411.6,-355.33 -411.6,-355.33 0,0 327.4,20.37 600.9,140.91 273.3,120.44 256.2,329.37 256.2,329.37"
           style="fill:#004a58;fill-opacity:1;fill-rule:nonzero;stroke:none"
           id="path2026" />
      </g>
      <path
         d="m 15473.1,1671.5 c 147.6,169.3 389.3,368.6 621.4,424.5 -13.2,-149.3 -52.9,-265.7 -167.2,-360.4 -192.9,-64.3 -385.6,-87.6 -454.7,-94.4 0,9.4 0.1,19.5 0.5,30.3"
         style="fill:#003842;fill-opacity:1;fill-rule:nonzero;stroke:none"
         id="path2028" />
      <path
         d="m 15164.1,2839.7 149,-92.9 -112.6,245.2 c 24,82.9 54.3,161.9 90.6,232.9 100.2,196 293.5,498.6 293.5,498.6 89.9,-104.1 160.2,-209.5 213.8,-314.8 l -96.8,-168 148.5,54.5 c 335.8,-835.6 -302.8,-1628.3 -302.8,-1628.3 l -162.5,-41.9 c 0,0 -254.6,685 -251.4,916.1 1.3,97.1 11.7,198.8 30.7,298.6"
         style="fill:#e0aa1a;fill-opacity:1;fill-rule:nonzero;stroke:none"
         id="path2030" />
      <path
         d="m 15139.7,2458.7 c -2,14.4 -3.6,28.1 -4.7,41 58.6,-85.3 207.7,-288.3 321.5,-322.3 1,10.4 2,20.7 3.1,31 -107.5,10.9 -249.5,233.2 -325.4,366.5 0.4,12.1 1,24.3 1.7,36.6 81.3,-146.5 228.3,-375.1 325.8,-383.9 9.3,80.4 23.8,160.1 45.8,232.5 18,59.5 31.8,138.4 42.2,227.8 -101.4,42.6 -237,300 -303.4,438 3.2,7.9 6.4,15.7 9.7,23.5 61.4,-128.8 199.8,-394.1 296,-441.3 7.1,65.7 12.6,136.4 16.8,208.9 -99.8,89 -182.4,310.7 -218.2,418.3 4.3,7.6 8.7,15.3 13.1,23.1 30.6,-93.9 110.9,-318.9 206.4,-415.9 19.1,362.9 12.3,755.2 12,761.2 l 3.8,14.9 3.5,-14.2 c 0.2,-6.8 22.6,-500 -8.4,-893 152.1,-10.4 280.1,127.6 345.8,215.7 1.6,-9 3.1,-17.8 4.4,-26.7 -16.6,-21.5 -36.5,-45 -59.2,-68.4 -67.2,-69.3 -137.3,-113.7 -206.5,-131.6 -28.9,-7.4 -57.7,-10.3 -86,-8.3 -9,-106.4 -21.5,-204.4 -38.9,-281.9 137.4,-11.2 308.3,84.8 401.4,145.8 -0.7,-8.4 -1.6,-16.8 -2.4,-25.2 -67.8,-43.5 -168.7,-100 -270.5,-126.3 -45.1,-11.6 -90.4,-17.3 -133,-13.3 -3.2,-12.9 -6.5,-25.2 -10,-36.7 -94.6,-311.7 -49.7,-763 -45.3,-804.7 l -19,-5 c -1.3,11.9 -27.7,256 -7,513 -109.7,29.8 -245.2,202.5 -315.1,300.9"
         style="fill:#cfd5f1;fill-opacity:1;fill-rule:nonzero;stroke:none"
         id="path2032" />
      <path
         d="m 15396.4,1628 v 0 l 49.8,12.8 v 0 0 l -49.8,-12.8 m 287.5,246 c 81.8,142.5 179.4,349.5 229.8,591.5 -50.4,-241.8 -147.8,-448.7 -229.5,-591.3 -0.1,0 -0.2,-0.1 -0.3,-0.2 m 229.8,591.6 c 0.1,0.3 0.2,0.6 0.2,0.9 0,-0.3 -0.1,-0.6 -0.2,-0.9 m 0.4,1.5 c 0,0.3 0.1,0.6 0.1,0.9 0,-0.3 -0.1,-0.6 -0.1,-0.9 m 0.3,1.8 c 0,0.1 0.1,0.2 0.1,0.3 0,-0.1 -0.1,-0.2 -0.1,-0.3"
         style="fill:#bcc0d7;fill-opacity:1;fill-rule:nonzero;stroke:none"
         id="path2034" />
      <path
         d="m 15446.2,1640.8 v 0 l 16.6,4.3 9.8,2.5 v 0 l -26.4,-6.8 v 0"
         style="fill:#2d5b79;fill-opacity:1;fill-rule:nonzero;stroke:none"
         id="path2036" />
      <path
         d="m 15472.6,1647.6 v 0 l 8.2,2.2 v 0 l 66.5,17.1 c 0,0 61.7,76.5 136.6,207.1 0.1,0.1 0.2,0.2 0.3,0.2 -72,-125.5 -131.7,-201.2 -136.5,-207.2 l -75.1,-19.4"
         style="fill:#2d516d;fill-opacity:1;fill-rule:nonzero;stroke:none"
         id="path2038" />
      <path
         d="m 15396.4,1628 c -0.2,0.9 -24.5,170.8 51,374.4 -3.5,-192.4 13.3,-348.1 14.4,-357.6 l 1,0.3 -16.6,-4.3 -49.8,-12.8 m 84.4,21.8 c -2.7,25.2 -20.1,200.3 -12.6,403.7 29.4,65.8 69.8,134 125.1,200.1 l 50.8,-47.3 -16.4,86 c 14.6,15.5 30.1,30.9 46.5,46 l 75.4,-97.5 -16.4,147.5 c 54,42.3 116.4,82.1 188.5,118.1 -2.3,-12.5 -4.7,-24.9 -7.2,-37.2 0,-0.1 -0.1,-0.2 -0.1,-0.3 0,-0.3 -0.1,-0.6 -0.2,-0.9 0,-0.3 -0.1,-0.6 -0.1,-0.9 -0.1,-0.2 -0.1,-0.4 -0.2,-0.6 0,-0.3 -0.1,-0.6 -0.2,-0.9 v -0.1 c -50.4,-242 -148,-449 -229.8,-591.5 -74.9,-130.6 -136.6,-207.1 -136.6,-207.1 l -66.5,-17.1"
         style="fill:#aa9157;fill-opacity:1;fill-rule:nonzero;stroke:none"
         id="path2040" />
      <path
         d="m 15461.8,1644.8 c -1.1,9.5 -17.9,165.2 -14.4,357.6 6.2,16.8 13.2,33.9 20.8,51.1 -7.5,-203.4 9.9,-378.5 12.6,-403.7 v 0 l -8.2,-2.2 -9.8,-2.5 -1,-0.3"
         style="fill:#a1a9cf;fill-opacity:1;fill-rule:nonzero;stroke:none"
         id="path2042" />
      <path
         d="m 14749.7,2066.6 67.7,-131.7 12.3,110.2 c 46.2,-14.4 92.4,-32.1 137.2,-54.2 l 29.1,-66.7 30.9,33.9 c 122.4,-74.2 227.9,-185.7 282.5,-352.6 l -251.2,-64.8 c 0,0 -578.9,10 -739.8,555.7 0,0 204.5,22.6 431.3,-29.8"
         style="fill:#469aa8;fill-opacity:1;fill-rule:nonzero;stroke:none"
         id="path2044" />
      <path
         d="m 15212.7,1580.6 -42,-10.9 c -336.7,83.6 -791.5,480.8 -811.4,498.3 l -28.6,26.2 41.5,-11.7 c 5,-4.4 506.5,-442.4 840.5,-501.9"
         style="fill:#a7cbd3;fill-opacity:1;fill-rule:nonzero;stroke:none"
         id="path2046" />
      <path
         d="m 15615.2,2175 43.5,-40.5 -14.1,73.7 c 12.5,13.3 25.8,26.4 39.9,39.4 l 64.5,-83.5 -13.9,126.4 c 73.1,57.2 164.4,109.3 278.1,151.5 0,0 62.8,-347.5 -49.2,-536.5 -112,-189.1 -354.3,-224.1 -354.3,-224.1 l -163.3,-42.1 c 0,0 -41.2,284.8 168.8,535.7"
         style="fill:#e0aa1a;fill-opacity:1;fill-rule:nonzero;stroke:none"
         id="path2048" />
      <path
         d="m 15591.5,1676.7 -24.7,-6.3 c 296.1,340.1 425.3,743 426.6,747.1 l 16.1,16.1 -2.2,-20.4 c -1.2,-4.1 -127.3,-397.4 -415.8,-736.5"
         style="fill:#f3dda3;fill-opacity:1;fill-rule:nonzero;stroke:none"
         id="path2050" />
      <g
         id="g2052"
         transform="scale(1.00059)">
        <path
           d="m 15432.2,1641.23 c 0,0 134,379.18 316.4,542.18 182.4,162.91 551.4,159.01 551.4,159.01 0,0 -34.3,-77.65 -92.9,-180.79 l -137.1,-19.59 96.3,-49.47 c -96.3,-156.61 -236.4,-341.3 -393.1,-409.76 -292.1,-127.62 -341,-41.58 -341,-41.58"
           style="fill:#ad2500;fill-opacity:1;fill-rule:nonzero;stroke:none"
           id="path2054" />
      </g>
      <path
         d="m 15441.3,1642.2 c 0,0.1 1.7,4.9 7.2,19.6 47,56 199.8,235.1 346.3,378.5 4.4,43.1 -27.8,93.3 -55.1,127.3 4,3.9 8.1,7.8 12.2,11.6 25.7,-31.9 56.1,-78.3 59.6,-122.7 6.8,6.6 56.6,51.2 74.8,65.4 6,43.9 -26.7,85.8 -56.5,114 5.1,3 10.2,5.8 15.4,8.6 28.1,-27.5 57.4,-66.4 58.4,-109.5 17.8,13.3 35.9,25.7 53.8,37.3 26.6,39.1 17.3,86.7 4.6,120.1 5.4,1.7 10.8,3.3 16.2,4.9 11.2,-29.7 19.7,-69.9 6.3,-108 16.1,9.8 32,18.9 47.7,27.4 29.6,55.5 31.3,86 28.5,101 5.5,1.1 11,2.2 16.4,3.2 3.2,-16.9 1.3,-45.4 -19.8,-90.9 112.6,58 203.7,89.5 205.2,89.9 l 34.7,9.8 -33.3,-29.2 c -2.3,-0.7 -216.2,-63.6 -392.8,-212.3 76.7,10.6 167.9,-40.7 220.6,-70.3 8.8,-4.9 18.2,-10.2 25.6,-14 -3.1,-4.6 -6.3,-9.2 -9.5,-13.8 -6.5,3.4 -14.4,7.8 -24.2,13.3 -58.6,33 -167,93.8 -241.3,59.5 -8.9,-8.3 -52.9,-51.2 -63.4,-61.7 75.7,7.6 204.8,-54.7 270.2,-89.5 -3.5,-4.4 -7.1,-8.8 -10.6,-13.2 -86.4,45.7 -230.9,109.7 -283.1,78.9 -157.4,-160.8 -314.1,-335.2 -314.1,-335.2"
         style="fill:#de9c8c;fill-opacity:1;fill-rule:nonzero;stroke:none"
         id="path2056" />
      <path
         d="m 14750.8,3509.2 c -166.8,0 -302.5,135.7 -302.5,302.6 0,166.8 135.7,302.5 302.5,302.5 166.8,0 302.6,-135.7 302.6,-302.5 0,-166.9 -135.8,-302.6 -302.6,-302.6"
         style="fill:#ffffff;fill-opacity:1;fill-rule:nonzero;stroke:none"
         id="path2058" />
      <g
         id="g2060"
         transform="scale(1.1438)">
        <path
           d="m 16035.4,4894.9 c -145.8,0 -264.4,118.64 -264.4,264.46 0,145.83 118.6,264.56 264.4,264.56 146,0 264.6,-118.73 264.6,-264.56 0,-145.82 -118.6,-264.46 -264.6,-264.46"
           style="fill:#ffffff;fill-opacity:1;fill-rule:nonzero;stroke:none"
           id="path2062" />
      </g>
      <path
         d="m 15792.1,5612.4 c -2.2,0 -4.4,0.8 -6.4,2.5 -9.6,8.4 -19.6,16.8 -29.7,24.9 -5.6,4.5 -7.4,14.2 -4,21.7 3.4,7.5 10.6,10 16.2,5.4 10.2,-8.2 20.5,-16.8 30.3,-25.3 5.5,-4.8 7.1,-14.6 3.6,-21.9 -2.3,-4.7 -6.1,-7.3 -10,-7.3"
         style="fill:#99d7ff;fill-opacity:1;fill-rule:nonzero;stroke:none"
         id="path2064" />
      <path
         d="m 14846.7,5938.1 h -0.2 c -22.6,0.6 -44.7,1 -65.7,1 h -3.8 c -6.5,0 -11.8,7.1 -11.8,15.8 0,8.8 5.3,15.9 11.8,15.9 h 3.8 c 21.1,0 43.4,-0.4 66.2,-1 6.5,-0.2 11.7,-7.5 11.5,-16.2 -0.1,-8.7 -5.4,-15.5 -11.8,-15.5 z m -240,-7.7 c -6.1,0 -11.3,6.3 -11.8,14.6 -0.5,8.7 4.3,16.3 10.8,17 22.6,2.5 46.2,4.4 70.1,5.8 6.3,0.5 12,-6.4 12.3,-15.1 0.3,-8.8 -4.8,-16.2 -11.3,-16.5 -23.6,-1.4 -46.9,-3.4 -69.2,-5.7 z m 410.3,-3.6 h -1 c -22.7,2.5 -46,4.6 -69.3,6.3 -6.5,0.5 -11.5,7.9 -11.1,16.7 0.3,8.7 5.8,15.2 12.4,14.9 23.5,-1.7 47,-3.8 69.9,-6.3 6.5,-0.7 11.4,-8.3 10.9,-17 -0.5,-8.3 -5.7,-14.6 -11.8,-14.6 z m 169.3,-26.3 -1.8,0.2 c -22.6,4.6 -45.7,8.9 -68.7,12.6 -6.5,1.1 -11.1,9 -10.3,17.7 0.8,8.7 6.7,14.8 13.1,13.8 23.3,-3.8 46.7,-8.1 69.5,-12.8 6.4,-1.3 10.9,-9.4 9.9,-18.1 -0.9,-7.8 -5.9,-13.4 -11.7,-13.4 z m -748.6,-0.5 c -5.5,0 -10.4,5.3 -11.5,12.9 -1.3,8.5 2.9,16.9 9.3,18.5 22.5,5.9 45.8,11.2 69.4,15.7 6.4,1.2 12.4,-4.8 13.3,-13.4 0.9,-8.7 -3.5,-16.7 -10,-18 -23.2,-4.4 -46.1,-9.6 -68.2,-15.4 z m 915.8,-43.6 c -0.9,0 -1.8,0.1 -2.8,0.5 -22,7.1 -44.7,13.9 -67.6,20.2 -6.4,1.8 -10.5,10.1 -9.2,18.7 1.3,8.6 7.5,14.1 13.9,12.3 23.2,-6.3 46.2,-13.2 68.5,-20.4 6.3,-2.1 10.2,-10.7 8.7,-19.2 -1.3,-7.2 -6.2,-12.1 -11.5,-12.1 z m -1080.1,-16.3 c -4.8,0 -9.3,4.1 -11.1,10.5 -2.2,8.3 1,17.3 7.1,20.3 21.7,10.4 44.3,20.1 67.2,28.9 6.2,2.4 12.8,-2.5 14.6,-10.9 1.7,-8.4 -1.9,-17.2 -8.2,-19.6 -22.3,-8.5 -44.4,-18 -65.6,-28.2 -1.3,-0.7 -2.6,-1 -4,-1 z m 1243.5,-48.6 c -1.3,0 -2.7,0.3 -4,0.9 -21.4,10.2 -43.5,20 -65.7,29.1 -6.2,2.5 -9.7,11.4 -7.8,19.7 1.9,8.4 8.5,13.1 14.7,10.6 22.5,-9.3 44.9,-19.2 66.7,-29.5 6.2,-3 9.4,-12 7.2,-20.3 -1.7,-6.5 -6.3,-10.5 -11.1,-10.5 z m -1397.7,-47.7 c -4.1,0 -8,2.7 -10.2,7.8 -3.3,7.5 -1.4,17.2 4.2,21.6 20,15.9 41,30.9 62.3,44.8 5.8,3.8 12.9,0.5 15.7,-7.3 2.9,-7.9 0.4,-17.4 -5.4,-21.2 -20.8,-13.5 -41.1,-28.2 -60.6,-43.6 -1.9,-1.4 -4,-2.1 -6,-2.1 z m 1520.2,-28.2 c -1.8,0 -3.6,0.5 -5.3,1.6 -20.3,13.6 -41.4,26.8 -62.7,39.2 -5.9,3.5 -8.7,12.8 -6.1,20.8 2.6,8 9.6,11.7 15.6,8.2 21.6,-12.6 43,-26 63.7,-39.8 5.8,-3.9 8.2,-13.4 5.3,-21.2 -2,-5.6 -6.2,-8.8 -10.5,-8.8 z m -1657.3,-107.1 c -3.2,0 -6.4,1.8 -8.7,5.2 -4.4,6.5 -4,16.5 0.8,22.4 17.4,21.2 35.7,41.7 54.3,60.7 5.2,5.4 12.6,4 16.5,-2.9 4,-7 3,-16.9 -2.2,-22.2 -18.1,-18.6 -35.8,-38.4 -52.8,-59 -2.2,-2.8 -5,-4.2 -7.9,-4.2 z M 13866,5441.3 c -2.6,0 -5.2,1.2 -7.3,3.5 -5.1,5.4 -6,15.4 -1.9,22.2 14.6,24.6 29.9,48.9 45.6,72.2 4.4,6.5 11.8,6.9 16.7,1.1 4.8,-5.9 5.2,-15.9 0.8,-22.4 -15.3,-22.8 -30.4,-46.5 -44.6,-70.6 -2.4,-3.9 -5.8,-6 -9.3,-6 z m -95.5,-189.2 c -2,0 -4,0.7 -5.8,2.1 -5.7,4.3 -7.7,14 -4.5,21.6 11.6,27.2 24,54.4 36.9,80.7 3.6,7.3 10.9,9.3 16.3,4.5 5.5,-4.8 7,-14.6 3.4,-22 -12.6,-25.7 -24.7,-52.2 -36,-78.9 -2.2,-5.1 -6.2,-8 -10.3,-8 z m -72.7,-206.6 c -1.4,0 -2.8,0.3 -4.2,1 -6.1,3.1 -9.2,12.3 -6.8,20.5 8.2,29.2 17.4,58.6 27.1,87.2 2.7,8 9.7,11.5 15.6,7.9 6,-3.6 8.6,-13 5.9,-21 -9.5,-28 -18.5,-56.8 -26.6,-85.4 -1.8,-6.3 -6.3,-10.2 -11,-10.2 z m -47.7,-219.4 -2.4,0.4 c -6.4,1.7 -10.5,10.1 -9.2,18.7 4.7,30.6 10.3,61.5 16.6,91.9 1.7,8.5 8.2,13.4 14.5,11.1 6.3,-2.4 10,-11.1 8.2,-19.5 -6.1,-29.8 -11.6,-60 -16.2,-89.9 -1.1,-7.5 -6.1,-12.7 -11.5,-12.7 z m -20.8,-226.7 h -0.5 c -6.5,0.3 -11.6,7.7 -11.3,16.4 0.9,31.3 2.6,63.1 5.1,94.4 0.7,8.7 6.6,15 13.1,14.1 6.4,-1 11.1,-8.8 10.4,-17.5 -2.5,-30.6 -4.2,-61.7 -5.1,-92.2 -0.2,-8.5 -5.4,-15.2 -11.7,-15.2 z m 7.6,-228.3 c -5.9,0 -10.9,5.8 -11.7,13.8 -0.7,7.2 -1.4,14.3 -2,21.6 -2,24 -3.6,48.5 -4.7,72.6 -0.4,8.8 4.5,16.3 11.1,16.8 6.4,0.5 12.1,-6.1 12.4,-14.8 1.1,-23.7 2.7,-47.5 4.7,-71 0.6,-7.1 1.2,-14.1 1.9,-21.1 0.9,-8.7 -3.7,-16.6 -10.2,-17.8 z m 37.3,-222.9 c -5,0 -9.6,4.3 -11.3,11 -7.1,30 -13.6,60.6 -19.1,91.2 -1.5,8.6 2.4,17.1 8.7,19.2 6.4,2 12.7,-3.2 14.3,-11.7 5.3,-29.8 11.6,-59.8 18.6,-89 2,-8.3 -1.4,-17.2 -7.6,-19.9 -1.2,-0.5 -2.4,-0.8 -3.6,-0.8 z m 66.6,-210.2 c -4.2,0 -8.3,3 -10.4,8.4 -11.1,27.7 -21.5,56.4 -31,85 -2.7,8 0,17.4 5.9,20.9 6,3.6 13,0 15.6,-8 9.3,-27.9 19.5,-55.9 30.3,-83 3.1,-7.7 0.9,-17.3 -4.8,-21.4 -1.8,-1.3 -3.7,-1.9 -5.6,-1.9 z m 92.7,-191.6 c -3.5,0 -7,2.1 -9.3,6.2 -14.4,25 -28.3,50.8 -41.3,76.7 -3.6,7.2 -2.1,17.1 3.3,22 5.4,4.8 12.7,2.9 16.3,-4.3 12.7,-25.3 26.3,-50.5 40.4,-75 4,-7 3,-16.9 -2.1,-22.2 -2.2,-2.3 -4.7,-3.4 -7.3,-3.4 z m 114,-169.7 c -2.9,0 -5.9,1.5 -8.2,4.4 -16.9,21.9 -33.5,44.6 -49.3,67.4 -4.4,6.4 -4.2,16.4 0.6,22.4 4.8,5.9 12.3,5.6 16.7,-0.9 15.5,-22.3 31.7,-44.6 48.4,-66 4.7,-6.1 4.8,-16.1 0.3,-22.4 -2.3,-3.3 -5.4,-4.9 -8.5,-4.9 z m 130.2,-147.2 c -2.4,0 -4.9,1 -7,3.1 -19,18.9 -37.6,38.4 -55.4,58 -5.1,5.6 -5.8,15.6 -1.7,22.3 4.2,6.8 11.6,7.7 16.7,2.2 17.5,-19.3 35.8,-38.5 54.4,-57.1 5.3,-5.2 6.4,-15.1 2.5,-22.1 -2.3,-4.2 -5.9,-6.4 -9.5,-6.4 z m 145.2,-120.3 c -1.9,0 -3.8,0.6 -5.6,1.9 -25.4,18.4 -46.1,33.7 -61.5,45.4 -5.7,4.3 -7.7,14 -4.5,21.6 3.3,7.6 10.5,10.3 16.1,6 15.3,-11.6 35.9,-26.8 61.1,-45.1 5.7,-4.1 7.9,-13.7 4.8,-21.4 -2.2,-5.3 -6.2,-8.4 -10.4,-8.4"
         style="fill:#99d7ff;fill-opacity:1;fill-rule:nonzero;stroke:none"
         id="path2066" />
      <g
         id="g2068"
         transform="scale(1.10632)">
        <path
           d="m 16300,1398.96 c 0,-86.59 -914.3,-156.82 -2042.2,-156.82 -1127.9,0 -2042.2,70.23 -2042.2,156.82 0,86.6 914.3,156.83 2042.2,156.83 1127.9,0 2042.2,-70.23 2042.2,-156.83"
           style="fill:#f78500;fill-opacity:1;fill-rule:nonzero;stroke:none"
           id="path2070" />
      </g>
      <g
         id="g2072"
         transform="scale(1.1438)">
        <path
           d="m 16035.4,2887.91 c -145.8,0 -264.4,118.64 -264.4,264.47 0,145.91 118.6,264.55 264.4,264.55 146,0 264.6,-118.64 264.6,-264.55 0,-145.83 -118.6,-264.47 -264.6,-264.47"
           style="fill:#ffffff;fill-opacity:1;fill-rule:nonzero;stroke:none"
           id="path2074" />
      </g>
      <g
         id="g2076"
         transform="scale(1.14154)">
        <path
           d="m 16300,3158.63 c 0,-128.51 -104.2,-232.76 -232.8,-232.76 -128.5,0 -232.7,104.25 -232.7,232.76 0,128.6 104.2,232.84 232.7,232.84 128.6,0 232.8,-104.24 232.8,-232.84"
           style="fill:#99d7ff;fill-opacity:1;fill-rule:nonzero;stroke:none"
           id="path2078" />
      </g>
      <g
         id="g2080"
         transform="scale(1.13088)">
        <path
           d="m 16218.7,3239.34 c -21.1,0 -38.3,17.16 -38.3,38.38 0,21.22 17.2,38.38 38.3,38.38 21.3,0 38.4,-17.16 38.4,-38.38 0,-21.22 -17.1,-38.38 -38.4,-38.38 z m 1.4,99.84 c -44.3,0 -80.1,-35.82 -80.1,-80.03 0,-44.21 80.1,-221.42 80.1,-221.42 0,0 79.9,177.21 79.9,221.42 0,44.21 -35.8,80.03 -79.9,80.03"
           style="fill:#ffffff;fill-opacity:1;fill-rule:nonzero;stroke:none"
           id="path2082" />
      </g>
      <path
         d="m 14750.8,4469.8 c -166.8,0 -302.5,135.7 -302.5,302.5 0,166.8 135.7,302.6 302.5,302.6 166.8,0 302.6,-135.8 302.6,-302.6 0,-166.8 -135.8,-302.5 -302.6,-302.5"
         style="fill:#ffffff;fill-opacity:1;fill-rule:nonzero;stroke:none"
         id="path2084" />
      <path
         d="m 15016.5,4765.5 c 0,-146.7 -119,-265.7 -265.7,-265.7 -146.7,0 -265.7,119 -265.7,265.7 0,146.8 119,265.7 265.7,265.7 146.7,0 265.7,-118.9 265.7,-265.7"
         style="fill:#99d7ff;fill-opacity:1;fill-rule:nonzero;stroke:none"
         id="path2086" />
      <path
         d="m 14602.2,4898.6 c 11.7,-25.4 74.1,-156.4 134.9,-186.3 2.5,-1.3 64.7,-9.6 67.3,-10.9 68,-32.3 72.4,-31.1 72.4,-37 0,-4.9 2.1,-12.2 -4.5,-14.2 -11.9,-3.6 -51.1,-11.2 -160.6,-6.3 -2.2,0.1 -4.3,1.4 -5.3,3.4 -50.6,98.4 -106.1,132.8 -106.1,110.9 0,-113.1 2.6,-115.9 -6.4,-115.9 -4.5,0.7 -15.6,-2.7 -16.3,5.8 -2.4,28.3 -13.2,150.7 -24,161.5 -11.9,11.9 -22.8,82.1 41.8,92.6 2.8,0.5 5.6,-1 6.8,-3.6"
         style="fill:#ffffff;fill-opacity:1;fill-rule:nonzero;stroke:none"
         id="path2088" />
      <path
         d="m 14654.1,4706.6 c 5.7,-54.7 3.1,-58.4 11.2,-58.4 4.3,0.8 16.4,-2.8 16.4,6.4 v 10 c -8.4,14.4 -17.8,28.9 -27.6,42"
         style="fill:#ffffff;fill-opacity:1;fill-rule:nonzero;stroke:none"
         id="path2090" />
      <path
         d="m 14884.1,4707.9 c -67.2,10.3 -63.9,9.5 -65.5,10.3 -60.9,29.9 -123.3,160.9 -134.9,186.3 -1.2,2.6 -4,4.1 -6.8,3.7 -27.2,-4.5 -41,-19.5 -47,-36.2 18.6,-36.5 41.4,-74.6 64.5,-103.6 16.9,-7.5 33.9,-24.8 48.7,-43.9 82.7,-12.5 46.6,-1.7 129.1,-40.5 10.1,-0.9 18,-9.3 18,-19.6 -0.3,-6.5 0.8,-10 -1.6,-15.7 39.5,1.4 57.7,5.2 65.2,7.4 6.6,2 4.6,9.8 4.5,14.2 0,6.8 -72.5,37.3 -74.2,37.6"
         style="fill:#ffffff;fill-opacity:1;fill-rule:nonzero;stroke:none"
         id="path2092" />
      <g
         id="g2094"
         transform="scale(1.14154)">
        <path
           d="m 16300,5169.6 c 0,-128.51 -104.2,-232.76 -232.8,-232.76 -128.5,0 -232.7,104.25 -232.7,232.76 0,128.6 104.2,232.75 232.7,232.75 128.6,0 232.8,-104.15 232.8,-232.75"
           style="fill:#99d7ff;fill-opacity:1;fill-rule:nonzero;stroke:none"
           id="path2096" />
      </g>
      <path
         d="m 15016.5,3817.1 c 0,-146.7 -119,-265.7 -265.7,-265.7 -146.7,0 -265.7,119 -265.7,265.7 0,146.8 119,265.7 265.7,265.7 146.7,0 265.7,-118.9 265.7,-265.7"
         style="fill:#99d7ff;fill-opacity:1;fill-rule:nonzero;stroke:none"
         id="path2098" />
      <path
         d="m 14751.2,3835.9 c -7.8,9.3 -6.5,23.1 2.8,30.8 9.3,7.8 23.1,6.5 30.8,-2.8 7.7,-9.3 6.5,-23.1 -2.8,-30.8 -9.3,-7.8 -23.1,-6.5 -30.8,2.8 z m 72.2,2.6 -56.6,67.9 c -13.8,16.5 -38.3,18.8 -54.8,5 l -179.4,-149.5 106.4,-127.7 179.4,149.5 c 16.5,13.8 18.7,38.3 5,54.8"
         style="fill:#ffffff;fill-opacity:1;fill-rule:nonzero;stroke:none"
         id="path2100" />
      <path
         d="m 14776.4,3862.4 c 0.9,0.2 86,16.6 117.8,43.1 27.5,22.9 29.5,69.1 -21.9,63.6 -40.2,-4.3 -73.8,-65.1 -86.4,-91 -4.2,-8.7 -17.3,-2.3 -13.1,6.4 16.9,34.9 52.2,94.2 98,99.1 64.2,6.8 73.1,-55.7 32.8,-89.3 -34.7,-28.9 -120.8,-45.5 -124.5,-46.2 -9.5,-1.8 -12.2,12.5 -2.7,14.3"
         style="fill:#ffffff;fill-opacity:1;fill-rule:nonzero;stroke:none"
         id="path2102" />
      <g
         id="g2104"
         transform="scale(1.1438)">
        <path
           d="m 16035.4,3901.89 c -145.8,0 -264.4,118.64 -264.4,264.47 0,145.83 118.6,264.56 264.4,264.56 146,0 264.6,-118.73 264.6,-264.56 0,-145.83 -118.6,-264.47 -264.6,-264.47"
           style="fill:#ffffff;fill-opacity:1;fill-rule:nonzero;stroke:none"
           id="path2106" />
      </g>
      <g
         id="g2108"
         transform="scale(1.14154)">
        <path
           d="m 16300,4174.62 c 0,-128.51 -104.2,-232.75 -232.8,-232.75 -128.5,0 -232.7,104.24 -232.7,232.75 0,128.6 104.2,232.76 232.7,232.76 128.6,0 232.8,-104.16 232.8,-232.76"
           style="fill:#99d7ff;fill-opacity:1;fill-rule:nonzero;stroke:none"
           id="path2110" />
      </g>
      <g
         id="g2112"
         transform="scale(1.0802)">
        <path
           d="m 15984.2,4851.5 h -1287.9 c -174.5,0 -315.8,-141.36 -315.8,-315.78 V 1827.99 c 0,-174.41 141.3,-315.86 315.8,-315.86 h 1287.9 c 174.4,0 315.8,141.45 315.8,315.86 v 2707.73 c 0,174.42 -141.4,315.78 -315.8,315.78"
           style="fill:#331579;fill-opacity:1;fill-rule:nonzero;stroke:none"
           id="path2114" />
      </g>
      <g
         id="g2116"
         transform="scale(1.07453)">
        <path
           d="m 14773.8,1606.09 c -127.6,0 -231.5,102 -231.5,227.36 v 2672.78 c 0,125.36 103.9,227.36 231.5,227.36 h 1294.7 c 127.6,0 231.5,-102 231.5,-227.36 V 1833.45 c 0,-125.36 -103.9,-227.36 -231.5,-227.36 h -1294.7"
           style="fill:#91aafe;fill-opacity:1;fill-rule:nonzero;stroke:none"
           id="path2118" />
      </g>
      <g
         id="g2120"
         transform="scale(1.05995)">
        <path
           d="m 16249.2,4820.51 h -1246.1 c -28.2,0 -50.9,22.74 -50.9,50.85 0,28.11 22.7,50.85 50.9,50.85 h 1246.1 c 28.1,0 50.8,-22.74 50.8,-50.85 0,-28.11 -22.7,-50.85 -50.8,-50.85"
           style="fill:#190b3d;fill-opacity:1;fill-rule:nonzero;stroke:none"
           id="path2122" />
      </g>
      <g
         id="g2124"
         transform="scale(1.05762)">
        <path
           d="m 16300,4881.15 c 0,-22.88 -18.5,-41.41 -41.4,-41.41 -22.9,0 -41.4,18.53 -41.4,41.41 0,22.88 18.5,41.41 41.4,41.41 22.9,0 41.4,-18.53 41.4,-41.41"
           style="fill:#331579;fill-opacity:1;fill-rule:nonzero;stroke:none"
           id="path2126" />
      </g>
      <g
         id="g2128"
         transform="scale(1.04466)">
        <path
           d="m 16282,4923.72 h -742.3 c -9.9,0 -17.9,8.14 -17.9,18 0,9.96 8,18 17.9,18 h 742.3 c 10,0 18,-8.04 18,-18 0,-9.86 -8,-18 -18,-18"
           style="fill:#0e061e;fill-opacity:1;fill-rule:nonzero;stroke:none"
           id="path2130" />
      </g>
      <g
         id="g2132"
         transform="scale(1.06562)">
        <path
           d="M 16300,2283.37 H 14802.4 V 4484.06 H 16300 V 2283.37"
           style="fill:#ffffff;fill-opacity:1;fill-rule:nonzero;stroke:none"
           id="path2134" />
      </g>
      <g
         id="g2136"
         transform="scale(1.05995)">
        <path
           d="m 16300,3509.03 h -748.3 v 904.57 h 748.3 v -904.57"
           style="fill:#fff7cf;fill-opacity:1;fill-rule:nonzero;stroke:none"
           id="path2138" />
      </g>
      <g
         id="g2140"
         transform="scale(1.05995)">
        <path
           d="m 16300,2472.66 h -748.3 v 904.67 h 748.3 v -904.67"
           style="fill:#fff7cf;fill-opacity:1;fill-rule:nonzero;stroke:none"
           id="path2142" />
      </g>
      <g
         id="g2144"
         transform="scale(1.00562)">
        <path
           d="m 16300,4491.26 h -501.7 v 95.66 h 501.7 v -95.66"
           style="fill:#fff7cf;fill-opacity:1;fill-rule:nonzero;stroke:none"
           id="path2146" />
      </g>
      <g
         id="g2148"
         transform="scale(1.00562)">
        <path
           d="m 16300,4295.96 h -501.7 v 95.66 h 501.7 v -95.66"
           style="fill:#fff7cf;fill-opacity:1;fill-rule:nonzero;stroke:none"
           id="path2150" />
      </g>
      <g
         id="g2152"
         transform="scale(1.00562)">
        <path
           d="m 16300,4100.65 h -501.7 v 95.67 h 501.7 v -95.67"
           style="fill:#fff7cf;fill-opacity:1;fill-rule:nonzero;stroke:none"
           id="path2154" />
      </g>
      <g
         id="g2156"
         transform="scale(1.00562)">
        <path
           d="m 16300,3438.18 h -501.7 v 95.76 h 501.7 v -95.76"
           style="fill:#fff7cf;fill-opacity:1;fill-rule:nonzero;stroke:none"
           id="path2158" />
      </g>
      <g
         id="g2160"
         transform="scale(1.00562)">
        <path
           d="m 16300,3242.88 h -501.7 v 95.76 h 501.7 v -95.76"
           style="fill:#fff7cf;fill-opacity:1;fill-rule:nonzero;stroke:none"
           id="path2162" />
      </g>
      <g
         id="g2164"
         transform="scale(1.00562)">
        <path
           d="m 16300,3047.57 h -501.7 v 95.77 h 501.7 v -95.77"
           style="fill:#fff7cf;fill-opacity:1;fill-rule:nonzero;stroke:none"
           id="path2166" />
      </g>
      <g
         id="g2168"
         transform="scale(1.0091)">
        <path
           d="m 16300,2280.04 c 0,-15.56 -12.7,-28.14 -28.1,-28.14 -15.6,0 -28.2,12.58 -28.2,28.14 0,15.56 12.6,28.15 28.2,28.15 15.4,0 28.1,-12.59 28.1,-28.15"
           style="fill:#331579;fill-opacity:1;fill-rule:nonzero;stroke:none"
           id="path2170" />
      </g>
      <g
         id="g2172"
         transform="scale(1.0156)">
        <path
           d="m 16300,2265.46 c 0,-15.46 -12.6,-27.97 -28,-27.97 -15.4,0 -27.9,12.51 -27.9,27.97 0,15.45 12.5,27.96 27.9,27.96 15.4,0 28,-12.51 28,-27.96"
           style="fill:#331579;fill-opacity:1;fill-rule:nonzero;stroke:none"
           id="path2174" />
      </g>
      <g
         id="g2176"
         transform="scale(1.0221)">
        <path
           d="m 16300,2251.06 c 0,-15.36 -12.5,-27.79 -27.8,-27.79 -15.3,0 -27.8,12.43 -27.8,27.79 0,15.36 12.5,27.79 27.8,27.79 15.3,0 27.8,-12.43 27.8,-27.79"
           style="fill:#331579;fill-opacity:1;fill-rule:nonzero;stroke:none"
           id="path2178" />
      </g>
      <g
         id="g2180"
         transform="scale(1.05881)">
        <path
           d="m 16250.7,4565.6 c 0,-13.6 11.1,-24.65 24.6,-24.65 13.6,0 24.7,11.05 24.7,24.65 0,13.6 -11.1,24.65 -24.7,24.65 -13.5,0 -24.6,-11.05 -24.6,-24.65"
           style="fill:#331579;fill-opacity:1;fill-rule:nonzero;stroke:none"
           id="path2182" />
      </g>
      <g
         id="g2184"
         transform="scale(1.05807)">
        <path
           d="m 16273.3,4568.78 c 0,-7.38 6,-13.33 13.4,-13.33 7.3,0 13.3,5.95 13.3,13.33 0,7.36 -6,13.32 -13.3,13.32 -7.4,0 -13.4,-5.96 -13.4,-13.32"
           style="fill:#270f5b;fill-opacity:1;fill-rule:nonzero;stroke:none"
           id="path2186" />
      </g>
      <g
         id="g2188"
         transform="scale(1.05185)">
        <path
           d="m 16250.4,4595.82 c 0,-13.69 11.1,-24.81 24.8,-24.81 13.7,0 24.8,11.12 24.8,24.81 0,13.69 -11.1,24.81 -24.8,24.81 -13.7,0 -24.8,-11.12 -24.8,-24.81"
           style="fill:#331579;fill-opacity:1;fill-rule:nonzero;stroke:none"
           id="path2190" />
      </g>
      <g
         id="g2192"
         transform="scale(1.05111)">
        <path
           d="m 16273.2,4599.04 c 0,-7.42 6,-13.41 13.4,-13.41 7.4,0 13.4,5.99 13.4,13.41 0,7.42 -6,13.41 -13.4,13.41 -7.4,0 -13.4,-5.99 -13.4,-13.41"
           style="fill:#270f5b;fill-opacity:1;fill-rule:nonzero;stroke:none"
           id="path2194" />
      </g>
      <g
         id="g2196"
         transform="scale(1.06409)">
        <path
           d="m 16072.7,4607.87 -45.8,79.04 c -2.2,3.76 -2,8.17 0.6,11.84 2.4,3.57 6.8,5.73 11.6,5.73 h 181.8 c 2.6,0 4.7,-1.78 4.7,-4.04 0,-2.25 -2.1,-4.04 -4.7,-4.04 h -181.8 c -2.2,0 -3.4,-1.32 -3.7,-1.97 -0.5,-0.57 -1.3,-2.07 -0.2,-3.86 l 45.7,-79.03 c 0.8,-1.32 2.3,-2.16 4,-2.16 h 119 l 30,105.72 c 3.6,12.41 15.1,21.05 27.9,21.05 h 33.6 c 2.5,0 4.6,-2.07 4.6,-4.6 0,-2.54 -2.1,-4.61 -4.6,-4.61 h -33.6 c -8.7,0 -16.6,-5.92 -18.9,-14.38 l -39.5,-138.33 h -129 c -2.6,0 -4.6,2.07 -4.6,4.6 0,2.64 2,4.7 4.6,4.7 h 122 l 5.1,17.67 h -116.6 c -5.2,0 -9.9,2.54 -12.2,6.67"
           style="fill:#331579;fill-opacity:1;fill-rule:nonzero;stroke:none"
           id="path2198" />
      </g>
      <g
         id="g2200"
         transform="scale(1.03982)">
        <path
           d="m 16300,4740.26 c 0,-50.39 -40.9,-91.26 -91.2,-91.26 -50.4,0 -91.2,40.87 -91.2,91.26 0,50.3 40.8,91.17 91.2,91.17 50.3,0 91.2,-40.87 91.2,-91.17"
           style="fill:#fd5e5a;fill-opacity:1;fill-rule:nonzero;stroke:none"
           id="path2202" />
      </g>
      <g
         id="g2204"
         transform="scale(1.03637)">
        <path
           d="m 16243.6,4781.79 h -9.8 c 7.1,31.56 41.3,29.82 52.2,12.07 6.2,-10.23 4.9,-23.74 -8.8,-31.85 15.9,-6.46 22.8,-24.6 13.3,-40.91 -12.5,-21.61 -53.2,-23.93 -60,12.64 h 9.5 c 9.9,-37.63 58.8,-13.12 42.2,12.64 -5.5,8.59 -14.5,9.94 -24.9,10.42 v 8.88 c 10.8,0 22.2,5.21 22.2,16.02 0,13.7 -18,19.87 -28.3,11.96 -3,-2.31 -5.5,-6.27 -7.6,-11.87"
           style="fill:#ffffff;fill-opacity:1;fill-rule:nonzero;stroke:none"
           id="path2206" />
      </g>
      <g
         id="g2208"
         transform="scale(1.06562)">
        <path
           d="m 16300,2019.58 h -1123.8 v 50.58 H 16300 v -50.58"
           style="fill:#8d75bb;fill-opacity:1;fill-rule:nonzero;stroke:none"
           id="path2210" />
      </g>
      <g
         id="g2212"
         transform="scale(1.06562)">
        <path
           d="m 16300,1906.59 h -1123.8 v 50.67 H 16300 v -50.67"
           style="fill:#8d75bb;fill-opacity:1;fill-rule:nonzero;stroke:none"
           id="path2214" />
      </g>
      <path
         d="m 14750.8,4469.8 c -166.8,0 -302.5,135.7 -302.5,302.5 0,166.8 135.7,302.6 302.5,302.6 166.8,0 302.6,-135.8 302.6,-302.6 0,-166.8 -135.8,-302.5 -302.6,-302.5 z m 0,651.3 c -192.6,0 -348.8,-156.2 -348.8,-348.8 0,-192.6 156.2,-348.8 348.8,-348.8 192.6,0 348.8,156.2 348.8,348.8 0,192.6 -156.2,348.8 -348.8,348.8"
         style="fill:#7fcdff;fill-opacity:1;fill-rule:nonzero;stroke:none"
         id="path2216" />
      <g
         id="g2218"
         transform="scale(1.14664)">
        <path
           d="m 15995.8,3892.25 c -145.5,0 -263.8,118.34 -263.8,263.81 0,145.47 118.3,263.91 263.8,263.91 145.6,0 263.9,-118.44 263.9,-263.91 0,-145.47 -118.3,-263.81 -263.9,-263.81 z m 0,568.01 c -168,0 -304.1,-136.23 -304.1,-304.2 0,-167.96 136.1,-304.19 304.1,-304.19 168,0 304.2,136.23 304.2,304.19 0,167.97 -136.2,304.2 -304.2,304.2"
           style="fill:#7fcdff;fill-opacity:1;fill-rule:nonzero;stroke:none"
           id="path2220" />
      </g>
      <g
         id="g2222"
         transform="scale(1.14664)">
        <path
           d="m 15995.8,4882.8 c -145.5,0 -263.8,118.34 -263.8,263.81 0,145.47 118.3,263.91 263.8,263.91 145.6,0 263.9,-118.44 263.9,-263.91 0,-145.47 -118.3,-263.81 -263.9,-263.81 z m 0,568.01 c -168,0 -304.1,-136.23 -304.1,-304.2 0,-167.97 136.1,-304.19 304.1,-304.19 168,0 304.2,136.22 304.2,304.19 0,167.97 -136.2,304.2 -304.2,304.2"
           style="fill:#7fcdff;fill-opacity:1;fill-rule:nonzero;stroke:none"
           id="path2224" />
      </g>
      <g
         id="g2226"
         transform="scale(1.14664)">
        <path
           d="m 15995.8,2880.77 c -145.5,0 -263.8,118.35 -263.8,263.81 0,145.56 118.3,263.91 263.8,263.91 145.6,0 263.9,-118.35 263.9,-263.91 0,-145.46 -118.3,-263.81 -263.9,-263.81 z m 0,568.01 c -168,0 -304.1,-136.14 -304.1,-304.2 0,-167.96 136.1,-304.1 304.1,-304.1 168,0 304.2,136.14 304.2,304.1 0,168.06 -136.2,304.2 -304.2,304.2"
           style="fill:#7fcdff;fill-opacity:1;fill-rule:nonzero;stroke:none"
           id="path2228" />
      </g>
      <path
         d="m 14750.8,3509.2 c -166.8,0 -302.5,135.7 -302.5,302.6 0,166.8 135.7,302.5 302.5,302.5 166.8,0 302.6,-135.7 302.6,-302.5 0,-166.9 -135.8,-302.6 -302.6,-302.6 z m 0,651.3 c -192.6,0 -348.8,-156.1 -348.8,-348.7 0,-192.6 156.2,-348.8 348.8,-348.8 192.6,0 348.8,156.2 348.8,348.8 0,192.6 -156.2,348.7 -348.8,348.7"
         style="fill:#7fcdff;fill-opacity:1;fill-rule:nonzero;stroke:none"
         id="path2230" />
      <path
         d="m 15934.9,4409.3 c -2.9,0 -5.9,0.4 -8.8,1.2 l -853.4,233.4 c -18,5 -28.8,24 -24,42.5 4.9,18.4 23.4,29.4 41.4,24.5 l 853.5,-233.4 c 18,-4.9 28.7,-23.9 23.9,-42.4 -4,-15.5 -17.7,-25.8 -32.6,-25.8"
         style="fill:#7fcdff;fill-opacity:1;fill-rule:nonzero;stroke:none"
         id="path2232" />
      <path
         d="m 16014.9,3684.7 h -0.1 l -933.4,3.1 c -18.8,0.1 -33.9,15.6 -33.8,34.8 0.1,19.1 15.2,34.5 33.9,34.5 h 0.1 l 933.4,-3.1 c 18.7,-0.1 33.9,-15.6 33.8,-34.8 -0.1,-19.1 -15.2,-34.5 -33.9,-34.5"
         style="fill:#7fcdff;fill-opacity:1;fill-rule:nonzero;stroke:none"
         id="path2234" />
      <path
         d="m 14782.7,3121.7 -347.8,266.3 -85.2,-109.8 z"
         style="fill:#0a4cfe;fill-opacity:1;fill-rule:nonzero;stroke:none"
         id="path2236" />
      <path
         d="m 14434.8,3060 5,206 342.9,-144.3 z"
         style="fill:#99d7ff;fill-opacity:1;fill-rule:nonzero;stroke:none"
         id="path2238" />
      <path
         d="m 14434.4,3558.5 348.3,-436.8 -347.8,266.3 z"
         style="fill:#99d7ff;fill-opacity:1;fill-rule:nonzero;stroke:none"
         id="path2240" />
      <path
         d="m 14349.7,3278.2 90.1,-12.2 -0.8,-29.9 z"
         style="fill:#0033bf;fill-opacity:1;fill-rule:nonzero;stroke:none"
         id="path2242" />
      <g
         id="g2244"
         transform="scale(1.13118)">
        <path
           d="m 16130.9,4142.41 c 1.6,0.08 18.7,-0.53 18.7,-1.59 0,59.93 0,119.69 0,179.72 50,8.13 99.7,16.18 149.9,24.31 0,-2.12 0,-3.8 0,-5.39 0,-63.91 -0.5,-127.83 0.2,-191.75 0.3,-26.69 -17.8,-38.37 -36,-41.64 -35,-6.27 -55.6,23.96 -35.4,45.71 14.5,15.65 30.9,18.3 51,13.88 0,40.57 0,80.97 0,122 -36.4,-6.63 -72.7,-13.26 -109.3,-19.98 0,-1.86 -0.4,-98.57 -0.6,-145.25 -0.1,-25.11 -16.9,-40.31 -40.5,-41.46 -54.8,-2.65 -45.1,59.58 2,61.44"
           style="fill:#ffffff;fill-opacity:1;fill-rule:nonzero;stroke:none"
           id="path2246" />
      </g>
      <path
         d="m 15901.2,4482.7 h -40.1 l -159.5,687 58.1,3 141.5,-690"
         style="fill:#1f1a15;fill-opacity:1;fill-rule:nonzero;stroke:none"
         id="path2248" />
      <g
         id="g2250"
         transform="scale(1.00631)">
        <path
           d="m 16037.5,6618.62 c 0,0 -136.6,23.35 -184.4,-70.96 -47.8,-94.3 -43.2,-307.55 21.8,-362.8 65,-55.26 54.1,-196.66 111.1,-238.4 56.9,-41.84 202,-60.62 202,37.66 0,0 -70.7,-11.92 -88.6,49.29 0,0 101.4,-64.89 151,7.75 49.6,72.54 -56.9,96.59 -56.9,96.59 0,0 41.9,-20.57 -20.6,-9.83 -62.4,10.83 -21.7,26.43 -21.7,79.19 0,52.77 38.7,15.5 27.7,112.49 -11.1,96.99 -94.9,302.4 -141.4,299.02"
           style="fill:#0e1b29;fill-opacity:1;fill-rule:nonzero;stroke:none"
           id="path2252" />
      </g>
      <path
         d="m 15807,4565.6 -13.4,-93 c 0,0 -24.8,-70.3 -24.8,-80.7 0,-6.8 11.7,-62.2 42.7,-71.6 15.9,-4.8 81.1,66.3 89.8,98.5 10.1,37.6 -14.7,155 -14.7,155 l -79.6,-8.2"
         style="fill:#fc7575;fill-opacity:1;fill-rule:nonzero;stroke:none"
         id="path2254" />
      <path
         d="m 16021,4582.1 c 0,0 -17.7,-136.4 -17.7,-157.1 0,-20.7 -2.8,-50.3 8.8,-62 11.7,-11.7 116.4,22.7 116.4,59.9 0,37.3 -22.7,159.2 -22.7,159.2 h -84.8"
         style="fill:#fc7575;fill-opacity:1;fill-rule:nonzero;stroke:none"
         id="path2256" />
      <path
         d="m 16247.1,5802 c 0,93.1 -3.8,396.1 -3.8,396.1 0,0 -55.1,37.4 -165.4,37.4 -35.4,0 -68,6 -103.3,-0.4 -74.5,-13.5 -142.2,-45.4 -142.2,-45.4 0,0 22.9,-285.9 -12.9,-481 -6.3,-34.5 20.7,-66.2 55.7,-66.2 h 348.4 c 23.5,0 41.4,21.2 37.5,44.4 -8.2,49.4 -14,90.9 -14,115.1"
         style="fill:#ffda88;fill-opacity:1;fill-rule:nonzero;stroke:none"
         id="path2258" />
      <g
         id="g2260"
         transform="scale(1.00198)">
        <path
           d="m 15823.4,5637.47 c -56.2,-43.72 -68.3,-58.69 -84.4,-78.45 -125.2,-153.7 -89.1,-362.39 -32.2,-354.5 56.9,7.79 174.5,28.14 265.6,9.18 91.1,-18.96 296,-13.27 315,60.68 12.6,49.3 -54.8,220.87 -91.2,357 l -372.8,6.09"
           style="fill:#464a7f;fill-opacity:1;fill-rule:nonzero;stroke:none"
           id="path2262" />
      </g>
      <path
         d="m 16046,5456 -42.7,-67.1 c -21,-48 -8.7,-163.1 -8.7,-163.1 l -187.6,9.5 -9,176.8 248,43.9"
         style="fill:#35385f;fill-opacity:1;fill-rule:nonzero;stroke:none"
         id="path2264" />
      <path
         d="m 16013.5,5393.2 c 0,0 106.4,11.4 146.4,-28.5 39.9,-39.9 -36.2,-583.7 -26.7,-614.1 9.6,-30.4 55.2,-26.6 28.6,-53.2 -26.7,-26.6 -33.3,-44.7 -21,-57.1 12.4,-12.3 17.1,-30.4 5.7,-41.8 -11.4,-11.4 -15.2,-41.8 -15.2,-41.8 h -127.4 c 0,0 -9.4,77.9 -9.4,91.2 0,13.4 -15.3,51.4 -15.3,51.4 0,0 47.5,24.7 24.7,47.5 -22.8,22.8 0,57 0,106.5 0,49.4 -70.3,530.4 9.6,539.9"
         style="fill:#6b6e98;fill-opacity:1;fill-rule:nonzero;stroke:none"
         id="path2266" />
      <path
         d="m 15690.8,5394.7 c 36.9,36.9 96.4,41.5 155.4,0 58.9,-41.4 38,-144.1 38,-237.2 0,-93.2 -6.1,-323.2 3.6,-351.8 9.7,-28.5 40.1,-57 28.7,-87.4 -11.4,-30.4 -17.1,-24.1 2.5,-43.7 19.7,-19.7 8.9,-34.3 8.9,-55.2 0,-20.9 -9.5,-85.5 -9.5,-85.5 h -121.7 c 0,0 -5.7,115.9 -36.1,161.6 -30.4,45.6 -7.6,144.5 -7.6,159.7 0,15.2 -38,34.2 -38,100.7 0,66.6 -44.2,418.8 -24.2,438.8"
         style="fill:#6b6e98;fill-opacity:1;fill-rule:nonzero;stroke:none"
         id="path2268" />
      <path
         d="m 15838.3,6189.7 c 0,0 -21.7,-37.8 -52.1,-123.4 -30.4,-85.6 20.8,-424.6 20.8,-481.6 0,-57.1 71.5,-128.7 71.5,-128.7 l 60.8,68.4 -39.9,247.2 -61.1,418.1"
         style="fill:#fd5e5a;fill-opacity:1;fill-rule:nonzero;stroke:none"
         id="path2270" />
      <g
         id="g2272"
         transform="scale(1.00652)">
        <path
           d="m 16138.1,6157.94 c 0,0 87.1,-21.46 113.6,-142.37 26.6,-120.81 48.3,-404.16 40,-438.14 -8.4,-34.08 -227.5,-139.2 -227.5,-139.2 l -18.4,37.16 c 0,0 166.1,143.57 166.1,164.33 0,20.77 -71.2,280.77 -71.2,280.77 l -2.6,237.45"
           style="fill:#fd5e5a;fill-opacity:1;fill-rule:nonzero;stroke:none"
           id="path2274" />
      </g>
      <path
         d="m 15568.6,5764 49.4,-350.9 616,21.9 -12.2,351.7 -653.2,-22.7"
         style="fill:#241145;fill-opacity:1;fill-rule:nonzero;stroke:none"
         id="path2276" />
      <path
         d="m 15897.9,4409.8 c -57.4,-36.4 -100.1,-32.6 -129.1,-18.7 0.8,-9.6 12.7,-61.8 42.7,-70.8 14.6,-4.4 70.3,54.7 86.4,89.5"
         style="fill:#ed1e79;fill-opacity:1;fill-rule:nonzero;stroke:none"
         id="path2278" />
      <path
         d="m 16128.5,4422.9 c 0,8.3 -1.1,20.8 -2.9,35.1 -33.1,-29.8 -77.4,-49.4 -120.1,-5.6 -1.4,-12.9 -2.2,-22.9 -2.2,-27.4 0,-20.7 -2.8,-50.3 8.8,-62 11.7,-11.7 116.4,22.7 116.4,59.9"
         style="fill:#ed1e79;fill-opacity:1;fill-rule:nonzero;stroke:none"
         id="path2280" />
      <path
         d="m 16140.4,6376.4 c 0,0 -4.8,-10.5 -12.1,-27 -25.1,-57 -9.1,-144.5 -7.8,-159.7 2.5,-30.5 -13.8,-93.1 -13.8,-93.1 0,0 -119.5,83.6 -126.3,138.5 l 64.8,198.4 95.2,-57.1"
         style="fill:#fc7575;fill-opacity:1;fill-rule:nonzero;stroke:none"
         id="path2282" />
      <path
         d="m 16045.2,6433.5 95.2,-57.1 c 0,0 -4.8,-10.5 -12.1,-27 -33.4,9.3 -84.6,26.2 -95.7,45.5 l 12.6,38.6"
         style="fill:#fd5e5a;fill-opacity:1;fill-rule:nonzero;stroke:none"
         id="path2284" />
      <path
         d="M 16068.2,6595.3 16212,6516 c 0,0 29.8,-0.6 29.8,32.6 0,33.2 -36.6,65.7 -73.9,84.7 -37.3,19 -84.1,27.2 -84.1,27.2 l -15.6,-65.2"
         style="fill:#0e1b29;fill-opacity:1;fill-rule:nonzero;stroke:none"
         id="path2286" />
      <path
         d="m 16120.4,6631.3 c 0,0 55.6,-9.5 70.5,-36 14.9,-26.4 19,-89.4 33.9,-104.3 14.9,-15 27.9,-18.2 27.9,-18.2 0,0 4,-6.9 -10.9,-14.4 -14.9,-7.4 -3.7,-15.6 5.6,-15.6 9.3,0 1.5,-17.6 -5.6,-19.6 0,0 9.1,-2.7 7.4,-11.5 -1.7,-8.9 -6.1,-10.5 -6.1,-10.5 0,0 -0.4,-11.6 4.3,-22.4 4.8,-10.9 -6.8,-43.1 -79.5,-28.8 0,0 -108.2,25.4 -114.6,55.9 -6.4,30.5 -54.5,141.4 -13.5,182.4 41,41 80.6,43 80.6,43"
         style="fill:#fc7575;fill-opacity:1;fill-rule:nonzero;stroke:none"
         id="path2288" />
      <path
         d="m 16070.3,6662.2 c 0,0 16.9,17.6 84.7,-1.7 67.8,-19.3 84,-96 84,-96 0,0 -43.7,29.5 -71.1,29.5 -27.5,0 -89.6,10.4 -99.7,20.5 -10,10.1 2.1,47.7 2.1,47.7"
         style="fill:#1b3753;fill-opacity:1;fill-rule:nonzero;stroke:none"
         id="path2290" />
      <path
         d="m 16079.2,6666.7 c 9.4,0 69.4,-66.6 53.1,-117.4 -16.3,-50.9 -54.9,-28.2 -79.3,-41.7 -24.4,-13.6 4.7,-76.3 0.3,-101.7 -4.4,-25.4 -72.9,-170.8 -72.9,-170.8 0,0 -57.5,307.3 -22.6,364.3 34.9,56.9 121.4,67.3 121.4,67.3"
         style="fill:#1b3753;fill-opacity:1;fill-rule:nonzero;stroke:none"
         id="path2292" />
      <path
         d="m 16151.2,6456.2 c 0,-7.6 12.7,-13.7 28.4,-13.7 15.8,0 28.5,6.1 28.5,13.7 0,7.6 -12.7,13.8 -28.5,13.8 -15.7,0 -28.4,-6.2 -28.4,-13.8"
         style="fill:#fd5e5a;fill-opacity:1;fill-rule:nonzero;stroke:none"
         id="path2294" />
      <path
         d="m 16219.6,6516 c 0,0 -9.3,-18.7 -47.4,-17.9 l 47.4,17.9"
         style="fill:#1b3753;fill-opacity:1;fill-rule:nonzero;stroke:none"
         id="path2296" />
      <path
         d="m 16208.1,6525.2 c 0,0 -14.1,8.5 -25.1,8.5 -10.9,0 -21,-4.5 -21,-8.5 0,0 12,5.7 21.5,4.2 9.4,-1.4 13.9,-8.7 17.7,-8.7 3.7,0 6.9,4.5 6.9,4.5"
         style="fill:#1b3753;fill-opacity:1;fill-rule:nonzero;stroke:none"
         id="path2298" />
      <path
         d="m 16050.2,6456.7 c 0,0 52.7,-122.1 -53.1,-258.6 -105.9,-136.4 -249.5,-81.2 -268.9,-25.9 -19.3,55.2 48.4,74.1 48.4,74.1 0,0 -12.9,-62.5 21.4,-59.6 34.4,3 46.3,11.1 32.4,78.4 -13.8,67.2 36.2,40.3 63.6,84.3 27.5,44.1 0,77.7 0,129.8 0,52 63.8,120.2 63.8,120.2 l 92.4,-142.7"
         style="fill:#1b3753;fill-opacity:1;fill-rule:nonzero;stroke:none"
         id="path2300" />
      <path
         d="m 16060.4,6501.5 c 0,0 -19.6,42.7 -28.8,33.5 -9.1,-9.1 -13.7,-72.2 18.6,-78.3 32.3,-6.1 10.2,44.8 10.2,44.8"
         style="fill:#fc7575;fill-opacity:1;fill-rule:nonzero;stroke:none"
         id="path2302" />
      <path
         d="m 16059,6496.3 c 0,0 -10.1,23.2 -15.6,17.8 -5.5,-5.5 0.4,-42.2 7.8,-42.2 7.4,0 9.6,12.6 7.8,24.4"
         style="fill:#fd5e5a;fill-opacity:1;fill-rule:nonzero;stroke:none"
         id="path2304" />
      <path
         d="m 16209.5,6496.7 c 0,-4.3 -2,-7.9 -4.4,-7.9 -2.5,0 -4.5,3.6 -4.5,7.9 0,4.4 2,7.9 4.5,7.9 2.4,0 4.4,-3.5 4.4,-7.9"
         style="fill:#1b3753;fill-opacity:1;fill-rule:nonzero;stroke:none"
         id="path2306" />
      <g
         id="g2308"
         transform="scale(1.09571)">
        <path
           d="m 16300,2876.59 c 0,0 -112.7,-35.77 -129.2,-62.51 -16.6,-26.74 -76.1,-203.34 -91.4,-218.49 -15.1,-15.24 -122.6,-24.19 -147.5,-29.85 l 57,-98.93 c 0,0 116,-2.37 148.5,0 32.4,2.47 162.6,409.78 162.6,409.78"
           style="fill:#50284c;fill-opacity:1;fill-rule:nonzero;stroke:none"
           id="path2310" />
      </g>
      <g
         id="g2312"
         transform="scale(1.12046)">
        <path
           d="m 16125.3,2790.02 c 0,0 174.7,-168.87 147.6,-359.59 0,0 -39.2,67.2 -113.6,53.91 0,0 -34.9,73.27 -45.1,119.23 -10.4,45.97 11.1,186.45 11.1,186.45"
           style="fill:#885e83;fill-opacity:1;fill-rule:nonzero;stroke:none"
           id="path2314" />
      </g>
      <g
         id="g2316"
         transform="scale(1.11134)">
        <path
           d="m 16120.4,1270.35 h 36.1 l 143.5,618.08 -52.3,2.79 -127.3,-620.87"
           style="fill:#1f1a15;fill-opacity:1;fill-rule:nonzero;stroke:none"
           id="path2318" />
      </g>
      <g
         id="g2320"
         transform="scale(1.13898)">
        <path
           d="m 16300,1228.65 h -35.2 l -140,603.08 51,2.72 124.2,-605.8"
           style="fill:#1f1a15;fill-opacity:1;fill-rule:nonzero;stroke:none"
           id="path2322" />
      </g>
      <g
         id="g2324"
         transform="scale(1.0732)">
        <path
           d="m 16300,1372.99 h -37.3 l -148.6,640.14 54.1,2.8 131.8,-642.94"
           style="fill:#1f1a15;fill-opacity:1;fill-rule:nonzero;stroke:none"
           id="path2326" />
      </g>
      <g
         id="g2328"
         transform="scale(1.0528)">
        <path
           d="m 16110.4,1355.33 h 38.1 l 151.5,652.45 -55.2,2.94 -134.4,-655.39"
           style="fill:#1f1a15;fill-opacity:1;fill-rule:nonzero;stroke:none"
           id="path2330" />
      </g>
      <g
         id="g2332"
         transform="scale(1.13285)">
        <path
           d="m 14998.2,2322.19 v -446.04 c 0,-35.22 33.6,-63.74 75.1,-63.74 H 16225 c 41.5,0 75,28.52 75,63.74 v 446.04 c 0,35.22 -33.5,63.74 -75,63.74 h -1151.7 c -41.5,0 -75.1,-28.52 -75.1,-63.74"
           style="fill:#450000;fill-opacity:1;fill-rule:nonzero;stroke:none"
           id="path2334" />
      </g>
      <g
         id="g2336">
        <g
           id="g2338"
           clip-path="url(#clipPath2342)">
          <g
             id="g2344"
             transform="scale(1.13285)">
            <path
               d="m 15073.3,2385.93 c 41.4,0 74.9,-28.52 74.9,-63.74 v -278.76 c 0,-35.23 33.6,-63.74 75,-63.74 h 456.2 c 39.8,0 72.3,26.31 74.8,59.68 0.2,387.6 0.1,253.87 0.1,282.82 0,35.22 33.6,63.74 75,63.74 h 395.7 c 41.5,0 75,-28.52 75,-63.74 v -446.04 c 0,-35.22 -33.5,-63.74 -75,-63.74 h -1151.7 c -41.5,0 -75.1,28.52 -75.1,63.74 v 446.04 c 0,35.22 33.6,63.74 75.1,63.74"
               style="fill:url(#linearGradient2350);fill-opacity:1;fill-rule:nonzero;stroke:none"
               id="path2352" />
          </g>
        </g>
      </g>
      <g
         id="g2354"
         transform="scale(1.03286)">
        <path
           d="m 16300,1572.62 c 0,0 -12.2,-9.1 -14.7,-30.5 -1.8,-15.49 5.8,-39.99 5.8,-60.41 0,-48.51 -11.1,-63.42 -11.1,-63.42 0,0 -287.4,1.84 -287.4,14.91 0,13.07 106.3,87.72 149.3,87.72 42.9,0 76.5,98.85 76.5,98.85 l 72.7,-31.76 8.9,-15.39"
           style="fill:#2f3453;fill-opacity:1;fill-rule:nonzero;stroke:none"
           id="path2356" />
      </g>
      <g
         id="g2358"
         transform="scale(1.03395)">
        <path
           d="m 16287.9,1389.24 c 0,0 -67.9,1.16 -115.4,1.93 -47.6,0.87 -123.5,-3.58 -147.2,-3.19 -23.8,0.38 -108.9,57.93 -102.9,76.11 6,18.28 84,12.38 125.1,32.21 41.1,19.92 116.3,84.43 126.9,73.41 10.5,-11.03 80.4,-15.19 93.8,-29.21 13.3,-13.93 31.8,-139.47 19.7,-151.26"
           style="fill:#3a758d;fill-opacity:1;fill-rule:nonzero;stroke:none"
           id="path2360" />
      </g>
      <g
         id="g2362"
         transform="scale(1.03214)">
        <path
           d="m 16300,1423.35 c -189.4,33.24 -136.2,-25.58 -321.1,29.46 44.9,-19.09 111.4,-38.37 159.6,-29.75 26.2,4.75 53.4,4.26 80.4,3.98 26.9,-0.49 54,-2.04 81.1,-3.69"
           style="fill:#acfcdd;fill-opacity:1;fill-rule:nonzero;stroke:none"
           id="path2364" />
      </g>
      <g
         id="g2366"
         transform="scale(1.02427)">
        <path
           d="m 16297.4,1487.89 c -2.7,-3.12 -7.4,-3.42 -10.4,-0.78 -10.7,9.57 -34.4,28.41 -57.2,41.49 4.5,2.93 9.1,5.96 13.7,9.08 27.3,-16.5 51.5,-37.88 53.2,-39.35 3,-2.73 3.3,-7.41 0.7,-10.44"
           style="fill:#acfcdd;fill-opacity:1;fill-rule:nonzero;stroke:none"
           id="path2368" />
      </g>
      <g
         id="g2370"
         transform="scale(1.02513)">
        <path
           d="m 16295.1,1516.98 c -3.6,-1.95 -8.1,-0.68 -9.9,2.93 -0.2,0.39 -10.1,18.43 -27,36.09 4.3,2.93 8.4,5.75 12.5,8.39 16.9,-18.14 26.7,-36 27.3,-37.36 2,-3.61 0.6,-8.1 -2.9,-10.05"
           style="fill:#acfcdd;fill-opacity:1;fill-rule:nonzero;stroke:none"
           id="path2372" />
      </g>
      <g
         id="g2374"
         transform="scale(1.09252)">
        <path
           d="m 16160.1,2289.84 -109.3,14.19 c 0,0 -390.3,206.04 -455.5,130.52 -54.9,-63.61 -46.7,-84.3 22.2,-153.04 68.8,-68.83 192.1,-136.65 192.1,-136.65 l 93,-31.4 -187.4,174.09 272,-117.62 h 312.8 l -139.9,119.91"
           style="fill:#202857;fill-opacity:1;fill-rule:nonzero;stroke:none"
           id="path2376" />
      </g>
      <g
         id="g2378"
         transform="scale(1.09818)">
        <path
           d="m 16297.9,2158.74 c 0,0 2.1,-63.83 -35.1,-101.07 -37.2,-37.24 -494.9,1.46 -494.9,1.46 l -393.1,-616.39 -150.9,52.82 c 0,0 299.1,584.97 407.1,663.18 108.1,78.23 471.3,84.96 471.3,84.96 l 195.6,-84.96"
           style="fill:#3f50ae;fill-opacity:1;fill-rule:nonzero;stroke:none"
           id="path2380" />
      </g>
      <g
         id="g2382"
         transform="scale(1.03483)">
        <path
           d="m 16283.3,1567.3 -8.5,4.74 c 0,0 6.1,10.73 16.7,29.57 l 8.5,-4.74 c -10.6,-18.84 -16.7,-29.57 -16.7,-29.57"
           style="fill:#9cabfc;fill-opacity:1;fill-rule:nonzero;stroke:none"
           id="path2384" />
      </g>
      <g
         id="g2386"
         transform="scale(1.09068)">
        <path
           d="m 15910.1,2112.35 c -33.6,1.65 -54.2,1.84 -64.2,0.46 l -1.2,9.17 c 10.7,1.46 31.3,1.28 65.8,-0.46 z m 129.6,-8.71 -13,0.92 c -17.9,1.37 -35.3,2.56 -51.9,3.76 l 0.6,9.16 c 16.6,-1.19 34.1,-2.38 51.9,-3.66 l 13,-0.92 z m 129.7,-8.53 c -20.9,1.1 -42.8,2.48 -64.9,4.04 l 0.7,9.17 c 22,-1.47 43.9,-2.84 64.8,-4.04 z m 92.2,-3.11 c -8.5,0 -17.5,0.18 -27,0.36 l 0.2,9.26 c 26.2,-0.64 48.7,-0.36 64.5,0.83 l 0.7,-9.17 c -10.4,-0.83 -23.3,-1.28 -38.4,-1.28 z m -495.3,-75.46 -7.7,5.13 c 14.2,21.09 26.9,39.06 37.7,53.46 l 7.3,-5.51 c -10.7,-14.3 -23.3,-32.09 -37.3,-53.08 z m -70.1,-109.38 -7.9,4.86 c 11.8,19.07 23.4,37.59 34.6,55.1 l 7.8,-4.95 c -11.2,-17.51 -22.8,-35.94 -34.5,-55.01 z m -67.6,-111.03 -7.9,4.67 c 11.1,18.71 22.4,37.32 33.6,55.75 l 7.8,-4.77 c -11.1,-18.43 -22.3,-37.04 -33.5,-55.65 z m -66,-112.04 -8,4.67 c 10.6,18.16 21.6,37.04 32.9,56.11 l 7.9,-4.67 c -11.3,-19.07 -22.3,-37.87 -32.8,-56.11 z m -65.1,-112.59 -8,4.58 c 9.7,16.96 20.6,35.94 32.5,56.39 l 7.9,-4.59 c -11.8,-20.44 -22.7,-39.42 -32.4,-56.38"
           style="fill:#9cabfc;fill-opacity:1;fill-rule:nonzero;stroke:none"
           id="path2388" />
      </g>
      <g
         id="g2390"
         transform="scale(1.09669)">
        <path
           d="m 16271.5,2103.23 -4.3,8.21 c 21.1,10.94 27.4,15.23 27.5,15.32 l 5.3,-7.48 c -0.3,-0.18 -6.7,-4.65 -28.5,-16.05"
           style="fill:#9cabfc;fill-opacity:1;fill-rule:nonzero;stroke:none"
           id="path2392" />
      </g>
      <g
         id="g2394"
         transform="scale(1.06751)">
        <path
           d="m 16242.7,2242.32 c 0,0 43.9,-70.63 43.9,-78.5 0,-7.87 13.4,-41.59 0,-54.99 -13.3,-13.3 -295.2,75.42 -295.2,75.42 0,0 88,21.91 125.7,21.91 37.6,0 62,30.64 48.7,44.03 -13.4,13.3 76.9,-7.87 76.9,-7.87"
           style="fill:#095270;fill-opacity:1;fill-rule:nonzero;stroke:none"
           id="path2396" />
      </g>
      <g
         id="g2398"
         transform="scale(1.06809)">
        <path
           d="m 16271.3,2081.01 c 0,0 -20.8,-9.36 -106.4,26.78 -85.5,36.05 -230.1,35.11 -230.8,67.51 -0.6,32.39 105,39.97 167.1,24.99 62.2,-14.98 139.3,-38.38 169,-67.03 29.8,-28.56 1.1,-52.25 1.1,-52.25"
           style="fill:#653870;fill-opacity:1;fill-rule:nonzero;stroke:none"
           id="path2400" />
      </g>
      <g
         id="g2402"
         transform="scale(1.0702)">
        <path
           d="m 15902.6,2170.99 c -5.4,39.72 149.4,67.65 300.3,-10.93 62.3,-33.55 60,-65.97 36.2,-83.16 60.9,69.15 -187.8,116.8 -242.9,119.04 -25.3,0.56 -91.5,0.09 -93.6,-24.95"
           style="fill:#cdfdeb;fill-opacity:1;fill-rule:nonzero;stroke:none"
           id="path2404" />
      </g>
      <g
         id="g2406"
         transform="scale(1.11399)">
        <path
           d="m 16097.8,2865.1 c 0,0 109.9,-36.18 128,-67.24 74.2,-127.2 19.4,-677.83 -159.2,-742.46 -90.3,-32.68 -325.2,204.22 -325.2,204.22 0,0 172.2,139.32 183.4,352.87 10.5,203.68 173,252.61 173,252.61"
           style="fill:#6a3565;fill-opacity:1;fill-rule:nonzero;stroke:none"
           id="path2408" />
      </g>
      <g
         id="g2410"
         transform="scale(1.10017)">
        <path
           d="m 15939.1,2288.01 c 93.4,70.62 170.9,184.06 192.2,313.77 5.6,45.63 -0.9,223.78 168.7,299.32 -59.7,-17.19 -113,-59.27 -145.1,-114.44 -74.4,-126.17 2.3,-216.97 -155.4,-428.75 -18.3,-24.73 -38.4,-48 -60.4,-69.9"
           style="fill:#edeeff;fill-opacity:1;fill-rule:nonzero;stroke:none"
           id="path2412" />
      </g>
      <g
         id="g2414"
         transform="scale(1.06667)">
        <path
           d="m 16004,2494.03 c 0,0 171.5,-107.44 222.6,-179.35 51,-71.9 73.4,-111.93 73.4,-111.93 l -193.4,28.59 c 0,0 -154.5,97.69 -172,157.59 -17.6,59.81 36.1,126.85 69.4,105.1"
           style="fill:#546be8;fill-opacity:1;fill-rule:nonzero;stroke:none"
           id="path2416" />
      </g>
      <g
         id="g2418"
         transform="scale(1.06356)">
        <path
           d="m 16055.3,2474.62 c -14,11 -22.4,17.39 -22.5,17.39 l 5.7,7.53 c 0,0 8.6,-6.4 22.7,-17.49 z m 44,-35.82 c -7.8,6.48 -15.1,12.59 -21.9,18.05 l 6,7.33 c 6.8,-5.54 14.2,-11.56 22,-18.15 z m 42.9,-36.96 c -7.2,6.4 -14.4,12.7 -21.3,18.62 l 6.2,7.14 c 6.9,-6.01 14.1,-12.22 21.4,-18.71 z m 41.7,-38.45 c -6.9,6.58 -13.7,13.07 -20.7,19.37 l 6.5,6.96 c 6.8,-6.4 13.8,-12.89 20.8,-19.47 z m 39.8,-40.15 c -6.3,6.77 -12.9,13.63 -19.6,20.31 l 6.7,6.68 c 6.7,-6.77 13.4,-13.64 19.8,-20.5 z m 36.9,-42.69 c -5.4,6.96 -11.5,14.2 -18,21.72 l 7.2,6.21 c 6.6,-7.62 12.8,-15.04 18.2,-22.1 z m 31,-46.44 c -3.9,7.52 -8.7,15.51 -14.4,23.88 l 7.9,5.26 c 5.8,-8.55 10.9,-16.92 14.9,-24.73 l -8.4,-4.41"
           style="fill:#98a6f1;fill-opacity:1;fill-rule:nonzero;stroke:none"
           id="path2420" />
      </g>
      <g
         id="g2422"
         transform="scale(1.10564)">
        <path
           d="m 16211.3,3068.28 -44.2,-194.65 c -2.4,-10.58 4.9,-55.8 12.1,-64.03 16.5,-19.08 54.2,-35.73 88.7,-18.54 30,14.92 32.1,260.48 32.1,260.48 0,0 -50.2,16.92 -88.7,16.74"
           style="fill:#fc7575;fill-opacity:1;fill-rule:nonzero;stroke:none"
           id="path2424" />
      </g>
      <g
         id="g2426"
         transform="scale(1.10564)">
        <path
           d="m 16299.9,3051.53 c 0,0 0.1,-8.06 -0.1,-21.44 -5.5,-17.91 -15,-45.31 -26.1,-64.76 -14.9,-26.05 -62.5,-64.49 -99.4,-59.78 l 36.9,162.71 c 38.5,0.18 88.7,-16.73 88.7,-16.73"
           style="fill:#fd5e5a;fill-opacity:1;fill-rule:nonzero;stroke:none"
           id="path2428" />
      </g>
      <g
         id="g2430"
         transform="scale(1.11037)">
        <path
           d="m 16277.8,3273.67 c 12.4,-28.46 19.4,-65.83 -8.9,-78.17 31.1,9.1 28.9,51.42 19.6,82.31 l -10.7,-4.14"
           style="fill:#132759;fill-opacity:1;fill-rule:nonzero;stroke:none"
           id="path2432" />
      </g>
      <g
         id="g2434"
         transform="scale(1.1091)">
        <path
           d="m 16159.2,3203.68 c 0,0 -41.7,3.25 -56.6,-47.15 -14.8,-50.4 -19.3,-197.64 18.6,-219.01 37.9,-21.37 95.7,17.95 111.4,44.09 16.4,27.14 27.6,72.85 27.6,72.85 0,0 39.8,184.93 -101,149.22"
           style="fill:#fc7575;fill-opacity:1;fill-rule:nonzero;stroke:none"
           id="path2436" />
      </g>
      <g
         id="g2438"
         transform="scale(1.11245)">
        <path
           d="m 16237.1,2966.43 c 0,0 -11.8,-9.35 -19.5,7.55 0,0 -17.8,39.1 8.7,60.59 26.5,21.57 65.8,50.43 69.7,98.79 4,48.36 -52.8,59.51 -52.8,59.51 0,0 5.6,74.16 -78.8,66.25 0,0 -11.7,18.7 -58.5,26.16 -46.8,7.37 -40.9,-20.23 -66.7,-10.52 -25.9,9.71 -25.3,31.37 -12.5,37.21 0,0 -50,-11.68 -63.5,-47.28 -13.4,-35.6 56.8,-51.86 56.8,-51.86 0,0 -58.4,4.13 -20.1,-28.86 38.5,-32.9 59.6,-36.86 91.6,-16.36 32,20.5 47.5,23.82 60.4,14.92 12.9,-8.9 1.5,-39.19 22,-46.92 20.5,-7.73 22.7,-66.52 22.7,-66.52 0,0 17.6,2.16 8.7,-36.95 -8.9,-39.19 -19.1,-62.29 4.1,-71.01 23.2,-8.72 27.7,5.3 27.7,5.3"
           style="fill:#132759;fill-opacity:1;fill-rule:nonzero;stroke:none"
           id="path2440" />
      </g>
      <g
         id="g2442"
         transform="scale(1.1096)">
        <path
           d="m 16259,3120.15 c 12.8,-0.99 41,-16.4 7.8,-50.83 -33.1,-34.43 -46.5,11.45 -40.2,28.3 6.4,16.76 22.6,23.34 32.4,22.53"
           style="fill:#fc7575;fill-opacity:1;fill-rule:nonzero;stroke:none"
           id="path2444" />
      </g>
      <g
         id="g2446"
         transform="scale(1.09857)">
        <path
           d="m 16290,3118.87 c -2,-24.58 -6.8,-47.79 -6.4,-71.27 5.5,-1.18 10.9,-2.55 16.4,-4.28 -10.1,-1.19 -18,-1.09 -21.8,-1.19 0,1.28 -3.2,33.78 11.8,76.74"
           style="fill:#132759;fill-opacity:1;fill-rule:nonzero;stroke:none"
           id="path2448" />
      </g>
      <g
         id="g2450"
         transform="scale(1.10345)">
        <path
           d="m 16229,3110.05 c 1.3,-0.54 2.9,0.09 3.6,1.45 0.2,0.37 4.8,9.52 18.1,11.97 11.4,2.17 36.1,-9.79 44.7,-14.5 1.4,-0.82 3.1,-0.28 3.9,1.08 0.7,1.36 0.2,3.18 -1.1,3.9 -1.4,0.72 -32.7,18.21 -48.6,15.23 -16.2,-3.09 -22,-14.68 -22.2,-15.14 -0.7,-1.45 -0.1,-3.17 1.4,-3.9 l 0.2,-0.09"
           style="fill:#132759;fill-opacity:1;fill-rule:nonzero;stroke:none"
           id="path2452" />
      </g>
      <g
         id="g2454"
         transform="scale(1.1004)">
        <path
           d="m 16300,3020.71 c 0,0 -43.8,-5.18 -66.2,5.18 0,0 0.5,-19.45 13.3,-27.36 12.8,-7.9 42.6,-5.18 52.9,22.18"
           style="fill:#ffffff;fill-opacity:1;fill-rule:nonzero;stroke:none"
           id="path2456" />
      </g>
      <g
         id="g2458"
         transform="scale(1.10776)">
        <path
           d="m 16297.1,3097.15 c 0,0 -8,-27.53 -21.7,-24.46 -13.7,3.06 -12.7,24.64 -1.3,33.12 11.4,8.49 25.9,-0.9 23,-8.66"
           style="fill:#fd5e5a;fill-opacity:1;fill-rule:nonzero;stroke:none"
           id="path2460" />
      </g>
      <g
         id="g2462"
         transform="scale(1.10025)">
        <path
           d="m 16283.5,3105.93 c -0.4,-5.64 2.8,-10.46 7.2,-10.82 4.5,-0.36 8.4,3.91 8.8,9.55 0.5,5.63 -2.7,10.45 -7.1,10.81 -4.5,0.27 -8.5,-3.91 -8.9,-9.54"
           style="fill:#132759;fill-opacity:1;fill-rule:nonzero;stroke:none"
           id="path2464" />
      </g>
      <g
         id="g2466"
         transform="scale(1.0964)">
        <path
           d="m 16283.4,3124.32 c -0.4,-5.65 2.8,-10.49 7.3,-10.85 4.5,-0.37 8.4,3.92 8.8,9.48 0.5,5.66 -2.7,10.58 -7.2,10.86 -4.4,0.36 -8.4,-3.93 -8.9,-9.49"
           style="fill:#132759;fill-opacity:1;fill-rule:nonzero;stroke:none"
           id="path2468" />
      </g>
      <g
         id="g2470"
         transform="scale(1.09695)">
        <path
           d="m 16299.2,3134.87 c 0.8,-1.37 0.3,-3.19 -1,-3.92 l -2.5,-0.27 -1.4,1.28 c -2.3,3.92 -9.7,14.49 -16.1,16.95 -1.6,0.55 -3.2,1.1 -4.8,1.46 0.3,2 0.4,3.92 0.7,5.83 2,-0.54 4.1,-1.09 6.1,-1.91 9.7,-3.65 18.6,-18.78 19,-19.42"
           style="fill:#132759;fill-opacity:1;fill-rule:nonzero;stroke:none"
           id="path2472" />
      </g>
      <g
         id="g2474"
         transform="scale(1.09493)">
        <path
           d="m 16300,2399.34 v -0.09 0.09"
           style="fill:#fabf44;fill-opacity:1;fill-rule:nonzero;stroke:none"
           id="path2476" />
      </g>
      <g
         id="g2478"
         transform="scale(1.09493)">
        <path
           d="m 16300,2398.06 v -0.09 0.09"
           style="fill:#fabf44;fill-opacity:1;fill-rule:nonzero;stroke:none"
           id="path2480" />
      </g>
      <g
         id="g2482"
         transform="scale(1.13285)">
        <path
           d="m 15754.2,2039.37 c 0.1,203.46 0.1,263.31 0.1,278.41 v 0 0 0.18 0.87 0.18 0 0.09 0 1.06 0 0 0.35 0.89 0.09 0.35 0.35 c 0,35.22 33.6,63.74 75,63.74 h 395.7 c 41.5,0 75,-28.52 75,-63.74 v -446.04 c 0,-35.22 -33.5,-63.74 -75,-63.74 h -541.7 l -3.9,167.28 c 39.8,0 72.3,26.31 74.8,59.68"
           style="fill:#fabf44;fill-opacity:1;fill-rule:nonzero;stroke:none"
           id="path2484" />
      </g>
      <g
         id="g2486"
         transform="scale(1.13285)">
        <path
           d="m 15998.7,1812.41 h 226.3 c 41.5,0 75,28.52 75,63.74 v 446.04 c 0,35.22 -33.5,63.74 -75,63.74 h -226.3 c -41.4,0 -75,-28.52 -75,-63.74 v -446.04 c 0,-35.22 33.6,-63.74 75,-63.74"
           style="fill:#890d00;fill-opacity:1;fill-rule:nonzero;stroke:none"
           id="path2488" />
      </g>
      <g
         id="g2490"
         transform="scale(1.11871)">
        <path
           d="m 16183.7,2493.23 -194.7,-51.14 c 0,0 -57.3,-41.38 -83,-49.52 -25.8,-8.22 -57.2,-36.64 -51.1,-45.41 6.2,-8.67 38.6,20.92 43.8,20.03 5.3,-0.9 -19,-35.94 -22.9,-58.91 -4,-23.06 -11.8,-45.32 1.3,-43.53 13.1,1.79 22.7,53.54 22.7,53.54 0,0 20.2,39.15 23.5,34.51 3.2,-4.56 -13.5,-31.47 -13.5,-31.47 0,0 -4,-29.05 -5.7,-39.24 -1.3,-7.69 5.6,-30.48 11.6,-22.08 3.5,4.92 1.9,23.78 6,34.59 8.3,22.09 22,39.6 22,39.6 0,0 -14.7,-66.23 -5.5,-67.75 9.3,-1.61 18.8,53.27 18.8,53.27 0,0 22.5,45.68 32.3,49.7 9.7,4.11 36.7,21.55 57.6,28.79 20.8,7.24 107,-16.63 145.5,-17.17 38.4,-0.53 100.8,23.33 106,53.55 1.6,9.29 -4.1,19.48 -12.9,29.14 -25.5,28.24 -65,39.15 -101.8,29.5"
           style="fill:#fc7575;fill-opacity:1;fill-rule:nonzero;stroke:none"
           id="path2492" />
      </g>
      <g
         id="g2494"
         transform="scale(1.07507)">
        <path
           d="m 16237.7,2614.98 -228.9,-56.74 c 0,0 -59.7,-43.06 -86.4,-51.53 -26.8,-8.56 -59.6,-38.13 -53.2,-47.25 6.5,-9.02 40.1,21.77 45.6,20.84 5.5,-0.93 -19.8,-37.4 -23.9,-61.3 -4.1,-24 -12.3,-47.16 1.4,-45.3 13.7,1.86 23.6,55.72 23.6,55.72 0,0 21.1,40.74 24.5,35.99 3.3,-4.83 -14,-32.83 -14,-32.83 0,0 -4.2,-30.23 -6,-40.84 -1.4,-7.9 5.9,-31.72 12.1,-22.97 3.6,5.12 1.9,24.74 6.2,36 8.7,22.97 22.9,41.2 22.9,41.2 0,0 -15.2,-68.83 -5.7,-70.5 9.6,-1.68 19.5,55.44 19.5,55.44 0,0 23.4,47.52 33.6,51.81 10.2,4.18 38.3,22.32 59.9,29.85 21.7,7.54 107.1,-5.58 147.1,-6.04 40,-0.56 84,7.63 84,7.63 0,0 -24.1,110.87 -62.3,100.82"
           style="fill:#fd5e5a;fill-opacity:1;fill-rule:nonzero;stroke:none"
           id="path2496" />
      </g>
      <g
         id="g2498"
         transform="scale(1.12055)">
        <path
           d="m 16222.4,3109.27 c 1.3,0 2.6,0.8 3.2,2.06 74.4,167.95 -123,315.64 -125.1,317.07 -1.5,1.16 -3.6,0.8 -4.8,-0.72 -1.1,-1.6 -0.8,-3.74 0.7,-4.9 2,-1.43 195,-145.82 122.8,-308.6 -0.8,-1.78 0,-3.84 1.8,-4.64 l 1.4,-0.27"
           style="fill:#411ac0;fill-opacity:1;fill-rule:nonzero;stroke:none"
           id="path2500" />
      </g>
      <g
         id="g2502"
         transform="scale(1.08817)">
        <path
           d="m 16300,2224.66 -352.2,30.23 -285.5,-18.37 273.9,-17.1 363.8,5.24"
           style="fill:#838bc5;fill-opacity:1;fill-rule:nonzero;stroke:none"
           id="path2504" />
      </g>
      <g
         id="g2506"
         transform="scale(1.08817)">
        <path
           d="m 16300,2202.24 h -353.6 v 34.28 l 353.6,-11.86 v -22.42"
           style="fill:#0f1d5b;fill-opacity:1;fill-rule:nonzero;stroke:none"
           id="path2508" />
      </g>
      <g
         id="g2510">
        <g
           id="g2512"
           clip-path="url(#clipPath2516)">
          <g
             id="g2518"
             transform="scale(1.06456)">
            <path
               d="m 16041.2,2715.12 258.8,-429.01 v -35.03 l -278.1,464.04 h 19.3"
               style="fill:url(#linearGradient2524);fill-opacity:1;fill-rule:nonzero;stroke:none"
               id="path2526" />
          </g>
        </g>
      </g>
      <g
         id="g2528"
         transform="scale(1.06456)">
        <path
           d="m 15770.3,2622.97 251.6,92.15 278.1,-464.04 -308.5,8.64 -221.2,363.25"
           style="fill:#0f1d5b;fill-opacity:1;fill-rule:nonzero;stroke:none"
           id="path2530" />
      </g>
      <g
         id="g2532"
         transform="scale(1.05593)">
        <path
           d="m 15815.9,3170.75 h 447.3 c 20.3,0 36.8,-26.42 36.8,-59.19 v -137.7 c 0,-32.76 -16.5,-59.28 -36.8,-59.28 h -20.3 l 57.1,-187.51 -178.5,187.51 h -305.6 c -20.4,0 -36.9,26.52 -36.9,59.28 v 137.7 c 0,32.77 16.5,59.19 36.9,59.19"
           style="fill:#ed4790;fill-opacity:1;fill-rule:nonzero;stroke:none"
           id="path2534" />
      </g>
      <g
         id="g2536"
         transform="scale(1.13898)">
        <path
           d="m 16132.2,5277.52 c -92.6,0 -167.7,-32.31 -167.7,-72.26 0,-19.93 18.7,-37.93 49.1,-51.01 l -15.5,-69.36 57,56.19 c 23.1,-5.09 49.4,-7.99 77.1,-7.99 92.6,0 167.8,32.31 167.8,72.17 0,39.95 -75.2,72.26 -167.8,72.26"
           style="fill:#ffffff;fill-opacity:1;fill-rule:nonzero;stroke:none"
           id="path2538" />
      </g>
      <g
         id="g2540"
         transform="scale(1.13379)">
        <path
           d="m 16272.3,5210.69 c 0,-7.68 6.2,-13.85 13.9,-13.85 7.6,0 13.8,6.17 13.8,13.85 0,7.67 -6.2,13.84 -13.8,13.84 -7.7,0 -13.9,-6.17 -13.9,-13.84"
           style="fill:#99d7ff;fill-opacity:1;fill-rule:nonzero;stroke:none"
           id="path2542" />
      </g>
      <g
         id="g2544"
         transform="scale(1.13124)">
        <path
           d="m 16272.2,5222.41 c 0,-7.69 6.2,-13.87 13.9,-13.87 7.6,0 13.9,6.18 13.9,13.87 0,7.69 -6.3,13.88 -13.9,13.88 -7.7,0 -13.9,-6.19 -13.9,-13.88"
           style="fill:#99d7ff;fill-opacity:1;fill-rule:nonzero;stroke:none"
           id="path2546" />
      </g>
      <g
         id="g2548"
         transform="scale(1.12869)">
        <path
           d="m 16272.2,5234.2 c 0,-7.71 6.2,-13.91 13.9,-13.91 7.6,0 13.9,6.2 13.9,13.91 0,7.7 -6.3,13.9 -13.9,13.9 -7.7,0 -13.9,-6.2 -13.9,-13.9"
           style="fill:#99d7ff;fill-opacity:1;fill-rule:nonzero;stroke:none"
           id="path2550" />
      </g>
    </g>
  </g>
</svg>
