<?xml version="1.0" encoding="UTF-8" standalone="no"?>
<svg
   xmlns:dc="http://purl.org/dc/elements/1.1/"
   xmlns:cc="http://creativecommons.org/ns#"
   xmlns:rdf="http://www.w3.org/1999/02/22-rdf-syntax-ns#"
   xmlns:svg="http://www.w3.org/2000/svg"
   xmlns="http://www.w3.org/2000/svg"
   id="svg2558"
   version="1.1"
   viewBox="0 0 297 210"
   height="210mm"
   width="297mm">
  <defs
     id="defs2552" />
  <metadata
     id="metadata2555">
    <rdf:RDF>
      <cc:Work
         rdf:about="">
        <dc:format>image/svg+xml</dc:format>
        <dc:type
           rdf:resource="http://purl.org/dc/dcmitype/StillImage" />
        <dc:title></dc:title>
      </cc:Work>
    </rdf:RDF>
  </metadata>
  <g
     transform="translate(0,-87)"
     id="layer1">
    <g
       transform="matrix(0.03527778,0,0,-0.03527778,4.5597928,758.74621)"
       id="g2715">
      <g
         id="g1072"
         transform="scale(1.15223)">
        <path
           d="m 1106.17,14784.8 c 0,0 644.08,177.8 809.22,469.7 165.16,292 368.83,577.7 638.58,419 269.74,-158.7 638.57,626.5 1067.96,503.7 429.38,-122.8 732.15,-485.7 1078.97,-691.5 346.8,-205.8 220.19,-605.7 467.92,-675.5 247.72,-69.8 522.97,-25.4 522.97,-25.4 0,0 -666.1,-31.7 -748.68,-406.2 -82.57,-374.6 -440.4,-476.1 -638.58,-127 -198.17,349.1 -401.85,380.9 -506.45,82.5 -104.59,-298.3 -401.86,-1155.3 -644.08,-672.8 -242.21,482.4 -264.23,1009.3 -544.98,799.8 -280.75,-209.5 -407.37,-1187 -655.09,-717.3 -247.72,469.7 -500.95,1161.6 -847.76,1041"
           style="fill:#e3b4ff;fill-opacity:1;fill-rule:nonzero;stroke:none"
           id="path1074" />
      </g>
      <g
         id="g1076"
         transform="scale(1.01794)">
        <path
           d="m 3462.97,16081.5 c 0,0 -14.35,7.3 32.06,53.7 46.43,46.4 117.6,164.8 117.6,164.8 l 41.36,-110.3 -128.57,-122 -62.45,13.8"
           style="fill:#713045;fill-opacity:1;fill-rule:nonzero;stroke:none"
           id="path1078" />
      </g>
      <path
         d="m 4765.64,15160.9 -529.1,399.6 -386.02,-183.3 879.69,-552.1 686.09,517.6 c -20.72,30.9 -70.14,105.6 -95.66,131.7 l -555,-313.5"
         style="fill:#495fd8;fill-opacity:1;fill-rule:nonzero;stroke:none"
         id="path1080" />
      <path
         d="m 5430.61,15465.8 -84.95,-38.9 c 25.53,-26.1 49.92,-53.3 70.64,-84.2 l 60.7,45.8 -46.39,77.3"
         style="fill:#fc7575;fill-opacity:1;fill-rule:nonzero;stroke:none"
         id="path1082" />
      <g
         id="g1084"
         transform="scale(1.06399)">
        <path
           d="M 6003.04,15348.9 H 4651.62 c -11.6,0 -21,9.4 -21,21 v 909.1 c 0,11.6 9.4,21 21,21 h 1351.42 c 11.6,0 21,-9.4 21,-21 v -909.1 c 0,-11.6 -9.4,-21 -21,-21"
           style="fill:#9db6fe;fill-opacity:1;fill-rule:nonzero;stroke:none"
           id="path1086" />
      </g>
      <g
         id="g1088"
         transform="scale(1.05321)">
        <path
           d="m 5532.27,16300 h -707.83 v -204.5 h 101.76 l -49.63,-109 124.05,109 h 531.65 v 204.5"
           style="fill:#ffffff;fill-opacity:1;fill-rule:nonzero;stroke:none"
           id="path1090" />
      </g>
      <g
         id="g1092"
         transform="scale(1.02932)">
        <path
           d="m 5479.58,16300 h 611.59 v -209.2 h -87.92 l 42.88,-111.6 -107.18,111.6 h -459.37 v 209.2"
           style="fill:#ffffff;fill-opacity:1;fill-rule:nonzero;stroke:none"
           id="path1094" />
      </g>
      <path
         d="m 4280.34,14699.7 -57.85,545.5 c 0,0 19.78,33.2 67.47,111.2 47.7,78 -137.3,204.1 -137.3,204.1 l -302.14,-122 154.81,-972.7 960.12,-91.7 c 4.26,42.4 13.63,129.9 20.29,172.3 l -705.4,153.3"
         style="fill:#6d7fe0;fill-opacity:1;fill-rule:nonzero;stroke:none"
         id="path1096" />
      <path
         d="m 5143.43,14512.2 -157.69,34.2 c -6.66,-42.4 -10.72,-84.8 -14.98,-127.2 l 172.67,-29.7 v 122.7"
         style="fill:#fc7575;fill-opacity:1;fill-rule:nonzero;stroke:none"
         id="path1098" />
      <path
         d="m 5236.04,13592.6 c 0,-21.6 -398.4,-39.2 -889.87,-39.2 -491.46,0 -889.86,17.6 -889.86,39.2 0,21.7 398.4,39.3 889.86,39.3 491.47,0 889.87,-17.6 889.87,-39.3"
         style="fill:#235893;fill-opacity:1;fill-rule:nonzero;stroke:none"
         id="path1100" />
      <path
         d="m 5425.28,15622.5 c 0,0 73.05,-29 124.18,-49.3 51.14,-20.3 135.06,-46.8 160.63,-57 25.57,-10.1 95.02,-105 81.39,-121.5 -13.62,-16.6 -95.74,21.5 -148.05,17.6 -52.31,-3.9 -155.32,-50.1 -162.41,-34.2 -7.09,15.8 -83.23,43.9 -92.18,63.9 -8.96,20.1 18.71,173.1 36.44,180.5"
         style="fill:#1aa5c2;fill-opacity:1;fill-rule:nonzero;stroke:none"
         id="path1102" />
      <path
         d="m 5679.25,15487.8 -268.29,106.5 c 4.91,15.6 9.92,26.4 14.32,28.2 0,0 73.05,-29 124.18,-49.3 51.14,-20.3 135.06,-46.8 160.63,-57 25.57,-10.1 95.02,-105 81.39,-121.5 -4.37,-5.3 -15.79,-5 -31.02,-2.3 -12.14,23 -45.83,81.3 -81.21,95.4"
         style="fill:#c2d6ff;fill-opacity:1;fill-rule:nonzero;stroke:none"
         id="path1104" />
      <path
         d="m 5493.58,15502.9 c 0,0 124.57,-80.3 136.24,-92.2 11.67,-11.9 -82.67,-33.5 -82.67,-33.5 0,0 -92.35,69.2 -92.62,85.9 -0.27,16.7 21.81,31.7 39.05,39.8"
         style="fill:#c2d6ff;fill-opacity:1;fill-rule:nonzero;stroke:none"
         id="path1106" />
      <path
         d="m 5454.53,15463.1 c -1.7,20.7 27.03,36.3 39.26,43.4 26.07,-16.4 105.26,-64.5 136.03,-95.8 -14,10 -74.31,45.2 -136.67,88.7 -15.04,-6.7 -36.9,-19.6 -38.62,-36.3"
         style="fill:#0d5361;fill-opacity:1;fill-rule:nonzero;stroke:none"
         id="path1108" />
      <g
         id="g1110"
         transform="scale(1.01105)">
        <path
           d="m 4113.06,16300 c 0,0 116.42,-43.5 116.42,-262.7 0,-143.6 -69.12,-501.2 -69.12,-501.2 l 159.21,-159.1 c 0,0 -405.47,-207.8 -630.12,-244.7 0,0 73.44,196.5 73.44,300.2 0,103.6 -36.4,596.6 79.58,716.4 87.18,90 270.59,151.1 270.59,151.1"
           style="fill:#f57408;fill-opacity:1;fill-rule:nonzero;stroke:none"
           id="path1112" />
      </g>
      <g
         id="g1114"
         transform="scale(1.02275)">
        <path
           d="m 4011.87,16300 c 0,0 50.48,-66.6 54.12,-186.5 3.62,-120 25.51,-118.9 -4.47,-133.6 -41.34,-20.4 -159.5,-17.7 -183,21.9 0,0 56.35,140.7 27.67,200.7 l 105.68,97.5"
           style="fill:#fc7575;fill-opacity:1;fill-rule:nonzero;stroke:none"
           id="path1116" />
      </g>
      <g
         id="g1118"
         transform="scale(1.02275)">
        <path
           d="m 4011.87,16300 c 0,0 21.42,-28.2 37.36,-81.1 -42.02,-53 -95.8,-77.3 -135.46,-76.1 1.6,22.8 -0.08,44 -7.58,59.7 l 105.68,97.5"
           style="fill:#fd5e5a;fill-opacity:1;fill-rule:nonzero;stroke:none"
           id="path1120" />
      </g>
      <g
         id="g1122"
         transform="scale(1.03869)">
        <path
           d="m 3938.32,16295.4 c -45.33,-2.3 -102.81,-25.2 -125.7,-90 -4.09,-11.5 4.76,-49.7 1,-60.3 -17.32,-49 -43.1,-58.8 -43.1,-58.8 l 31.03,-13 c 0,0 -5.12,-34.9 -4.97,-70.1 0.11,-25.3 1.7,-50.4 15.56,-64.8 33.19,-34.4 151.3,-13 204.36,91.3 53.07,104.3 14.13,270.3 -78.18,265.7"
           style="fill:#fc7575;fill-opacity:1;fill-rule:nonzero;stroke:none"
           id="path1124" />
      </g>
      <g
         id="g1126"
         transform="scale(1.04208)">
        <path
           d="m 3958.24,16291.9 2.85,8.1 c 13.55,-8.1 26.55,-24.1 29.17,-41 3.03,-18.8 -5.29,-31.7 -16.77,-47 l -1.71,1.6 c 0.51,0.7 10,13.8 11.74,21.5 5.05,13.7 2.55,29.5 -9.11,43.2 -6.11,7.5 -14.37,12.4 -15.14,13 l -1.03,0.6"
           style="fill:#052f43;fill-opacity:1;fill-rule:nonzero;stroke:none"
           id="path1128" />
      </g>
      <g
         id="g1130"
         transform="scale(1.03)">
        <path
           d="m 3866.51,16286.6 c 0.86,-6.4 5.78,-10.9 10.99,-10.2 5.22,0.7 8.75,6.4 7.89,12.7 -0.87,6.3 -5.79,10.9 -10.99,10.2 -5.23,-0.7 -8.75,-6.4 -7.89,-12.7"
           style="fill:#052f43;fill-opacity:1;fill-rule:nonzero;stroke:none"
           id="path1132" />
      </g>
      <g
         id="g1134"
         transform="scale(1.03247)">
        <path
           d="m 3908.31,16269.4 c 0,0 -18.9,15.3 -36.82,16.3 -17.91,1 -24.02,-1.2 -24.02,-1.2 l -0.43,10.9 c 0,0 44.55,4.6 61.27,-26"
           style="fill:#052f43;fill-opacity:1;fill-rule:nonzero;stroke:none"
           id="path1136" />
      </g>
      <g
         id="g1138"
         transform="scale(1.04161)">
        <path
           d="m 3945.97,16300 -132.75,-16 6.62,-28.4 -24.8,25.5 -45.58,-19.2 c 0,0 59.42,-41.3 71.3,-66.1 0,0 84.1,2.7 95.34,-20.8 11.23,-23.5 -19.18,-100 6.12,-108.9 25.3,-9 38.47,-17.5 44.41,-29.9 5.94,-12.4 5.4,-98.8 5.4,-98.8 l 3.9,-12.1 c 0,0 82.26,125 89.98,183.7 7.73,58.8 -19,168.7 -19,168.7 l -46.58,16.5 -14.49,-22.8 -39.87,28.6"
           style="fill:#052f43;fill-opacity:1;fill-rule:nonzero;stroke:none"
           id="path1140" />
      </g>
      <g
         id="g1142"
         transform="scale(1.03046)">
        <path
           d="m 3988.03,16246.4 c 0,0 31,53.6 43.75,26.9 12.76,-26.7 -13.7,-75.1 -25.12,-71.1 -11.43,4 -30.92,9.4 -18.63,44.2"
           style="fill:#fc7575;fill-opacity:1;fill-rule:nonzero;stroke:none"
           id="path1144" />
      </g>
      <g
         id="g1146"
         transform="scale(1.02843)">
        <path
           d="m 4000.26,16272.4 c 0,0 21.15,27.6 27.44,14.4 6.28,-13.1 -0.13,-42.9 -13.5,-38.2 -13.37,4.8 -17.71,13.1 -13.94,23.8"
           style="fill:#fd5e5a;fill-opacity:1;fill-rule:nonzero;stroke:none"
           id="path1148" />
      </g>
      <g
         id="g1150"
         transform="scale(1.02626)">
        <path
           d="m 3964.09,16284.1 c 0,-8.7 -16.57,-15.8 -37.01,-15.8 -20.46,0 -37.03,7.1 -37.03,15.8 0,8.8 16.57,15.9 37.03,15.9 20.44,0 37.01,-7.1 37.01,-15.9"
           style="fill:#fd5e5a;fill-opacity:1;fill-rule:nonzero;stroke:none"
           id="path1152" />
      </g>
      <g
         id="g1154"
         transform="scale(1.02203)">
        <path
           d="m 3881.25,16264 c -2.56,0 -4.76,1.9 -5.01,4.5 -0.26,2.8 1.76,5.3 4.53,5.5 0.33,0.1 32.68,3.4 42.2,22.5 1.26,2.5 4.28,3.5 6.77,2.3 2.5,-1.3 3.5,-4.3 2.25,-6.8 -12.03,-24.1 -48.7,-27.9 -50.26,-28 h -0.48"
           style="fill:#052f43;fill-opacity:1;fill-rule:nonzero;stroke:none"
           id="path1156" />
      </g>
      <path
         d="m 4504.84,15465.8 -0.93,0.1 c -1.79,0.6 -2.82,2.4 -2.3,4.2 36.21,125.6 32.08,229.7 -12.27,309.3 -51.27,92 -139.82,117.7 -140.71,118 -1.78,0.5 -2.83,2.3 -2.33,4.1 0.5,1.8 2.33,2.9 4.15,2.4 0.91,-0.3 92.01,-26.7 144.71,-121.1 45.32,-81.3 49.66,-187.1 12.92,-314.6 -0.43,-1.4 -1.77,-2.4 -3.24,-2.4"
         style="fill:#2846a6;fill-opacity:1;fill-rule:nonzero;stroke:none"
         id="path1158" />
      <path
         d="m 5272.5,14583.2 c 0,0 18.76,-76.3 31.89,-129.8 13.13,-53.4 40.28,-137.1 46.84,-163.8 6.57,-26.7 -30.39,-138.3 -51.78,-136.8 -21.38,1.4 -38,90.4 -71.56,130.8 -33.56,40.3 -130.92,97.4 -122.12,112.4 8.8,14.9 -12.52,93.2 -1.4,112.2 11.11,18.9 151.83,85.2 168.13,75"
         style="fill:#1aa5c2;fill-opacity:1;fill-rule:nonzero;stroke:none"
         id="path1160" />
      <path
         d="m 5310.16,14298.2 -52.55,160.1 c -11.15,33.9 -16.7,69.4 -16.46,105.2 l 0.1,15 c 15.49,5 27.2,7.2 31.25,4.7 0,0 18.76,-76.3 31.89,-129.8 13.13,-53.4 40.27,-137.1 46.84,-163.8 6.57,-26.7 -30.39,-138.3 -51.78,-136.8 -6.85,0.4 -13.22,9.9 -19.82,23.9 11.64,23.2 39.61,84.5 30.53,121.5"
         style="fill:#c2d6ff;fill-opacity:1;fill-rule:nonzero;stroke:none"
         id="path1162" />
      <path
         d="m 5214.74,14458.2 c 0,0 6.9,-148.1 3.98,-164.5 -2.92,-16.4 -75.29,47.9 -75.29,47.9 0,0 2.81,115.4 16.25,125.3 13.44,9.9 38.47,0.6 55.06,-8.7"
         style="fill:#c2d6ff;fill-opacity:1;fill-rule:nonzero;stroke:none"
         id="path1164" />
      <path
         d="m 5159.68,14466.9 c 15.83,13.4 45.27,-0.9 58.08,-6.8 1.75,-30.8 8.54,-123.2 0.96,-166.4 0.03,17.2 -6.29,86.8 -7.13,162.8 -14.11,8.4 -37.32,18.7 -51.91,10.4"
         style="fill:#0d5361;fill-opacity:1;fill-rule:nonzero;stroke:none"
         id="path1166" />
      <path
         d="m 5346.02,14436.4 c -23.93,69.9 -57.94,158.9 -73.52,146.8 -27.97,-21.7 16.01,-99 25.03,-122 19.8,-50.7 33.26,-103.8 39.88,-157.8 6.3,-51.3 -25.86,-76.1 -40.44,-122 -2.82,-8.8 -4.17,-20.3 3.41,-25.7 8.92,-6.3 20.89,2 27.71,10.6 15.59,19.5 25.81,42.7 35.86,65.7 9.86,22.5 19.92,45.8 19.9,70.4 -0.02,19.1 -6.14,37.6 -12.19,55.7 -2.18,6.5 -12.35,39.5 -25.64,78.3"
         style="fill:#0d5361;fill-opacity:1;fill-rule:nonzero;stroke:none"
         id="path1168" />
      <g
         id="g1170"
         transform="scale(1.13566)">
        <path
           d="m 4440.66,15368.2 h -1324 c -11.36,0 -20.56,9.2 -20.56,20.6 v 890.6 c 0,11.4 9.2,20.6 20.56,20.6 h 1324 c 11.36,0 20.57,-9.2 20.57,-20.6 v -890.6 c 0,-11.4 -9.21,-20.6 -20.57,-20.6"
           style="fill:#7c9afe;fill-opacity:1;fill-rule:nonzero;stroke:none"
           id="path1172" />
      </g>
      <g
         id="g1174"
         transform="scale(1.12784)">
        <path
           d="M 3804.86,15612.8 H 3307.2 v 687.2 h 497.66 v -687.2"
           style="fill:#ecf2ff;fill-opacity:1;fill-rule:nonzero;stroke:none"
           id="path1176" />
      </g>
      <g
         id="g1178"
         transform="scale(1.08148)">
        <path
           d="m 4118.39,16300 c 45.79,0 82.91,-13.9 82.91,-31.1 0,-8.6 -9.28,-16.4 -24.29,-22 l 7.7,-29.8 -28.22,24.2 c -11.41,-2.2 -24.36,-3.5 -38.1,-3.5 -45.79,0 -82.91,13.9 -82.91,31.1 0,17.2 37.12,31.1 82.91,31.1"
           style="fill:#ecf2ff;fill-opacity:1;fill-rule:nonzero;stroke:none"
           id="path1180" />
      </g>
      <g
         id="g1182"
         transform="scale(1.12784)">
        <path
           d="M 4415.66,16269.3 H 3869.6 v 30.7 h 546.06 v -30.7"
           style="fill:#ecf2ff;fill-opacity:1;fill-rule:nonzero;stroke:none"
           id="path1184" />
      </g>
      <g
         id="g1186"
         transform="scale(1.12324)">
        <path
           d="m 4433.77,16269.2 h -548.3 v 30.8 h 548.3 v -30.8"
           style="fill:#ecf2ff;fill-opacity:1;fill-rule:nonzero;stroke:none"
           id="path1188" />
      </g>
      <g
         id="g1190"
         transform="scale(1.11863)">
        <path
           d="m 4452.02,16269 h -550.56 v 31 h 550.56 v -31"
           style="fill:#ecf2ff;fill-opacity:1;fill-rule:nonzero;stroke:none"
           id="path1192" />
      </g>
      <g
         id="g1194"
         transform="scale(1.11403)">
        <path
           d="m 4470.42,16268.9 h -552.83 v 31.1 h 552.83 v -31.1"
           style="fill:#ecf2ff;fill-opacity:1;fill-rule:nonzero;stroke:none"
           id="path1196" />
      </g>
      <g
         id="g1198"
         transform="scale(1.11757)">
        <path
           d="m 3710.27,16145.3 c 0,-85.4 -56.39,-154.7 -125.94,-154.7 -69.56,0 -125.96,69.3 -125.96,154.7 0,85.4 56.4,154.7 125.96,154.7 69.55,0 125.94,-69.3 125.94,-154.7"
           style="fill:#d7e0fe;fill-opacity:1;fill-rule:nonzero;stroke:none"
           id="path1200" />
      </g>
      <g
         id="g1202"
         transform="scale(1.1087)">
        <path
           d="m 3482.9,16274.4 c 0,8.7 0.59,17.3 1.7,25.6 -14.89,-4.1 -25.91,-19.1 -25.91,-37 0,-19.7 13.42,-35.9 30.62,-37.8 -4.15,15.5 -6.41,32 -6.41,49.2"
           style="fill:#d7e0fe;fill-opacity:1;fill-rule:nonzero;stroke:none"
           id="path1204" />
      </g>
      <g
         id="g1206"
         transform="scale(1.10873)">
        <path
           d="m 3741.2,16300 c 1.16,-8.5 1.76,-17.2 1.76,-26 0,-17.3 -2.27,-33.9 -6.44,-49.5 18.15,0.9 32.61,17.6 32.61,38.1 0,18.6 -12.03,34.1 -27.93,37.4"
           style="fill:#d7e0fe;fill-opacity:1;fill-rule:nonzero;stroke:none"
           id="path1208" />
      </g>
      <g
         id="g1210"
         transform="scale(1.09667)">
        <path
           d="m 3652.63,16292.2 c -8.44,0 -16.69,1 -24.68,2.8 v -147.7 h 65.16 v 152.7 c -12.76,-5.1 -26.36,-7.8 -40.48,-7.8"
           style="fill:#d7e0fe;fill-opacity:1;fill-rule:nonzero;stroke:none"
           id="path1212" />
      </g>
      <g
         id="g1214"
         transform="scale(1.12372)">
        <path
           d="m 3564.69,16213.8 c 61.21,0 112.54,-52.7 125.29,-122.9 19.73,45.5 -50.14,164.8 -50.14,164.8 0,0 -4.81,-28.9 -29.87,-21.2 -25.04,7.7 -17.34,58.4 -17.34,58.4 l -23.57,-36.3 -16.9,43.4 -11.56,-44.3 -25.05,37.2 c 0,0 12.52,-26.6 0,-46.9 -12.52,-20.2 -55.88,-31.7 -64.55,-64.5 -5.47,-20.7 -0.98,-36.3 3.09,-45.1 22.34,46.3 63.55,77.4 110.6,77.4"
           style="fill:#d7e0fe;fill-opacity:1;fill-rule:nonzero;stroke:none"
           id="path1216" />
      </g>
      <g
         id="g1218"
         transform="scale(1.08879)">
        <path
           d="m 3875.97,16181.1 h -371.91 v 42.8 c 0,42 34.06,76.1 76.08,76.1 h 219.77 c 42,0 76.06,-34.1 76.06,-76.1 v -42.8"
           style="fill:#d7e0fe;fill-opacity:1;fill-rule:nonzero;stroke:none"
           id="path1220" />
      </g>
      <g
         id="g1222"
         transform="scale(1.06203)">
        <path
           d="m 2892.88,16291.9 c 0,0 0.99,-92.2 16.99,-98.7 15.99,-6.4 12.94,106.8 12.94,106.8 l -29.93,-8.1"
           style="fill:#fd5e5a;fill-opacity:1;fill-rule:nonzero;stroke:none"
           id="path1224" />
      </g>
      <g
         id="g1226"
         transform="scale(1.0721)">
        <path
           d="m 3364.41,15538.4 c -82.93,161.9 -333.14,410.5 -333.14,410.5 0,0 -11.93,91.4 -22.34,120.9 -10.41,29.6 -47.1,99.3 -57.5,128.8 -10.41,29.5 -70.99,101.4 -82.52,97.3 -11.53,-4 44.4,-71.8 47.98,-98.1 3.46,-25.4 24.01,-74.3 25.48,-77.8 -1.42,3.4 -20.86,48.5 -32.58,54.1 -9.35,4.5 -28.22,-0.6 -30.13,-12 -11.59,-0.1 -21.17,-13.6 -21.17,-26.4 0,0 -25.64,-1.6 -25.64,-16.9 0,-15.2 24.92,-86.5 34.49,-86.5 9.59,0 -3.23,60.9 -3.23,60.9 l 51.06,-87.1 c 3.3,-6.3 7,-12.9 11.14,-19.6 23.9,-38.6 60.27,-80.9 60.27,-80.9 0,0 151.28,-304 198.86,-374.7 47.58,-70.8 69.91,-89.4 97.31,-167.2 9.75,-27.7 50.41,-83.4 102.39,-143.6 41.96,56.9 71.65,125.2 99.46,184.2 -51.37,41.8 -95.8,86.5 -120.19,134.1"
           style="fill:#fc7575;fill-opacity:1;fill-rule:nonzero;stroke:none"
           id="path1228" />
      </g>
      <g
         id="g1230"
         transform="scale(1.01794)">
        <path
           d="m 3939.14,16037.6 c -24.16,68.6 -196.52,156.6 -326.51,262.4 -9.55,-117.5 -80.45,-194 -149.66,-218.5 99.23,-114.9 282.69,-220.5 338.65,-218.5 98.98,3.5 171.72,77.5 137.52,174.6"
           style="fill:#ffcb57;fill-opacity:1;fill-rule:nonzero;stroke:none"
           id="path1232" />
      </g>
      <g
         id="g1234"
         transform="scale(1.08899)">
        <path
           d="m 4572.19,16241.7 c -2.91,0 -5.85,0.7 -8.48,2.5 -12.83,8.2 -26.1,16.5 -39.43,24.5 -7.41,4.5 -9.8,14.1 -5.34,21.5 4.46,7.4 14.08,9.8 21.49,5.3 13.6,-8.1 27.15,-16.6 40.25,-25 7.26,-4.7 9.37,-14.4 4.67,-21.7 -2.99,-4.6 -8.03,-7.1 -13.16,-7.1"
           style="fill:#99d7ff;fill-opacity:1;fill-rule:nonzero;stroke:none"
           id="path1236" />
      </g>
      <g
         id="g1238"
         transform="scale(1.10875)">
        <path
           d="m 3258.95,16268.3 h -0.35 c -29.44,0.6 -58.24,0.9 -85.62,0.9 h -4.88 c -8.5,0 -15.39,6.9 -15.39,15.4 0,8.5 6.89,15.4 15.39,15.4 h 4.88 c 27.6,0 56.64,-0.3 86.3,-1 8.49,-0.2 15.21,-7.2 15.04,-15.7 -0.2,-8.4 -7.04,-15 -15.37,-15 z m -312.82,-7.5 c -7.92,0 -14.66,6.1 -15.3,14.2 -0.68,8.4 5.64,15.8 14.11,16.5 29.43,2.4 60.13,4.3 91.25,5.6 8.33,0.5 15.67,-6.2 16.05,-14.7 0.37,-8.4 -6.22,-15.6 -14.71,-16 -30.75,-1.3 -61.08,-3.2 -90.14,-5.5 z m 534.67,-3.5 h -1.25 c -29.6,2.4 -59.98,4.5 -90.31,6.1 -8.48,0.5 -14.97,7.7 -14.51,16.2 0.45,8.5 7.5,14.8 16.19,14.5 30.58,-1.6 61.23,-3.7 91.09,-6.1 8.47,-0.7 14.78,-8.1 14.09,-16.6 -0.64,-8 -7.37,-14.1 -15.3,-14.1 z m 220.6,-25.5 -2.35,0.2 c -29.43,4.5 -59.57,8.6 -89.56,12.3 -8.43,1 -14.43,8.6 -13.41,17.1 1.03,8.4 8.76,14.3 17.13,13.4 30.31,-3.7 60.76,-7.9 90.5,-12.4 8.39,-1.3 14.16,-9.2 12.87,-17.6 -1.17,-7.6 -7.72,-13 -15.18,-13 z m -975.31,-0.5 c -7.22,0 -13.64,5.1 -15.08,12.5 -1.63,8.3 3.81,16.4 12.16,18 29.24,5.7 59.65,10.9 90.37,15.2 8.32,1.2 16.18,-4.6 17.39,-13 1.19,-8.4 -4.64,-16.2 -13.05,-17.4 -30.2,-4.3 -60.09,-9.4 -88.83,-15 -0.99,-0.2 -1.99,-0.3 -2.96,-0.3 z m 1193.15,-42.3 c -1.2,0 -2.41,0.1 -3.64,0.4 -28.71,7 -58.35,13.6 -88.12,19.7 -8.32,1.7 -13.69,9.8 -11.99,18.1 1.69,8.3 9.81,13.7 18.15,12 30.13,-6.1 60.15,-12.8 89.21,-19.9 8.27,-2 13.34,-10.3 11.33,-18.6 -1.71,-7 -8.01,-11.7 -14.94,-11.7 z m -1407.23,-15.8 c -6.32,0 -12.23,3.9 -14.49,10.2 -2.86,8 1.3,16.8 9.28,19.6 28.24,10.2 57.66,19.6 87.47,28.1 8.17,2.3 16.68,-2.4 19.01,-10.6 2.32,-8.1 -2.41,-16.7 -10.58,-19 -29.14,-8.3 -57.92,-17.5 -85.5,-27.4 -1.72,-0.6 -3.48,-0.9 -5.19,-0.9 z m 1620.06,-47.3 c -1.71,0 -3.45,0.3 -5.14,0.9 -27.97,9.9 -56.79,19.4 -85.63,28.2 -8.12,2.5 -12.7,11.1 -10.21,19.3 2.48,8.1 11.08,12.7 19.21,10.2 29.26,-9 58.5,-18.6 86.9,-28.7 8.01,-2.8 12.2,-11.6 9.36,-19.6 -2.24,-6.3 -8.17,-10.3 -14.49,-10.3 z m -1821.03,-46.3 c -5.27,0 -10.39,2.7 -13.26,7.6 -4.31,7.3 -1.87,16.7 5.45,21 26.09,15.4 53.39,30 81.13,43.5 7.67,3.7 16.84,0.5 20.56,-7.1 3.7,-7.7 0.52,-16.9 -7.12,-20.6 -27.01,-13.1 -53.57,-27.3 -78.97,-42.3 -2.46,-1.4 -5.13,-2.1 -7.79,-2.1 z m 2025.47,-40 c -2.3,0 -4.64,0.5 -6.84,1.6 -26.48,13.1 -53.94,25.9 -81.63,38 -7.78,3.4 -11.37,12.4 -7.97,20.2 3.39,7.8 12.45,11.4 20.23,8 28.18,-12.3 56.13,-25.3 83.06,-38.7 7.61,-3.8 10.71,-13 6.92,-20.6 -2.68,-5.4 -8.13,-8.5 -13.77,-8.5 z m -2204.05,-91.2 c -4.19,0 -8.36,1.7 -11.4,5 -5.7,6.3 -5.22,16 1.06,21.7 22.7,20.6 46.51,40.4 70.76,59 6.76,5.1 16.39,3.8 21.56,-2.9 5.16,-6.7 3.86,-16.4 -2.89,-21.6 -23.56,-18 -46.7,-37.2 -68.76,-57.3 -2.95,-2.6 -6.64,-3.9 -10.33,-3.9 z M 1981.2,15786 c -3.36,0 -6.75,1.1 -9.57,3.4 -6.65,5.3 -7.75,14.9 -2.46,21.6 18.99,23.9 38.99,47.4 59.42,70 5.7,6.3 15.44,6.8 21.73,1.1 6.3,-5.7 6.78,-15.5 1.08,-21.8 -20,-22.1 -39.57,-45.1 -58.16,-68.5 -3.03,-3.8 -7.52,-5.8 -12.04,-5.8 z m -124.47,-183.6 c -2.58,0 -5.2,0.6 -7.61,2 -7.37,4.2 -9.95,13.6 -5.73,21 15.08,26.4 31.22,52.7 47.99,78.2 4.67,7.1 14.22,9.1 21.3,4.4 7.09,-4.6 9.07,-14.2 4.41,-21.3 -16.42,-24.9 -32.23,-50.7 -46.98,-76.6 -2.84,-5 -8.04,-7.7 -13.38,-7.7 z m -94.72,-200.7 c -1.82,0 -3.66,0.4 -5.46,1 -7.94,3.1 -11.93,11.9 -8.9,19.9 10.79,28.4 22.7,56.9 35.35,84.7 3.53,7.7 12.63,11.2 20.38,7.6 7.73,-3.5 11.14,-12.6 7.62,-20.3 -12.39,-27.2 -24.03,-55.1 -34.6,-83 -2.34,-6.1 -8.18,-9.9 -14.39,-9.9 z m -62.16,-212.9 c -1.05,0 -2.1,0.1 -3.14,0.3 -8.33,1.7 -13.68,9.9 -11.95,18.2 6.15,29.7 13.4,59.7 21.58,89.2 2.26,8.2 10.73,13 18.91,10.8 8.19,-2.3 13,-10.8 10.73,-18.9 -8,-28.9 -15.09,-58.3 -21.1,-87.3 -1.51,-7.3 -7.9,-12.3 -15.03,-12.3 z m -27.12,-220.1 h -0.62 c -8.49,0.3 -15.1,7.5 -14.76,15.9 1.19,30.4 3.47,61.2 6.76,91.7 0.91,8.4 8.51,14.5 16.95,13.6 8.45,-0.9 14.55,-8.5 13.64,-16.9 -3.23,-29.8 -5.45,-59.9 -6.61,-89.6 -0.34,-8.2 -7.15,-14.7 -15.36,-14.7 z m 9.93,-221.6 c -7.6,0 -14.21,5.6 -15.22,13.3 -0.91,7 -1.77,14 -2.57,21 -2.69,23.3 -4.77,47.1 -6.18,70.5 -0.51,8.5 5.95,15.8 14.42,16.3 8.39,0.5 15.77,-5.9 16.28,-14.4 1.38,-22.9 3.41,-46.1 6.03,-68.9 0.78,-6.9 1.63,-13.7 2.51,-20.5 1.11,-8.4 -4.81,-16.1 -13.24,-17.2 z m 48.59,-216.4 c -6.5,0 -12.54,4.1 -14.64,10.7 -9.36,29 -17.75,58.8 -24.92,88.5 -1.99,8.3 3.09,16.6 11.33,18.6 8.28,2 16.58,-3.1 18.57,-11.4 7,-28.9 15.17,-58 24.3,-86.3 2.6,-8.1 -1.84,-16.8 -9.92,-19.4 -1.57,-0.5 -3.16,-0.7 -4.72,-0.7 z m 86.81,-204.1 c -5.49,0 -10.8,2.9 -13.57,8.1 -14.45,27 -28.06,54.8 -40.43,82.6 -3.45,7.7 0.03,16.8 7.79,20.3 7.75,3.5 16.86,0 20.3,-7.8 12.09,-27.1 25.36,-54.2 39.46,-80.6 4.01,-7.5 1.19,-16.8 -6.3,-20.8 -2.32,-1.2 -4.8,-1.8 -7.25,-1.8 z m 120.84,-186 c -4.6,0 -9.16,2.1 -12.19,6 -18.78,24.3 -36.87,49.4 -53.74,74.5 -4.74,7 -2.86,16.5 4.18,21.3 7.05,4.7 16.61,2.9 21.35,-4.2 16.49,-24.5 34.17,-49 52.55,-72.8 5.19,-6.7 3.96,-16.4 -2.76,-21.6 -2.8,-2.1 -6.12,-3.2 -9.39,-3.2 z m 148.46,-164.7 c -3.83,0 -7.67,1.4 -10.66,4.3 -22.11,21.2 -43.73,43.2 -64.25,65.4 -5.78,6.2 -5.41,15.9 0.82,21.7 6.21,5.7 15.95,5.4 21.72,-0.8 20.14,-21.8 41.33,-43.3 63.02,-64.2 6.13,-5.8 6.32,-15.6 0.45,-21.7 -3.03,-3.2 -7.07,-4.7 -11.1,-4.7 z m 169.63,-143 c -3.18,0 -6.39,1 -9.15,3 -24.7,18.4 -48.99,37.3 -72.18,56.4 -6.57,5.4 -7.51,15.1 -2.12,21.6 5.39,6.6 15.08,7.5 21.65,2.1 22.79,-18.7 46.67,-37.3 70.98,-55.4 6.81,-5 8.25,-14.7 3.19,-21.5 -3.02,-4 -7.66,-6.2 -12.37,-6.2 z m 189.15,-116.7 c -2.48,0 -4.98,0.6 -7.3,1.8 -33.03,17.9 -59.98,32.7 -80.1,44.1 -7.4,4.2 -10,13.5 -5.82,20.9 4.2,7.4 13.59,10 20.96,5.8 19.94,-11.2 46.72,-26 79.58,-43.7 7.46,-4 10.26,-13.4 6.23,-20.8 -2.79,-5.2 -8.08,-8.1 -13.55,-8.1"
           style="fill:#99d7ff;fill-opacity:1;fill-rule:nonzero;stroke:none"
           id="path1240" />
      </g>
      <g
         id="g1242"
         transform="scale(1.09186)">
        <path
           d="m 5165.73,15962.5 -418.99,337.5 -126.96,-98.9 545.95,-238.6"
           style="fill:#0a4cfe;fill-opacity:1;fill-rule:nonzero;stroke:none"
           id="path1244" />
      </g>
      <g
         id="g1246"
         transform="scale(1.08333)">
        <path
           d="m 4738.02,16085.4 35.48,214.6 432.91,-211.8 -468.39,-2.8"
           style="fill:#dbf1ff;fill-opacity:1;fill-rule:nonzero;stroke:none"
           id="path1248" />
      </g>
      <g
         id="g1250"
         transform="scale(1.10372)">
        <path
           d="m 4718.69,16300 391.54,-509 -414.49,333.9 22.95,175.1"
           style="fill:#dbf1ff;fill-opacity:1;fill-rule:nonzero;stroke:none"
           id="path1252" />
      </g>
      <g
         id="g1254"
         transform="scale(1.08524)">
        <path
           d="m 4647.99,16300 117.12,-28.6 -5.14,-31.1 -111.98,59.7"
           style="fill:#0033bf;fill-opacity:1;fill-rule:nonzero;stroke:none"
           id="path1256" />
      </g>
      <g
         id="g1258"
         transform="scale(1.05698)">
        <path
           d="M 2839,15291.1 H 1405.46 c -12.3,0 -22.27,9.9 -22.27,22.2 v 964.4 c 0,12.3 9.97,22.3 22.27,22.3 H 2839 c 12.3,0 22.27,-10 22.27,-22.3 v -964.4 c 0,-12.3 -9.97,-22.2 -22.27,-22.2"
           style="fill:#91aafe;fill-opacity:1;fill-rule:nonzero;stroke:none"
           id="path1260" />
      </g>
      <g
         id="g1262"
         transform="scale(1.05698)">
        <path
           d="M 2839,16203.3 H 1405.46 c -12.3,0 -22.27,10 -22.27,22.3 v 52.1 c 0,12.3 9.97,22.3 22.27,22.3 H 2839 c 12.3,0 22.27,-10 22.27,-22.3 v -52.1 c 0,-12.3 -9.97,-22.3 -22.27,-22.3"
           style="fill:#004d54;fill-opacity:1;fill-rule:nonzero;stroke:none"
           id="path1264" />
      </g>
      <g
         id="g1266"
         transform="scale(1.0444)">
        <path
           d="M 1908.09,15722.3 H 1537.5 v 577.7 h 370.59 v -577.7"
           style="fill:#698bfd;fill-opacity:1;fill-rule:nonzero;stroke:none"
           id="path1268" />
      </g>
      <g
         id="g1270"
         transform="scale(1.0444)">
        <path
           d="m 2799.63,16267.5 h -787.81 v 32.5 h 787.81 v -32.5"
           style="fill:#698bfd;fill-opacity:1;fill-rule:nonzero;stroke:none"
           id="path1272" />
      </g>
      <g
         id="g1274"
         transform="scale(1.04)">
        <path
           d="m 2811.49,16262.3 h -791.15 v 37.7 h 791.15 v -37.7"
           style="fill:#698bfd;fill-opacity:1;fill-rule:nonzero;stroke:none"
           id="path1276" />
      </g>
      <g
         id="g1278"
         transform="scale(1.05522)">
        <path
           d="m 2425.17,16247 h -984.3 v 53 h 984.3 v -53"
           style="fill:#ffffff;fill-opacity:1;fill-rule:nonzero;stroke:none"
           id="path1280" />
      </g>
      <g
         id="g1282"
         transform="scale(1.05285)">
        <path
           d="m 2714.32,16291.8 c 0,-4.5 -3.65,-8.1 -8.16,-8.1 -4.51,0 -8.17,3.6 -8.17,8.1 0,4.5 3.66,8.2 8.17,8.2 4.51,0 8.16,-3.7 8.16,-8.2"
           style="fill:#ffffff;fill-opacity:1;fill-rule:nonzero;stroke:none"
           id="path1284" />
      </g>
      <g
         id="g1286"
         transform="scale(1.05285)">
        <path
           d="m 2734.12,16291.8 c 0,-4.5 -3.65,-8.1 -8.17,-8.1 -4.51,0 -8.17,3.6 -8.17,8.1 0,4.5 3.66,8.2 8.17,8.2 4.52,0 8.17,-3.7 8.17,-8.2"
           style="fill:#ffffff;fill-opacity:1;fill-rule:nonzero;stroke:none"
           id="path1288" />
      </g>
      <g
         id="g1290"
         transform="scale(1.05285)">
        <path
           d="m 2753.91,16291.8 c 0,-4.5 -3.65,-8.1 -8.17,-8.1 -4.51,0 -8.17,3.6 -8.17,8.1 0,4.5 3.66,8.2 8.17,8.2 4.52,0 8.17,-3.7 8.17,-8.2"
           style="fill:#ffffff;fill-opacity:1;fill-rule:nonzero;stroke:none"
           id="path1292" />
      </g>
      <g
         id="g1294"
         transform="scale(1.05491)">
        <path
           d="m 2386.92,16286 c 0,5.9 4.53,10.6 10.08,10.6 5.57,0 10.1,-4.7 10.1,-10.6 0,-5.9 -4.53,-10.6 -10.1,-10.6 -5.55,0 -10.08,4.7 -10.08,10.6 z m 25.98,-24.6 -7.83,13.5 c 3.16,2.5 5.22,6.6 5.22,11.1 0,7.7 -5.94,14 -13.29,14 -7.32,0 -13.28,-6.3 -13.28,-14 0,-7.7 5.96,-14 13.28,-14 1.83,0 3.57,0.4 5.15,1.1 l 5.54,-14.5 0.21,-0.5 c 0.85,-1.4 2.65,-1.9 4.03,-1 1.38,0.9 1.81,2.8 0.97,4.3"
           style="fill:#121841;fill-opacity:1;fill-rule:nonzero;stroke:none"
           id="path1296" />
      </g>
      <g
         id="g1298"
         transform="scale(1.05522)">
        <path
           d="m 2548.78,16249.8 h -83.18 v 50.2 h 83.18 v -50.2"
           style="fill:#f57408;fill-opacity:1;fill-rule:nonzero;stroke:none"
           id="path1300" />
      </g>
      <g
         id="g1302"
         transform="scale(1.0341)">
        <path
           d="m 2795.52,15674 h -699.03 v 626 h 699.03 v -626"
           style="fill:#e4edff;fill-opacity:1;fill-rule:nonzero;stroke:none"
           id="path1304" />
      </g>
      <g
         id="g1306"
         transform="scale(1.02778)">
        <path
           d="m 2461.04,16033.8 h -278.53 v 266.2 h 278.53 v -266.2"
           style="fill:#ffffff;fill-opacity:1;fill-rule:nonzero;stroke:none"
           id="path1308" />
      </g>
      <g
         id="g1310"
         transform="scale(1.00834)">
        <path
           d="m 2854.8,16074.5 h -283.9 v 225.5 h 283.9 v -225.5"
           style="fill:#ffffff;fill-opacity:1;fill-rule:nonzero;stroke:none"
           id="path1312" />
      </g>
      <g
         id="g1314"
         transform="scale(1.03212)">
        <path
           d="m 2627.69,16271.5 h -338.95 v 28.5 h 338.95 v -28.5"
           style="fill:#f57408;fill-opacity:1;fill-rule:nonzero;stroke:none"
           id="path1316" />
      </g>
      <g
         id="g1318"
         transform="scale(1.02778)">
        <path
           d="m 2800.79,16285.7 h -290.85 v 14.3 h 290.85 v -14.3"
           style="fill:#698bfd;fill-opacity:1;fill-rule:nonzero;stroke:none"
           id="path1320" />
      </g>
      <g
         id="g1322"
         transform="scale(1.02622)">
        <path
           d="m 2805.06,16285.7 h -291.29 v 14.3 h 291.29 v -14.3"
           style="fill:#698bfd;fill-opacity:1;fill-rule:nonzero;stroke:none"
           id="path1324" />
      </g>
      <g
         id="g1326"
         transform="scale(1.02466)">
        <path
           d="m 2809.34,16285.6 h -291.73 v 14.4 h 291.73 v -14.4"
           style="fill:#698bfd;fill-opacity:1;fill-rule:nonzero;stroke:none"
           id="path1328" />
      </g>
      <g
         id="g1330"
         transform="scale(1.02309)">
        <path
           d="m 2813.64,16285.6 h -292.18 v 14.4 h 292.18 v -14.4"
           style="fill:#698bfd;fill-opacity:1;fill-rule:nonzero;stroke:none"
           id="path1332" />
      </g>
      <g
         id="g1334"
         transform="scale(1.02153)">
        <path
           d="m 2817.95,16285.6 h -292.63 v 14.4 h 292.63 v -14.4"
           style="fill:#698bfd;fill-opacity:1;fill-rule:nonzero;stroke:none"
           id="path1336" />
      </g>
      <g
         id="g1338"
         transform="scale(1.01996)">
        <path
           d="m 2822.27,16285.6 h -293.08 v 14.4 h 293.08 v -14.4"
           style="fill:#698bfd;fill-opacity:1;fill-rule:nonzero;stroke:none"
           id="path1340" />
      </g>
      <g
         id="g1342"
         transform="scale(1.0184)">
        <path
           d="m 2826.61,16285.6 h -293.53 v 14.4 h 293.53 v -14.4"
           style="fill:#698bfd;fill-opacity:1;fill-rule:nonzero;stroke:none"
           id="path1344" />
      </g>
      <g
         id="g1346"
         transform="scale(1.01683)">
        <path
           d="m 2830.96,16285.5 h -293.99 v 14.5 h 293.99 v -14.5"
           style="fill:#698bfd;fill-opacity:1;fill-rule:nonzero;stroke:none"
           id="path1348" />
      </g>
      <g
         id="g1350"
         transform="scale(1.01527)">
        <path
           d="m 2835.32,16285.5 h -294.44 v 14.5 h 294.44 v -14.5"
           style="fill:#698bfd;fill-opacity:1;fill-rule:nonzero;stroke:none"
           id="path1352" />
      </g>
      <g
         id="g1354"
         transform="scale(1.0137)">
        <path
           d="M 2839.69,16285.5 H 2544.8 v 14.5 h 294.89 v -14.5"
           style="fill:#698bfd;fill-opacity:1;fill-rule:nonzero;stroke:none"
           id="path1356" />
      </g>
      <g
         id="g1358"
         transform="scale(1.01214)">
        <path
           d="m 2844.08,16285.5 h -295.34 v 14.5 h 295.34 v -14.5"
           style="fill:#698bfd;fill-opacity:1;fill-rule:nonzero;stroke:none"
           id="path1360" />
      </g>
      <g
         id="g1362"
         transform="scale(1.11589)">
        <path
           d="m 2671.92,15750.7 h -780.47 c -6.7,0 -12.12,5.4 -12.12,12.1 v 525.1 c 0,6.7 5.42,12.1 12.12,12.1 h 780.47 c 6.69,0 12.12,-5.4 12.12,-12.1 v -525.1 c 0,-6.7 -5.43,-12.1 -12.12,-12.1"
           style="fill:#b0c2fe;fill-opacity:1;fill-rule:nonzero;stroke:none"
           id="path1364" />
      </g>
      <g
         id="g1366"
         transform="scale(1.10864)">
        <path
           d="m 2527.57,15956.1 h -473.98 c -19.98,0 -36.2,16.2 -36.2,36.2 v 271.5 c 0,20 16.22,36.2 36.2,36.2 h 473.98 c 20,0 36.2,-16.2 36.2,-36.2 v -271.5 c 0,-20 -16.2,-36.2 -36.2,-36.2"
           style="fill:#95a9fe;fill-opacity:1;fill-rule:nonzero;stroke:none"
           id="path1368" />
      </g>
      <g
         id="g1370"
         transform="scale(1.10655)">
        <path
           d="m 2511.81,16300 h -426.28 l 209.58,-197.9 216.7,197.9"
           style="fill:#ffffff;fill-opacity:1;fill-rule:nonzero;stroke:none"
           id="path1372" />
      </g>
      <g
         id="g1374"
         transform="scale(1.10528)">
        <path
           d="M 2297.34,16068.3 2052,16300 v -264.7 h 491.08 v 257.4 l -245.74,-224.4"
           style="fill:#ffffff;fill-opacity:1;fill-rule:nonzero;stroke:none"
           id="path1376" />
      </g>
      <g
         id="g1378"
         transform="scale(1.08085)">
        <path
           d="m 4352.75,16288.4 c 0,0 9.68,11.6 28.78,11.6 17.04,0 28.79,-11.9 28.79,-25.7 0,-16 -16.01,-34.9 -57.57,-51.4 -41.56,16.5 -57.57,35.4 -57.57,51.4 0,13.8 11.75,25.7 28.79,25.7 19.11,0 28.78,-11.6 28.78,-11.6"
           style="fill:#ecf2ff;fill-opacity:1;fill-rule:nonzero;stroke:none"
           id="path1380" />
      </g>
    </g>
  </g>
</svg>
