<?xml version="1.0" encoding="UTF-8" standalone="no"?>
<svg
   xmlns:dc="http://purl.org/dc/elements/1.1/"
   xmlns:cc="http://creativecommons.org/ns#"
   xmlns:rdf="http://www.w3.org/1999/02/22-rdf-syntax-ns#"
   xmlns:svg="http://www.w3.org/2000/svg"
   xmlns="http://www.w3.org/2000/svg"
   id="svg4153"
   version="1.1"
   viewBox="0 0 297 210"
   height="210mm"
   width="297mm">
  <defs
     id="defs4147">
    <clipPath
       id="clipPath4021"
       clipPathUnits="userSpaceOnUse">
      <path
         id="path4019"
         d="m 3842.23,2925.42 -28.62,14.41 c 6.37,4.01 12.04,8.93 16.81,14.56 l 11.81,-28.97" />
    </clipPath>
    <clipPath
       id="clipPath132"
       clipPathUnits="userSpaceOnUse">
      <path
         id="path130"
         d="m 9084.86,16496 c 0,0 -147.62,-879.9 -159.11,-1076.5 -11.48,-196.5 95.65,-741.8 95.65,-741.8 l -189.29,-7.1 c 0,0 -163.62,554.3 -125.75,714.6 37.88,160.4 -17.34,862.2 -17.34,862.2 l 65.31,264 z" />
    </clipPath>
    <linearGradient
       id="linearGradient140"
       spreadMethod="pad"
       gradientTransform="matrix(-212.261,-2330.17,2330.17,-212.261,8951.86,16523.6)"
       gradientUnits="userSpaceOnUse"
       y2="0"
       x2="1"
       y1="0"
       x1="0">
      <stop
         id="stop136"
         offset="0"
         style="stop-opacity:1;stop-color:#116363" />
      <stop
         id="stop138"
         offset="1"
         style="stop-opacity:1;stop-color:#2c9d9e" />
    </linearGradient>
  </defs>
  <metadata
     id="metadata4150">
    <rdf:RDF>
      <cc:Work
         rdf:about="">
        <dc:format>image/svg+xml</dc:format>
        <dc:type
           rdf:resource="http://purl.org/dc/dcmitype/StillImage" />
        <dc:title></dc:title>
      </cc:Work>
    </rdf:RDF>
  </metadata>
  <g
     style="opacity:0.99"
     transform="translate(0,-87)"
     id="layer1">
    <g
       id="g7864"
       transform="matrix(0.04150299,0,0,-0.03991594,-525.73635,845.50248)">
      <g
         id="g272"
         transform="scale(1.11652)">
        <path
           d="m 16300,12808.5 c 0,-39.5 -661.5,-71.5 -1477.4,-71.5 -816.1,0 -1477.5,32 -1477.5,71.5 0,39.6 661.4,71.6 1477.5,71.6 815.9,0 1477.4,-32 1477.4,-71.6"
           style="fill:#235893;fill-opacity:1;fill-rule:nonzero;stroke:none"
           id="path274" />
      </g>
      <g
         id="g276"
         transform="scale(1.11702)">
        <path
           d="m 14634.7,14243.4 c -164.3,18.1 -328.5,45.3 -492.7,63.4 -143.4,16.6 -259.6,133.4 -259.6,275 0,486.2 0,972.4 0,1458.5 0,141.9 116.2,259.7 259.6,249 164.2,-11.6 328.4,-32.4 492.7,-43.9 143.3,-10.7 259.5,-125.3 259.5,-270 0,-496 0,-992 0,-1488.1 0,-145 -116.2,-260.5 -259.5,-243.9"
           style="fill:#a98fff;fill-opacity:1;fill-rule:nonzero;stroke:none"
           id="path278" />
      </g>
      <g
         id="g280"
         transform="scale(1.11222)">
        <path
           d="m 14202.9,14476.3 c -95.4,10.6 -173,91.5 -173,186 0,489.1 0,978.3 0,1467.4 0,94.5 77.6,170.3 173,163.3 164.9,-11.9 329.9,-33 494.9,-44.8 95.4,-7 173,-86.4 173,-182.6 0,-497.3 0,-994.6 0,-1491.9 0,-96.2 -77.6,-170.5 -173,-159.9 -165,17.7 -330,44.8 -494.9,62.5"
           style="fill:#cdbdff;fill-opacity:1;fill-rule:nonzero;stroke:none"
           id="path282" />
      </g>
      <g
         id="g284"
         transform="scale(1.10111)">
        <path
           d="m 14560.8,15906.8 c -76.1,8.3 -152.3,16.4 -228.4,22.4 -30.6,2.4 -55.5,28.6 -55.5,59.1 0,86 0,172 0,258 0,30.4 24.9,53.7 55.5,51.5 76.1,-5.5 152.3,-13 228.4,-20.8 30.6,-3.1 55.4,-30.5 55.4,-61.1 0,-86.6 0,-173.2 0,-259.8 0,-30.6 -24.8,-52.7 -55.4,-49.3"
           style="fill:#efebff;fill-opacity:1;fill-rule:nonzero;stroke:none"
           id="path286" />
      </g>
      <g
         id="g288"
         transform="scale(1.09827)">
        <path
           d="m 15032.6,16244.7 c -103.5,3.4 -207,12.5 -310.6,22.9 0,10.8 0,21.6 0,32.4 103.6,-10.3 207.1,-19.3 310.6,-22.7 0,-10.8 0,-21.7 0,-32.6"
           style="fill:#efebff;fill-opacity:1;fill-rule:nonzero;stroke:none"
           id="path290" />
      </g>
      <g
         id="g292"
         transform="scale(1.09362)">
        <path
           d="m 15096.5,16229.3 c -104,3.6 -207.9,12.9 -311.9,23.5 0,15.8 0,31.5 0,47.2 104,-10.5 207.9,-19.7 311.9,-23.2 0,-15.8 0,-31.6 0,-47.5"
           style="fill:#efebff;fill-opacity:1;fill-rule:nonzero;stroke:none"
           id="path294" />
      </g>
      <g
         id="g296"
         transform="scale(1.07872)">
        <path
           d="m 15281,16225.5 c -105.4,4.9 -210.8,15.3 -316.2,26.7 0,15.9 0,31.9 0,47.8 105.4,-11.3 210.8,-21.6 316.2,-26.4 0,-16.1 0,-32.1 0,-48.1"
           style="fill:#efebff;fill-opacity:1;fill-rule:nonzero;stroke:none"
           id="path298" />
      </g>
      <g
         id="g300"
         transform="scale(1.0719)">
        <path
           d="m 14971.4,16222.1 c -106.2,11.9 -212.3,23.5 -318.3,30.2 0,15.9 0,31.8 0,47.7 106,-6.6 212.1,-18.1 318.3,-29.9 0,-16 0,-32 0,-48"
           style="fill:#efebff;fill-opacity:1;fill-rule:nonzero;stroke:none"
           id="path302" />
      </g>
      <g
         id="g304"
         transform="scale(1.05263)">
        <path
           d="m 15659.7,15734.5 c -147.2,9.3 -294.2,29.1 -441.4,47.5 0,172.6 0,345.3 0,518 147.2,-17 294.2,-35.3 441.4,-43.2 0,-174.1 0,-348.2 0,-522.3"
           style="fill:#efebff;fill-opacity:1;fill-rule:nonzero;stroke:none"
           id="path306" />
      </g>
      <g
         id="g308"
         transform="scale(1.02307)">
        <path
           d="m 15507.5,16276.9 c 0,0 10.9,17.6 33.2,15.5 20,-1.9 34.2,-22.3 34.6,-44.5 0.6,-25.7 -17.5,-54.1 -65.6,-76 -49.2,30.7 -68.7,62.3 -69.1,88 -0.5,22.1 12.9,40.1 32.8,38.4 22.4,-1.8 34.1,-21.4 34.1,-21.4"
           style="fill:#efebff;fill-opacity:1;fill-rule:nonzero;stroke:none"
           id="path310" />
      </g>
      <g
         id="g312"
         transform="scale(1.09611)">
        <path
           d="m 15739.6,14882.9 c -113.2,12.4 -226.4,31.2 -339.5,43.6 -98.8,11.5 -178.8,92 -178.8,189.5 0,335 0,670.1 0,1005.1 0,97.8 80,178.9 178.8,171.5 113.1,-8 226.3,-22.3 339.5,-30.3 98.7,-7.3 178.8,-86.3 178.8,-186 0,-341.8 0,-683.6 0,-1025.3 0,-100 -80.1,-179.6 -178.8,-168.1"
           style="fill:#a98fff;fill-opacity:1;fill-rule:nonzero;stroke:none"
           id="path314" />
      </g>
      <g
         id="g316"
         transform="scale(1.09287)">
        <path
           d="m 15445.7,15045 c -65.7,7.3 -119,63 -119,128 0,336.6 0,673.2 0,1009.8 0,65.1 53.3,117.2 119,112.4 113.5,-8.2 227,-22.7 340.6,-30.8 65.6,-4.9 119,-59.5 119,-125.7 0,-342.2 0,-684.4 0,-1026.6 0,-66.3 -53.4,-117.4 -119,-110.1 -113.6,12.2 -227.1,30.8 -340.6,43"
           style="fill:#cdbdff;fill-opacity:1;fill-rule:nonzero;stroke:none"
           id="path318" />
      </g>
      <g
         id="g320"
         transform="scale(1.08536)">
        <path
           d="m 15699.8,16030.2 c -52.2,5.8 -104.5,11.3 -156.7,15.4 -21,1.7 -38.1,19.7 -38.1,40.5 0,59 0,118.1 0,177.1 0,20.8 17.1,36.8 38.1,35.3 52.2,-3.8 104.5,-8.9 156.7,-14.3 21,-2.1 38.1,-20.9 38.1,-41.9 0,-59.4 0,-118.8 0,-178.2 0,-21 -17.1,-36.2 -38.1,-33.9"
           style="fill:#efebff;fill-opacity:1;fill-rule:nonzero;stroke:none"
           id="path322" />
      </g>
      <g
         id="g324"
         transform="scale(1.08344)">
        <path
           d="m 16025.3,16262.1 c -71,2.3 -142,8.6 -212.9,15.7 0,7.4 0,14.8 0,22.2 70.9,-7.1 141.9,-13.3 212.9,-15.6 0,-7.4 0,-14.8 0,-22.3"
           style="fill:#efebff;fill-opacity:1;fill-rule:nonzero;stroke:none"
           id="path326" />
      </g>
      <g
         id="g328"
         transform="scale(1.0803)">
        <path
           d="m 16071.9,16251.6 c -71.2,2.5 -142.4,8.9 -213.5,16.1 0,10.8 0,21.5 0,32.3 71.1,-7.2 142.3,-13.5 213.5,-15.9 0,-10.8 0,-21.6 0,-32.5"
           style="fill:#efebff;fill-opacity:1;fill-rule:nonzero;stroke:none"
           id="path330" />
      </g>
      <g
         id="g332"
         transform="scale(1.07022)">
        <path
           d="m 16206.8,16249.2 c -71.8,3.4 -143.7,10.5 -215.6,18.2 0,10.9 0,21.7 0,32.6 71.9,-7.7 143.8,-14.7 215.6,-18 0,-10.9 0,-21.9 0,-32.8"
           style="fill:#efebff;fill-opacity:1;fill-rule:nonzero;stroke:none"
           id="path334" />
      </g>
      <g
         id="g336"
         transform="scale(1.06561)">
        <path
           d="m 16000.2,16247 c -72.2,8.1 -144.3,16 -216.5,20.5 0,10.8 0,21.7 0,32.5 72.2,-4.5 144.3,-12.3 216.5,-20.3 0,-10.9 0,-21.8 0,-32.7"
           style="fill:#efebff;fill-opacity:1;fill-rule:nonzero;stroke:none"
           id="path338" />
      </g>
      <g
         id="g340"
         transform="scale(1.0641)">
        <path
           d="m 16300,15745.3 c -98.4,6.2 -196.8,19.4 -295.3,31.7 0,115.5 0,231 0,346.5 98.5,-11.3 196.9,-23.6 295.3,-28.9 0,-116.4 0,-232.9 0,-349.3"
           style="fill:#efebff;fill-opacity:1;fill-rule:nonzero;stroke:none"
           id="path342" />
      </g>
      <g
         id="g344"
         transform="scale(1.04134)">
        <path
           d="m 16254.6,16147.7 c 0,0 7.2,11.7 22.1,10.3 13.2,-1.2 22.6,-14.8 22.9,-29.5 0.4,-17.1 -11.6,-36 -43.6,-50.6 -32.6,20.5 -45.6,41.5 -45.9,58.5 -0.4,14.7 8.6,26.7 21.8,25.6 14.9,-1.3 22.7,-14.3 22.7,-14.3"
           style="fill:#efebff;fill-opacity:1;fill-rule:nonzero;stroke:none"
           id="path346" />
      </g>
      <g
         id="g348"
         transform="scale(1.08441)">
        <path
           d="m 16192.4,15367.8 c -68.2,7.5 -136.3,18.8 -204.5,26.3 -59.4,6.9 -107.6,55.3 -107.6,114.1 0,201.6 0,403.3 0,605 0,58.9 48.2,107.7 107.6,103.3 68.2,-4.8 136.3,-13.5 204.5,-18.3 59.4,-4.4 107.6,-51.9 107.6,-111.9 0,-205.8 0,-411.6 0,-617.3 0,-60.2 -48.2,-108.1 -107.6,-101.2"
           style="fill:#a98fff;fill-opacity:1;fill-rule:nonzero;stroke:none"
           id="path350" />
      </g>
      <g
         id="g352"
         transform="scale(1.082)">
        <path
           d="m 16023.6,15473.1 c -39.5,4.3 -71.7,37.8 -71.7,76.9 0,202.5 0,405 0,607.5 0,39.1 32.2,70.5 71.7,67.6 68.3,-4.9 136.6,-13.7 204.9,-18.6 39.4,-2.9 71.5,-35.7 71.5,-75.5 0,-205.9 0,-411.8 0,-617.6 0,-39.9 -32.1,-70.6 -71.5,-66.2 -68.3,7.3 -136.6,18.5 -204.9,25.9"
           style="fill:#cdbdff;fill-opacity:1;fill-rule:nonzero;stroke:none"
           id="path354" />
      </g>
      <g
         id="g356"
         transform="scale(1.07274)">
        <path
           d="m 16250.5,16137.5 c -31.4,3.4 -62.9,6.7 -94.5,9.2 -12.5,1 -22.8,11.9 -22.8,24.4 0,35.6 0,71.1 0,106.7 0,12.6 10.3,22.2 22.8,21.3 31.6,-2.3 63.1,-5.4 94.5,-8.6 12.7,-1.3 22.9,-12.6 22.9,-25.3 0,-35.8 0,-71.6 0,-107.4 0,-12.6 -10.2,-21.7 -22.9,-20.3"
           style="fill:#efebff;fill-opacity:1;fill-rule:nonzero;stroke:none"
           id="path358" />
      </g>
      <g
         id="g360"
         transform="scale(1.08127)">
        <path
           d="m 16300,16131.6 c -42.4,1.4 -84.7,5.1 -127.1,9.4 0,4.4 0,8.8 0,13.2 42.4,-4.2 84.7,-7.9 127.1,-9.2 0,-4.5 0,-8.9 0,-13.4"
           style="fill:#efebff;fill-opacity:1;fill-rule:nonzero;stroke:none"
           id="path362" />
      </g>
      <g
         id="g364"
         transform="scale(1.08127)">
        <path
           d="m 16300,16097.2 c -42.4,1.5 -84.7,5.3 -127.1,9.6 0,6.4 0,12.8 0,19.2 42.4,-4.3 84.7,-8 127.1,-9.4 0,-6.5 0,-12.9 0,-19.4"
           style="fill:#efebff;fill-opacity:1;fill-rule:nonzero;stroke:none"
           id="path366" />
      </g>
      <g
         id="g368"
         transform="scale(1.08063)">
        <path
           d="m 16300,16015.1 c -42.4,2 -84.8,6.2 -127.2,10.8 0,6.4 0,12.8 0,19.2 42.4,-4.5 84.8,-8.7 127.2,-10.6 0,-6.5 0,-12.9 0,-19.4"
           style="fill:#efebff;fill-opacity:1;fill-rule:nonzero;stroke:none"
           id="path370" />
      </g>
      <g
         id="g372"
         transform="scale(1.06985)">
        <path
           d="m 16300,16133.4 c -42.8,4.8 -85.6,9.5 -128.4,12.2 0,6.4 0,12.8 0,19.2 42.8,-2.6 85.6,-7.3 128.4,-12 0,-6.5 0,-12.9 0,-19.4"
           style="fill:#efebff;fill-opacity:1;fill-rule:nonzero;stroke:none"
           id="path374" />
      </g>
      <g
         id="g376"
         transform="scale(1.08063)">
        <path
           d="m 16300,15664.8 c -57.7,3.7 -115.4,11.4 -173.1,18.6 0,67.8 0,135.5 0,203.2 57.7,-6.6 115.4,-13.8 173.1,-16.9 0,-68.3 0,-136.6 0,-204.9"
           style="fill:#efebff;fill-opacity:1;fill-rule:nonzero;stroke:none"
           id="path378" />
      </g>
      <g
         id="g380"
         transform="scale(1.06707)">
        <path
           d="m 16273.6,15897.6 c 0,0 4.2,6.8 12.8,6 7.7,-0.7 13.2,-8.6 13.3,-17.2 0.3,-9.9 -6.7,-20.9 -25.3,-29.3 -19,11.9 -26.5,24.1 -26.7,34 -0.2,8.5 5,15.5 12.7,14.8 8.7,-0.7 13.2,-8.3 13.2,-8.3"
           style="fill:#efebff;fill-opacity:1;fill-rule:nonzero;stroke:none"
           id="path382" />
      </g>
      <g
         id="g384"
         transform="scale(1.10471)">
        <path
           d="m 16194.4,14639 c -66.9,7.3 -133.8,18.4 -200.7,25.8 -58.3,6.7 -105.7,54.3 -105.7,111.9 0,198 0,396 0,594 0,57.7 47.4,105.7 105.7,101.3 66.9,-4.7 133.8,-13.2 200.7,-17.9 58.3,-4.3 105.6,-51 105.6,-109.9 0,-202 0,-403.9 0,-605.9 0,-59.1 -47.3,-106.1 -105.6,-99.3"
           style="fill:#a98fff;fill-opacity:1;fill-rule:nonzero;stroke:none"
           id="path386" />
      </g>
      <g
         id="g388"
         transform="scale(1.10231)">
        <path
           d="m 16028.6,14740.6 c -38.8,4.3 -70.2,37.2 -70.2,75.6 0,198.7 0,397.5 0,596.2 0,38.4 31.4,69.2 70.2,66.3 67,-4.8 134,-13.3 201.1,-18.1 38.7,-2.9 70.3,-35.1 70.3,-74.2 0,-202.1 0,-404.2 0,-606.2 0,-39.1 -31.6,-69.3 -70.3,-65 -67.1,7.2 -134.1,18.2 -201.1,25.4"
           style="fill:#cdbdff;fill-opacity:1;fill-rule:nonzero;stroke:none"
           id="path390" />
      </g>
      <g
         id="g392"
         transform="scale(1.09129)">
        <path
           d="m 16277.6,15411.2 c -31,3.4 -62,6.7 -92.9,9.1 -12.4,1 -22.5,11.7 -22.5,24 0,35 0,69.9 0,104.9 0,12.3 10.1,21.8 22.5,20.9 30.9,-2.2 61.9,-5.3 92.9,-8.4 12.3,-1.3 22.4,-12.4 22.4,-24.9 0,-35.2 0,-70.4 0,-105.5 0,-12.5 -10.1,-21.5 -22.4,-20.1"
           style="fill:#efebff;fill-opacity:1;fill-rule:nonzero;stroke:none"
           id="path394" />
      </g>
      <g
         id="g396"
         transform="scale(1.10157)">
        <path
           d="m 16300,15386.6 c -41.6,1.4 -83.2,5 -124.7,9.2 0,4.3 0,8.7 0,13 41.5,-4.1 83.1,-7.8 124.7,-9.1 0,-4.4 0,-8.7 0,-13.1"
           style="fill:#efebff;fill-opacity:1;fill-rule:nonzero;stroke:none"
           id="path398" />
      </g>
      <g
         id="g400"
         transform="scale(1.10157)">
        <path
           d="m 16300,15352.9 c -41.6,1.4 -83.2,5.1 -124.7,9.4 0,6.2 0,12.5 0,18.8 41.5,-4.2 83.1,-7.9 124.7,-9.2 0,-6.4 0,-12.7 0,-19"
           style="fill:#efebff;fill-opacity:1;fill-rule:nonzero;stroke:none"
           id="path402" />
      </g>
      <g
         id="g404"
         transform="scale(1.10093)">
        <path
           d="m 16300,15271.8 c -41.5,2 -83.1,6.1 -124.7,10.6 0,6.3 0,12.6 0,18.9 41.6,-4.5 83.2,-8.6 124.7,-10.5 0,-6.3 0,-12.6 0,-19"
           style="fill:#efebff;fill-opacity:1;fill-rule:nonzero;stroke:none"
           id="path406" />
      </g>
      <g
         id="g408"
         transform="scale(1.09015)">
        <path
           d="m 16300,15380.6 c -42,4.7 -84,9.3 -126,11.9 0,6.3 0,12.6 0,18.9 42,-2.6 84,-7.1 126,-11.8 0,-6.4 0,-12.7 0,-19"
           style="fill:#efebff;fill-opacity:1;fill-rule:nonzero;stroke:none"
           id="path410" />
      </g>
      <g
         id="g412"
         transform="scale(1.10093)">
        <path
           d="m 16300,14928 c -56.6,3.6 -113.3,11.2 -169.9,18.3 0,66.4 0,132.9 0,199.4 56.6,-6.5 113.3,-13.6 169.9,-16.6 0,-67 0,-134.1 0,-201.1"
           style="fill:#efebff;fill-opacity:1;fill-rule:nonzero;stroke:none"
           id="path414" />
      </g>
      <g
         id="g416"
         transform="scale(1.08737)">
        <path
           d="m 16274.1,15147.3 c 0,0 4.1,6.6 12.6,5.9 7.6,-0.8 12.9,-8.5 13.1,-16.9 0.2,-9.7 -6.7,-20.5 -24.9,-28.8 -18.7,11.7 -25.9,23.6 -26.2,33.3 -0.2,8.4 4.9,15.2 12.5,14.6 8.4,-0.7 12.9,-8.1 12.9,-8.1"
           style="fill:#efebff;fill-opacity:1;fill-rule:nonzero;stroke:none"
           id="path418" />
      </g>
      <g
         id="g420"
         transform="scale(1.08131)">
        <path
           d="m 16300,14098.4 c -1018.6,1087.3 -2037.2,-912.4 -3055.7,174.9 0,113.2 0,226.4 0,339.6 1018.5,-970.7 2037.1,1145.6 3055.7,174.9 0,-229.8 0,-459.6 0,-689.4"
           style="fill:#fd9090;fill-opacity:1;fill-rule:nonzero;stroke:none"
           id="path422" />
      </g>
      <g
         id="g424"
         transform="scale(1.00696)">
        <path
           d="m 16300,15891.1 c -328.8,-141.8 -657.7,-363.4 -986.5,-484.6 0,15.4 0,30.8 0,46.3 328.8,124.8 657.7,349.9 986.5,495.3 0,-19 0,-38 0,-57"
           style="fill:#9173f1;fill-opacity:1;fill-rule:nonzero;stroke:none"
           id="path426" />
      </g>
      <g
         id="g428"
         transform="scale(1.00696)">
        <path
           d="m 16300,15793.4 c -264.7,-109.2 -529.2,-270.1 -793.9,-388.7 0,12.3 0,24.6 0,36.8 264.7,120.9 529.2,283.9 793.9,395.3 0,-14.5 0,-29 0,-43.4"
           style="fill:#9173f1;fill-opacity:1;fill-rule:nonzero;stroke:none"
           id="path430" />
      </g>
      <g
         id="g432"
         transform="scale(1.03334)">
        <path
           d="m 16300,15135 c -103.4,-3.5 -207,-22.9 -310.4,-52.5 0,177.2 0,354.5 0,531.8 103.4,40.1 207,70 310.4,84 0,-187.8 0,-375.6 0,-563.3"
           style="fill:#ffffff;fill-opacity:1;fill-rule:nonzero;stroke:none"
           id="path434" />
      </g>
      <g
         id="g436"
         transform="scale(1.00696)">
        <path
           d="m 16300,15671.2 c -112.9,-43.9 -225.8,-97.3 -338.7,-152.8 0,14 0,27.9 0,41.9 112.9,56.5 225.8,110.8 338.7,155.7 0,-14.9 0,-29.9 0,-44.8"
           style="fill:#9173f1;fill-opacity:1;fill-rule:nonzero;stroke:none"
           id="path438" />
      </g>
      <g
         id="g440"
         transform="scale(1.03058)">
        <path
           d="m 16300,15250 c -68.1,-6.1 -136.2,-18.7 -204.3,-36.3 0,135.6 0,271.2 0,406.8 68.1,22.7 136.2,40.6 204.3,51.9 0,-140.8 0,-281.6 0,-422.4"
           style="fill:#a98fff;fill-opacity:1;fill-rule:nonzero;stroke:none"
           id="path442" />
      </g>
      <path
         d="m 15325.4,15126.1 c -107,-23.7 -213.9,-35 -320.8,-27.8 0,131.7 0,263.5 0,395.2 106.9,3.8 213.8,25.9 320.8,60.4 0,-142.6 0,-285.2 0,-427.8"
         style="fill:#ffffff;fill-opacity:1;fill-rule:nonzero;stroke:none"
         id="path444" />
      <path
         d="m 15280.3,15174.9 c -70.2,-14.2 -140.4,-22.6 -210.5,-23.7 0,101 0,202 0,303 70.1,6.4 140.3,20.2 210.5,39.7 0,-106.3 0,-212.7 0,-319"
         style="fill:#a98fff;fill-opacity:1;fill-rule:nonzero;stroke:none"
         id="path446" />
      <g
         id="g448"
         transform="scale(1.07901)">
        <path
           d="m 16300,14709.1 c -205.9,187.1 -411.9,251.1 -617.8,242.9 0,19.5 0,38.9 0,58.3 205.9,10.4 411.9,-51.4 617.8,-236.2 0,-21.7 0,-43.4 0,-65"
           style="fill:#a98fff;fill-opacity:1;fill-rule:nonzero;stroke:none"
           id="path450" />
      </g>
      <g
         id="g452"
         transform="scale(1.07808)">
        <path
           d="m 16300,14615.3 c -206.1,185.8 -412.2,249.6 -618.2,242.2 0,19.4 0,38.8 0,58.2 206,9.6 412.1,-52 618.2,-235.6 0,-21.6 0,-43.2 0,-64.8"
           style="fill:#a98fff;fill-opacity:1;fill-rule:nonzero;stroke:none"
           id="path454" />
      </g>
      <path
         d="m 14956.5,15241 c -28.8,39.1 -57.6,78.7 -86.4,119.1 9,-1.5 17.9,-2.7 26.9,-3.8 26.6,-3.4 48.2,12.4 48.2,33.4 0,13.8 0,27.6 0,41.5 0,21.1 -21.6,38.7 -48.2,41.2 -154.6,14.4 -309.1,71.7 -463.7,190.3 -26.6,20.3 -48.2,24.5 -48.2,6.5 0,-11.8 0,-23.6 0,-35.4 0,-17.8 21.6,-51.7 48.2,-73 73.7,-58.7 147.4,-103.6 221,-136.5 100.7,-78.8 201.5,-138.2 302.2,-183.3"
         style="fill:#cdbdff;fill-opacity:1;fill-rule:nonzero;stroke:none"
         id="path456" />
      <g
         id="g458"
         transform="scale(1.01021)">
        <path
           d="m 16226.2,15525.7 c 0,0 12.4,22.5 37,31.6 21.9,8.1 36.8,-5.1 36.8,-26.6 0,-24.9 -20.5,-60.8 -73.8,-105.2 -53.2,5.6 -73.8,25.2 -73.8,49.4 0,20.8 15.2,45.1 36.9,53.9 24.6,9.9 36.9,-3.1 36.9,-3.1"
           style="fill:#a98fff;fill-opacity:1;fill-rule:nonzero;stroke:none"
           id="path460" />
      </g>
      <g
         id="g462"
         transform="scale(1.17484)">
        <path
           d="m 15469.5,15143.2 c -709.7,757.7 -1419.4,-635.7 -2129.2,121.9 0,78.9 0,157.8 0,236.6 709.8,-676.3 1419.5,798.3 2129.2,121.9 0,-160.1 0,-320.2 0,-480.4"
           style="fill:#fd9090;fill-opacity:1;fill-rule:nonzero;stroke:none"
           id="path464" />
      </g>
      <g
         id="g466"
         transform="scale(1.12928)">
        <path
           d="m 15281.1,16261.5 c -222,-95.7 -444,-245.3 -666,-327.1 0,10.4 0,20.8 0,31.3 222,84.2 444,236.2 666,334.3 0,-12.8 0,-25.7 0,-38.5"
           style="fill:#9173f1;fill-opacity:1;fill-rule:nonzero;stroke:none"
           id="path468" />
      </g>
      <g
         id="g470"
         transform="scale(1.12408)">
        <path
           d="m 15351.9,16270.6 c -179.6,-74.1 -359,-183.2 -538.4,-263.6 0,8.3 0,16.6 0,25 179.4,81.9 358.8,192.5 538.4,268 0,-9.8 0,-19.6 0,-29.4"
           style="fill:#9173f1;fill-opacity:1;fill-rule:nonzero;stroke:none"
           id="path472" />
      </g>
      <g
         id="g474"
         transform="scale(1.13684)">
        <path
           d="m 15465.9,15912.4 c -71.2,-2.4 -142.4,-15.8 -213.6,-36.1 0,121.9 0,243.9 0,365.9 71.2,27.6 142.4,48.2 213.6,57.8 0,-129.2 0,-258.4 0,-387.6"
           style="fill:#ffffff;fill-opacity:1;fill-rule:nonzero;stroke:none"
           id="path476" />
      </g>
      <g
         id="g478"
         transform="scale(1.11843)">
        <path
           d="m 15429.4,16269.5 c -77,-30 -154,-66.4 -231,-104.2 0,9.5 0,19.1 0,28.6 77,38.5 154,75.5 231,106.1 0,-10.2 0,-20.3 0,-30.5"
           style="fill:#9173f1;fill-opacity:1;fill-rule:nonzero;stroke:none"
           id="path480" />
      </g>
      <g
         id="g482"
         transform="scale(1.13358)">
        <path
           d="m 15480.1,16009.3 c -46.8,-4.2 -93.7,-12.9 -140.5,-25 0,93.3 0,186.6 0,280 46.8,15.6 93.7,27.9 140.5,35.7 0,-96.9 0,-193.8 0,-290.7"
           style="fill:#a98fff;fill-opacity:1;fill-rule:nonzero;stroke:none"
           id="path484" />
      </g>
      <g
         id="g486"
         transform="scale(1.10582)">
        <path
           d="m 14860.4,16007.1 c -73.3,-16.2 -146.5,-23.9 -219.7,-19 0,90.2 0,180.4 0,270.6 73.2,2.5 146.4,17.7 219.7,41.3 0,-97.6 0,-195.3 0,-292.9"
           style="fill:#ffffff;fill-opacity:1;fill-rule:nonzero;stroke:none"
           id="path488" />
      </g>
      <g
         id="g490"
         transform="scale(1.10304)">
        <path
           d="m 14866.9,16081 c -48.1,-9.7 -96.3,-15.5 -144.4,-16.2 0,69.3 0,138.6 0,207.9 48.1,4.4 96.3,13.9 144.4,27.3 0,-73 0,-146 0,-219"
           style="fill:#a98fff;fill-opacity:1;fill-rule:nonzero;stroke:none"
           id="path492" />
      </g>
      <g
         id="g494"
         transform="scale(1.13618)">
        <path
           d="m 15970.9,16075.9 c -148.2,134.5 -296.2,180.6 -444.2,174.7 0,14 0,27.9 0,41.9 148,7.5 296,-36.9 444.2,-169.9 0,-15.5 0,-31.1 0,-46.7"
           style="fill:#a98fff;fill-opacity:1;fill-rule:nonzero;stroke:none"
           id="path496" />
      </g>
      <g
         id="g498"
         transform="scale(1.13075)">
        <path
           d="m 16037.4,16076.2 c -148.8,134.1 -297.6,180.2 -446.3,174.9 0,14 0,28 0,42 148.7,6.9 297.5,-37.5 446.3,-170.1 0,-15.6 0,-31.2 0,-46.8"
           style="fill:#a98fff;fill-opacity:1;fill-rule:nonzero;stroke:none"
           id="path500" />
      </g>
      <g
         id="g502"
         transform="scale(1.11201)">
        <path
           d="m 14526.5,15996.2 c -19.6,26.6 -39.2,53.6 -58.7,81.1 6,-0.9 12.1,-1.8 18.2,-2.6 18.1,-2.3 32.9,8.5 32.9,22.8 0,9.4 0,18.8 0,28.2 0,14.4 -14.8,26.4 -32.9,28.1 -105.2,9.8 -210.4,48.8 -315.6,129.5 -18.2,13.9 -32.8,16.7 -32.8,4.5 0,-8 0,-16.1 0,-24.1 0,-12.2 14.6,-35.2 32.8,-49.7 50.1,-40 100.3,-70.5 150.4,-93 68.6,-53.6 137.2,-94.1 205.7,-124.8"
           style="fill:#ffffff;fill-opacity:1;fill-rule:nonzero;stroke:none"
           id="path504" />
      </g>
      <g
         id="g506"
         transform="scale(1.11373)">
        <path
           d="m 15479.7,16272.8 c 0,-0.1 8.6,15.4 25.4,21.7 14.9,5.5 25.3,-3.6 25.3,-18.3 0,-17.1 -14,-41.8 -50.7,-72.3 -36.5,3.9 -50.6,17.3 -50.6,34 0,14.3 10.3,30.9 25.3,37 16.8,6.8 25.3,-2.1 25.3,-2.1"
           style="fill:#a98fff;fill-opacity:1;fill-rule:nonzero;stroke:none"
           id="path508" />
      </g>
      <g
         id="g510"
         transform="scale(1.07605)">
        <path
           d="m 15226.9,16215.9 c 0,0 -159.8,-16.7 -125.5,-96.9 34.4,-80.3 76.4,-85.4 22.9,-106.7 -53.4,-21.3 -90.6,-39.1 -52.3,-77.4 38.3,-38.3 128,-22.4 79.1,-71.4 -49,-49 8.2,-120.4 96.6,-120.4 88.4,0 212.7,-24.4 300.8,63.8 88.2,88.2 122.3,-40.8 53.6,-66.9 0,0 104.2,6.4 115.2,75.2 11.2,68.8 7.1,94.2 -88.6,119.7 -95.5,25.5 -36.8,28.4 -15.5,118.7 21.3,90.2 -73.2,106.5 -134.4,124.6 -61.2,18.2 -122.4,121.8 -251.9,37.7"
           style="fill:#380047;fill-opacity:1;fill-rule:nonzero;stroke:none"
           id="path512" />
      </g>
      <g
         id="g514"
         transform="scale(1.04263)">
        <path
           d="m 15350.8,16282.8 c 12.1,-6 35.9,-29.8 56.7,-52 5.2,-1.9 10.6,-4.2 15.6,-6.8 -13.9,22.9 -28.9,50.1 -28.8,60.4 0.2,15.6 39.9,-53.5 54.5,-79.3 22.7,-28.9 -7.6,-86.4 -8,-122 0,-5.3 1.2,-14 3.4,-25.2 -16.7,-13 -35.6,-22.3 -55.6,-30 0.7,67.9 13.9,143.8 13.9,143.8 0,0 -16.7,38.9 -28.2,50.3 -10,10.1 -7.4,14.7 1.6,15.2 -20.4,27.6 -35.6,50.9 -25.1,45.6"
           style="fill:#fc7575;fill-opacity:1;fill-rule:nonzero;stroke:none"
           id="path516" />
      </g>
      <g
         id="g518"
         transform="scale(1.04297)">
        <path
           d="m 15704.8,16288.4 c -27.1,-11.6 -112.4,-152.6 -140.9,-249.9 -16.5,-56.3 -47.6,-114.4 -65.9,-129.6 v 0 c -12.2,-6.9 -26.2,-8.4 -30.8,14.8 -8.6,43.6 -15.7,104.4 -18.6,138 -27,1.5 -53.1,10 -79.9,7.9 2.4,-127.4 16.4,-308.5 64.5,-314.4 25,-3.1 77.6,23.6 117,70.6 49.9,59.5 91.8,133.5 91.8,133.5 l 89.4,283.2 c 0,0 0.5,57.5 -26.6,45.9"
           style="fill:#005953;fill-opacity:1;fill-rule:nonzero;stroke:none"
           id="path520" />
      </g>
      <g
         id="g522"
         transform="scale(1.04223)">
        <path
           d="m 15677,16292.4 c -12.6,0 -119.7,-117.9 -132.1,-192.9 -12.6,-74.9 -21.2,-168.5 -48.1,-141.6 -27,26.9 10.7,58.8 -31.2,58.8 -41.8,0 -142.5,26.3 -152.2,-41.1 -9.9,-67.4 39.4,-365.3 195.2,-292.3 155.8,73 248,524.6 233.9,570.6 -14.1,46.1 -65.5,38.5 -65.5,38.5"
           style="fill:#005757;fill-opacity:1;fill-rule:nonzero;stroke:none"
           id="path524" />
      </g>
      <g
         id="g526"
         transform="scale(1.02844)">
        <path
           d="m 16111.3,13932.3 h 75.8 c -0.1,1.4 -0.2,2.9 -0.2,4.5 0.1,34.1 113.1,552 95.4,627.4 -17.7,75.4 -30.2,84.4 -29.9,174.1 0.2,89.7 -157.1,74.4 -157.1,74.4 0,0 13.2,-174.4 34.6,-226.5 16,-38.9 -1.3,-434.1 -18.6,-653.9"
           style="fill:#fc7575;fill-opacity:1;fill-rule:nonzero;stroke:none"
           id="path528" />
      </g>
      <g
         id="g530"
         transform="scale(1.01066)">
        <path
           d="m 15927.9,14229.3 63,-0.4 c 43.6,121.2 180.3,394.2 200.2,478.8 23.4,99.7 -3.9,158.7 -12.2,231.7 -8.3,73 121.1,319.6 121.1,319.6 l -192.4,-13.2 c 0,0 -60,-127.6 -76,-195.7 -16.1,-68 -6.6,-68.6 -7,-172 -0.3,-102.7 -72.5,-546.6 -96.7,-648.8"
           style="fill:#fd5e5a;fill-opacity:1;fill-rule:nonzero;stroke:none"
           id="path532" />
      </g>
      <g
         id="g534"
         transform="scale(1.01066)">
        <path
           d="m 16178.9,14939.4 c -8.3,73 121.1,319.6 121.1,319.6 l -192.4,-13.2 c 0,0 -60,-127.6 -76,-195.7 -11.8,-49.9 -9.8,-63.5 -8.1,-108 36.8,-7.9 94,-19.5 159.3,-30 -1.5,8.9 -2.8,18 -3.9,27.3"
           style="fill:#e80300;fill-opacity:1;fill-rule:nonzero;stroke:none"
           id="path536" />
      </g>
      <g
         id="g538"
         transform="scale(1.02612)">
        <path
           d="m 16289.2,14771.7 c 0.3,89.9 -157.4,74.5 -157.4,74.5 0,0 8.5,-111.4 22.8,-182.9 53.4,-2.5 103.8,-1.5 145.4,5.4 -6.8,26.3 -10.9,51.2 -10.8,103"
           style="fill:#fd5e5a;fill-opacity:1;fill-rule:nonzero;stroke:none"
           id="path540" />
      </g>
      <g
         id="g542"
         transform="scale(1.05618)">
        <path
           d="m 16251.9,14477.4 c 0,0 48.1,-72.3 -229.7,-52.8 0,0 -51,-39.1 -203.5,-66.2 0,0 -221.5,-107.3 -513.2,0 0,0 -192.4,-50.4 -260.6,17.8 0,0 471.3,680.4 402.2,1047.9 l 234.4,7.9 c 0,0 395.2,-549.7 570.4,-954.6"
           style="fill:#c6001f;fill-opacity:1;fill-rule:nonzero;stroke:none"
           id="path544" />
      </g>
      <g
         id="g546"
         transform="scale(1.04508)">
        <path
           d="m 15673,16255.4 c 0,0 57.9,44.6 254.3,0.3 5.2,-1.2 10.2,-214.2 10.2,-214.2 0,0 -91.1,-356.5 -73.8,-445.5 0,0 -104.1,-87.9 -259.4,-11.4 0,0 20.1,280 6.1,342.4 -14.2,62.3 -42.3,118.9 -2.3,183.6 40,64.7 64.9,144.8 64.9,144.8"
           style="fill:#e40071;fill-opacity:1;fill-rule:nonzero;stroke:none"
           id="path548" />
      </g>
      <g
         id="g550"
         transform="scale(1.04508)">
        <path
           d="m 15673,16255.4 c 0,0 57.9,44.6 254.3,0.3 5.2,-1.2 10.2,-214.2 10.2,-214.2 0,0 -91.1,-356.5 -73.8,-445.5 0,0 -104.1,-87.9 -259.4,-11.4 0,0 -27.5,298.4 -41.6,360.8 -14.2,62.4 -11.6,116.4 14.6,187.8 15.1,40.8 35.1,55.5 48,82.7 14.8,31.2 47.7,39.5 47.7,39.5"
           style="fill:#009287;fill-opacity:1;fill-rule:nonzero;stroke:none"
           id="path552" />
      </g>
      <g
         id="g554"
         transform="scale(1.02572)">
        <path
           d="m 16237,15801.8 c 3.2,3.2 31.6,45 37.7,38.9 6.1,-6 -25.1,-44.5 -25.1,-44.5 0,0 36.2,36.5 43.3,29.4 7.1,-7.1 -48.4,-56.5 -54.1,-56.5 -5.9,0 -1.8,32.7 -1.8,32.7"
           style="fill:#fd5e5a;fill-opacity:1;fill-rule:nonzero;stroke:none"
           id="path556" />
      </g>
      <g
         id="g558"
         transform="scale(1.0248)">
        <path
           d="m 16202.6,15857.3 c 0,0 -15.3,-23.4 -4,-34.6 11.2,-11.3 5.2,-23 12.9,-30.6 7.6,-7.7 41.9,-8.9 41.9,-8.9 0,0 2.3,33 19.3,70.9 3.1,7 13.1,20.7 27.3,38.8 -15.1,10 -31.1,19 -47.2,27.1 -28.3,-36.8 -49.7,-61.8 -50.2,-62.7"
           style="fill:#fc7575;fill-opacity:1;fill-rule:nonzero;stroke:none"
           id="path560" />
      </g>
      <g
         id="g562"
         transform="scale(1.04257)">
        <path
           d="m 15965.5,16294.5 c 0,0 -19.6,-155.1 0,-197.9 19,-41.6 130.1,-89.5 149.1,-173.8 14.2,-62.9 -78.5,-195.7 -138.8,-274.2 15,-15.1 39.5,-40.1 54.3,-49.9 61.5,78.2 195.5,262.5 199.4,305.6 4.8,53.1 -181.5,395.7 -264,390.2"
           style="fill:#005953;fill-opacity:1;fill-rule:nonzero;stroke:none"
           id="path564" />
      </g>
      <g
         id="g566"
         transform="scale(1.04346)">
        <path
           d="m 15935.3,15953.2 c 0,0 52.3,30.8 85.5,19 33.1,-11.8 -64,-175.4 -64,-234.5 0,-59.1 70.9,-90.6 70.9,-90.6 0,0 29.6,-23.4 73.2,-11.7 43.6,11.7 101.8,197.9 146.1,242.2 44.3,44.4 -119.1,383.7 -295,403.1 -176,19.3 -16.7,-327.5 -16.7,-327.5"
           style="fill:#009287;fill-opacity:1;fill-rule:nonzero;stroke:none"
           id="path568" />
      </g>
      <g
         id="g570"
         transform="scale(1.0557)">
        <path
           d="m 15555.6,16241.1 c 0,0 26.7,-39.1 23.4,-84 -1.8,-24.2 -6.4,-54.7 -13.7,-72.4 -7.5,-18.6 -2.3,-34.3 16.1,-41.7 11.3,-4.6 24.8,-6.6 39,-1.1 22.6,8.7 57,24.8 67.4,50 7,16.9 -56.2,208.1 -56.2,208.1 l -76,-58.9"
           style="fill:#fc7575;fill-opacity:1;fill-rule:nonzero;stroke:none"
           id="path572" />
      </g>
      <g
         id="g574"
         transform="scale(1.04487)">
        <path
           d="m 15637.3,16215.3 c 0,0 181.5,-75.5 329.1,34.9 0,0 -183.4,49.8 -288.1,17.1 -104.6,-32.7 -41,-52 -41,-52"
           style="fill:#fc7575;fill-opacity:1;fill-rule:nonzero;stroke:none"
           id="path576" />
      </g>
      <g
         id="g578"
         transform="scale(1.0557)">
        <path
           d="m 15555.6,16241.1 76,58.9 c 0,0 7.4,-22.5 16.9,-52.7 -17.8,-27 -41.5,-53 -70.8,-63.2 -5.4,32.5 -22.1,57 -22.1,57"
           style="fill:#fd5e5a;fill-opacity:1;fill-rule:nonzero;stroke:none"
           id="path580" />
      </g>
      <g
         id="g582"
         transform="scale(1.06916)">
        <path
           d="m 15307,16290.4 c 0,0 -24.3,-16.4 -31.8,-48.9 -7.5,-32.5 11.5,-71 9.5,-98.7 -1.9,-27.7 39.4,-163.6 105.1,-137.3 65.6,26.3 80.9,129.1 82.6,151.6 1.5,22.6 -36.8,100.7 -73.2,121.8 -36.4,21.1 -92.2,11.5 -92.2,11.5"
           style="fill:#fc7575;fill-opacity:1;fill-rule:nonzero;stroke:none"
           id="path584" />
      </g>
      <g
         id="g586"
         transform="scale(1.05796)">
        <path
           d="m 15493.6,16300 c -0.5,-11.5 -2.2,-25.4 -4.2,-36.8 3.7,-1.8 8.5,-2.9 12.9,-2.1 -7,-3 -14.5,0.9 -15,1 1.3,9.5 2.4,22.1 6.3,37.9"
           style="fill:#49005e;fill-opacity:1;fill-rule:nonzero;stroke:none"
           id="path588" />
      </g>
      <g
         id="g590"
         transform="scale(1.06224)">
        <path
           d="m 15461.6,16286.3 c 0,0 13,10.1 28.2,11.9 15.3,1.8 36.4,-15.9 36.4,-15.9 0,0 -23.2,13.3 -33.4,11.7 -10,-1.6 -20,-8.4 -20,-8.4 l -11.2,0.7"
           style="fill:#49005e;fill-opacity:1;fill-rule:nonzero;stroke:none"
           id="path592" />
      </g>
      <g
         id="g594"
         transform="scale(1.06173)">
        <path
           d="m 15429.3,16284.4 c 0,0 -9,10.6 -18.8,13.1 -9.8,2.5 -21.5,-14 -21.5,-14 0,0 13.4,12 19.9,10 6.6,-2.1 13.5,-9.3 13.5,-9.3 l 6.9,0.2"
           style="fill:#49005e;fill-opacity:1;fill-rule:nonzero;stroke:none"
           id="path596" />
      </g>
      <g
         id="g598"
         transform="scale(1.05966)">
        <path
           d="m 15430.7,16287.1 c 1.3,-5.4 6.1,-8.8 10.8,-7.6 4.7,1.1 7.3,6.4 6,11.8 -1.2,5.3 -6.1,8.7 -10.7,7.5 -4.8,-1.1 -7.4,-6.4 -6.1,-11.7"
           style="fill:#49005e;fill-opacity:1;fill-rule:nonzero;stroke:none"
           id="path600" />
      </g>
      <g
         id="g602"
         transform="scale(1.0603)">
        <path
           d="m 15497.5,16287.1 c 1.3,-5.4 6.1,-8.8 10.7,-7.6 4.7,1.2 7.5,6.4 6.1,11.8 -1.3,5.3 -6.2,8.7 -10.8,7.5 -4.6,-1.1 -7.4,-6.4 -6,-11.7"
           style="fill:#49005e;fill-opacity:1;fill-rule:nonzero;stroke:none"
           id="path604" />
      </g>
      <g
         id="g606"
         transform="scale(1.06137)">
        <path
           d="m 15521,16284.2 c -45.3,15.8 -43.2,-15 -51.5,-22.3 7.8,4.1 11.3,18.6 20.8,21.2 7.8,2.2 21.6,1.4 30.7,1.1"
           style="fill:#3f004a;fill-opacity:1;fill-rule:nonzero;stroke:none"
           id="path608" />
      </g>
      <g
         id="g610"
         transform="scale(1.0608)">
        <path
           d="m 15444.9,16267 c -23.8,33 -36.9,9 -46.1,7.3 7.3,-0.5 16.6,8.8 24.5,6.3 6.3,-2 15.4,-9.1 21.6,-13.6"
           style="fill:#3f004a;fill-opacity:1;fill-rule:nonzero;stroke:none"
           id="path612" />
      </g>
      <g
         id="g614"
         transform="scale(1.0582)">
        <path
           d="m 15533.6,16272.3 c 3.4,-6.6 15,-7.5 26.1,-1.9 11,5.6 17.4,15.5 14,22.1 -3.4,6.7 -15,7.5 -26,1.9 -11.2,-5.6 -17.4,-15.5 -14.1,-22.1"
           style="fill:#fd5e5a;fill-opacity:1;fill-rule:nonzero;stroke:none"
           id="path616" />
      </g>
      <g
         id="g618"
         transform="scale(1.0718)">
        <path
           d="m 15540.3,16022.8 c -48,19.2 42.2,24.9 42.2,84.8 0,16.6 -5.5,24.7 -13.8,27.9 -37.5,14.8 -58.2,46 -68.6,86.9 -6.8,26.4 -37.9,62 -79.3,71.3 -28.1,6.3 -56.8,3.2 -85.2,2.1 -55.9,-2.3 -71.8,-44.1 -70.7,-48.4 0.9,-0.1 3.6,0.9 8.1,1.8 39.1,5.5 89.5,-22.9 98.5,-62.7 2.1,-16.2 13.8,-55.2 31.7,-54.7 7.4,0.2 7.1,22.2 10.3,24.5 35.4,-35.5 12.2,-86.8 -0.5,-117.1 -2.8,-6.6 -5.7,-13 -10,-18.7 -34.4,-45.4 1.2,-142.2 27.5,-156.9 27.3,-15.4 98.2,7.6 66.6,39.3 -31.6,31.6 113.2,19.2 131.4,65.2 18.2,46 -40.4,35.5 -88.2,54.7"
           style="fill:#49005e;fill-opacity:1;fill-rule:nonzero;stroke:none"
           id="path620" />
      </g>
      <g
         id="g622"
         transform="scale(1.06307)">
        <path
           d="m 15529.4,16271.9 c 0,0 3,28.1 25.4,20.3 22.3,-7.9 13,-76.1 -6.7,-69.5 -19.7,6.7 -18.7,49.2 -18.7,49.2"
           style="fill:#fc7575;fill-opacity:1;fill-rule:nonzero;stroke:none"
           id="path624" />
      </g>
      <g
         id="g626"
         transform="scale(1.06234)">
        <path
           d="m 15545,16269.5 c 0,0 2.7,30.5 13.8,22.4 11.2,-8.1 12.3,-37.9 0.6,-39.8 -11.5,-1.8 -14.4,17.4 -14.4,17.4"
           style="fill:#fd5e5a;fill-opacity:1;fill-rule:nonzero;stroke:none"
           id="path628" />
      </g>
      <g
         id="g630"
         transform="scale(1.05418)">
        <path
           d="m 15565,16280.7 h -1.2 c -1,0.1 -1.8,1.1 -1.7,2.1 0.1,1.1 0.9,1.9 2.1,1.8 0.1,0 14.8,-1.1 41.5,14.8 1,0.6 2.2,0.3 2.8,-0.6 0.5,-0.9 0.2,-2.1 -0.8,-2.7 -23.8,-14.2 -38.5,-15.4 -42.7,-15.4"
           style="fill:#49005e;fill-opacity:1;fill-rule:nonzero;stroke:none"
           id="path632" />
      </g>
      <g
         id="g634"
         transform="scale(1.05306)">
        <path
           d="m 15599.8,16289.1 c -1.4,0 -2.1,0.3 -2.5,0.5 -1,0.4 -1.4,1.6 -1,2.6 0.5,0.9 1.6,1.3 2.6,1 0.2,-0.1 4.6,-1.3 14.8,6.2 0.9,0.6 2.1,0.4 2.8,-0.5 0.5,-0.9 0.3,-2.1 -0.5,-2.7 -8.2,-5.9 -13.3,-7.1 -16.2,-7.1"
           style="fill:#49005e;fill-opacity:1;fill-rule:nonzero;stroke:none"
           id="path636" />
      </g>
      <path
         d="m 16138.9,14260.2 c 0,0 -50.1,19.3 -85.1,32.8 -35,13.5 -92.5,30.8 -110,37.5 -17.6,6.8 -65.1,72.6 -55.7,84.4 9.4,11.9 65.6,-13.6 101.5,-10 35.9,3.6 109.2,31 114,20 4.9,-11.1 55.6,-33.2 61.7,-47.2 6.1,-13.9 -14.2,-112 -26.4,-117.5"
         style="fill:#fd9a00;fill-opacity:1;fill-rule:nonzero;stroke:none"
         id="path638" />
      <path
         d="m 16131.3,14273.3 c -104.2,86.7 -93.8,28.2 -186.9,128.5 20.4,-28.3 54.1,-64 87.1,-74.3 18,-5.6 34.6,-15.1 51.1,-24.3 16.5,-9.4 32.6,-19.6 48.7,-29.9"
         style="fill:#fff7cf;fill-opacity:1;fill-rule:nonzero;stroke:none"
         id="path640" />
      <path
         d="m 16055.7,14361.9 c -2.8,-1.6 -6.3,-0.6 -7.8,2.2 -5.3,9.9 -17.6,30.1 -30.9,45.8 4.1,1 8.3,2 12.5,3.1 15.7,-19.5 27.7,-41.7 28.5,-43.2 1.5,-2.9 0.5,-6.4 -2.3,-7.9"
         style="fill:#fff7cf;fill-opacity:1;fill-rule:nonzero;stroke:none"
         id="path642" />
      <path
         d="m 16072.2,14381.1 c -3.1,-0.5 -6,1.7 -6.5,4.9 0,0.3 -2.4,16.2 -10.1,33.7 4,1 7.8,2 11.5,2.9 7.5,-17.9 9.9,-33.7 10,-34.9 0.5,-3.1 -1.7,-6.1 -4.9,-6.6"
         style="fill:#fff7cf;fill-opacity:1;fill-rule:nonzero;stroke:none"
         id="path644" />
      <path
         d="m 16072,14286 c -33.2,13.1 -68.3,27.8 -79.1,34.8 -21.4,13.9 -81.2,94.5 -94,97.3 h -1.2 v 0 c -4.5,0 -7.9,-0.9 -9.6,-3.2 -9.4,-11.8 38.1,-77.6 55.7,-84.4 17.5,-6.7 75,-24 110,-37.5 5.8,-2.2 11.9,-4.6 18.2,-7"
         style="fill:#de680a;fill-opacity:1;fill-rule:nonzero;stroke:none"
         id="path646" />
      <g
         id="g648"
         transform="scale(1.02364)">
        <path
           d="m 16291.4,13879.8 c 0,0 -52.5,-3.4 -89.2,-5.8 -36.7,-2.4 -95,-10.6 -113.4,-11.8 -18.4,-1.2 -87.6,37.7 -84.2,52.2 3.5,14.4 64.1,14.8 94.5,32.8 30.4,17.9 84.4,72.5 93.1,64.6 8.9,-7.8 63.2,-6.6 74.4,-16.5 11.1,-10 33.4,-105.6 24.8,-115.5"
           style="fill:#fd9a00;fill-opacity:1;fill-rule:nonzero;stroke:none"
           id="path650" />
      </g>
      <g
         id="g652"
         transform="scale(1.02217)">
        <path
           d="m 16300,13923.1 c -148.1,13.6 -103.4,-28.3 -249.5,2.4 35.8,-11.9 88.4,-22.6 125,-12.9 19.8,5.3 40.9,6.7 61.7,8.2 20.8,1.4 41.9,1.9 62.8,2.3"
           style="fill:#fff7cf;fill-opacity:1;fill-rule:nonzero;stroke:none"
           id="path654" />
      </g>
      <g
         id="g656"
         transform="scale(1.01594)">
        <path
           d="m 16298.1,14041.7 c -1.8,-2.6 -5.4,-3.1 -7.9,-1.2 -8.8,6.6 -28.2,19.7 -46.7,28.2 3.2,2.6 6.6,5.2 10,8 22.1,-11.1 42.1,-26 43.5,-27 2.5,-1.9 3,-5.5 1.1,-8"
           style="fill:#fff7cf;fill-opacity:1;fill-rule:nonzero;stroke:none"
           id="path658" />
      </g>
      <g
         id="g660"
         transform="scale(1.01646)">
        <path
           d="m 16296.7,14058.6 c -2.7,-1.8 -6.2,-1 -7.9,1.6 -0.2,0.3 -8.9,13.6 -23,26.1 3,2.5 6.1,5 9,7.3 14.2,-12.9 22.8,-26.1 23.4,-27.1 1.8,-2.6 1,-6.2 -1.5,-7.9"
           style="fill:#fff7cf;fill-opacity:1;fill-rule:nonzero;stroke:none"
           id="path662" />
      </g>
      <g
         id="g664"
         transform="scale(1.08864)">
        <path
           d="m 13732.2,13463.7 c -226.5,24.8 -453,62.4 -679.6,87.3 -197.6,22.9 -357.8,184.1 -357.8,379.3 0,670.5 0,1341.1 0,2011.6 0,195.7 160.2,358.1 357.8,343.3 226.6,-15.9 453.1,-44.6 679.6,-60.5 197.7,-14.8 357.9,-172.8 357.9,-372.4 0,-684.1 0,-1368.2 0,-2052.2 0,-200.1 -160.2,-359.4 -357.9,-336.4"
           style="fill:#a98fff;fill-opacity:1;fill-rule:nonzero;stroke:none"
           id="path666" />
      </g>
      <g
         id="g668"
         transform="scale(1.0822)">
        <path
           d="m 13130.3,13780.7 c -131.7,14.6 -238.9,126.4 -238.9,256.9 0,675.7 0,1351.4 0,2027.1 0,130.6 107.2,235.3 238.9,225.6 227.9,-16.4 455.8,-45.5 683.7,-61.8 131.7,-9.7 238.9,-119.4 238.9,-252.3 0,-687 0,-1374 0,-2060.9 0,-133 -107.2,-235.6 -238.9,-221 -227.9,24.6 -455.8,61.9 -683.7,86.4"
           style="fill:#cdbdff;fill-opacity:1;fill-rule:nonzero;stroke:none"
           id="path670" />
      </g>
      <g
         id="g672"
         transform="scale(1.06727)">
        <path
           d="m 13611.6,15754.6 c -105.6,11.6 -211.2,22.8 -316.8,31.1 -42.4,3.4 -76.9,39.8 -76.9,82 0,119.2 0,238.5 0,357.8 0,42.2 34.5,74.5 76.9,71.4 105.6,-7.5 211.2,-17.9 316.8,-28.8 42.5,-4.3 76.8,-42.3 76.8,-84.8 0,-120 0,-240.1 0,-360.2 0,-42.5 -34.3,-73.1 -76.8,-68.5"
           style="fill:#efebff;fill-opacity:1;fill-rule:nonzero;stroke:none"
           id="path674" />
      </g>
      <g
         id="g676"
         transform="scale(1.06345)">
        <path
           d="m 14263.2,16223.2 c -143.8,4.7 -287.5,17.4 -431.1,31.8 0,15 0,30 0,45 143.6,-14.3 287.3,-26.9 431.1,-31.5 0,-15.1 0,-30.2 0,-45.3"
           style="fill:#efebff;fill-opacity:1;fill-rule:nonzero;stroke:none"
           id="path678" />
      </g>
      <g
         id="g680"
         transform="scale(1.0572)">
        <path
           d="m 14347.5,16201.8 c -144.6,4.9 -289.2,17.9 -433.7,32.6 0,21.9 0,43.7 0,65.6 144.5,-14.6 289.1,-27.4 433.7,-32.2 0,-22 0,-44 0,-66"
           style="fill:#efebff;fill-opacity:1;fill-rule:nonzero;stroke:none"
           id="path682" />
      </g>
      <g
         id="g684"
         transform="scale(1.03717)">
        <path
           d="m 14591,16195.8 c -147.4,6.9 -294.8,21.5 -442.2,37.4 0,22.2 0,44.5 0,66.8 147.4,-15.8 294.8,-30.2 442.2,-37 0,-22.4 0,-44.8 0,-67.2"
           style="fill:#efebff;fill-opacity:1;fill-rule:nonzero;stroke:none"
           id="path686" />
      </g>
      <g
         id="g688"
         transform="scale(1.028)">
        <path
           d="m 14150.8,16190.8 c -148.7,16.7 -297.4,32.9 -446.1,42.3 0,22.3 0,44.6 0,66.9 148.7,-9.2 297.4,-25.3 446.1,-41.8 0,-22.5 0,-44.9 0,-67.4"
           style="fill:#efebff;fill-opacity:1;fill-rule:nonzero;stroke:none"
           id="path690" />
      </g>
      <g
         id="g692"
         transform="scale(1.0021)">
        <path
           d="m 15101.5,15501.6 c -207.7,13.1 -415.5,41 -623.2,67 0,243.8 0,487.6 0,731.4 207.7,-24 415.5,-49.8 623.2,-61 0,-245.8 0,-491.6 0,-737.4"
           style="fill:#efebff;fill-opacity:1;fill-rule:nonzero;stroke:none"
           id="path694" />
      </g>
      <path
         d="m 14301.7,15654.9 c 0,0 15,24.1 45.8,21.3 27.5,-2.6 46.9,-30.7 47.6,-61.2 0.7,-35.4 -24.2,-74.5 -90.3,-104.6 -67.7,42.4 -94.4,85.8 -95.1,121.1 -0.7,30.4 17.7,55.2 45.1,52.9 30.8,-2.6 46.9,-29.5 46.9,-29.5"
         style="fill:#efebff;fill-opacity:1;fill-rule:nonzero;stroke:none"
         id="path696" />
      <path
         d="m 14900.1,14915 c -49,0 -88.9,39.9 -88.9,88.9 v 313.5 c 0,38.7 31.4,70.1 70,70.1 38.7,0 70.1,-31.4 70.1,-70.1 V 15042 c 0,-29.3 -23.8,-53.1 -53.1,-53.1 -29.3,0 -53.2,23.8 -53.2,53.1 v 238.6 c 0,10.2 15.4,10.2 15.4,0 V 15042 c 0,-20.8 17,-37.7 37.8,-37.7 20.8,0 37.7,16.9 37.7,37.7 v 275.4 c 0,30.2 -24.5,54.7 -54.7,54.7 -30.1,0 -54.6,-24.5 -54.6,-54.7 v -313.5 c 0,-40.6 33,-73.5 73.5,-73.5 40.5,0 73.5,32.9 73.5,73.5 v 284.1 c 0,10.2 15.4,10.2 15.4,0 v -284.1 c 0,-49 -39.9,-88.9 -88.9,-88.9"
         style="fill:#6f7fbf;fill-opacity:1;fill-rule:nonzero;stroke:none"
         id="path698" />
    </g>
  </g>
</svg>
