<?xml version="1.0" encoding="UTF-8" standalone="no"?>
<svg
   xmlns:dc="http://purl.org/dc/elements/1.1/"
   xmlns:cc="http://creativecommons.org/ns#"
   xmlns:rdf="http://www.w3.org/1999/02/22-rdf-syntax-ns#"
   xmlns:svg="http://www.w3.org/2000/svg"
   xmlns="http://www.w3.org/2000/svg"
   id="svg4153"
   version="1.1"
   viewBox="0 0 297 210"
   height="210mm"
   width="297mm">
  <defs
     id="defs4147">
    <clipPath
       id="clipPath4021"
       clipPathUnits="userSpaceOnUse">
      <path
         id="path4019"
         d="m 3842.23,2925.42 -28.62,14.41 c 6.37,4.01 12.04,8.93 16.81,14.56 l 11.81,-28.97" />
    </clipPath>
    <clipPath
       id="clipPath132"
       clipPathUnits="userSpaceOnUse">
      <path
         id="path130"
         d="m 9084.86,16496 c 0,0 -147.62,-879.9 -159.11,-1076.5 -11.48,-196.5 95.65,-741.8 95.65,-741.8 l -189.29,-7.1 c 0,0 -163.62,554.3 -125.75,714.6 37.88,160.4 -17.34,862.2 -17.34,862.2 l 65.31,264 z" />
    </clipPath>
    <linearGradient
       id="linearGradient140"
       spreadMethod="pad"
       gradientTransform="matrix(-212.261,-2330.17,2330.17,-212.261,8951.86,16523.6)"
       gradientUnits="userSpaceOnUse"
       y2="0"
       x2="1"
       y1="0"
       x1="0">
      <stop
         id="stop136"
         offset="0"
         style="stop-opacity:1;stop-color:#116363" />
      <stop
         id="stop138"
         offset="1"
         style="stop-opacity:1;stop-color:#2c9d9e" />
    </linearGradient>
    <clipPath
       id="clipPath988"
       clipPathUnits="userSpaceOnUse">
      <path
         id="path986"
         d="m 2631.45,3332.6 c 46.92,0 84.97,-32.3 84.97,-72.2 v -315.8 c 0,-39.9 38.03,-72.2 84.96,-72.2 h 516.66 c 45.11,0 82.01,29.9 84.8,67.6 0.23,439.1 0.15,287.6 0.17,320.4 0,39.9 38.04,72.2 84.97,72.2 h 448.24 c 46.93,0 84.97,-32.3 84.97,-72.2 v -505.3 c 0,-39.9 -38.04,-72.2 -84.97,-72.2 H 2631.45 c -46.93,0 -84.98,32.3 -84.98,72.2 v 505.3 c 0,39.9 38.05,72.2 84.98,72.2 z" />
    </clipPath>
    <linearGradient
       id="linearGradient994"
       spreadMethod="pad"
       gradientTransform="matrix(1572.02,-282.883,282.883,1572.02,2514.97,3146.1)"
       gradientUnits="userSpaceOnUse"
       y2="0"
       x2="1"
       y1="0"
       x1="0">
      <stop
         id="stop990"
         offset="0"
         style="stop-opacity:1;stop-color:#f57939" />
      <stop
         id="stop992"
         offset="1"
         style="stop-opacity:1;stop-color:#fffb4d" />
    </linearGradient>
  </defs>
  <metadata
     id="metadata4150">
    <rdf:RDF>
      <cc:Work
         rdf:about="">
        <dc:format>image/svg+xml</dc:format>
        <dc:type
           rdf:resource="http://purl.org/dc/dcmitype/StillImage" />
        <dc:title></dc:title>
      </cc:Work>
    </rdf:RDF>
  </metadata>
  <g
     style="opacity:0.99"
     transform="translate(0,-87)"
     id="layer1">
    <g
       id="g8641"
       transform="matrix(0.04480147,0,0,-0.04409001,-35.966315,349.4578)">
      <path
         d="m 3986.86,4659.5 c 0,0 -2577.79,-46.1 -2183.02,-1233.2 394.77,-1187.1 3262.89,-1702.5 3654.64,-1592.9 391.75,109.7 1380.3,2669.4 -1471.62,2826.1"
         style="fill:#ffd6d6;fill-opacity:1;fill-rule:nonzero;stroke:none"
         id="path864" />
      <path
         d="M 6048.05,3386.6 H 3809.2 c -19.21,0 -34.78,15.6 -34.78,34.8 v 1506.2 c 0,19.2 15.57,34.7 34.78,34.7 h 2238.85 c 19.2,0 34.77,-15.5 34.77,-34.7 V 3421.4 c 0,-19.2 -15.57,-34.8 -34.77,-34.8"
         style="fill:#7796fe;fill-opacity:1;fill-rule:nonzero;stroke:none"
         id="path866" />
      <path
         d="M 6048.05,4811.4 H 3809.2 c -19.21,0 -34.78,15.5 -34.78,34.8 v 81.4 c 0,19.2 15.57,34.7 34.78,34.7 h 2238.85 c 19.2,0 34.77,-15.5 34.77,-34.7 v -81.4 c 0,-19.3 -15.57,-34.8 -34.77,-34.8"
         style="fill:#004d54;fill-opacity:1;fill-rule:nonzero;stroke:none"
         id="path868" />
      <path
         d="m 4558.73,3768 h -571.87 v 891.5 h 571.87 V 3768"
         style="fill:#a2b7fd;fill-opacity:1;fill-rule:nonzero;stroke:none"
         id="path870" />
      <path
         d="M 5934.53,4609.3 H 4718.82 v 50.2 h 1215.71 v -50.2"
         style="fill:#698bfd;fill-opacity:1;fill-rule:nonzero;stroke:none"
         id="path872" />
      <path
         d="M 5934.53,4495.5 H 4718.82 v 57.9 h 1215.71 v -57.9"
         style="fill:#698bfd;fill-opacity:1;fill-rule:nonzero;stroke:none"
         id="path874" />
      <path
         d="M 5395.44,4837.5 H 3860.78 v 82.6 h 1534.66 v -82.6"
         style="fill:#ffffff;fill-opacity:1;fill-rule:nonzero;stroke:none"
         id="path876" />
      <path
         d="m 5836.77,4850.2 c 0,-7.1 -5.69,-12.7 -12.71,-12.7 -7.02,0 -12.71,5.6 -12.71,12.7 0,7 5.69,12.7 12.71,12.7 7.02,0 12.71,-5.7 12.71,-12.7"
         style="fill:#ffffff;fill-opacity:1;fill-rule:nonzero;stroke:none"
         id="path878" />
      <path
         d="m 5867.57,4850.2 c 0,-7.1 -5.69,-12.7 -12.71,-12.7 -7.02,0 -12.71,5.6 -12.71,12.7 0,7 5.69,12.7 12.71,12.7 7.02,0 12.71,-5.7 12.71,-12.7"
         style="fill:#ffffff;fill-opacity:1;fill-rule:nonzero;stroke:none"
         id="path880" />
      <path
         d="m 5898.36,4850.2 c 0,-7.1 -5.69,-12.7 -12.71,-12.7 -7.02,0 -12.71,5.6 -12.71,12.7 0,7 5.69,12.7 12.71,12.7 7.02,0 12.71,-5.7 12.71,-12.7"
         style="fill:#ffffff;fill-opacity:1;fill-rule:nonzero;stroke:none"
         id="path882" />
      <path
         d="m 5334.71,4890.7 c 0,9.1 7.06,16.6 15.73,16.6 8.67,0 15.72,-7.5 15.72,-16.6 0,-9.1 -7.05,-16.6 -15.72,-16.6 -8.67,0 -15.73,7.5 -15.73,16.6 z m 40.5,-38.4 -12.21,21.1 c 4.94,4 8.14,10.2 8.14,17.3 0,12.1 -9.26,21.8 -20.7,21.8 -11.44,0 -20.71,-9.7 -20.71,-21.8 0,-12.1 9.27,-21.8 20.71,-21.8 2.84,0 5.55,0.6 8.01,1.7 l 8.63,-22.6 0.34,-0.7 c 1.32,-2.3 4.12,-3 6.27,-1.6 2.15,1.4 2.83,4.3 1.52,6.6"
         style="fill:#121841;fill-opacity:1;fill-rule:nonzero;stroke:none"
         id="path884" />
      <path
         d="m 5588.18,4841.8 h -129.7 v 78.3 h 129.7 v -78.3"
         style="fill:#f57408;fill-opacity:1;fill-rule:nonzero;stroke:none"
         id="path886" />
      <path
         d="M 5885.65,3455 H 4817.57 v 956.4 H 5885.65 V 3455"
         style="fill:#e4edff;fill-opacity:1;fill-rule:nonzero;stroke:none"
         id="path888" />
      <path
         d="m 5351.61,3854.9 h -422.99 v 404.3 h 422.99 v -404.3"
         style="fill:#ffffff;fill-opacity:1;fill-rule:nonzero;stroke:none"
         id="path890" />
      <path
         d="m 5867.57,3455 h -422.99 v 336 h 422.99 v -336"
         style="fill:#ffffff;fill-opacity:1;fill-rule:nonzero;stroke:none"
         id="path892" />
      <path
         d="m 5621.51,4320.1 h -516.92 v 43.5 h 516.92 v -43.5"
         style="fill:#f57408;fill-opacity:1;fill-rule:nonzero;stroke:none"
         id="path894" />
      <path
         d="m 5867.57,4237.5 h -441.7 v 21.7 h 441.7 v -21.7"
         style="fill:#698bfd;fill-opacity:1;fill-rule:nonzero;stroke:none"
         id="path896" />
      <path
         d="m 5867.57,4199.8 h -441.7 v 21.8 h 441.7 v -21.8"
         style="fill:#698bfd;fill-opacity:1;fill-rule:nonzero;stroke:none"
         id="path898" />
      <path
         d="m 5867.57,4162.2 h -441.7 v 21.7 h 441.7 v -21.7"
         style="fill:#698bfd;fill-opacity:1;fill-rule:nonzero;stroke:none"
         id="path900" />
      <path
         d="m 5867.57,4124.5 h -441.7 v 21.7 h 441.7 v -21.7"
         style="fill:#698bfd;fill-opacity:1;fill-rule:nonzero;stroke:none"
         id="path902" />
      <path
         d="m 5867.57,4086.8 h -441.7 v 21.7 h 441.7 v -21.7"
         style="fill:#698bfd;fill-opacity:1;fill-rule:nonzero;stroke:none"
         id="path904" />
      <path
         d="m 5867.57,4049.1 h -441.7 v 21.8 h 441.7 v -21.8"
         style="fill:#698bfd;fill-opacity:1;fill-rule:nonzero;stroke:none"
         id="path906" />
      <path
         d="m 5867.57,4011.4 h -441.7 v 21.8 h 441.7 v -21.8"
         style="fill:#698bfd;fill-opacity:1;fill-rule:nonzero;stroke:none"
         id="path908" />
      <path
         d="m 5867.57,3973.8 h -441.7 v 21.7 h 441.7 v -21.7"
         style="fill:#698bfd;fill-opacity:1;fill-rule:nonzero;stroke:none"
         id="path910" />
      <path
         d="m 5867.57,3936.1 h -441.7 v 21.7 h 441.7 v -21.7"
         style="fill:#698bfd;fill-opacity:1;fill-rule:nonzero;stroke:none"
         id="path912" />
      <path
         d="m 5867.57,3898.4 h -441.7 v 21.7 h 441.7 v -21.7"
         style="fill:#698bfd;fill-opacity:1;fill-rule:nonzero;stroke:none"
         id="path914" />
      <path
         d="m 5867.57,3860.7 h -441.7 v 21.8 h 441.7 v -21.8"
         style="fill:#698bfd;fill-opacity:1;fill-rule:nonzero;stroke:none"
         id="path916" />
      <path
         d="M 6775.5,2337.7 H 4536.65 c -19.21,0 -34.77,15.6 -34.77,34.8 v 1506.1 c 0,19.2 15.56,34.8 34.77,34.8 H 6775.5 c 19.21,0 34.77,-15.6 34.77,-34.8 V 2372.5 c 0,-19.2 -15.56,-34.8 -34.77,-34.8"
         style="fill:#d5dffe;fill-opacity:1;fill-rule:nonzero;stroke:none"
         id="path918" />
      <path
         d="M 6775.5,3762.5 H 4536.65 c -19.21,0 -34.77,15.5 -34.77,34.7 v 81.4 c 0,19.2 15.56,34.8 34.77,34.8 H 6775.5 c 19.21,0 34.77,-15.6 34.77,-34.8 v -81.4 c 0,-19.2 -15.56,-34.7 -34.77,-34.7"
         style="fill:#004d54;fill-opacity:1;fill-rule:nonzero;stroke:none"
         id="path920" />
      <path
         d="m 5286.19,2719.1 h -571.88 v 891.4 h 571.88 v -891.4"
         style="fill:#698bfd;fill-opacity:1;fill-rule:nonzero;stroke:none"
         id="path922" />
      <path
         d="M 6661.98,3560.4 H 5446.27 v 50.1 h 1215.71 v -50.1"
         style="fill:#698bfd;fill-opacity:1;fill-rule:nonzero;stroke:none"
         id="path924" />
      <path
         d="M 6661.98,3446.5 H 5446.27 v 58 h 1215.71 v -58"
         style="fill:#698bfd;fill-opacity:1;fill-rule:nonzero;stroke:none"
         id="path926" />
      <path
         d="M 6122.9,3788.5 H 4588.23 v 82.6 H 6122.9 v -82.6"
         style="fill:#ffffff;fill-opacity:1;fill-rule:nonzero;stroke:none"
         id="path928" />
      <path
         d="m 6564.23,3801.3 c 0,-7.1 -5.69,-12.8 -12.72,-12.8 -7.02,0 -12.71,5.7 -12.71,12.8 0,7 5.69,12.7 12.71,12.7 7.03,0 12.72,-5.7 12.72,-12.7"
         style="fill:#ffffff;fill-opacity:1;fill-rule:nonzero;stroke:none"
         id="path930" />
      <path
         d="m 6595.02,3801.3 c 0,-7.1 -5.69,-12.8 -12.71,-12.8 -7.02,0 -12.71,5.7 -12.71,12.8 0,7 5.69,12.7 12.71,12.7 7.02,0 12.71,-5.7 12.71,-12.7"
         style="fill:#ffffff;fill-opacity:1;fill-rule:nonzero;stroke:none"
         id="path932" />
      <path
         d="m 6625.82,3801.3 c 0,-7.1 -5.69,-12.8 -12.71,-12.8 -7.03,0 -12.71,5.7 -12.71,12.8 0,7 5.68,12.7 12.71,12.7 7.02,0 12.71,-5.7 12.71,-12.7"
         style="fill:#ffffff;fill-opacity:1;fill-rule:nonzero;stroke:none"
         id="path934" />
      <path
         d="m 6062.16,3841.8 c 0,9.1 7.06,16.6 15.73,16.6 8.67,0 15.72,-7.5 15.72,-16.6 0,-9.2 -7.05,-16.6 -15.72,-16.6 -8.67,0 -15.73,7.4 -15.73,16.6 z m 40.5,-38.4 -12.21,21.1 c 4.95,3.9 8.15,10.2 8.15,17.3 0,12 -9.27,21.8 -20.71,21.8 -11.43,0 -20.71,-9.8 -20.71,-21.8 0,-12.1 9.28,-21.9 20.71,-21.9 2.84,0 5.55,0.7 8.01,1.7 l 8.64,-22.5 0.33,-0.7 c 1.32,-2.3 4.12,-3 6.28,-1.6 2.15,1.4 2.82,4.3 1.51,6.6"
         style="fill:#121841;fill-opacity:1;fill-rule:nonzero;stroke:none"
         id="path936" />
      <path
         d="m 6315.63,3792.9 h -129.7 v 78.2 h 129.7 v -78.2"
         style="fill:#f57408;fill-opacity:1;fill-rule:nonzero;stroke:none"
         id="path938" />
      <path
         d="M 6613.11,2406 H 5545.02 v 956.5 H 6613.11 V 2406"
         style="fill:#e4edff;fill-opacity:1;fill-rule:nonzero;stroke:none"
         id="path940" />
      <path
         d="m 6079.06,2806 h -422.99 v 404.3 h 422.99 V 2806"
         style="fill:#ffffff;fill-opacity:1;fill-rule:nonzero;stroke:none"
         id="path942" />
      <path
         d="m 6595.02,2406 h -422.99 v 336 h 422.99 v -336"
         style="fill:#ffffff;fill-opacity:1;fill-rule:nonzero;stroke:none"
         id="path944" />
      <path
         d="m 6348.96,3271.2 h -516.91 v 43.5 h 516.91 v -43.5"
         style="fill:#f57408;fill-opacity:1;fill-rule:nonzero;stroke:none"
         id="path946" />
      <path
         d="m 6595.02,3188.6 h -441.69 v 21.7 h 441.69 v -21.7"
         style="fill:#698bfd;fill-opacity:1;fill-rule:nonzero;stroke:none"
         id="path948" />
      <path
         d="m 6595.02,3150.9 h -441.69 v 21.7 h 441.69 v -21.7"
         style="fill:#698bfd;fill-opacity:1;fill-rule:nonzero;stroke:none"
         id="path950" />
      <path
         d="m 6595.02,3113.2 h -441.69 v 21.8 h 441.69 v -21.8"
         style="fill:#698bfd;fill-opacity:1;fill-rule:nonzero;stroke:none"
         id="path952" />
      <path
         d="m 6595.02,3075.6 h -441.69 v 21.7 h 441.69 v -21.7"
         style="fill:#698bfd;fill-opacity:1;fill-rule:nonzero;stroke:none"
         id="path954" />
      <path
         d="m 6595.02,3037.9 h -441.69 v 21.7 h 441.69 v -21.7"
         style="fill:#698bfd;fill-opacity:1;fill-rule:nonzero;stroke:none"
         id="path956" />
      <path
         d="m 6595.02,3000.2 h -441.69 v 21.7 h 441.69 v -21.7"
         style="fill:#698bfd;fill-opacity:1;fill-rule:nonzero;stroke:none"
         id="path958" />
      <path
         d="m 6595.02,2962.5 h -441.69 v 21.8 h 441.69 v -21.8"
         style="fill:#698bfd;fill-opacity:1;fill-rule:nonzero;stroke:none"
         id="path960" />
      <path
         d="m 6595.02,2924.8 h -441.69 v 21.8 h 441.69 v -21.8"
         style="fill:#698bfd;fill-opacity:1;fill-rule:nonzero;stroke:none"
         id="path962" />
      <path
         d="m 6595.02,2887.2 h -441.69 v 21.7 h 441.69 v -21.7"
         style="fill:#698bfd;fill-opacity:1;fill-rule:nonzero;stroke:none"
         id="path964" />
      <path
         d="m 6595.02,2849.5 h -441.69 v 21.7 h 441.69 v -21.7"
         style="fill:#698bfd;fill-opacity:1;fill-rule:nonzero;stroke:none"
         id="path966" />
      <path
         d="m 6595.02,2811.8 h -441.69 v 21.7 h 441.69 v -21.7"
         style="fill:#698bfd;fill-opacity:1;fill-rule:nonzero;stroke:none"
         id="path968" />
      <path
         d="m 4320.11,2049.8 c 0,-60.3 -452.03,-109.2 -1009.65,-109.2 -557.61,0 -1009.64,48.9 -1009.64,109.2 0,60.4 452.03,109.3 1009.64,109.3 557.62,0 1009.65,-48.9 1009.65,-109.3"
         style="fill:#2846a6;fill-opacity:1;fill-rule:nonzero;stroke:none"
         id="path970" />
      <path
         d="m 3471,2041.5 h 40.05 l 159.51,686.9 -58.06,3.1 -141.5,-690"
         style="fill:#1f1a15;fill-opacity:1;fill-rule:nonzero;stroke:none"
         id="path972" />
      <path
         d="m 4120.97,2029.1 h -40.06 l -159.5,686.9 58.06,3.1 141.5,-690"
         style="fill:#1f1a15;fill-opacity:1;fill-rule:nonzero;stroke:none"
         id="path974" />
      <path
         d="m 3048.92,2103.2 h -40.05 l -159.5,687 58.06,3 141.49,-690"
         style="fill:#1f1a15;fill-opacity:1;fill-rule:nonzero;stroke:none"
         id="path976" />
      <path
         d="m 2516.79,2056.6 h 40.06 l 159.49,686.9 -58.06,3.1 -141.49,-690"
         style="fill:#1f1a15;fill-opacity:1;fill-rule:nonzero;stroke:none"
         id="path978" />
      <path
         d="m 2546.47,3260.4 v -505.3 c 0,-39.9 38.05,-72.2 84.98,-72.2 h 1304.77 c 46.93,0 84.97,32.3 84.97,72.2 v 505.3 c 0,39.9 -38.04,72.2 -84.97,72.2 H 2631.45 c -46.93,0 -84.98,-32.3 -84.98,-72.2"
         style="fill:#450000;fill-opacity:1;fill-rule:nonzero;stroke:none"
         id="path980" />
      <g
         id="g982">
        <g
           id="g984"
           clip-path="url(#clipPath988)">
          <path
             d="m 2631.45,3332.6 c 46.92,0 84.97,-32.3 84.97,-72.2 v -315.8 c 0,-39.9 38.03,-72.2 84.96,-72.2 h 516.66 c 45.11,0 82.01,29.9 84.8,67.6 0.23,439.1 0.15,287.6 0.17,320.4 0,39.9 38.04,72.2 84.97,72.2 h 448.24 c 46.93,0 84.97,-32.3 84.97,-72.2 v -505.3 c 0,-39.9 -38.04,-72.2 -84.97,-72.2 H 2631.45 c -46.93,0 -84.98,32.3 -84.98,72.2 v 505.3 c 0,39.9 38.05,72.2 84.98,72.2"
             style="fill:url(#linearGradient994);fill-opacity:1;fill-rule:nonzero;stroke:none"
             id="path996" />
        </g>
      </g>
      <path
         d="m 3403.01,3256.8 v -0.1 0.1"
         style="fill:#fabf44;fill-opacity:1;fill-rule:nonzero;stroke:none"
         id="path998" />
      <path
         d="m 3403.01,3255.4 v 0 0"
         style="fill:#fabf44;fill-opacity:1;fill-rule:nonzero;stroke:none"
         id="path1000" />
      <path
         d="m 3402.84,2940 c 0.12,230.5 0.16,298.3 0.17,315.4 v 0 0 0.2 1 0.2 0 0.1 0.1 1.1 0 0 0.4 1.1 0 0.4 0.4 c 0,39.9 38.04,72.2 84.97,72.2 h 448.24 c 46.93,0 84.97,-32.3 84.97,-72.2 v -505.3 c 0,-39.9 -38.04,-72.2 -84.97,-72.2 h -613.69 l -4.49,189.5 c 45.11,0 82.01,29.9 84.8,67.6"
         style="fill:#fabf44;fill-opacity:1;fill-rule:nonzero;stroke:none"
         id="path1002" />
      <path
         d="m 3679.87,2682.9 h 256.35 c 46.93,0 84.97,32.3 84.97,72.2 v 505.3 c 0,39.9 -38.04,72.2 -84.97,72.2 h -256.35 c -46.92,0 -84.97,-32.3 -84.97,-72.2 v -505.3 c 0,-39.9 38.05,-72.2 84.97,-72.2"
         style="fill:#f15a24;fill-opacity:1;fill-rule:nonzero;stroke:none"
         id="path1004" />
      <path
         d="m 3286.41,4280.9 c 0,0 -137.4,23.5 -185.45,-71.4 -48.06,-94.9 -43.53,-309.5 21.88,-365.1 65.4,-55.5 54.52,-197.9 111.82,-239.9 57.29,-42.1 203.3,-61 203.3,37.9 0,0 -71.15,-12 -89.17,49.6 0,0 102.11,-47.9 152.02,25.2 49.9,73 -57.3,79.8 -57.3,79.8 0,0 42.12,-20.7 -20.72,-9.8 -62.84,10.8 -21.82,26.5 -21.82,79.6 0,53.1 38.84,15.6 27.75,113.2 -11.08,97.6 -95.48,304.3 -142.31,300.9"
         style="fill:#0e1b29;fill-opacity:1;fill-rule:nonzero;stroke:none"
         id="path1006" />
      <path
         d="m 2954.71,2186.1 -13.33,-93 c 0,0 -24.81,-70.3 -24.81,-80.6 0,-6.9 11.67,-62.3 42.72,-71.7 15.92,-4.8 81.1,66.4 89.76,98.5 10.13,37.6 -14.65,155.1 -14.65,155.1 l -79.69,-8.3"
         style="fill:#fc7575;fill-opacity:1;fill-rule:nonzero;stroke:none"
         id="path1008" />
      <path
         d="m 3168.76,2202.6 c 0,0 -17.69,-136.4 -17.69,-157.1 0,-20.6 -2.81,-50.3 8.85,-62 11.65,-11.6 116.33,22.8 116.33,60 0,37.2 -22.73,159.1 -22.73,159.1 h -84.76"
         style="fill:#fc7575;fill-opacity:1;fill-rule:nonzero;stroke:none"
         id="path1010" />
      <path
         d="m 3394.91,3422.5 c 0,93.2 -3.86,396.2 -3.86,396.2 0,0 -55.07,37.3 -165.35,37.3 -35.46,0 -68.06,6 -103.36,-0.4 -74.47,-13.5 -142.17,-45.4 -142.17,-45.4 0,0 22.84,-285.8 -12.88,-481 -6.3,-34.5 20.64,-66.1 55.69,-66.1 h 348.4 c 23.49,0 41.35,21.1 37.51,44.3 -8.21,49.4 -13.98,90.9 -13.98,115.1"
         style="fill:#ffda88;fill-opacity:1;fill-rule:nonzero;stroke:none"
         id="path1012" />
      <path
         d="m 3002.51,3269.1 c -56.49,-43.8 -68.56,-58.8 -84.64,-78.5 -125.48,-154.1 -89.35,-363.2 -32.32,-355.3 57.04,7.8 174.91,28.2 266.17,9.2 91.26,-19 296.59,-13.3 315.6,60.9 12.67,49.4 -54.84,221.2 -91.37,357.7 l -373.44,6"
         style="fill:#464a7f;fill-opacity:1;fill-rule:nonzero;stroke:none"
         id="path1014" />
      <path
         d="m 3193.76,3076.5 -42.69,-67 c -21,-48.1 -8.75,-163.2 -8.75,-163.2 l -187.61,9.5 -8.92,176.8 247.97,43.9"
         style="fill:#35385f;fill-opacity:1;fill-rule:nonzero;stroke:none"
         id="path1016" />
      <path
         d="m 3161.23,3013.7 c 0,0 106.47,11.4 146.39,-28.5 39.93,-39.9 -36.12,-583.7 -26.61,-614.1 9.5,-30.4 55.13,-26.6 28.51,-53.2 -26.61,-26.6 -33.27,-44.7 -20.91,-57 12.36,-12.4 17.11,-30.5 5.7,-41.9 -11.4,-11.4 -15.21,-41.8 -15.21,-41.8 h -127.43 c 0,0 -9.45,78 -9.45,91.3 0,13.3 -15.21,51.3 -15.21,51.3 0,0 47.45,24.7 24.66,47.5 -22.79,22.8 0,57.1 0,106.5 0,49.4 -70.29,530.4 9.56,539.9"
         style="fill:#6b6e98;fill-opacity:1;fill-rule:nonzero;stroke:none"
         id="path1018" />
      <path
         d="m 2838.6,3015.2 c 36.84,36.9 96.38,41.5 155.32,0 58.94,-41.4 38.02,-144.1 38.02,-237.2 0,-93.2 -6.1,-323.2 3.61,-351.7 9.7,-28.6 40.12,-57.1 28.72,-87.5 -11.41,-30.4 -17.13,-24.1 2.52,-43.7 19.65,-19.7 8.88,-34.2 8.88,-55.2 0,-20.9 -9.5,-85.5 -9.5,-85.5 h -121.68 c 0,0 -5.71,116 -36.12,161.6 -30.42,45.6 -7.61,144.5 -7.61,159.7 0,15.2 -38.03,34.2 -38.03,100.8 0,66.5 -44.15,418.7 -24.13,438.7"
         style="fill:#6b6e98;fill-opacity:1;fill-rule:nonzero;stroke:none"
         id="path1020" />
      <path
         d="m 2986.04,3810.2 c 0,0 -21.65,-37.8 -52.07,-123.4 -30.42,-85.5 20.74,-424.6 20.74,-481.6 0,-57.1 71.53,-128.7 71.53,-128.7 l 60.84,68.4 -39.93,247.2 -61.11,418.1"
         style="fill:#fd5e5a;fill-opacity:1;fill-rule:nonzero;stroke:none"
         id="path1022" />
      <path
         d="m 3391.05,3818.7 c 0,0 87.69,-21.7 114.45,-143.3 26.77,-121.7 48.5,-406.9 40.14,-441.1 -8.36,-34.2 -228.89,-140.1 -228.89,-140.1 l -18.63,37.4 c 0,0 167.24,144.5 167.24,165.4 0,20.9 -71.58,282.7 -71.58,282.7 l -2.73,239"
         style="fill:#fd5e5a;fill-opacity:1;fill-rule:nonzero;stroke:none"
         id="path1024" />
      <path
         d="m 2716.34,3384.5 49.44,-350.8 615.99,21.9 -12.2,351.7 -653.23,-22.8"
         style="fill:#241145;fill-opacity:1;fill-rule:nonzero;stroke:none"
         id="path1026" />
      <path
         d="m 3045.65,2030.3 c -57.42,-36.4 -100.12,-32.6 -129.04,-18.7 0.76,-9.6 12.67,-61.7 42.68,-70.8 14.56,-4.4 70.3,54.7 86.36,89.5"
         style="fill:#ed1e79;fill-opacity:1;fill-rule:nonzero;stroke:none"
         id="path1028" />
      <path
         d="m 3276.25,2043.5 c 0,8.2 -1.12,20.7 -2.87,35.1 -33.13,-29.8 -77.37,-49.4 -120.16,-5.7 -1.31,-12.9 -2.15,-22.9 -2.15,-27.4 0,-20.6 -2.81,-50.3 8.85,-62 11.65,-11.6 116.33,22.8 116.33,60"
         style="fill:#ed1e79;fill-opacity:1;fill-rule:nonzero;stroke:none"
         id="path1030" />
      <path
         d="m 3288.14,3996.9 c 0,0 -4.77,-10.5 -12.03,-26.9 -25.15,-57.1 -9.15,-144.6 -7.88,-159.8 2.54,-30.5 -13.8,-93 -13.8,-93 0,0 -119.46,83.5 -126.22,138.4 l 64.79,198.4 95.14,-57.1"
         style="fill:#fc7575;fill-opacity:1;fill-rule:nonzero;stroke:none"
         id="path1032" />
      <path
         d="m 3193,4054 95.14,-57.1 c 0,0 -4.79,-10.5 -12.03,-26.9 -33.49,9.2 -84.63,26.1 -95.72,45.4 L 3193,4054"
         style="fill:#fd5e5a;fill-opacity:1;fill-rule:nonzero;stroke:none"
         id="path1034" />
      <path
         d="m 3216.01,4215.9 143.7,-79.3 c 0,0 29.82,-0.7 29.82,32.5 0,33.2 -36.6,65.7 -73.88,84.7 -37.28,19 -84.04,27.2 -84.04,27.2 l -15.6,-65.1"
         style="fill:#0e1b29;fill-opacity:1;fill-rule:nonzero;stroke:none"
         id="path1036" />
      <path
         d="m 3268.2,4251.8 c 0,0 55.58,-9.5 70.5,-35.9 14.9,-26.5 18.98,-89.5 33.89,-104.4 14.91,-14.9 27.9,-18.2 27.9,-18.2 0,0 3.95,-6.9 -10.96,-14.3 -14.91,-7.5 -3.62,-15.6 5.65,-15.6 9.26,0 1.47,-17.7 -5.65,-19.7 0,0 9.15,-2.7 7.46,-11.5 -1.7,-8.8 -6.1,-10.5 -6.1,-10.5 0,0 -0.46,-11.6 4.29,-22.4 4.74,-10.8 -6.77,-43 -79.53,-28.8 0,0 -108.13,25.4 -114.57,55.9 -6.42,30.5 -54.53,141.4 -13.54,182.4 41,41 80.66,43 80.66,43"
         style="fill:#fc7575;fill-opacity:1;fill-rule:nonzero;stroke:none"
         id="path1038" />
      <path
         d="m 3218.04,4282.7 c 0,0 13.55,17.6 81.34,-1.7 67.78,-19.3 87.37,-96 87.37,-96 0,0 -43.65,29.5 -71.1,29.5 -27.46,0 -89.56,10.4 -99.64,20.5 -10.08,10.1 2.03,47.7 2.03,47.7"
         style="fill:#1b3753;fill-opacity:1;fill-rule:nonzero;stroke:none"
         id="path1040" />
      <path
         d="m 3232.08,4288.9 c 9.48,0 64.25,-68.3 47.98,-119.1 -16.27,-50.9 -54.89,-28.2 -79.3,-41.7 -24.41,-13.6 4.72,-76.3 0.32,-101.7 -4.39,-25.4 -72.87,-170.8 -72.87,-170.8 0,0 -57.6,307.4 -22.67,364.3 34.92,56.9 126.54,69 126.54,69"
         style="fill:#1b3753;fill-opacity:1;fill-rule:nonzero;stroke:none"
         id="path1042" />
      <path
         d="m 3298.96,4076.7 c 0,-7.5 12.74,-13.7 28.46,-13.7 15.71,0 28.45,6.2 28.45,13.7 0,7.6 -12.74,13.8 -28.45,13.8 -15.72,0 -28.46,-6.2 -28.46,-13.8"
         style="fill:#fd5e5a;fill-opacity:1;fill-rule:nonzero;stroke:none"
         id="path1044" />
      <path
         d="m 3367.35,4136.6 c 0,0 -9.34,-18.8 -47.39,-17.9 l 47.39,17.9"
         style="fill:#1b3753;fill-opacity:1;fill-rule:nonzero;stroke:none"
         id="path1046" />
      <path
         d="m 3355.87,4145.7 c 0,0 -14.12,8.5 -25.08,8.5 -10.96,0 -21.07,-4.4 -21.07,-8.5 0,0 12.01,5.7 21.49,4.3 9.48,-1.5 13.91,-8.8 17.71,-8.8 3.79,0 6.95,4.5 6.95,4.5"
         style="fill:#1b3753;fill-opacity:1;fill-rule:nonzero;stroke:none"
         id="path1048" />
      <path
         d="m 3197.97,4077.3 c 0,0 52.7,-122.2 -53.15,-258.6 -105.85,-136.5 -249.47,-81.3 -268.8,-26 -19.34,55.2 48.3,74.1 48.3,74.1 0,0 -12.9,-62.5 21.47,-59.5 34.38,2.9 46.23,11 32.42,78.3 -13.81,67.3 36.13,40.3 63.61,84.4 27.47,44 0,77.6 0,129.7 0,52 63.72,120.2 63.72,120.2 l 92.43,-142.6"
         style="fill:#1b3753;fill-opacity:1;fill-rule:nonzero;stroke:none"
         id="path1050" />
      <path
         d="m 3208.18,4122 c 0,0 -19.63,42.7 -28.78,33.5 -9.15,-9.1 -13.71,-72.1 18.57,-78.2 32.27,-6.1 10.21,44.7 10.21,44.7"
         style="fill:#fc7575;fill-opacity:1;fill-rule:nonzero;stroke:none"
         id="path1052" />
      <path
         d="m 3206.76,4116.8 c 0,0 -10.11,23.3 -15.59,17.8 -5.48,-5.5 0.42,-42.2 7.79,-42.2 7.38,0 9.59,12.7 7.8,24.4"
         style="fill:#fd5e5a;fill-opacity:1;fill-rule:nonzero;stroke:none"
         id="path1054" />
      <path
         d="m 3357.3,4117.3 c 0,-4.4 -2.01,-7.9 -4.49,-7.9 -2.48,0 -4.48,3.5 -4.48,7.9 0,4.3 2,7.9 4.48,7.9 2.48,0 4.49,-3.6 4.49,-7.9"
         style="fill:#1b3753;fill-opacity:1;fill-rule:nonzero;stroke:none"
         id="path1056" />
      <path
         d="m 2367.8,3833.2 h 444.97 c 20.21,0 36.6,-24.3 36.6,-54.3 v -126.4 c 0,-29.9 -16.39,-54.3 -36.6,-54.3 h -20.15 l 56.75,-171.9 -177.52,171.9 H 2367.8 c -20.21,0 -36.6,24.4 -36.6,54.3 v 126.4 c 0,30 16.39,54.3 36.6,54.3"
         style="fill:#5ca9ff;fill-opacity:1;fill-rule:nonzero;stroke:none"
         id="path1058" />
      <path
         d="m 4451.28,5133.5 c -3.16,0 -6.37,0.9 -9.22,2.7 -13.98,9 -28.44,18 -42.94,26.7 -8.08,4.9 -10.67,15.4 -5.82,23.4 4.85,8.1 15.33,10.7 23.4,5.9 14.81,-9 29.56,-18.1 43.83,-27.3 7.92,-5.1 10.2,-15.7 5.1,-23.6 -3.27,-5.1 -8.75,-7.8 -14.35,-7.8"
         style="fill:#99d7ff;fill-opacity:1;fill-rule:nonzero;stroke:none"
         id="path1060" />
      <path
         d="m 3085.59,5484 h -0.38 c -32.65,0.7 -64.58,1.1 -94.93,1.1 h -5.43 c -9.41,0 -17.05,7.6 -17.05,17 0,9.5 7.64,17.1 17.05,17.1 h 5.43 c 30.6,0 62.8,-0.4 95.68,-1.1 9.41,-0.2 16.87,-8 16.67,-17.4 -0.21,-9.3 -7.8,-16.7 -17.04,-16.7 z m -346.82,-8.3 c -8.79,0 -16.27,6.8 -16.97,15.7 -0.76,9.4 6.25,17.6 15.63,18.4 32.63,2.6 66.67,4.7 101.18,6.2 9.23,0.5 17.37,-6.9 17.79,-16.3 0.41,-9.4 -6.88,-17.3 -16.3,-17.8 -34.1,-1.4 -67.73,-3.5 -99.94,-6.1 z m 592.8,-3.9 -1.39,0.1 c -32.82,2.6 -66.5,4.9 -100.12,6.7 -9.41,0.5 -16.61,8.6 -16.1,18 0.51,9.4 8.33,16.4 17.96,16.1 33.91,-1.9 67.88,-4.1 100.99,-6.8 9.39,-0.8 16.39,-9 15.63,-18.4 -0.71,-8.9 -8.18,-15.7 -16.97,-15.7 z m 244.59,-28.3 -2.61,0.3 c -32.62,4.9 -66.03,9.5 -99.29,13.6 -9.35,1.1 -16,9.6 -14.87,19 1.15,9.3 9.7,15.9 19,14.8 33.6,-4.1 67.36,-8.7 100.33,-13.8 9.31,-1.4 15.7,-10.1 14.27,-19.4 -1.29,-8.4 -8.56,-14.5 -16.83,-14.5 z m -1081.38,-0.4 c -7.99,0 -15.12,5.6 -16.72,13.8 -1.8,9.2 4.23,18.2 13.48,20 32.43,6.3 66.14,12 100.2,16.8 9.24,1.3 17.95,-5.1 19.3,-14.4 1.31,-9.4 -5.16,-18 -14.48,-19.3 -33.48,-4.8 -66.62,-10.4 -98.49,-16.6 -1.11,-0.2 -2.2,-0.3 -3.29,-0.3 z m 1322.92,-47 c -1.34,0 -2.68,0.2 -4.04,0.5 -31.82,7.7 -64.7,15 -97.7,21.8 -9.23,1.9 -15.19,10.9 -13.3,20.1 1.88,9.2 10.88,15.2 20.11,13.3 33.42,-6.8 66.7,-14.3 98.93,-22.1 9.16,-2.2 14.78,-11.4 12.56,-20.6 -1.9,-7.8 -8.87,-13 -16.56,-13 z m -1560.28,-17.5 c -7,0 -13.56,4.3 -16.05,11.3 -3.18,8.8 1.43,18.6 10.29,21.8 31.29,11.2 63.92,21.7 96.97,31.1 9.06,2.6 18.49,-2.7 21.07,-11.7 2.59,-9.1 -2.67,-18.5 -11.73,-21.1 -32.31,-9.2 -64.21,-19.4 -94.79,-30.4 -1.91,-0.7 -3.85,-1 -5.76,-1 z m 1796.25,-52.4 c -1.89,0 -3.82,0.3 -5.7,1 -31.02,11 -62.95,21.5 -94.94,31.3 -9,2.7 -14.07,12.3 -11.32,21.3 2.75,9 12.27,14.1 21.29,11.3 32.45,-9.9 64.88,-20.6 96.37,-31.8 8.87,-3.1 13.52,-12.9 10.38,-21.7 -2.49,-7 -9.07,-11.4 -16.08,-11.4 z M 2034.6,5274.8 c -5.84,0 -11.52,3 -14.71,8.4 -4.77,8.2 -2.07,18.6 6.05,23.4 28.93,17 59.19,33.2 89.95,48.2 8.49,4 18.68,0.5 22.8,-7.9 4.1,-8.5 0.57,-18.7 -7.9,-22.8 -29.95,-14.6 -59.4,-30.3 -87.56,-46.9 -2.71,-1.6 -5.69,-2.4 -8.63,-2.4 z m 2245.74,-44.4 c -2.56,0 -5.14,0.6 -7.58,1.8 -29.35,14.6 -59.81,28.8 -90.5,42.2 -8.64,3.7 -12.6,13.7 -8.85,22.4 3.76,8.6 13.81,12.6 22.43,8.8 31.26,-13.6 62.24,-28 92.1,-42.8 8.44,-4.2 11.87,-14.5 7.68,-22.9 -2.98,-6 -9.02,-9.5 -15.28,-9.5 z M 1836.59,5129.3 c -4.64,0 -9.27,1.9 -12.63,5.6 -6.33,7 -5.8,17.8 1.18,24.1 25.16,22.8 51.56,44.8 78.44,65.4 7.5,5.7 18.18,4.2 23.91,-3.2 5.72,-7.5 4.29,-18.2 -3.2,-23.9 -26.13,-20 -51.78,-41.4 -76.24,-63.6 -3.26,-2.9 -7.36,-4.4 -11.46,-4.4 z m -167.71,-180 c -3.72,0 -7.47,1.2 -10.6,3.7 -7.37,5.9 -8.59,16.6 -2.73,24 21.06,26.5 43.22,52.6 65.89,77.6 6.31,7 17.11,7.5 24.09,1.2 6.98,-6.3 7.51,-17.1 1.19,-24.1 -22.18,-24.5 -43.87,-50 -64.48,-75.9 -3.37,-4.3 -8.34,-6.5 -13.36,-6.5 z m -137.99,-203.6 c -2.87,0 -5.77,0.7 -8.44,2.2 -8.18,4.7 -11.03,15.1 -6.36,23.3 16.71,29.3 34.61,58.5 53.2,86.8 5.18,7.8 15.77,10 23.62,4.8 7.86,-5.1 10.06,-15.7 4.89,-23.6 -18.21,-27.7 -35.73,-56.2 -52.09,-84.9 -3.14,-5.5 -8.9,-8.6 -14.82,-8.6 z m -105.02,-222.5 c -2.02,0 -4.07,0.4 -6.07,1.2 -8.8,3.3 -13.22,13.2 -9.87,22 11.97,31.5 25.17,63.1 39.21,93.9 3.9,8.6 13.99,12.4 22.59,8.5 8.57,-4 12.34,-14 8.45,-22.6 -13.73,-30.2 -26.64,-61.1 -38.37,-92 -2.59,-6.8 -9.07,-11 -15.94,-11 z m -68.95,-236.1 c -1.15,0 -2.3,0.2 -3.47,0.4 -9.22,1.9 -15.15,10.9 -13.24,20.1 6.81,33 14.85,66.3 23.92,99 2.51,9.1 11.91,14.4 20.97,11.9 9.08,-2.5 14.41,-11.9 11.89,-21 -8.86,-32 -16.73,-64.6 -23.39,-96.8 -1.67,-8 -8.76,-13.6 -16.68,-13.6 z m -30.05,-244 h -0.68 c -9.42,0.4 -16.75,8.3 -16.38,17.7 1.32,33.6 3.85,67.8 7.5,101.6 1.02,9.3 9.43,16.1 18.79,15.1 9.37,-1 16.13,-9.4 15.12,-18.8 -3.57,-33 -6.04,-66.4 -7.33,-99.2 -0.36,-9.2 -7.92,-16.4 -17.02,-16.4 z m 11.02,-245.7 c -8.44,0 -15.77,6.2 -16.89,14.8 -1.01,7.7 -1.96,15.5 -2.85,23.2 -2.97,25.9 -5.29,52.2 -6.85,78.3 -0.57,9.4 6.59,17.4 15.99,18 9.3,0.5 17.48,-6.6 18.05,-16 1.53,-25.4 3.78,-51.1 6.69,-76.4 0.87,-7.6 1.8,-15.1 2.78,-22.7 1.23,-9.3 -5.35,-17.9 -14.68,-19.1 z m 53.86,-239.9 c -7.2,0 -13.9,4.6 -16.23,11.8 -10.38,32.2 -19.67,65.2 -27.63,98.2 -2.21,9.1 3.42,18.4 12.57,20.6 9.18,2.1 18.37,-3.5 20.58,-12.6 7.76,-32.1 16.83,-64.3 26.94,-95.8 2.89,-8.9 -2.04,-18.5 -11,-21.4 -1.74,-0.6 -3.49,-0.8 -5.23,-0.8 z M 1488,3331.2 c -6.08,0 -11.96,3.2 -15.04,9 -16.02,29.9 -31.1,60.7 -44.83,91.5 -3.83,8.6 0.03,18.7 8.64,22.5 8.59,3.9 18.69,0 22.51,-8.6 13.4,-30.1 28.11,-60.1 43.74,-89.3 4.46,-8.3 1.33,-18.7 -6.98,-23.1 -2.56,-1.4 -5.32,-2 -8.04,-2 z M 1621.98,3125 c -5.1,0 -10.15,2.3 -13.5,6.6 -20.84,27 -40.89,54.7 -59.59,82.5 -5.26,7.9 -3.18,18.5 4.64,23.7 7.8,5.3 18.4,3.2 23.66,-4.6 18.29,-27.2 37.89,-54.4 58.26,-80.7 5.77,-7.5 4.4,-18.2 -3.06,-24 -3.1,-2.4 -6.77,-3.5 -10.41,-3.5 z m 164.61,-182.7 c -4.26,0 -8.5,1.6 -11.81,4.8 -24.53,23.5 -48.5,47.9 -71.25,72.5 -6.41,6.9 -6,17.7 0.91,24 6.88,6.4 17.69,6.1 24.09,-0.9 22.32,-24 45.83,-47.9 69.87,-71 6.8,-6.6 7.01,-17.4 0.49,-24.2 -3.35,-3.4 -7.83,-5.2 -12.3,-5.2 z m 188.08,-158.5 c -3.53,0 -7.09,1.1 -10.15,3.4 -27.38,20.3 -54.31,41.3 -80.03,62.4 -7.28,6 -8.32,16.8 -2.35,24 5.99,7.3 16.72,8.4 24,2.4 25.28,-20.8 51.76,-41.5 78.7,-61.5 7.56,-5.6 9.15,-16.3 3.54,-23.8 -3.35,-4.5 -8.49,-6.9 -13.71,-6.9 z m 209.72,-129.4 c -2.74,0 -5.52,0.7 -8.09,2 -36.63,19.8 -66.51,36.2 -88.81,48.9 -8.21,4.6 -11.09,15 -6.45,23.2 4.65,8.2 15.06,11.1 23.23,6.4 22.12,-12.5 51.8,-28.8 88.23,-48.4 8.29,-4.5 11.39,-14.9 6.91,-23.2 -3.08,-5.7 -8.96,-8.9 -15.02,-8.9"
         style="fill:#99d7ff;fill-opacity:1;fill-rule:nonzero;stroke:none"
         id="path1062" />
      <path
         d="M 4946.63,4985.5 4444.2,5289.9 4321.18,5164.4 Z"
         style="fill:#0a4cfe;fill-opacity:1;fill-rule:nonzero;stroke:none"
         id="path1064" />
      <path
         d="m 4444.12,4915 7.17,235.5 495.34,-165 z"
         style="fill:#99d7ff;fill-opacity:1;fill-rule:nonzero;stroke:none"
         id="path1066" />
      <path
         d="m 4443.59,5484.8 503.04,-499.3 -502.43,304.4 z"
         style="fill:#99d7ff;fill-opacity:1;fill-rule:nonzero;stroke:none"
         id="path1068" />
      <path
         d="m 4321.18,5164.4 130.11,-13.9 -1.04,-34.2 z"
         style="fill:#0033bf;fill-opacity:1;fill-rule:nonzero;stroke:none"
         id="path1070" />
    </g>
  </g>
</svg>
