<?xml version="1.0" encoding="UTF-8" standalone="no"?>
<svg
   xmlns:dc="http://purl.org/dc/elements/1.1/"
   xmlns:cc="http://creativecommons.org/ns#"
   xmlns:rdf="http://www.w3.org/1999/02/22-rdf-syntax-ns#"
   xmlns:svg="http://www.w3.org/2000/svg"
   xmlns="http://www.w3.org/2000/svg"
   id="svg4153"
   version="1.1"
   viewBox="0 0 297 210"
   height="210mm"
   width="297mm">
  <defs
     id="defs4147">
    <clipPath
       id="clipPath4021"
       clipPathUnits="userSpaceOnUse">
      <path
         id="path4019"
         d="m 3842.23,2925.42 -28.62,14.41 c 6.37,4.01 12.04,8.93 16.81,14.56 l 11.81,-28.97" />
    </clipPath>
    <clipPath
       id="clipPath132"
       clipPathUnits="userSpaceOnUse">
      <path
         id="path130"
         d="m 9084.86,16496 c 0,0 -147.62,-879.9 -159.11,-1076.5 -11.48,-196.5 95.65,-741.8 95.65,-741.8 l -189.29,-7.1 c 0,0 -163.62,554.3 -125.75,714.6 37.88,160.4 -17.34,862.2 -17.34,862.2 l 65.31,264 z" />
    </clipPath>
    <linearGradient
       id="linearGradient140"
       spreadMethod="pad"
       gradientTransform="matrix(-212.261,-2330.17,2330.17,-212.261,8951.86,16523.6)"
       gradientUnits="userSpaceOnUse"
       y2="0"
       x2="1"
       y1="0"
       x1="0">
      <stop
         id="stop136"
         offset="0"
         style="stop-opacity:1;stop-color:#116363" />
      <stop
         id="stop138"
         offset="1"
         style="stop-opacity:1;stop-color:#2c9d9e" />
    </linearGradient>
  </defs>
  <metadata
     id="metadata4150">
    <rdf:RDF>
      <cc:Work
         rdf:about="">
        <dc:format>image/svg+xml</dc:format>
        <dc:type
           rdf:resource="http://purl.org/dc/dcmitype/StillImage" />
        <dc:title></dc:title>
      </cc:Work>
    </rdf:RDF>
  </metadata>
  <g
     style="opacity:0.99"
     transform="translate(0,-87)"
     id="layer1">
    <g
       transform="matrix(0.04812394,0,0,-0.04902099,-341.13667,989.59261)"
       id="g7233">
      <g
         id="g18"
         transform="scale(1.13865)">
        <path
           d="m 9796.91,15850.7 c 0,0 -2431.18,449.3 -2728.56,-556.5 -297.37,-1005.8 621.8,-524.6 459.59,-957.2 -162.21,-432.7 -1308.87,-831.1 -519.26,-1296.7 396.75,-233.9 777.29,141.4 1208.93,516.7 427.4,371.5 904.91,743.1 1497.8,523.3 1191.89,-441.9 1039.29,1129.5 774.49,1418.8 -264.8,289.4 -692.99,351.6 -692.99,351.6"
           style="fill:#d58fff;fill-opacity:1;fill-rule:nonzero;stroke:none"
           id="path20" />
      </g>
      <path
         d="m 8346.48,14899 -134.72,69.8 c -85.66,136.6 -152.1,297 -157.93,470.4 0,0 126.94,8 270.74,-14 l 90.71,-107.8 7.24,88.2 c 70.43,-18 139.04,-45 193.43,-85.2 l 9.81,-176.1 56.14,110.3 c 10.65,-14.9 19.75,-31 27.03,-48.3 112.09,-267.1 194.98,-612.6 194.98,-612.6 l -278.65,-71.9 c 0,0 -172.58,125.1 -328.12,325.3 l 49.34,51.9"
         style="fill:#ad2500;fill-opacity:1;fill-rule:nonzero;stroke:none"
         id="path22" />
      <path
         d="m 8588.02,14635.1 c 76.19,-15.9 124.52,-3.7 141.55,2.1 -115.73,90.5 -227.66,214 -319.1,327.7 -4.12,-1.2 -8.22,-2.4 -12.29,-3.4 -75.98,-19.6 -143.69,-3 -194.97,21.1 -2.91,4.8 -5.79,9.5 -8.65,14.4 52.79,-27.4 126.5,-48.8 209.8,-24.4 -26.69,33.4 -52.5,67 -77.88,101.2 -65.84,-8.2 -138.68,14.1 -190.95,35.8 -1.89,4.2 -3.76,8.4 -5.6,12.6 50.61,-21.9 124.51,-46.5 190.33,-40 -128.76,174.5 -218.7,319.2 -219.64,320.8 l -24.79,31.3 28.44,-18.9 c 1.64,-2.8 75.16,-119.9 178.35,-265.1 14.92,77.7 -46.52,242.4 -63.89,286.6 3.34,-0.3 6.7,-0.5 10.1,-0.8 20.34,-51.9 81.99,-219.9 60.8,-295.6 65.47,-91.6 144.83,-195 231,-291 14.32,41.4 -83.45,259.6 -41.5,366.4 25.59,65.2 14.41,130.5 1.3,172.5 3.54,-1.2 7.06,-2.4 10.57,-3.7 12.63,-43.4 21.84,-107.7 -3.41,-172.1 -42.27,-107.6 63.56,-331.4 39.56,-370.3 16.86,-18.7 33.98,-37 51.29,-54.9 12.49,222.1 9.74,229.2 -20.18,308.2 -17.21,45.5 -33.46,88.5 -10.18,127.8 20.22,34.1 15.35,90.1 6.64,134.3 3.51,-1.8 7,-3.6 10.46,-5.5 8.08,-44.4 11.39,-98.6 -9.27,-133.4 -37.1,-62.6 37.67,-138 37.94,-231.9 0.25,-85 -5.79,-190.9 -6.82,-208.3 35.44,-36.3 71.68,-70.6 108.26,-101.7 8.66,12.1 43.35,69.4 5.58,161.3 -30.68,74.7 16.49,191.9 50.39,260.3 1.5,-4.1 2.98,-8.1 4.46,-12.2 -32.68,-68 -74.34,-176.8 -46.44,-244.6 40.33,-98.2 2.34,-158.1 -7.02,-170.7 44.07,-37 88.61,-69.4 132.83,-95.1 l -12.38,-3.2 c -7.81,4.7 -15.63,9.6 -23.44,14.6 -31.61,-19.6 -86.36,-27.6 -149.36,-2.1 -38.19,15.4 -73.35,9.7 -100.91,-1.8 -2.48,2.1 -5,4.3 -7.57,6.6 29.9,13.3 69.04,20.9 111.92,3.6 71.64,-29 121.15,-9.2 137.38,-0.7 -17.62,11.7 -35.21,24.4 -52.72,37.8 -42.54,-17.9 -105.37,-14.2 -151.88,-4.4 -30,6.3 -58.45,4.2 -83.42,-1.6 -2.61,2.4 -5.24,4.8 -7.9,7.3 27.46,7.2 59.37,10.2 93.21,3.1"
         style="fill:#a7cbd3;fill-opacity:1;fill-rule:nonzero;stroke:none"
         id="path24" />
      <path
         d="m 8658.12,15207.9 v 0 l 23.78,46.7 -23.78,-46.7"
         style="fill:#957fcd;fill-opacity:1;fill-rule:nonzero;stroke:none"
         id="path26" />
      <path
         d="m 8903.91,14593.7 c 0,0 -108.04,139.2 -188.99,389.1 8.81,29.9 20.48,59.1 31.91,84.5 68.37,-235 157.08,-473.6 157.08,-473.6 m -193.99,404.7 c -19.79,63.2 -37.75,133.2 -51.8,209.5 l 23.78,46.7 c 10.65,-14.9 19.75,-31 27.03,-48.3 0.07,-0.2 0.15,-0.4 0.23,-0.6 10.07,-40.3 21.52,-82.4 33.69,-124.7 -11.37,-24.2 -23.34,-52.8 -32.93,-82.6"
         style="fill:#7b3925;fill-opacity:1;fill-rule:nonzero;stroke:none"
         id="path28" />
      <path
         d="m 8714.92,14982.8 c -1.68,5.2 -3.34,10.4 -5,15.6 9.59,29.8 21.56,58.4 32.93,82.6 1.33,-4.6 2.64,-9.1 3.98,-13.7 -11.43,-25.4 -23.1,-54.6 -31.91,-84.5"
         style="fill:#77a6b0;fill-opacity:1;fill-rule:nonzero;stroke:none"
         id="path30" />
      <path
         d="m 9762.72,15048.2 c -2.17,-0.6 -9.65,0.2 -21.9,1 -54.34,3.6 -202.37,7.2 -394.61,-108.5 -235.59,-141.8 -384.98,-332.2 -384.98,-332.2 0,0 306.23,19 561.85,131.7 255.61,112.7 239.64,308 239.64,308"
         style="fill:#004a58;fill-opacity:1;fill-rule:nonzero;stroke:none"
         id="path32" />
      <path
         d="m 8986.35,14637.1 c 137.86,158.1 363.54,344.2 580.34,396.4 -12.39,-139.4 -49.43,-248.1 -156.17,-336.5 -180.16,-60.1 -360.05,-81.8 -424.62,-88.1 -0.02,8.7 0.11,18.1 0.45,28.2"
         style="fill:#003842;fill-opacity:1;fill-rule:nonzero;stroke:none"
         id="path34" />
      <g
         id="g36"
         transform="scale(1.01554)">
        <path
           d="m 8564.71,15487.2 137.01,-85.4 -103.54,225.6 c 22.07,76.2 49.91,148.8 83.29,214.1 92.12,180.2 269.85,458.5 269.85,458.5 82.72,-95.7 147.3,-192.7 196.66,-289.5 l -89.04,-154.5 136.53,50.1 c 308.8,-768.3 -278.38,-1497.2 -278.38,-1497.2 l -149.47,-38.6 c 0,0 -234.14,629.9 -231.19,842.4 1.23,89.3 10.79,182.8 28.28,274.5"
           style="fill:#ffda88;fill-opacity:1;fill-rule:nonzero;stroke:none"
           id="path38" />
      </g>
      <g
         id="g40"
         transform="scale(1.01526)">
        <path
           d="m 8544.67,15141.2 c -1.87,13.3 -3.31,25.9 -4.3,37.7 53.83,-78.4 190.99,-265.2 295.7,-296.4 0.84,9.5 1.77,19 2.78,28.5 -98.89,10 -229.4,214.4 -299.26,337.1 0.39,11.2 0.91,22.4 1.56,33.6 74.8,-134.7 209.96,-345 299.65,-353 8.58,73.9 21.94,147.2 42.13,213.8 16.59,54.7 29.23,127.3 38.81,209.5 -93.28,39.2 -217.96,276 -279.02,402.8 2.9,7.3 5.87,14.6 8.9,21.7 56.48,-118.5 183.81,-362.5 272.22,-405.9 6.6,60.4 11.63,125.5 15.43,192.2 -91.73,81.8 -167.73,285.7 -200.6,384.7 3.96,7 7.97,14.1 12.01,21.2 28.15,-86.4 102.05,-293.3 189.88,-382.5 17.57,333.8 11.24,694.6 11.05,700.1 l 3.42,13.7 3.27,-13 c 0.22,-6.2 20.78,-459.9 -7.73,-821.4 139.85,-9.5 257.63,117.3 318.05,198.4 1.45,-8.2 2.8,-16.4 4.07,-24.6 -15.32,-19.7 -33.59,-41.4 -54.47,-62.9 -61.86,-63.7 -126.26,-104.6 -189.91,-121 -26.6,-6.8 -53.08,-9.4 -79.19,-7.6 -8.18,-97.9 -19.69,-188 -35.72,-259.3 126.4,-10.4 283.53,78 369.18,134 -0.67,-7.7 -1.41,-15.4 -2.2,-23.1 -62.38,-40 -155.19,-92 -248.82,-116.1 -41.46,-10.7 -83.09,-16 -122.3,-12.3 -2.93,-11.9 -5.99,-23.1 -9.2,-33.7 -86.96,-286.7 -45.73,-701.8 -41.64,-740.3 l -17.53,-4.5 c -1.21,10.9 -25.44,235.4 -6.37,471.8 -100.92,27.4 -225.6,186.3 -289.85,276.8"
           style="fill:#fff7cf;fill-opacity:1;fill-rule:nonzero;stroke:none"
           id="path42" />
      </g>
      <path
         d="m 8914.71,14596.5 v 0 l 46.53,12 v 0 l -46.53,-12 m 268.53,229.8 c 64.69,112.7 140,268.7 190.14,451.2 -50.09,-182.4 -125.27,-338.3 -189.92,-451.1 -0.08,0 -0.14,-0.1 -0.22,-0.1 m 190.17,451.3 c 0.06,0.2 0.12,0.4 0.18,0.6 -0.06,-0.2 -0.13,-0.4 -0.18,-0.6 m 0.38,1.3 c 0.02,0.1 0.04,0.2 0.06,0.3 -0.02,-0.1 -0.04,-0.2 -0.06,-0.3"
         style="fill:#bcc0d7;fill-opacity:1;fill-rule:nonzero;stroke:none"
         id="path44" />
      <path
         d="m 8961.24,14608.5 v 0 l 24.67,6.3 v 0 l -24.67,-6.3"
         style="fill:#2d5b79;fill-opacity:1;fill-rule:nonzero;stroke:none"
         id="path46" />
      <path
         d="m 8985.91,14614.8 v 0 l 69.79,18.1 c 0,0 57.58,71.4 127.54,193.4 0.08,0 0.14,0.1 0.22,0.1 -67.18,-117.2 -122.98,-187.9 -127.41,-193.5 l -70.14,-18.1"
         style="fill:#2d516d;fill-opacity:1;fill-rule:nonzero;stroke:none"
         id="path48" />
      <path
         d="m 8914.71,14596.5 c -0.07,0.4 -22.94,159.2 47.65,349.6 -3.25,-179.6 12.46,-325.1 13.43,-333.9 l 17.79,4.6 c -2.51,23.6 -18.81,187.1 -11.78,377 27.43,61.5 65.13,125.1 116.8,186.9 l 47.42,-44.2 -15.3,80.4 c 13.64,14.4 28.1,28.8 43.45,42.9 l 70.35,-91.1 -15.23,137.8 c 50.4,39.4 108.68,76.6 176.01,110.3 -8.65,-47.3 -19.31,-93.2 -31.45,-137.6 -0.02,-0.1 -0.04,-0.2 -0.06,-0.3 -0.07,-0.2 -0.13,-0.4 -0.2,-0.7 -0.06,-0.2 -0.12,-0.4 -0.18,-0.6 -0.02,-0.1 -0.01,-0.1 -0.03,-0.1 -50.14,-182.5 -125.45,-338.5 -190.14,-451.2 -69.96,-122 -127.54,-193.4 -127.54,-193.4 l -69.79,-18.1 -24.67,-6.3 -46.53,-12"
         style="fill:#bcab94;fill-opacity:1;fill-rule:nonzero;stroke:none"
         id="path50" />
      <path
         d="m 8975.79,14612.2 c -0.97,8.8 -16.68,154.3 -13.43,333.9 5.82,15.7 12.29,31.6 19.44,47.7 -7.03,-189.9 9.27,-353.4 11.78,-377 l -17.79,-4.6"
         style="fill:#bcbcbc;fill-opacity:1;fill-rule:nonzero;stroke:none"
         id="path52" />
      <path
         d="m 8310.82,15006.1 63.25,-123 11.51,102.9 c 43.1,-13.4 86.25,-30 128.06,-50.6 l 27.23,-62.3 28.8,31.6 c 114.33,-69.2 212.81,-173.3 263.85,-329.2 L 8598.9,14515 c 0,0 -540.53,9.3 -690.78,518.9 0,0 190.91,21.1 402.7,-27.8"
         style="fill:#469aa8;fill-opacity:1;fill-rule:nonzero;stroke:none"
         id="path54" />
      <path
         d="m 8743.17,14552.2 -39.2,-10.1 c -314.4,78 -739.07,448.9 -757.67,465.3 l -26.69,24.4 38.73,-10.8 c 4.69,-4.2 472.94,-413.2 784.83,-468.8"
         style="fill:#a7cbd3;fill-opacity:1;fill-rule:nonzero;stroke:none"
         id="path56" />
      <path
         d="m 9119.01,15107.3 40.64,-37.8 -13.11,68.8 c 11.68,12.4 24.08,24.7 37.22,36.8 l 60.27,-78 -13.04,118.1 c 68.33,53.4 153.53,102 259.7,141.5 0,0 58.69,-324.5 -45.92,-501.1 -104.62,-176.5 -330.82,-209.2 -330.82,-209.2 l -152.52,-39.3 c 0,0 -38.5,265.9 157.58,500.2"
         style="fill:#e0aa1a;fill-opacity:1;fill-rule:nonzero;stroke:none"
         id="path58" />
      <path
         d="m 9096.92,14642 -23.05,-5.9 c 276.51,317.6 397.17,693.9 398.39,697.7 l 14.99,15 -2,-19.1 c -1.19,-3.8 -118.94,-371.1 -388.33,-687.7"
         style="fill:#f3dda3;fill-opacity:1;fill-rule:nonzero;stroke:none"
         id="path60" />
      <path
         d="m 8941.8,14605.2 c 0,0 113.75,297.3 261.39,422.5 147.64,125.2 439.45,114.6 439.45,114.6 0,0 -28.69,-60.7 -77.18,-141.1 l -108.87,-12.7 75.16,-41.1 c -79.35,-122 -193.96,-265.2 -319.28,-316.2 -233.73,-95 -270.67,-26 -270.67,-26"
         style="fill:#ad2500;fill-opacity:1;fill-rule:nonzero;stroke:none"
         id="path62" />
      <path
         d="m 8941.8,14605.2 c 0.03,0.1 1.44,3.9 6.11,15.4 38.26,43.3 162.77,181.8 281.55,292.2 4.36,34 -20.16,74.3 -41.01,101.8 3.26,3 6.54,6 9.84,8.9 19.68,-25.7 42.85,-63 44.67,-98.2 5.54,5.1 45.83,39.3 60.45,50.1 5.68,34.7 -19.34,68.5 -42.33,91.4 4.07,2.2 8.19,4.3 12.36,6.4 21.64,-22.3 44.03,-53.6 43.94,-87.7 14.37,10.1 28.87,19.6 43.33,28.4 21.83,30.4 15.39,68.2 6.04,94.8 4.29,1.2 8.59,2.4 12.89,3.6 8.29,-23.7 14.22,-55.7 2.79,-85.5 12.93,7.4 25.74,14.3 38.3,20.7 24.51,43.2 26.51,67.3 24.59,79.2 4.38,0.8 8.74,1.5 13.06,2.2 2.17,-13.4 0.1,-35.9 -17.49,-71.4 90.2,43.5 162.81,66.6 164.02,66.9 l 27.69,7 -26.95,-22.4 c -1.85,-0.5 -172.22,-45.9 -314.95,-159.8 60.85,6.8 131.98,-35.6 173.05,-60.1 6.84,-4.1 14.17,-8.5 19.95,-11.6 -2.59,-3.6 -5.21,-7.2 -7.85,-10.7 -5.01,2.8 -11.15,6.4 -18.85,11 -45.65,27.2 -130.1,77.6 -189.51,52 -7.29,-6.4 -42.94,-39.5 -51.45,-47.6 59.99,4.5 160.86,-47.4 211.81,-76.3 -2.86,-3.4 -5.75,-6.8 -8.65,-10.1 -67.32,37.8 -180.34,91.4 -222.24,68.1 -127.7,-124 -255.16,-258.7 -255.16,-258.7"
         style="fill:#de9c8c;fill-opacity:1;fill-rule:nonzero;stroke:none"
         id="path64" />
      <path
         d="m 10192.5,14547.3 c 0,-44.2 -461.75,-80 -1031.28,-80 -569.53,0 -1031.23,35.8 -1031.23,80 0,44.1 461.7,79.9 1031.23,79.9 569.53,0 1031.28,-35.8 1031.28,-79.9"
         style="fill:#cdbdff;fill-opacity:1;fill-rule:nonzero;stroke:none"
         id="path66" />
      <g
         id="g68"
         transform="scale(1.12644)">
        <path
           d="m 11350.5,14706.4 c -977.7,1043.7 -1955.51,-875.8 -2933.26,167.9 0,108.7 0,217.3 0,326 977.75,-931.8 1955.56,1099.7 2933.26,167.9 0,-220.6 0,-441.2 0,-661.8"
           style="fill:#fd9090;fill-opacity:1;fill-rule:nonzero;stroke:none"
           id="path70" />
      </g>
      <g
         id="g72"
         transform="scale(1.06627)">
        <path
           d="m 10854.4,16246.2 c -310.5,-133.9 -621,-343.2 -931.61,-457.7 0,14.6 0,29.2 0,43.8 310.61,117.8 621.11,330.5 931.61,467.7 0,-17.9 0,-35.9 0,-53.8"
           style="fill:#9173f1;fill-opacity:1;fill-rule:nonzero;stroke:none"
           id="path74" />
      </g>
      <g
         id="g76"
         transform="scale(1.0594)">
        <path
           d="m 10924.9,16258.7 c -251.5,-103.7 -503,-256.6 -754.6,-369.4 0,11.7 0,23.3 0,35 251.6,114.9 503.1,269.9 754.6,375.7 0,-13.8 0,-27.5 0,-41.3"
           style="fill:#9173f1;fill-opacity:1;fill-rule:nonzero;stroke:none"
           id="path78" />
      </g>
      <g
         id="g80"
         transform="scale(1.07625)">
        <path
           d="m 11153.4,15759.1 c -99.4,-3.2 -198.7,-21.9 -298,-50.3 0,170.2 0,340.3 0,510.5 99.3,38.5 198.6,67.3 298,80.7 0,-180.3 0,-360.6 0,-540.9"
           style="fill:#ffffff;fill-opacity:1;fill-rule:nonzero;stroke:none"
           id="path82" />
      </g>
      <g
         id="g84"
         transform="scale(1.05194)">
        <path
           d="m 11002.4,16257.1 c -108.1,-42.1 -216.2,-93.1 -324.3,-146.2 0,13.3 0,26.7 0,40.1 108.1,54 216.2,106 324.3,149 0,-14.3 0,-28.6 0,-42.9"
           style="fill:#9173f1;fill-opacity:1;fill-rule:nonzero;stroke:none"
           id="path86" />
      </g>
      <g
         id="g88"
         transform="scale(1.07195)">
        <path
           d="m 11156,15893.9 c -65.5,-5.9 -130.9,-18 -196.3,-34.9 0,130.4 0,260.7 0,391.1 65.4,21.8 130.8,39 196.3,49.9 0,-135.4 0,-270.7 0,-406.1"
           style="fill:#a98fff;fill-opacity:1;fill-rule:nonzero;stroke:none"
           id="path90" />
      </g>
      <g
         id="g92"
         transform="scale(1.03528)">
        <path
           d="m 10128.4,15886.7 c -103.3,-22.8 -206.65,-33.7 -309.9,-26.8 0,127.2 0,254.5 0,381.8 103.25,3.6 206.6,25 309.9,58.3 0,-137.8 0,-275.5 0,-413.3"
           style="fill:#ffffff;fill-opacity:1;fill-rule:nonzero;stroke:none"
           id="path94" />
      </g>
      <g
         id="g96"
         transform="scale(1.0316)">
        <path
           d="m 10120.8,15990.7 c -68.1,-13.7 -136.12,-21.9 -204.07,-22.9 0,97.9 0,195.8 0,293.7 67.95,6.2 135.97,19.6 204.07,38.5 0,-103.1 0,-206.2 0,-309.3"
           style="fill:#a98fff;fill-opacity:1;fill-rule:nonzero;stroke:none"
           id="path98" />
      </g>
      <g
         id="g100"
         transform="scale(1.07538)">
        <path
           d="m 11854.6,15987.3 c -206.7,187.7 -413.3,252 -619.9,243.8 0,19.5 0,38.9 0,58.4 206.6,10.5 413.2,-51.5 619.9,-237 0,-21.7 0,-43.5 0,-65.2"
           style="fill:#a98fff;fill-opacity:1;fill-rule:nonzero;stroke:none"
           id="path102" />
      </g>
      <g
         id="g104"
         transform="scale(1.06821)">
        <path
           d="m 11920,15987.1 c -208,187.5 -416,251.9 -624,244.5 0,19.6 0,39.2 0,58.7 208,9.7 416,-52.5 624,-237.7 0,-21.9 0,-43.7 0,-65.5"
           style="fill:#a98fff;fill-opacity:1;fill-rule:nonzero;stroke:none"
           id="path106" />
      </g>
      <g
         id="g108"
         transform="scale(1.04345)">
        <path
           d="m 9695.49,15872.4 c -27.6,37.4 -55.2,75.4 -82.7,114.1 8.53,-1.3 17.06,-2.5 25.68,-3.6 25.49,-3.2 46.19,11.9 46.19,32 0,13.3 0,26.5 0,39.8 0,20.2 -20.7,37.1 -46.19,39.5 -148.11,13.8 -296.22,68.7 -444.31,182.3 -25.54,19.6 -46.24,23.5 -46.24,6.3 0,-11.3 0,-22.6 0,-33.9 0,-17.1 20.7,-49.6 46.24,-70 70.58,-56.3 141.18,-99.3 211.77,-130.8 96.52,-75.5 193.06,-132.5 289.56,-175.7"
           style="fill:#cdbdff;fill-opacity:1;fill-rule:nonzero;stroke:none"
           id="path110" />
      </g>
      <g
         id="g112"
         transform="scale(1.04573)">
        <path
           d="m 11047,16261.7 c 0,-0.1 12,21.7 35.7,30.5 21.1,7.8 35.6,-5 35.6,-25.7 0,-24.1 -19.9,-58.7 -71.3,-101.6 -51.4,5.4 -71.2,24.3 -71.2,47.7 0,20.1 14.5,43.5 35.6,52.1 23.6,9.5 35.6,-3 35.6,-3"
           style="fill:#a98fff;fill-opacity:1;fill-rule:nonzero;stroke:none"
           id="path114" />
      </g>
      <g
         id="g116"
         transform="scale(1.06486)">
        <path
           d="m 8569.79,16300 251.52,-284.9 -104.92,-180.8 -124.05,218.5 -22.55,247.2"
           style="fill:#f15a24;fill-opacity:1;fill-rule:nonzero;stroke:none"
           id="path118" />
      </g>
      <path
         d="m 9392.7,14850.8 c -9.91,-10.5 68.47,-204.8 68.47,-204.8 l -109.42,-31.2 -54.44,228 95.39,8"
         style="fill:#fc7575;fill-opacity:1;fill-rule:nonzero;stroke:none"
         id="path120" />
      <g
         id="g122"
         transform="scale(1.01501)">
        <path
           d="m 8998.46,16298.5 61.46,-94.7 c 0,0 82.62,-774.5 102.72,-861.7 20.07,-87.2 129.26,-823.2 129.26,-823.2 l -113.34,-42 c 0,0 -215.53,609.7 -204.7,690.4 10.83,80.7 -245.99,832.5 -245.99,832.5 l 256.67,300.2 13.92,-1.5"
           style="fill:#47545c;fill-opacity:1;fill-rule:nonzero;stroke:none"
           id="path124" />
      </g>
      <g
         id="g126">
        <g
           id="g128"
           clip-path="url(#clipPath132)">
          <g
             id="g134"
             transform="scale(1.01297)">
            <path
               d="m 8968.57,16284.8 c 0,0 -145.73,-868.6 -157.08,-1062.7 -11.33,-194 94.43,-732.3 94.43,-732.3 l -186.87,-7 c 0,0 -161.52,547.2 -124.14,705.5 37.4,158.3 -17.12,851.1 -17.12,851.1 l 64.48,260.6 326.3,-15.2"
               style="fill:url(#linearGradient140);fill-opacity:1;fill-rule:nonzero;stroke:none"
               id="path142" />
          </g>
        </g>
      </g>
      <path
         d="m 8865.38,14693.5 c 0,0 3.8,-70.6 6.38,-118.6 2.58,-48.1 -19.12,-87.2 47.92,-94.3 67.04,-7 136.82,13 142.05,44.3 5.24,31.4 -64.21,102 -65.88,133.1 -1.67,31.1 -21.35,43 -31.9,32.6 -10.56,-10.3 -98.57,2.9 -98.57,2.9"
         style="fill:#095270;fill-opacity:1;fill-rule:nonzero;stroke:none"
         id="path144" />
      <path
         d="m 8875.73,14500.9 c 11.98,-11 28.53,-12.1 46.65,-12.1 38.6,-0.1 122.87,5.2 139.35,36.1 1.43,-8.4 -3.41,-17.1 -9.57,-23.8 -45.5,-46.2 -168.55,-39.4 -176.43,-0.2"
         style="fill:#acfcdd;fill-opacity:1;fill-rule:nonzero;stroke:none"
         id="path146" />
      <path
         d="m 8986.74,14618.2 c 1.33,-29.9 -44.48,-56.8 -61.27,-30.3 -0.26,0.4 -23.5,65.9 -25.63,85.9 -1.27,12 -10.13,32.5 20.49,38.4 30.39,5.8 53,-4.7 53.58,-15.4 0.38,-7.1 10.84,-33.6 12.83,-78.6"
         style="fill:#9dbac6;fill-opacity:1;fill-rule:nonzero;stroke:none"
         id="path148" />
      <path
         d="m 8917.75,14599.6 c 0,0 -1.98,87.4 -16.14,90.4 -14.15,2.9 -36.23,3.5 -36.23,3.5 0,0 11.85,-87.8 29.24,-101.9 17.4,-14.1 23.13,8 23.13,8"
         style="fill:#095270;fill-opacity:1;fill-rule:nonzero;stroke:none"
         id="path150" />
      <path
         d="m 8993.88,14666.3 c 0.06,-1.1 -0.45,-2.2 -1.47,-2.9 -38.43,-28 -94.75,-4 -97.13,-3 -1.98,0.9 -2.82,3 -1.84,4.8 0.96,1.8 3.36,2.5 5.34,1.6 0.54,-0.2 54.14,-23 88.58,2.1 1.71,1.2 4.23,1 5.62,-0.5 l 0.9,-2.1"
         style="fill:#acfcdd;fill-opacity:1;fill-rule:nonzero;stroke:none"
         id="path152" />
      <path
         d="m 8998.09,14631.4 c 0.05,-1 -0.41,-2.1 -1.38,-2.9 -23.73,-18.3 -91.05,-2.6 -93.9,-1.9 -2.13,0.5 -3.39,2.5 -2.84,4.3 0.58,2 2.76,3.1 4.89,2.6 18.31,-4.4 69.57,-12.7 86.62,0.4 1.67,1.3 4.19,1.1 5.64,-0.3 l 0.97,-2.2"
         style="fill:#acfcdd;fill-opacity:1;fill-rule:nonzero;stroke:none"
         id="path154" />
      <path
         d="m 9002.1,14606.3 c 0.05,-0.9 -0.29,-1.8 -1.04,-2.6 -18.69,-18.3 -90.37,-6.5 -98.49,-5.1 -2.15,0.4 -3.58,2.2 -3.15,4.2 0.42,1.9 2.51,3.1 4.68,2.8 20.82,-3.6 77.76,-10.1 91.06,2.9 1.48,1.5 4,1.6 5.64,0.3 0.81,-0.7 1.25,-1.6 1.3,-2.5"
         style="fill:#acfcdd;fill-opacity:1;fill-rule:nonzero;stroke:none"
         id="path156" />
      <path
         d="m 9472.43,14629.8 c 27.31,-16.8 49.92,10 49.65,10.4 -27.06,41 -42.18,78 -48.6,86.9 -7.16,9.9 -17.14,23.2 -42.06,9.8 -24.93,-13.5 -46.01,-42.5 -36.31,-48.5 6.47,-4 36.23,-33.5 77.32,-58.6"
         style="fill:#9dbac6;fill-opacity:1;fill-rule:nonzero;stroke:none"
         id="path158" />
      <path
         d="m 9300.5,14549.7 c 0,0 65.73,-0.8 111.74,-1.3 46.01,-0.6 119.33,-6.4 142.34,-6.6 23,-0.3 106.99,47.1 101.76,63 -5.24,15.9 -80.89,12.8 -120.06,31 -39.17,18.3 -90.68,72.1 -108.36,71.2 -14.78,-0.8 -90.58,-15.6 -103.9,-27.3 -13.33,-11.7 -34.86,-119.5 -23.52,-130"
         style="fill:#095270;fill-opacity:1;fill-rule:nonzero;stroke:none"
         id="path160" />
      <path
         d="m 9636.72,14614.8 h -0.05 c -17.71,-4.3 -48.3,-35.9 -94.12,-46.5 -35.62,-8.3 -181.02,8.6 -244.03,16.5 -1.92,-17.7 -1.75,-31.7 1.98,-35.1 0,0 65.73,-0.8 111.74,-1.3 46.01,-0.6 119.33,-6.4 142.34,-6.6 23,-0.3 106.99,47.1 101.76,63 -1.52,4.6 -8.92,7.6 -19.62,10"
         style="fill:#acfcdd;fill-opacity:1;fill-rule:nonzero;stroke:none"
         id="path162" />
      <path
         d="m 9492.11,14613 -0.65,2.1 c 4.99,26.7 41.74,27.7 43.3,27.7 1.3,0 2.65,-1 3,-2.3 0.36,-1.3 -0.41,-2.4 -1.71,-2.4 -0.35,0 -35.3,-0.9 -39.78,-24.8 -0.22,-1.2 -1.48,-1.8 -2.81,-1.2 l -1.35,0.9"
         style="fill:#acfcdd;fill-opacity:1;fill-rule:nonzero;stroke:none"
         id="path164" />
      <path
         d="m 9474.38,14632.4 -0.67,2 c 2.6,17.1 40.66,25.9 42.27,26.2 1.21,0.3 2.67,-0.5 3.28,-1.8 0.6,-1.2 0.11,-2.5 -1.11,-2.7 -10.38,-2.4 -37.73,-11.2 -39.6,-23.4 -0.19,-1.2 -1.42,-1.8 -2.75,-1.3 l -1.42,1"
         style="fill:#acfcdd;fill-opacity:1;fill-rule:nonzero;stroke:none"
         id="path166" />
      <path
         d="m 9461.17,14646 -0.69,1.8 c 0.28,15.8 38.56,28 42.93,29.3 1.16,0.4 2.65,-0.3 3.34,-1.6 0.68,-1.2 0.29,-2.5 -0.88,-2.9 -11.2,-3.4 -40.3,-14.8 -40.5,-26 -0.02,-1.3 -1.14,-2 -2.48,-1.7 l -1.72,1.1"
         style="fill:#acfcdd;fill-opacity:1;fill-rule:nonzero;stroke:none"
         id="path168" />
      <path
         d="m 8903.37,14564.3 c 0,0 -14.61,-46 -4.36,-54.3 10.25,-8.3 137,-1.2 135.94,18.3 -1.05,19.6 -31.72,56.9 -43.18,59.4 -11.47,2.5 -88.4,-23.4 -88.4,-23.4"
         style="fill:#3a758d;fill-opacity:1;fill-rule:nonzero;stroke:none"
         id="path170" />
      <g
         id="g172"
         transform="scale(1.06893)">
        <path
           d="m 8438.16,16280.2 c 79.14,-16.4 147.5,-68.6 178.32,-143.4 6.87,-16.6 11.47,-33.3 11.47,-48.2 0,-59.6 -29.21,-270.6 -29.21,-377.1 0,-106.5 34.96,-490 34.96,-490 0,0 -152.25,-19 -348.48,21.2 -105.01,21.5 -162.76,-25.7 -162.76,-25.7 0,0 51.87,466.3 83.56,673.6 31.68,207.4 -7.52,347.9 19.01,379 18.48,21.7 117.36,30.4 213.13,10.6"
           style="fill:#f57408;fill-opacity:1;fill-rule:nonzero;stroke:none"
           id="path174" />
      </g>
      <g
         id="g176"
         transform="scale(1.03287)">
        <path
           d="m 8454.24,16159.3 v 0 c 5.94,48.1 12.01,95.9 17.89,140.7 h 0.01 c -5.89,-44.8 -11.96,-92.6 -17.9,-140.7"
           style="fill:#ca799e;fill-opacity:1;fill-rule:nonzero;stroke:none"
           id="path178" />
      </g>
      <g
         id="g180"
         transform="scale(1.03287)">
        <path
           d="m 8618.39,16070 c -4.82,0 -9.57,0.1 -14.27,0.4 -56.27,3.2 -108.27,43.1 -149.88,88.9 5.94,48.1 12.01,95.9 17.9,140.7 h 19.16 c 0,0 131.94,-99.6 189.32,-99.6 40.43,0 152.6,43.4 218.3,54.3 0.22,-24.2 1.9,-59.8 4.42,-101.2 -58.05,-28.2 -184.59,-83.5 -284.95,-83.5"
           style="fill:#dd6907;fill-opacity:1;fill-rule:nonzero;stroke:none"
           id="path182" />
      </g>
      <g
         id="g184"
         transform="scale(1.0975)">
        <path
           d="m 8270.78,16300 c 0,0 73.12,-69.1 91.77,-120.1 19.2,-52.5 46.37,-136.8 46.37,-136.8 l -23.84,-3.1 c 0,0 -10.88,-50.3 -4.88,-82 6,-31.7 -48.08,-18.5 -77.22,-22.4 -29.15,-3.8 -98.8,12.8 -141.22,100.7 -42.4,87.9 -119.5,244.4 109.02,263.7"
           style="fill:#fc7575;fill-opacity:1;fill-rule:nonzero;stroke:none"
           id="path186" />
      </g>
      <g
         id="g188"
         transform="scale(1.08407)">
        <path
           d="m 8247.72,16043.9 c 13.33,-54 132.62,-96.4 144.13,-68.1 19.67,48.4 6.96,92 4.19,128.6 -0.8,9.6 -1.46,19 -2.11,27.3 l -0.06,0.9 c -0.65,9.8 -1.26,18.2 -1.81,24.5 l 0.02,0.3 c -7.99,12.8 -61.6,99.3 -72.53,116.8 l -1.11,1.8 -0.08,0.3 -0.54,0.7 -0.01,0.1 -0.2,0.3 -10.81,17.4 -3.24,5.2 -1.8,-8.2 -0.69,-3.3 -3.63,-16.6 -6.22,-28.5 -8.5,-39.2 -0.54,-2.3 -34.46,-158"
           style="fill:#fc7575;fill-opacity:1;fill-rule:nonzero;stroke:none"
           id="path190" />
      </g>
      <g
         id="g192"
         transform="scale(1.10498)">
        <path
           d="m 8283.3,16255.2 c 3.54,-4.1 66.77,-90.9 -5.33,-136.7 -72.1,-45.8 -101.31,2.7 -116.4,-31.6 -15.1,-34.3 33.84,-80.2 22.2,-111.3 l -25.29,-8.5 c 0,0 -8.27,14.9 -18.8,13.5 -10.52,-1.4 1.54,-81.4 -15.39,-83.6 -16.93,-2.2 -62.63,61.2 -84.37,90.6 -21.74,29.4 -74.74,131.5 -19.42,167 55.3,35.6 85.58,18.1 80.62,44.3 -4.97,26.3 26.56,2.2 26.56,2.2 0,0 10.74,21.6 -2.68,42.7 -13.43,21.1 58.77,38.7 84.3,-3.7 25.54,-42.4 35.88,59.9 74,15.1"
           style="fill:#210075;fill-opacity:1;fill-rule:nonzero;stroke:none"
           id="path194" />
      </g>
      <g
         id="g196"
         transform="scale(1.08788)">
        <path
           d="m 8285,16264 c 0,0 11.26,-52.5 -1.47,-54.2 -12.7,-1.7 -46.19,24.5 -47.48,56.8 -1.27,32.4 36.23,33.4 48.95,-2.6"
           style="fill:#fc7575;fill-opacity:1;fill-rule:nonzero;stroke:none"
           id="path198" />
      </g>
      <g
         id="g200"
         transform="scale(1.08683)">
        <path
           d="m 8283.09,16284.3 c 0,0 10.31,-20.1 2.57,-30.9 -7.75,-10.8 -30.46,9.6 -23.55,28.1 6.92,18.5 16.69,14.6 20.98,2.8"
           style="fill:#fd5e5a;fill-opacity:1;fill-rule:nonzero;stroke:none"
           id="path202" />
      </g>
      <g
         id="g204"
         transform="scale(1.08797)">
        <path
           d="m 8410.18,16300 4.44,-12.4 c 0,0 -22.86,-0.3 -32.79,-14.2 -9.94,-13.8 -11.38,-15.4 -11.38,-15.4 0,0 1.07,29.6 39.73,42"
           style="fill:#210075;fill-opacity:1;fill-rule:nonzero;stroke:none"
           id="path206" />
      </g>
      <g
         id="g208"
         transform="scale(1.08606)">
        <path
           d="m 8408.36,16286.3 c 1.22,-6.4 6.62,-11.1 12.06,-10.4 5.45,0.7 8.87,6.5 7.65,13 -1.22,6.4 -6.62,11.1 -12.07,10.4 -5.43,-0.7 -8.86,-6.6 -7.64,-13"
           style="fill:#210075;fill-opacity:1;fill-rule:nonzero;stroke:none"
           id="path210" />
      </g>
      <g
         id="g212"
         transform="scale(1.07892)">
        <path
           d="m 8505.46,16278.1 c -7.66,-1 -15.74,-0.4 -22.62,2.5 -3.43,1.6 -6.34,3.8 -8.54,6.5 -2.36,2.6 -3.47,5.9 -4.51,9.2 l -0.13,0.4 c -0.67,2.1 -2.89,3.3 -4.96,2.8 -2.06,-0.6 -3.19,-2.7 -2.52,-4.8 l 0.23,-0.6 c 1.98,-4 4.21,-8 7.77,-11 3.4,-3 7.45,-5 11.54,-6.1 8.27,-2 16.38,-1.2 23.74,1.1"
           style="fill:#210075;fill-opacity:1;fill-rule:nonzero;stroke:none"
           id="path214" />
      </g>
      <g
         id="g216"
         transform="scale(1.09584)">
        <path
           d="m 8405.35,16300 c 1.42,-4.3 -1.65,-12.5 -3.56,-16.3 -10.53,-20 -37.12,-26.1 -54.81,-30.8 2.44,0.2 27.49,-1.3 46.7,7.2 20.85,8.6 31.18,24.7 32.2,39.8 l -20.53,0.1"
           style="fill:#210075;fill-opacity:1;fill-rule:nonzero;stroke:none"
           id="path218" />
      </g>
      <g
         id="g220"
         transform="scale(1.0826)">
        <path
           d="m 8346,16156.9 c 9.85,-7.2 41.56,-21.9 61.1,-30.7 -2.32,29.3 -3.67,53 -3.67,53 0,0 -12.42,-14.7 -74.31,120.8 l -0.02,-0.9 0.01,-0.1 c 0.27,-12.2 3.09,-132.1 16.89,-142.1"
           style="fill:#fd5e5a;fill-opacity:1;fill-rule:nonzero;stroke:none"
           id="path222" />
      </g>
      <g
         id="g224"
         transform="scale(1.08299)">
        <path
           d="m 8490.66,16194.1 c 0,0 8.19,-20.2 10.44,-32.1 2.24,-11.9 -25.06,-29 -53.32,-24.9 -28.26,4.1 -68.85,16.9 -79.71,24.8 -10.87,7.9 -41.51,130.3 -41.51,130.3 l 23.39,7.8 c 0,0 27.2,-78.8 39.08,-87.5 11.89,-8.6 101.63,-18.4 101.63,-18.4"
           style="fill:#210075;fill-opacity:1;fill-rule:nonzero;stroke:none"
           id="path226" />
      </g>
      <g
         id="g228"
         transform="scale(1.0841)">
        <path
           d="m 8440.67,16288.7 c 3.56,-8.4 -4.62,-19.3 -18.27,-24.3 -13.66,-5 -27.61,-2.2 -31.18,6.2 -3.56,8.5 4.62,19.4 18.27,24.4 13.65,5 27.61,2.2 31.18,-6.3"
           style="fill:#fd5e5a;fill-opacity:1;fill-rule:nonzero;stroke:none"
           id="path230" />
      </g>
      <g
         id="g232"
         transform="scale(1.02772)">
        <path
           d="m 9094.13,16252.9 -328.9,47.1 767.62,-17.7 35.49,-48.9 -474.21,19.5"
           style="fill:#374a4f;fill-opacity:1;fill-rule:nonzero;stroke:none"
           id="path234" />
      </g>
      <g
         id="g236"
         transform="scale(1.0634)">
        <path
           d="m 8235.92,16300 c 0,0 -358.72,-459 -345.85,-546.9 12.86,-87.9 124.35,-62.2 165.09,-21.5 40.74,40.8 212.27,355.9 212.27,355.9 l -31.51,212.5"
           style="fill:#fd5e5a;fill-opacity:1;fill-rule:nonzero;stroke:none"
           id="path238" />
      </g>
      <g
         id="g240"
         transform="scale(1.02772)">
        <path
           d="m 9532.85,16282.3 -767.62,17.7 v -44.4 l 228.51,-22.2 h 574.6 l -35.49,48.9"
           style="fill:#381a3f;fill-opacity:1;fill-rule:nonzero;stroke:none"
           id="path242" />
      </g>
      <g
         id="g244"
         transform="scale(1.05339)">
        <path
           d="m 8774.59,15837.9 60.6,462.1 566.56,-9.7 -58.44,-459.5 -568.72,7.1"
           style="fill:#6f4d77;fill-opacity:1;fill-rule:nonzero;stroke:none"
           id="path246" />
      </g>
      <g
         id="g248"
         transform="scale(1.05339)">
        <path
           d="m 8835.19,16300 -60.6,-462.1 568.72,-7.1 4.88,38.5 c -59.67,-5.1 -329.32,-22.9 -353.53,69.4 -21.11,80.4 85.36,273.4 134.4,356.2 l -293.87,5.1"
           style="fill:#653870;fill-opacity:1;fill-rule:nonzero;stroke:none"
           id="path250" />
      </g>
      <g
         id="g252"
         transform="scale(1.05339)">
        <path
           d="m 8835.19,16300 -60.6,-462.1 568.72,-7.1 -543.42,36.4 35.3,432.8"
           style="fill:#381a3f;fill-opacity:1;fill-rule:nonzero;stroke:none"
           id="path254" />
      </g>
      <g
         id="g256"
         transform="scale(1.02872)">
        <path
           d="m 9257.48,16214.4 c 0,0 -47.34,-40.7 -111.34,-45.7 -64,-5 -110.55,21.6 -128.83,21.6 -18.29,0 -73.97,3.3 -102.24,-5 -28.25,-8.3 -125.48,46.8 -125.48,46.8 0,0 -42.72,58.2 -30.7,61.6 12.02,3.4 68.09,-68.5 82.22,-68.5 14.12,0 -53.2,62.4 -39.07,68.6 14.14,6.2 49.04,-64.4 83.95,-68.6 34.91,-4.2 52.77,2.9 39.07,16.6 -13.72,13.7 -51.54,30.8 -38.24,35.8 13.29,5 361.05,-53.6 370.66,-63.2"
           style="fill:#fc7575;fill-opacity:1;fill-rule:nonzero;stroke:none"
           id="path258" />
      </g>
      <g
         id="g260"
         transform="scale(1.03737)">
        <path
           d="m 8756.21,16280.2 c 0,0 -41.75,19.8 -72.53,19.8 -30.77,0 -79.13,-19.8 -167.04,-19.8 -87.91,0 -390.03,-3.5 -407.36,-51.1 -17.33,-47.7 -55.89,-109.8 22.98,-137.1 78.87,-27.2 463.5,113.5 503.06,122.3 0,0 24.18,-35.2 48.36,-35.2 24.17,0 43.95,1.1 43.95,1.1 0,0 42.31,-6 49.46,1.1 7.15,7.2 30.77,6.6 30.77,6.6 0,0 48.36,-49.4 67.04,-49.4 18.68,0 -26.93,75.2 -42.86,91.2 -15.93,15.9 -75.83,50.5 -75.83,50.5"
           style="fill:#fc7575;fill-opacity:1;fill-rule:nonzero;stroke:none"
           id="path262" />
      </g>
      <g
         id="g264"
         transform="scale(1.06769)">
        <path
           d="m 8321.93,16154.1 c -22.27,-52.5 -160.5,-300.3 -161.6,-299.7 l -205.51,103.6 c 35.66,84.9 90.21,158 150.58,230.4 34.59,41.4 79.68,99.1 140.44,104.3 83.32,7.3 103.91,-73.2 76.09,-138.6"
           style="fill:#f9b406;fill-opacity:1;fill-rule:nonzero;stroke:none"
           id="path266" />
      </g>
      <g
         id="g268"
         transform="scale(1.06652)">
        <path
           d="m 8307.94,16300 c 35.2,-24.3 36.57,-74.3 24.27,-111.1 -8.18,-24.2 -5.06,-13.5 -162.92,-317.1 36.56,53.6 89.9,148.3 120.65,205.4 34.07,64.9 65.3,113.8 53.88,170.4 -4.27,20.6 -16.1,41.9 -35.88,52.4"
           style="fill:#ffda88;fill-opacity:1;fill-rule:nonzero;stroke:none"
           id="path270" />
      </g>
    </g>
  </g>
</svg>
