<?xml version="1.0" encoding="UTF-8" standalone="no"?>
<svg
   xmlns:dc="http://purl.org/dc/elements/1.1/"
   xmlns:cc="http://creativecommons.org/ns#"
   xmlns:rdf="http://www.w3.org/1999/02/22-rdf-syntax-ns#"
   xmlns:svg="http://www.w3.org/2000/svg"
   xmlns="http://www.w3.org/2000/svg"
   viewBox="0 0 1000 666.66669"
   height="666.66669"
   width="1000"
   xml:space="preserve"
   id="svg2"
   version="1.1"><metadata
     id="metadata8"><rdf:RDF><cc:Work
         rdf:about=""><dc:format>image/svg+xml</dc:format><dc:type
           rdf:resource="http://purl.org/dc/dcmitype/StillImage" /><dc:title></dc:title></cc:Work></rdf:RDF></metadata><defs
     id="defs6"><clipPath
       id="clipPath70"
       clipPathUnits="userSpaceOnUse"><path
         id="path68"
         d="M 6310.3,658.988 H 1717.57 V 3985.84 H 6310.3 Z" /></clipPath></defs><g
     transform="matrix(1.3333333,0,0,-1.3333333,0,666.66667)"
     id="g10"><path
       d="m 111.98681,366.74573 h 499.369"
       style="fill:none;stroke:#d5cbc6;stroke-width:1.96781993;stroke-linecap:butt;stroke-linejoin:miter;stroke-miterlimit:10;stroke-dasharray:none;stroke-opacity:1"
       id="path16" /><path
       d="m 604.83481,90.51593 h -486.326 c -3.602,0 -6.522,2.9199 -6.522,6.5207 v 295.9231 c 0,3.601 2.92,6.521 6.522,6.521 h 486.326 c 3.601,0 6.521,-2.92 6.521,-6.521 V 97.03663 c 0,-3.6008 -2.92,-6.5207 -6.521,-6.5207 z"
       style="fill:none;stroke:#d5cbc6;stroke-width:1.96781993;stroke-linecap:butt;stroke-linejoin:miter;stroke-miterlimit:10;stroke-dasharray:none;stroke-opacity:1"
       id="path18" /><path
       d="m 144.89781,382.77873 c 0,-2.522 -2.046,-4.567 -4.568,-4.567 -2.523,0 -4.568,2.045 -4.568,4.567 0,2.523 2.045,4.568 4.568,4.568 2.522,0 4.568,-2.045 4.568,-4.568"
       style="fill:#f79395;fill-opacity:1;fill-rule:nonzero;stroke:none;stroke-width:0.1"
       id="path20" /><path
       d="m 162.64981,382.77873 c 0,-2.522 -2.045,-4.567 -4.568,-4.567 -2.523,0 -4.567,2.045 -4.567,4.567 0,2.523 2.044,4.568 4.567,4.568 2.523,0 4.568,-2.045 4.568,-4.568"
       style="fill:#d5c23e;fill-opacity:1;fill-rule:nonzero;stroke:none;stroke-width:0.1"
       id="path22" /><path
       d="m 180.40281,382.77873 c 0,-2.522 -2.046,-4.567 -4.568,-4.567 -2.523,0 -4.568,2.045 -4.568,4.567 0,2.523 2.045,4.568 4.568,4.568 2.522,0 4.568,-2.045 4.568,-4.568"
       style="fill:#30867a;fill-opacity:1;fill-rule:nonzero;stroke:none;stroke-width:0.1"
       id="path24" /><path
       d="m 676.22781,256.48773 h -117.361 c -3.309,0 -5.991,2.682 -5.991,5.991 v 108.541 c 0,3.309 2.682,5.991 5.991,5.991 h 117.361 c 3.309,0 5.992,-2.682 5.992,-5.991 v -108.541 c 0,-3.309 -2.683,-5.991 -5.992,-5.991"
       style="fill:#e7e5e4;fill-opacity:1;fill-rule:nonzero;stroke:none;stroke-width:0.1"
       id="path26" /><path
       d="m 676.22781,256.48773 h -117.361 c -3.309,0 -5.991,2.682 -5.991,5.991 v 108.541 c 0,3.309 2.682,5.991 5.991,5.991 h 117.361 c 3.309,0 5.992,-2.682 5.992,-5.991 v -108.541 c 0,-3.309 -2.683,-5.991 -5.992,-5.991 z"
       style="fill:none;stroke:#d5cbc6;stroke-width:1.96781993;stroke-linecap:butt;stroke-linejoin:miter;stroke-miterlimit:10;stroke-dasharray:none;stroke-opacity:1"
       id="path28" /><path
       d="m 587.23981,287.83973 h 60.998 c 3.326,0 6.023,2.696 6.023,6.022 v 49.991 c 0,3.325 -2.697,6.021 -6.023,6.021 h -60.998 c -3.325,0 -6.021,-2.696 -6.021,-6.021 v -49.991 c 0,-3.326 2.696,-6.022 6.021,-6.022"
       style="fill:#af61b7;fill-opacity:1;fill-rule:nonzero;stroke:none;stroke-width:0.1"
       id="path30" /><path
       d="m 634.40081,308.54273 h -33.707 v 22.605 h 33.707 v -5.651 z"
       style="fill:none;stroke:#ffffff;stroke-width:1.64660001;stroke-linecap:round;stroke-linejoin:round;stroke-miterlimit:10;stroke-dasharray:none;stroke-opacity:1"
       id="path32" /><path
       d="m 600.69381,331.14773 16.854,-13.282 16.853,13.282"
       style="fill:none;stroke:#ffffff;stroke-width:1.64660001;stroke-linecap:round;stroke-linejoin:round;stroke-miterlimit:10;stroke-dasharray:none;stroke-opacity:1"
       id="path34" /><path
       d="M 159.75981,165.59873 H 47.833913 c -3.1555,0 -5.7129,2.558 -5.7129,5.714 v 97.584 c 0,3.155 2.5574,5.713 5.7129,5.713 H 159.75981 c 3.155,0 5.714,-2.558 5.714,-5.713 v -97.584 c 0,-3.156 -2.559,-5.714 -5.714,-5.714"
       style="fill:#e7e5e4;fill-opacity:1;fill-rule:nonzero;stroke:none;stroke-width:0.1"
       id="path36" /><path
       d="M 159.75981,165.59873 H 47.833913 c -3.1555,0 -5.7129,2.558 -5.7129,5.714 v 97.584 c 0,3.155 2.5574,5.713 5.7129,5.713 H 159.75981 c 3.155,0 5.714,-2.558 5.714,-5.713 v -97.584 c 0,-3.156 -2.559,-5.714 -5.714,-5.714 z"
       style="fill:none;stroke:#d5cbc6;stroke-width:1.96781993;stroke-linecap:butt;stroke-linejoin:miter;stroke-miterlimit:10;stroke-dasharray:none;stroke-opacity:1"
       id="path38" /><path
       d="M 132.53081,186.60073 H 74.481913 c -3.6668,0 -6.6394,2.972 -6.6394,6.639 v 56.061 c 0,3.667 2.9726,6.639 6.6394,6.639 h 58.048897 c 3.667,0 6.64,-2.972 6.64,-6.639 v -56.061 c 0,-3.667 -2.973,-6.639 -6.64,-6.639"
       style="fill:#f79395;fill-opacity:1;fill-rule:nonzero;stroke:none;stroke-width:0.1"
       id="path40" /><path
       d="m 122.09681,221.80173 h -8.669 c -0.047,2.606 -0.386,5.213 -1.031,7.818 h 7.361 c 1.329,-2.332 2.157,-4.987 2.339,-7.818 z m -2.339,-10.177 h -7.594 c 0.686,2.607 1.101,5.212 1.228,7.819 h 8.705 c -0.182,-2.832 -1.009,-5.487 -2.339,-7.819 z m -10.776,-8.488 c 0.989,2.043 1.82,4.086 2.486,6.13 h 6.688 c -2.321,-2.901 -5.51,-5.075 -9.174,-6.13 z m -5.04,-0.708 c -0.808,0 -1.604,0.053 -2.383,0.155 -1.112,2.228 -2.058997,4.455 -2.820997,6.683 h 10.406997 c -0.762,-2.228 -1.709,-4.455 -2.819,-6.683 -0.781,-0.102 -1.576,-0.155 -2.384,-0.155 z m -14.213997,6.838 h 6.688 c 0.666,-2.043 1.497,-4.087 2.485,-6.13 -3.663,1.055 -6.853,3.229 -9.173,6.13 z m -1.602,2.358 c -1.33,2.332 -2.1579,4.987 -2.3392,7.819 h 8.7052 c 0.127,-2.606 0.541,-5.212 1.228,-7.819 z m 0,17.995 h 7.361 c -0.645,-2.605 -0.984,-5.212 -1.031,-7.818 h -8.6692 c 0.1813,2.831 1.0092,5.486 2.3392,7.818 z m 10.528,8.415 c -1.024,-2.018 -1.854,-4.038 -2.499,-6.056 h -6.427 c 2.268,2.835 5.366,4.976 8.926,6.056 z m 5.287997,0.782 c 0.97,0 1.921,-0.077 2.849,-0.222 1.236,-2.206 2.204,-4.411 2.924,-6.616 H 98.168813 c 0.72,2.205 1.688,4.41 2.923997,6.616 0.928,0.145 1.88,0.222 2.849,0.222 z m 7.326,-19.373 c -0.178,-2.606 -0.65,-5.212 -1.386,-7.819 H 98.000813 c -0.735,2.606 -1.207,5.212 -1.385,7.819 z m -14.730997,2.358 c 0.003,2.606 0.31,5.213 0.955,7.818 h 12.899997 c 0.645,-2.605 0.952,-5.212 0.955,-7.818 z m 21.618997,10.177 h -6.427 c -0.645,2.018 -1.475,4.038 -2.499,6.056 3.56,-1.08 6.658,-3.221 8.926,-6.056 z m -28.473997,2.904 c -7.8319,-7.832 -7.8319,-20.688 0,-28.521 7.832,-7.832 20.687997,-7.832 28.519997,0 7.832,7.833 7.832,20.689 0,28.521 -7.832,7.832 -20.687997,7.832 -28.519997,0"
       style="fill:#ffffff;fill-opacity:1;fill-rule:nonzero;stroke:none;stroke-width:0.1"
       id="path42" /><path
       d="M 153.08881,427.99173 H 51.690513 c -2.0945,0 -3.7929,1.698 -3.7929,3.793 v 0 c 0,2.094 1.6984,3.793 3.7929,3.793 H 153.08881 c 2.095,0 3.793,-1.699 3.793,-3.793 v 0 c 0,-2.095 -1.698,-3.793 -3.793,-3.793"
       style="fill:#af61b7;fill-opacity:1;fill-rule:nonzero;stroke:none;stroke-width:0.1"
       id="path44" /><path
       d="m 680.35981,180.30773 h -49.215 c -2.094,0 -3.793,1.698 -3.793,3.793 v 0 c 0,2.094 1.699,3.793 3.793,3.793 h 49.215 c 2.095,0 3.793,-1.699 3.793,-3.793 v 0 c 0,-2.095 -1.698,-3.793 -3.793,-3.793"
       style="fill:#62cbcf;fill-opacity:1;fill-rule:nonzero;stroke:none;stroke-width:0.1"
       id="path46" /><path
       d="m 645.89081,136.43073 h -6.013 c -1.58,0 -2.862,1.281 -2.862,2.861 v 5.646 c 0,1.58 1.282,2.86 2.862,2.86 h 6.013 c 1.581,0 2.862,-1.28 2.862,-2.86 v -5.646 c 0,-1.58 -1.281,-2.861 -2.862,-2.861"
       style="fill:#af61b7;fill-opacity:1;fill-rule:nonzero;stroke:none;stroke-width:0.1"
       id="path48" /><path
       d="m 75.844013,110.15263 h -6.014 c -1.5801,0 -2.861,1.2813 -2.861,2.8609 v 5.6454 c 0,1.5796 1.2809,2.8617 2.861,2.8617 h 6.014 c 1.5801,0 2.8614,-1.2821 2.8614,-2.8617 v -5.6454 c 0,-1.5796 -1.2813,-2.8609 -2.8614,-2.8609"
       style="fill:#f79395;fill-opacity:1;fill-rule:nonzero;stroke:none;stroke-width:0.1"
       id="path50" /><path
       d="m 536.11881,431.90973 h -100.083 c -1.664,0 -3.013,1.348 -3.013,3.012 v 24.436 c 0,1.663 1.349,3.011 3.013,3.011 h 100.083 c 1.664,0 3.012,-1.348 3.012,-3.011 v -24.436 c 0,-1.664 -1.348,-3.012 -3.012,-3.012"
       style="fill:#f79395;fill-opacity:1;fill-rule:nonzero;stroke:none;stroke-width:0.1"
       id="path52" /><path
       d="m 447.47581,451.51573 h 71.178"
       style="fill:none;stroke:#ffffff;stroke-width:1.18031001;stroke-linecap:butt;stroke-linejoin:miter;stroke-miterlimit:10;stroke-dasharray:none;stroke-opacity:1"
       id="path54" /><path
       d="m 447.47581,444.21073 h 28.993"
       style="fill:none;stroke:#ffffff;stroke-width:1.18031001;stroke-linecap:butt;stroke-linejoin:miter;stroke-miterlimit:10;stroke-dasharray:none;stroke-opacity:1"
       id="path56" /><path
       d="m 444.58081,435.35573 v -11.871 l 14.93,11.871 z"
       style="fill:#f79395;fill-opacity:1;fill-rule:nonzero;stroke:none;stroke-width:0.1"
       id="path58" /><path
       d="m 290.22581,430.09773 h -48.448 c -4.706,0 -8.52,3.815 -8.52,8.52 v 45.042 c 0,3.568 2.892,6.46 6.459,6.46 h 50.509 c 3.567,0 6.459,-2.892 6.459,-6.46 v -47.102 c 0,-3.568 -2.892,-6.46 -6.459,-6.46"
       style="fill:#62cbcf;fill-opacity:1;fill-rule:nonzero;stroke:none;stroke-width:0.1"
       id="path60" /><path
       d="m 278.28981,452.31673 c -0.258,-0.258 -0.516,-0.516 -0.774,-0.774 -0.452,-0.387 -0.838,-0.839 -1.29,-1.29 -0.645,-0.645 -1.355,-0.968 -2.322,-0.968 -0.129,0 -0.193,0 -0.322,0 -1.935,0.129 -3.741,0.903 -5.031,1.548 -3.676,1.806 -6.901,4.321 -9.609,7.546 -2.193,2.645 -3.676,5.16 -4.709,7.804 -0.644,1.548 -0.903,2.773 -0.773,3.999 0.064,0.709 0.322,1.354 0.903,1.87 l 2.193,2.193 c 0.193,0.193 0.515,0.451 0.902,0.451 0.387,0 0.645,-0.193 0.903,-0.451 0.387,-0.387 0.774,-0.774 1.161,-1.161 0.194,-0.194 0.387,-0.451 0.645,-0.645 l 1.806,-1.806 c 0.193,-0.193 0.451,-0.58 0.451,-0.903 0,-0.387 -0.258,-0.709 -0.451,-0.902 -0.194,-0.194 -0.387,-0.388 -0.581,-0.581 -0.58,-0.581 -1.096,-1.096 -1.612,-1.612 0,0 0,0 -0.064,-0.065 -0.645,-0.645 -0.516,-1.226 -0.387,-1.612 v -0.065 c 0.451,-1.161 1.161,-2.192 2.128,-3.483 1.806,-2.257 3.741,-3.998 5.869,-5.353 0.258,-0.193 0.58,-0.322 0.838,-0.451 0.258,-0.129 0.452,-0.194 0.645,-0.323 l 0.065,-0.064 c 0.644,-0.322 1.289,-0.193 1.806,0.322 l 2.257,2.258 c 0.193,0.193 0.516,0.451 0.903,0.451 0.323,0 0.645,-0.258 0.838,-0.451 l 3.612,-3.612 c 0.581,-0.58 0.581,-1.225 0,-1.87 z m 1.483,3.353 -3.611,3.612 c -0.645,0.71 -1.484,1.097 -2.322,1.097 -0.839,0 -1.677,-0.387 -2.322,-1.033 l -2.064,-2.063 c -0.129,0.064 -0.258,0.129 -0.387,0.193 -0.258,0.129 -0.451,0.194 -0.645,0.323 -1.935,1.225 -3.676,2.838 -5.353,4.902 -0.774,0.967 -1.354,1.869 -1.677,2.643 0.517,0.452 0.968,0.968 1.419,1.419 0.194,0.194 0.387,0.388 0.581,0.581 0.709,0.709 1.096,1.548 1.096,2.386 0,0.839 -0.387,1.677 -1.096,2.387 l -1.806,1.805 c -0.194,0.194 -0.387,0.387 -0.581,0.645 -0.386,0.387 -0.838,0.838 -1.225,1.226 -0.645,0.645 -1.483,1.031 -2.322,1.031 -0.838,0 -1.612,-0.322 -2.321,-1.031 l -2.258,-2.258 c -0.838,-0.838 -1.354,-1.935 -1.483,-3.16 -0.129,-1.935 0.387,-3.74 0.838,-4.902 1.032,-2.966 2.644,-5.61 5.031,-8.448 2.902,-3.418 6.32,-6.128 10.319,-8.062 1.483,-0.709 3.547,-1.548 5.805,-1.741 0.128,0 0.257,0 0.451,0 1.548,0 2.838,0.58 3.869,1.677 0,0 0,0 0.065,0.064 0.323,0.387 0.709,0.774 1.161,1.161 0.258,0.258 0.581,0.58 0.838,0.838 1.355,1.419 1.355,3.354 0,4.708"
       style="fill:#ffffff;fill-opacity:1;fill-rule:nonzero;stroke:none;stroke-width:0.1"
       id="path62" /><g
       transform="matrix(0.1,0,0,0.1,-13.771187,25.42373)"
       id="g64"><g
         id="g66"
         clip-path="url(#clipPath70)"><path
           d="m 5147.45,1774.18 -365.02,48.6 2.85,-36.25 -312.09,-41.55 c 0,0 -201.16,-504.7 -23.87,-1614.648 h 253.87 l 91.36,1125.488 h 32.46 L 4915.5,130.332 h 253.87 c 177.29,1109.948 -21.92,1643.848 -21.92,1643.848"
           style="fill:#826467;fill-opacity:1;fill-rule:nonzero;stroke:none"
           id="path72" /><path
           d="m 4678.49,1255.82 h 264.86"
           style="fill:none;stroke:#28262c;stroke-width:12.33310032;stroke-linecap:round;stroke-linejoin:round;stroke-miterlimit:10;stroke-dasharray:none;stroke-opacity:1"
           id="path74" /><path
           d="m 5360.61,2306.59 c -31.23,49.85 -206.65,48.09 -215.91,49.17 -47.42,5.56 30.41,-371.8 129.06,-701.67 18.92,-63.24 88.5,-96.18 149.27,-70.41 0.66,0.28 1.31,0.56 1.97,0.83 48.08,20.37 75.43,71.41 65.76,122.72 -46.92,248.9 -94.04,541.73 -130.15,599.36"
           style="fill:#f79395;fill-opacity:1;fill-rule:nonzero;stroke:none"
           id="path76" /><path
           d="m 5402.42,2170.14 -223.97,-86.91 -21,106.26 231.92,57.85 13.05,-77.2"
           style="fill:#ec767f;fill-opacity:1;fill-rule:nonzero;stroke:none"
           id="path78" /><path
           d="m 5444.72,1957.55 c 0,0 -106.1,-142.49 -101.04,-135.94 5.05,6.55 83.2,230.27 83.2,230.27 l 17.84,-94.33"
           style="fill:#ec767f;fill-opacity:1;fill-rule:nonzero;stroke:none"
           id="path80" /><path
           d="M 5596.42,2149.07 5292.3,1755.04 c -39.93,-51.73 -27.18,-126.53 27.64,-162.12 v 0 c 54.72,-35.52 128.11,-16.85 159.19,40.51 l 253.15,467.05 -135.86,48.59"
           style="fill:#f79395;fill-opacity:1;fill-rule:nonzero;stroke:none"
           id="path82" /><path
           d="m 5675.13,2047.89 c -65.93,21.3 -102.11,92 -80.81,157.94 21.3,65.93 92.01,102.1 157.94,80.81 65.93,-21.3 102.11,-92.01 80.81,-157.94 -21.3,-65.94 -92.01,-102.11 -157.94,-80.81"
           style="fill:#f79395;fill-opacity:1;fill-rule:nonzero;stroke:none"
           id="path84" /><path
           d="m 5805.17,2242.68 c 0,0 34.33,35.64 -26.58,60.62 -60.9,24.98 -136.2,19.25 -184.27,-97.47 l 210.85,36.85"
           style="fill:#f79395;fill-opacity:1;fill-rule:nonzero;stroke:none"
           id="path86" /><path
           d="m 5868.26,2491.69 127.34,-55.21 c 7.08,-3.07 9.66,-11.47 5.75,-18.76 l -167.51,-312.91 c -3.9,-7.28 -12.81,-10.71 -19.89,-7.63 l -127.34,55.2 c -7.09,3.08 -9.66,11.48 -5.77,18.76 l 167.52,312.91 c 3.91,7.29 12.82,10.71 19.9,7.64"
           style="fill:#3b3261;fill-opacity:1;fill-rule:nonzero;stroke:none"
           id="path88" /><path
           d="m 5856.1,2497.23 127.33,-55.21 c 7.09,-3.07 9.67,-11.47 5.76,-18.76 l -167.52,-312.9 c -3.89,-7.29 -12.8,-10.71 -19.89,-7.64 l -127.33,55.21 c -7.09,3.07 -9.67,11.46 -5.76,18.76 l 167.51,312.9 c 3.9,7.29 12.81,10.71 19.9,7.64"
           style="fill:#2d2446;fill-opacity:1;fill-rule:nonzero;stroke:none"
           id="path90" /><path
           d="m 5841.73,2465.39 111.89,-48.5 -136.53,-255.02 -111.88,48.5 136.52,255.02"
           style="fill:#dfdcda;fill-opacity:1;fill-rule:nonzero;stroke:none"
           id="path92" /><path
           d="m 5953.62,2416.89 -248.41,-206.52 136.52,255.02 z"
           style="fill:#ffffff;fill-opacity:1;fill-rule:nonzero;stroke:none"
           id="path94" /><path
           d="m 5742.03,2313.69 c 0,0 28.35,-5.53 53.94,-20.03 11.28,-6.38 17.05,-19.39 13.93,-31.97 v 0 c -2.86,-11.47 -12.46,-19.99 -24.18,-21.47 l -66.2,-8.35 c 0,0 -34.55,-59.54 -79.67,-66.22 l 41.39,104.53 60.79,43.51"
           style="fill:#f79395;fill-opacity:1;fill-rule:nonzero;stroke:none"
           id="path96" /><path
           d="m 4896.59,2802.79 c -7.31,0.05 469.46,-65.97 548.13,-609.55 l -247.4,-37.9 -49.87,-410.36 h -690.17 l -137.02,758.19 c 0,0 152.91,219.14 436.81,299.62 h 139.52"
           style="fill:#62cbcf;fill-opacity:1;fill-rule:nonzero;stroke:none"
           id="path98" /><path
           d="m 5197.32,2155.34 21.47,237.34"
           style="fill:none;stroke:#28262c;stroke-width:12.33310032;stroke-linecap:round;stroke-linejoin:round;stroke-miterlimit:10;stroke-dasharray:none;stroke-opacity:1"
           id="path100" /><path
           d="m 4941.9,2795.02 v 188.81 H 4720.64 V 2792.8 c -11.32,-3.38 -30.18,-10.2 -59.44,-24.1 l 172.56,-102.8 176.43,102.8 c 0,0 -28.01,16.29 -68.29,26.32"
           style="fill:#f79395;fill-opacity:1;fill-rule:nonzero;stroke:none"
           id="path102" /><path
           d="m 4718.59,2960.77 c 0,0 39.73,-105.52 145.81,-96.41 97.5,8.37 81.98,154.6 81.98,154.6 l -227.79,-58.19"
           style="fill:#28262c;fill-opacity:1;fill-rule:nonzero;stroke:none"
           id="path104" /><path
           d="m 4622.09,3101.09 c -34.68,-31.46 -112.23,87.86 -78.72,121.36 33.51,33.49 59.08,-19.06 59.08,-19.06 l 14.96,-35.62 11.28,-48.23 2.68,-12.64 -9.28,-5.81"
           style="fill:#ec767f;fill-opacity:1;fill-rule:nonzero;stroke:none"
           id="path106" /><path
           d="m 4559.56,3180.18 c 0,0 26.25,11.81 49.57,-26.24"
           style="fill:none;stroke:#28262c;stroke-width:9.92837048;stroke-linecap:round;stroke-linejoin:round;stroke-miterlimit:10;stroke-dasharray:none;stroke-opacity:1"
           id="path108" /><path
           d="m 5032.22,3104.71 c 31.9,-34.28 119.26,78.05 88.7,114.26 -30.55,36.22 -60.47,-13.99 -60.47,-13.99 l -17.92,-34.22 -15.33,-47.11 -3.74,-12.36 8.76,-6.58"
           style="fill:#ec767f;fill-opacity:1;fill-rule:nonzero;stroke:none"
           id="path110" /><path
           d="m 5101.21,3178.23 c 0,0 -25.15,13.99 -51.62,-21.96"
           style="fill:none;stroke:#28262c;stroke-width:9.92837048;stroke-linecap:round;stroke-linejoin:round;stroke-miterlimit:10;stroke-dasharray:none;stroke-opacity:1"
           id="path112" /><path
           d="m 4561.26,3336.26 c 0,-157.94 120.42,-232.83 268.97,-232.83 148.54,0 268.95,74.89 268.95,232.83 0,157.95 -120.41,265.4 -268.95,265.4 -148.55,0 -268.97,-107.45 -268.97,-265.4"
           style="fill:#28262c;fill-opacity:1;fill-rule:nonzero;stroke:none"
           id="path114" /><path
           d="m 4597.82,3325.28 c 0,-96.96 13.7,-180.63 27.37,-240.02 13.39,-58.14 51.06,-98.77 104.31,-131.47 l 9.69,-5.96 c 56.34,-34.6 129.12,-35.41 186.32,-2.06 v 0 c 57.69,33.63 98.08,77.97 110.51,140.36 22.61,113.47 25.08,239.15 25.08,239.15 0,0 21.51,244.76 -228.33,240.01 -249.86,-4.76 -234.95,-240.01 -234.95,-240.01"
           style="fill:#f79395;fill-opacity:1;fill-rule:nonzero;stroke:none"
           id="path116" /><path
           d="m 4814.3,3185.59 v -33.87 c 0,-2 0.38,-3.93 1.09,-5.69 2.78,-6.92 10.77,-10.24 17.99,-8.32 l 15.53,4.12"
           style="fill:none;stroke:#28262c;stroke-width:12.31630039;stroke-linecap:round;stroke-linejoin:round;stroke-miterlimit:10;stroke-dasharray:none;stroke-opacity:1"
           id="path118" /><path
           d="m 4774.57,3316.93 -124.17,-29.1 c 0,0 5.65,31.6 56.44,43.09 50.8,11.48 67.73,-13.99 67.73,-13.99"
           style="fill:#28262c;fill-opacity:1;fill-rule:nonzero;stroke:none"
           id="path120" /><path
           d="m 4884.78,3316.93 119.89,-29.1 c 0,0 -5.45,31.6 -54.5,43.09 -49.04,11.48 -65.39,-13.99 -65.39,-13.99"
           style="fill:#28262c;fill-opacity:1;fill-rule:nonzero;stroke:none"
           id="path122" /><path
           d="m 4748.33,3225.72 c 0,-11.53 -9.37,-20.88 -20.93,-20.88 -11.57,0 -20.94,9.35 -20.94,20.88 0,11.54 9.37,20.89 20.94,20.89 11.56,0 20.93,-9.35 20.93,-20.89"
           style="fill:#28262c;fill-opacity:1;fill-rule:nonzero;stroke:none"
           id="path124" /><path
           d="m 4946.86,3225.72 c 0,-11.53 -9.38,-20.88 -20.94,-20.88 -11.57,0 -20.95,9.35 -20.95,20.88 0,11.54 9.38,20.89 20.95,20.89 11.56,0 20.94,-9.35 20.94,-20.89"
           style="fill:#28262c;fill-opacity:1;fill-rule:nonzero;stroke:none"
           id="path126" /><path
           d="m 4748.33,3098.29 h 161.49 c 0,0 -71.57,-87.07 -161.49,0"
           style="fill:#ffffff;fill-opacity:1;fill-rule:nonzero;stroke:none"
           id="path128" /><path
           d="m 4807.63,3217.61 c 0,-49.18 -39.86,-89.05 -89.04,-89.05 -49.18,0 -89.05,39.87 -89.05,89.05 0,49.18 39.87,89.05 89.05,89.05 49.18,0 89.04,-39.87 89.04,-89.05 z"
           style="fill:none;stroke:#af61b7;stroke-width:13.42300034;stroke-linecap:butt;stroke-linejoin:miter;stroke-miterlimit:10;stroke-dasharray:none;stroke-opacity:1"
           id="path130" /><path
           d="m 5026.39,3217.61 c 0,-49.18 -39.86,-89.05 -89.04,-89.05 -49.18,0 -89.06,39.87 -89.06,89.05 0,49.18 39.88,89.05 89.06,89.05 49.18,0 89.04,-39.87 89.04,-89.05 z"
           style="fill:none;stroke:#af61b7;stroke-width:13.42300034;stroke-linecap:butt;stroke-linejoin:miter;stroke-miterlimit:10;stroke-dasharray:none;stroke-opacity:1"
           id="path132" /><path
           d="m 4807.63,3217.61 c 0,0 21.09,19.69 40.66,0"
           style="fill:none;stroke:#af61b7;stroke-width:13.42300034;stroke-linecap:butt;stroke-linejoin:miter;stroke-miterlimit:10;stroke-dasharray:none;stroke-opacity:1"
           id="path134" /><path
           d="m 4629.54,3217.61 -28.05,0.71"
           style="fill:none;stroke:#af61b7;stroke-width:13.42300034;stroke-linecap:butt;stroke-linejoin:miter;stroke-miterlimit:10;stroke-dasharray:none;stroke-opacity:1"
           id="path136" /><path
           d="m 5026.39,3217.61 28.22,0.71"
           style="fill:none;stroke:#af61b7;stroke-width:13.42300034;stroke-linecap:butt;stroke-linejoin:miter;stroke-miterlimit:10;stroke-dasharray:none;stroke-opacity:1"
           id="path138" /><path
           d="m 5057.88,3244.13 c 0,0 -99.89,135.04 -76.84,271.85 0,0 74.14,-37.31 93.45,-133.61 19.31,-96.31 -16.61,-138.24 -16.61,-138.24"
           style="fill:#28262c;fill-opacity:1;fill-rule:nonzero;stroke:none"
           id="path140" /><path
           d="m 4597.65,3234.98 c 0,0 116.05,153.38 93,290.19 0,0 -80.49,-46.5 -99.8,-142.8 -19.3,-96.31 6.8,-147.39 6.8,-147.39"
           style="fill:#28262c;fill-opacity:1;fill-rule:nonzero;stroke:none"
           id="path142" /><path
           d="m 5049.51,3462.1 c 0,0 -128.27,-140.42 -479.2,-116.38 0,0 53.74,206.05 223.81,228 0,0 196.37,23.45 255.39,-111.62"
           style="fill:#28262c;fill-opacity:1;fill-rule:nonzero;stroke:none"
           id="path144" /><path
           d="m 5208.06,3626.26 c 0,-92.54 -75.02,-167.56 -167.56,-167.56 -92.54,0 -167.56,75.02 -167.56,167.56 0,92.53 75.02,167.55 167.56,167.55 92.54,0 167.56,-75.02 167.56,-167.55"
           style="fill:#28262c;fill-opacity:1;fill-rule:nonzero;stroke:none"
           id="path146" /><path
           d="m 2995.06,1774.56 -312.08,41.56 2.85,36.24 -365.02,-48.6 c 0,0 -199.21,-533.89 -21.92,-1643.85 h 253.87 l 88.49,1125.49 h 32.45 l 91.37,-1125.49 h 253.86 c 177.3,1109.96 -23.87,1614.65 -23.87,1614.65"
           style="fill:#28262c;fill-opacity:1;fill-rule:nonzero;stroke:none"
           id="path148" /><path
           d="m 2970.17,3293 c -42.24,49.7 -76.06,107.66 -104.8,189.01 -30.86,87.33 -131.89,51.83 -131.89,51.83 0,0 -84.19,108.31 -210.88,70.58 -126.69,-37.72 -170.71,-127.87 -173.29,-235.05 -2.59,-107.19 -86.89,-123.95 -151.81,-247.94 -114.61,-218.9 78.35,-403.28 429.59,-352.13 l 0.47,3.41 c 34.59,-10.5 76.98,-15.09 128.73,-12.02 421.96,25.06 381.24,335.42 213.88,532.31"
           style="fill:#28262c;fill-opacity:1;fill-rule:nonzero;stroke:none"
           id="path150" /><path
           d="m 2832.03,3130.67 c 34.68,-31.45 112.22,87.86 78.71,121.36 -33.5,33.5 -59.07,-19.06 -59.07,-19.06 l -14.96,-35.61 -11.29,-48.24 -2.68,-12.63 9.29,-5.82"
           style="fill:#ec767f;fill-opacity:1;fill-rule:nonzero;stroke:none"
           id="path152" /><path
           d="m 2894.55,3209.77 c 0,0 -26.25,11.8 -49.58,-26.25"
           style="fill:none;stroke:#28262c;stroke-width:9.92837048;stroke-linecap:round;stroke-linejoin:round;stroke-miterlimit:10;stroke-dasharray:none;stroke-opacity:1"
           id="path154" /><path
           d="m 2421.89,3134.29 c -31.9,-34.28 -119.26,78.05 -88.7,114.26 30.56,36.22 60.47,-13.98 60.47,-13.98 l 17.92,-34.23 15.33,-47.11 3.74,-12.36 -8.76,-6.58"
           style="fill:#ec767f;fill-opacity:1;fill-rule:nonzero;stroke:none"
           id="path156" /><path
           d="m 2352.9,3207.81 c 0,0 25.16,13.99 51.62,-21.96"
           style="fill:none;stroke:#28262c;stroke-width:9.92837048;stroke-linecap:round;stroke-linejoin:round;stroke-miterlimit:10;stroke-dasharray:none;stroke-opacity:1"
           id="path158" /><path
           d="m 2892.85,3365.85 c 0,-157.94 -120.42,-232.84 -268.96,-232.84 -148.54,0 -268.96,74.9 -268.96,232.84 0,157.94 120.42,265.39 268.96,265.39 148.54,0 268.96,-107.45 268.96,-265.39"
           style="fill:#28262c;fill-opacity:1;fill-rule:nonzero;stroke:none"
           id="path160" /><path
           d="m 2733.48,2726.9 h -221.26 v 286.51 h 221.26 V 2726.9"
           style="fill:#f79395;fill-opacity:1;fill-rule:nonzero;stroke:none"
           id="path162" /><path
           d="m 2479.93,3031.28 c 0,0 61.59,-122.92 137.36,-142.11 20.24,-5.13 41.86,-3.37 61.38,3.54 28.52,10.12 64.68,52.64 70.83,99.68 l 2.85,26.88 c 0,0 -134.83,-73.41 -272.42,12.01"
           style="fill:#28262c;fill-opacity:1;fill-rule:nonzero;stroke:none"
           id="path164" /><path
           d="m 2856.29,3354.86 c 0,-96.96 -13.69,-180.63 -27.37,-240.01 -13.39,-58.14 -51.06,-98.77 -104.31,-131.48 l -9.69,-5.95 c -56.34,-34.61 -129.12,-35.41 -186.32,-2.07 v 0 c -57.69,33.63 -98.08,77.98 -110.51,140.36 -22.61,113.47 -25.08,239.15 -25.08,239.15 0,0 -21.51,244.77 228.34,240.01 249.85,-4.75 234.94,-240.01 234.94,-240.01"
           style="fill:#f79395;fill-opacity:1;fill-rule:nonzero;stroke:none"
           id="path166" /><path
           d="m 2607.2,3201.92 v -20.12 c 0,-2 0.39,-3.92 1.09,-5.68 2.78,-6.9 10.77,-10.2 17.99,-8.29 l 15.54,4.1"
           style="fill:none;stroke:#28262c;stroke-width:12.29759979;stroke-linecap:round;stroke-linejoin:round;stroke-miterlimit:10;stroke-dasharray:none;stroke-opacity:1"
           id="path168" /><path
           d="m 2659.26,3334.6 132.92,-31.46 c 0,0 -6.04,34.16 -60.42,46.58 -54.38,12.41 -72.5,-15.12 -72.5,-15.12"
           style="fill:#28262c;fill-opacity:1;fill-rule:nonzero;stroke:none"
           id="path170" /><path
           d="m 2589.47,3334.6 -134.64,-31.46 c 0,0 6.12,34.16 61.2,46.58 55.08,12.41 73.44,-15.12 73.44,-15.12"
           style="fill:#28262c;fill-opacity:1;fill-rule:nonzero;stroke:none"
           id="path172" /><path
           d="m 2541.24,3252.09 c 0,-11.49 -9.38,-20.82 -20.94,-20.82 -11.57,0 -20.95,9.33 -20.95,20.82 0,11.5 9.38,20.83 20.95,20.83 11.56,0 20.94,-9.33 20.94,-20.83"
           style="fill:#28262c;fill-opacity:1;fill-rule:nonzero;stroke:none"
           id="path174" /><path
           d="m 2739.76,3252.09 c 0,-11.49 -9.38,-20.82 -20.94,-20.82 -11.57,0 -20.94,9.33 -20.94,20.82 0,11.5 9.37,20.83 20.94,20.83 11.56,0 20.94,-9.33 20.94,-20.83"
           style="fill:#28262c;fill-opacity:1;fill-rule:nonzero;stroke:none"
           id="path176" /><path
           d="m 2527.41,3133.01 h 183.79 c 0,0 -12.97,-50.5 -96.31,-50.5 -63.47,0 -87.48,50.5 -87.48,50.5"
           style="fill:#ffffff;fill-opacity:1;fill-rule:nonzero;stroke:none"
           id="path178" /><path
           d="m 2396.22,3273.71 c 0,0 99.9,135.05 76.86,271.86 0,0 -74.15,-37.31 -93.46,-133.62 -19.3,-96.3 16.6,-138.24 16.6,-138.24"
           style="fill:#28262c;fill-opacity:1;fill-rule:nonzero;stroke:none"
           id="path180" /><path
           d="m 2856.46,3278.21 c 0,0 -116.04,139.73 -92.99,276.54 0,0 80.48,-46.49 99.79,-142.8 19.31,-96.3 -6.8,-133.74 -6.8,-133.74"
           style="fill:#28262c;fill-opacity:1;fill-rule:nonzero;stroke:none"
           id="path182" /><path
           d="m 2404.6,3491.68 c 0,0 114.63,-154.06 465.56,-130.02 0,0 -40.09,219.7 -210.17,241.64 0,0 -196.37,23.45 -255.39,-111.62"
           style="fill:#28262c;fill-opacity:1;fill-rule:nonzero;stroke:none"
           id="path184" /><path
           d="m 2084.71,1096.87 c -5.11,-8.02 292.08,1293.05 203.85,1273.38 -8.05,-1.78 -162.58,-16.14 -185.55,-62.84 -66.57,-135.36 -114.32,-1200.66 -114.32,-1200.66 l 96.02,-9.88"
           style="fill:#f79395;fill-opacity:1;fill-rule:nonzero;stroke:none"
           id="path186" /><path
           d="m 1988.69,1106.75 c 0,0 -47.9,-222.258 133.18,-246.551 11.93,-1.609 23.46,5.442 27.39,16.821 l 0.52,1.511 c 4.33,12.551 -1.96,26.02 -14.09,31.438 -29.52,13.203 -75.31,46.551 -52.6,122.301 0,0 26.18,3.21 40.62,-45.622 3.72,-12.558 17.82,-18.867 29.52,-12.976 v 0 c 7.98,4.027 12.48,12.617 11.35,21.488 -4.34,34.2 -21.54,116.51 -87.54,138.6 l -88.35,-27.01"
           style="fill:#f79395;fill-opacity:1;fill-rule:nonzero;stroke:none"
           id="path188" /><path
           d="m 2049.62,1994.79 c 0,0 171.23,-241.14 172.14,-236.47 0.9,4.66 59.87,338.56 59.87,338.56 l -207.77,90 -24.24,-192.09"
           style="fill:#ec767f;fill-opacity:1;fill-rule:nonzero;stroke:none"
           id="path190" /><path
           d="m 2525.39,2774.07 c 7.3,0.04 -423.18,-7.67 -501.86,-551.24 l 247.4,-37.91 49.88,-410.36 h 690.17 l 137.01,758.2 c 0,0 -97.4,164.27 -381.32,244.75 l -241.28,-3.44"
           style="fill:#30867a;fill-opacity:1;fill-rule:nonzero;stroke:none"
           id="path192" /><path
           d="m 2314.98,2708.36 c 0,0 60.83,-80.76 310.1,-80.76 246.96,0 310.11,84.99 310.11,84.99 0,0 -145.58,81.34 -314.51,107.65 0,0 -150.85,-26.87 -305.7,-111.88"
           style="fill:#f79395;fill-opacity:1;fill-rule:nonzero;stroke:none"
           id="path194" /><path
           d="m 3161.96,986.332 0.59,-1084.0508 h 536.29 l 41.21,1084.0508 h -578.09"
           style="fill:#315384;fill-opacity:1;fill-rule:nonzero;stroke:none"
           id="path196" /><path
           d="M 4326.37,986.332 4325.79,-97.7188 H 3789.5 L 3748.28,986.332 h 578.09"
           style="fill:#315384;fill-opacity:1;fill-rule:nonzero;stroke:none"
           id="path198" /><path
           d="m 4033.48,609.719 h -554.5 v 376.613 h 554.5 V 609.719"
           style="fill:#315384;fill-opacity:1;fill-rule:nonzero;stroke:none"
           id="path200" /><path
           d="m 4665.17,1932.37 c 33.25,-367.34 -1.83,-634.99 7.87,-1310.909 l -320.08,-13.41 -47.69,1265.219 359.9,59.1"
           style="fill:#f79395;fill-opacity:1;fill-rule:nonzero;stroke:none"
           id="path202" /><path
           d="m 4344.74,1645.72 c 0,0 198.22,18.15 333.74,107.54 l -3.57,78.67 -330.28,-44.99 0.11,-141.22"
           style="fill:#ec767f;fill-opacity:1;fill-rule:nonzero;stroke:none"
           id="path204" /><path
           d="m 4026.75,2778.12 c 0,0 629.6,-158.33 743.67,-957.48 0,0 -308.14,-133.59 -616.94,-76.13 l 69.47,267.29 -196.2,766.32"
           style="fill:#af61b7;fill-opacity:1;fill-rule:nonzero;stroke:none"
           id="path206" /><path
           d="m 2146.15,2445.83 468.78,-553.61 -143.45,-403.99 c 0,0 -356.3,495.37 -516.4,878.26 l 191.07,79.34"
           style="fill:#f79395;fill-opacity:1;fill-rule:nonzero;stroke:none"
           id="path208" /><path
           d="m 2161.56,2425.85 c 0,0 -164.61,-93 -206.48,-59.36 -73.17,58.79 -133.64,273.99 -133.64,273.99 0,0 307.83,116.05 304.94,111.52 -2.9,-4.54 35.18,-326.15 35.18,-326.15"
           style="fill:#f79395;fill-opacity:1;fill-rule:nonzero;stroke:none"
           id="path210" /><path
           d="m 2161.56,2425.85 c -2.91,16.57 61.04,195.35 82.97,262.39 5.28,16.17 -5.86,33.9 -23.42,37.26 v 0 c -11.42,2.19 -29.52,0.78 -38.07,-15.61 l -77.22,-131.96 55.74,-152.08"
           style="fill:#f79395;fill-opacity:1;fill-rule:nonzero;stroke:none"
           id="path212" /><path
           d="m 2155.92,2619.12 -53.01,263.73 c -3.15,17.55 -20.78,29.64 -38.37,26.32 v 0 c -15.23,-2.88 -25.27,-16.45 -23.48,-31.71 l 23.11,-196.38 91.75,-61.96"
           style="fill:#f79395;fill-opacity:1;fill-rule:nonzero;stroke:none"
           id="path214" /><path
           d="m 2050.5,2716.39 -71.99,188.33 c -5.95,16.49 -24.51,25.63 -40.89,20.14 v 0 c -14.21,-4.76 -22.19,-19.08 -18.82,-33.78 l 53.42,-217.62 78.28,42.93"
           style="fill:#f79395;fill-opacity:1;fill-rule:nonzero;stroke:none"
           id="path216" /><path
           d="m 1973.14,2660.86 -91.08,185.05 c -8.36,17.18 -29.16,25.15 -46.23,17.72 v 0 c -16.04,-6.97 -23.14,-25.14 -16.27,-41.65 l 72.61,-174.7 80.97,13.58"
           style="fill:#f79395;fill-opacity:1;fill-rule:nonzero;stroke:none"
           id="path218" /><path
           d="m 1821.44,2640.48 -71.47,113.37 c -5.91,13.33 -0.45,28.29 12.5,34.2 v 0 c 12.39,5.66 27.7,1.21 35.71,-10.39 l 93.99,-130.38 -70.73,-6.8"
           style="fill:#f79395;fill-opacity:1;fill-rule:nonzero;stroke:none"
           id="path220" /><path
           d="m 2141.51,2638.93 c 0,0 -107.33,11.26 -118.35,-131.78"
           style="fill:none;stroke:#28262c;stroke-width:15.31729984;stroke-linecap:round;stroke-linejoin:round;stroke-miterlimit:10;stroke-dasharray:none;stroke-opacity:1"
           id="path222" /><path
           d="m 2376.41,1677.19 c 0,0 88.16,-305.14 263.86,-264.57 175.7,40.56 449.53,415.82 449.53,415.82 l -61.29,640.74 -493.13,-606.93 -158.97,-185.06"
           style="fill:#f79395;fill-opacity:1;fill-rule:nonzero;stroke:none"
           id="path224" /><path
           d="m 2688.33,2050.77 c 0,0 166.49,-251.12 308.51,-339.68 l 92.96,117.35 -358.61,277.41 -42.86,-55.08"
           style="fill:#ec767f;fill-opacity:1;fill-rule:nonzero;stroke:none"
           id="path226" /><path
           d="m 3416.75,2791.97 c 0,0 -488.81,-110.17 -749.29,-678.26 0,0 157.39,-237.14 409.69,-342.54 l 168.92,206.95 170.68,813.85"
           style="fill:#af61b7;fill-opacity:1;fill-rule:nonzero;stroke:none"
           id="path228" /><path
           d="M 3416.75,2793.73 C 3225.8,2695.79 3105.77,2565.9 3105.77,2565.9 l 37.67,-1660.599 h 1203.27 l -3.89,1652.029 c 0,0 -151.68,148.43 -316.07,220.79 -139.62,61.46 -474.27,85.23 -610,15.61"
           style="fill:#af61b7;fill-opacity:1;fill-rule:nonzero;stroke:none"
           id="path230" /><path
           d="m 3986.12,1984.56 v 0 c -92.43,0 -167.37,74.93 -167.37,167.36 v 167.37 h 334.73 v -167.37 c 0,-92.43 -74.93,-167.36 -167.36,-167.36 z"
           style="fill:none;stroke:#28262c;stroke-width:13.96809959;stroke-linecap:round;stroke-linejoin:round;stroke-miterlimit:10;stroke-dasharray:none;stroke-opacity:1"
           id="path232" /><path
           d="m 4344.74,1738.34 15.62,543.23"
           style="fill:none;stroke:#28262c;stroke-width:13.96809959;stroke-linecap:round;stroke-linejoin:round;stroke-miterlimit:10;stroke-dasharray:none;stroke-opacity:1"
           id="path234" /><path
           d="m 3124.26,1828.88 -26,470.89"
           style="fill:none;stroke:#28262c;stroke-width:13.96809959;stroke-linecap:round;stroke-linejoin:round;stroke-miterlimit:10;stroke-dasharray:none;stroke-opacity:1"
           id="path236" /><path
           d="m 3430.84,3400.26 -50.15,248.15 c -2.82,20.21 -10.67,51.4 -1.06,80.71 15.88,48.49 74.27,141.61 174.07,98.98 l 21.57,-98.25 c 0,0 -103.64,-20.92 -145.21,-156.5 l 0.78,-173.09"
           style="fill:#28262c;fill-opacity:1;fill-rule:nonzero;stroke:none"
           id="path238" /><path
           d="m 3546.35,3776.88 c -1.81,-32.61 -30.59,-175.27 -131.77,-227.25 0,0 -88.62,190.06 131.77,227.25"
           style="fill:#28262c;fill-opacity:1;fill-rule:nonzero;stroke:none"
           id="path240" /><path
           d="m 3901.28,2839.42 v 0 421.37 h -388.44 v -421.37 l -115.63,-52.71 c 0,0 27.12,-174.64 313.93,-178.51 286.8,-3.87 315.61,169.92 315.61,169.92 l -125.47,61.3"
           style="fill:#f79395;fill-opacity:1;fill-rule:nonzero;stroke:none"
           id="path242" /><path
           d="m 3553.7,3828.1 c 0,0 71.29,188.06 291.12,88.08 133.06,-60.51 170.32,-141.65 186.17,-199.13 5.27,-19.11 7.37,-49.19 5.94,-67.05 l -53.18,-249.74 -207.59,345.52 -200.89,-15.93 -21.57,98.25"
           style="fill:#28262c;fill-opacity:1;fill-rule:nonzero;stroke:none"
           id="path244" /><path
           d="m 3983.75,3400.26 c 0,0 26.2,41.65 80.21,21.17 54.01,-20.49 29.58,-151.66 -51.45,-168.38 0,0 -29.04,-6.34 -51.81,13.55 0,0 19.92,96.89 23.05,133.66"
           style="fill:#ec767f;fill-opacity:1;fill-rule:nonzero;stroke:none"
           id="path246" /><path
           d="m 4053.25,3375.15 c 0,0 -45.25,15.1 -77.37,-51.53"
           style="fill:none;stroke:#28262c;stroke-width:13.96809959;stroke-linecap:round;stroke-linejoin:round;stroke-miterlimit:10;stroke-dasharray:none;stroke-opacity:1"
           id="path248" /><path
           d="m 3430.84,3400.26 c 0,0 -26.18,41.65 -80.2,21.17 -54.01,-20.49 -29.58,-151.66 51.44,-168.38 0,0 29.05,-6.34 51.82,13.55 0,0 -19.92,96.89 -23.06,133.66"
           style="fill:#ec767f;fill-opacity:1;fill-rule:nonzero;stroke:none"
           id="path250" /><path
           d="m 3361.36,3375.15 c 0,0 45.24,15.1 77.35,-51.53"
           style="fill:none;stroke:#28262c;stroke-width:13.96809959;stroke-linecap:round;stroke-linejoin:round;stroke-miterlimit:10;stroke-dasharray:none;stroke-opacity:1"
           id="path252" /><path
           d="m 3989.16,3524.74 c 0.03,-79.08 -7.73,-244.53 -56.34,-342.72 -45.65,-92.2 -121.15,-141.81 -220.12,-144.77 -98.98,-2.95 -172.71,35.19 -231.8,154.85 -59.09,119.66 -56.26,331.17 -56.26,331.17 0,0 0,282.49 279.19,282.49 294.06,0 285.33,-281.02 285.33,-281.02"
           style="fill:#f79395;fill-opacity:1;fill-rule:nonzero;stroke:none"
           id="path254" /><path
           d="m 3515.76,3133.13 c 0,0 32.53,-165.06 176.17,-184.02 165.32,-21.82 209.35,179.82 209.35,179.82 0,0 -73.05,-91.54 -188.58,-91.68 -128.85,-0.16 -196.94,95.88 -196.94,95.88"
           style="fill:#28262c;fill-opacity:1;fill-rule:nonzero;stroke:none"
           id="path256" /><path
           d="m 3686.99,3407.46 v -65.38 c 0,-2.81 0.54,-5.5 1.52,-7.96 3.88,-9.69 15.02,-14.33 25.1,-11.65 l 21.67,5.77"
           style="fill:none;stroke:#28262c;stroke-width:13.96809959;stroke-linecap:round;stroke-linejoin:round;stroke-miterlimit:10;stroke-dasharray:none;stroke-opacity:1"
           id="path258" /><path
           d="m 3604.53,3438.68 c 0,-14.04 -11.38,-25.42 -25.41,-25.42 -14.04,0 -25.42,11.38 -25.42,25.42 0,14.03 11.38,25.42 25.42,25.42 14.03,0 25.41,-11.39 25.41,-25.42"
           style="fill:#28262c;fill-opacity:1;fill-rule:nonzero;stroke:none"
           id="path260" /><path
           d="m 3842.84,3438.68 c 0,-14.04 -11.39,-25.42 -25.42,-25.42 -14.04,0 -25.42,11.38 -25.42,25.42 0,14.03 11.38,25.42 25.42,25.42 14.03,0 25.42,-11.39 25.42,-25.42"
           style="fill:#28262c;fill-opacity:1;fill-rule:nonzero;stroke:none"
           id="path262" /><path
           d="m 3752.36,3565.13 170.89,-44.15 c 0,0 -7.77,47.94 -77.68,65.35 -69.91,17.42 -93.21,-21.2 -93.21,-21.2"
           style="fill:#28262c;fill-opacity:1;fill-rule:nonzero;stroke:none"
           id="path264" /><path
           d="m 3646.17,3565.13 -170.89,-44.15 c 0,0 7.77,47.94 77.67,65.35 69.92,17.42 93.22,-21.2 93.22,-21.2"
           style="fill:#28262c;fill-opacity:1;fill-rule:nonzero;stroke:none"
           id="path266" /><path
           d="m 3612.18,3276.21 c 0,0 25.21,-19.32 91.5,-19.32 60.29,0 97.95,19.32 97.95,19.32"
           style="fill:none;stroke:#28262c;stroke-width:13.96809959;stroke-linecap:round;stroke-linejoin:round;stroke-miterlimit:10;stroke-dasharray:none;stroke-opacity:1"
           id="path268" /><path
           d="m 3680.28,3431.26 c 0,-59.65 -48.36,-108.01 -108.01,-108.01 -59.64,0 -108,48.36 -108,108.01 0,59.64 48.36,108 108,108 59.65,0 108.01,-48.36 108.01,-108 z"
           style="fill:none;stroke:#ffffff;stroke-width:19.51429939;stroke-linecap:butt;stroke-linejoin:miter;stroke-miterlimit:10;stroke-dasharray:none;stroke-opacity:1"
           id="path270" /><path
           d="m 3945.6,3431.26 c 0,-59.65 -48.35,-108.01 -108,-108.01 -59.65,0 -108.01,48.36 -108.01,108.01 0,59.64 48.36,108 108.01,108 59.65,0 108,-48.36 108,-108 z"
           style="fill:none;stroke:#ffffff;stroke-width:19.51429939;stroke-linecap:butt;stroke-linejoin:miter;stroke-miterlimit:10;stroke-dasharray:none;stroke-opacity:1"
           id="path272" /><path
           d="m 3680.28,3431.26 c 0,0 25.58,23.87 49.31,0"
           style="fill:none;stroke:#ffffff;stroke-width:19.51429939;stroke-linecap:butt;stroke-linejoin:miter;stroke-miterlimit:10;stroke-dasharray:none;stroke-opacity:1"
           id="path274" /><path
           d="m 3464.27,3431.26 -36.21,0.91"
           style="fill:none;stroke:#ffffff;stroke-width:19.51429939;stroke-linecap:butt;stroke-linejoin:miter;stroke-miterlimit:10;stroke-dasharray:none;stroke-opacity:1"
           id="path276" /><path
           d="m 3945.6,3431.26 40.43,0.65"
           style="fill:none;stroke:#ffffff;stroke-width:19.51429939;stroke-linecap:butt;stroke-linejoin:miter;stroke-miterlimit:10;stroke-dasharray:none;stroke-opacity:1"
           id="path278" /><path
           d="m 3515.76,3770.42 c 0,0 51.87,-147.35 285.9,-142.83 159.04,3.07 197.04,-112.01 197.04,-112.01 0,0 -27.68,257.27 -34.96,254.84 -7.27,-2.42 -241.99,62.63 -241.99,62.63 l -205.99,-62.63"
           style="fill:#28262c;fill-opacity:1;fill-rule:nonzero;stroke:none"
           id="path280" /></g></g></g></svg>